<svg xmlns="http://www.w3.org/2000/svg" width="451.53" height="21.85" viewBox="0 0 451.53 21.85">
  <defs>
    <style>
      .cls-1 {
        fill-rule: evenodd;
      }
    </style>
  </defs>
  <path id="ttl_Second002.svg" class="cls-1" d="M1102.96,3836.08v-4.66h3.26l0.29-.48a14.615,14.615,0,0,0-1.34-1.51l-1.01,1.39h-1.2v-3.62h3.62l0.29-.48a9.529,9.529,0,0,0-1.32-1.51l-0.96,1.39h-1.63v-3.63h3.19l0.29-.48c-0.41-.52-0.82-1.05-1.25-1.53l-0.98,1.41h-1.25v-2.83a1.322,1.322,0,0,0,.94-0.65c0-.33-0.77-0.52-2.26-0.55v4.03h-3.36l0.26,0.6h3.1v3.63h-4.22l0.26,0.6h3.96v7.7a7.767,7.767,0,0,1-1.63-3.33,4.383,4.383,0,0,0,.02-0.58c0.03-.48.03-0.79,0.03-0.94a1.07,1.07,0,0,0,.88-0.47c0-.32-0.74-0.56-2.18-0.75-0.07,4.49-.77,7.99-2.06,10.51l0.5,0.36a14.688,14.688,0,0,0,2.62-6.6,6.83,6.83,0,0,0,3.12,4.25c1.94,1.15,5.3,1.73,10.05,1.73h5.21a4.756,4.756,0,0,1,.84-1.61c-2.52.15-4.73,0.24-6.6,0.24C1107.81,3837.71,1104.64,3837.16,1102.96,3836.08Zm12.51-8.47a24.977,24.977,0,0,0-2.55-2.38l-0.38.46a18.734,18.734,0,0,1,2.61,3.17,23.384,23.384,0,0,1-2.78,6.64l0.5,0.39a17.767,17.767,0,0,0,3.12-5.69,13.224,13.224,0,0,1,1.08,2.4c0.22,0.74.48,1.1,0.8,1.1a0.739,0.739,0,0,0,.74-0.91c0-.86-0.72-2.23-2.21-4.08a26.131,26.131,0,0,0,.91-5.57l0.58-.36a0.366,0.366,0,0,0,.19-0.26,4.859,4.859,0,0,0-1.37-1.49l-0.86,1.06h-3.24l0.24,0.6h3.14A25.17,25.17,0,0,1,1115.47,3827.61Zm-3.32-7.4h2.14l0.22-.45a13.859,13.859,0,0,0-1.13-1.32l-0.27-.27-1.03,1.44h-7.06l0.24,0.6h1.83v12.27c-0.67.14-1.37,0.29-2.07,0.38,0.44,1.35.75,2.02,1.01,2.02a0.991,0.991,0,0,0,.39-0.91,32.257,32.257,0,0,0,4.44-1.83v4.32h1.29v-16.25Zm-3.81,3.2v-3.2h2.52v3.2h-2.52Zm2.52,0.6v3.48h-2.52v-3.48h2.52Zm0,4.08v3.33c-1.03.34-1.87,0.6-2.52,0.77v-4.1h2.52Zm12.38-6.51-0.32-.17a12.815,12.815,0,0,0-1.22-.57v15.22h1.34v-2.76h3.1v1.68h1.34v-12.41l0.58-.39a0.393,0.393,0,0,0,.19-0.29,4.224,4.224,0,0,0-1.41-1.48l-0.92,1.17h-2.68Zm-0.2.6h3.1v10.52h-3.1v-10.52Zm12.12,7.59a22.035,22.035,0,0,0,6.51,7.99,5.311,5.311,0,0,1,1.2-1.3,21.365,21.365,0,0,1-7.47-7.53h6.77l0.27-.46c-0.36-.43-0.89-1.01-1.63-1.75l-1.18,1.61h-4.47v-4.25h5.4l0.29-.46a17.636,17.636,0,0,0-1.49-1.63l-1.12,1.49h-3.08v-3.84a1.564,1.564,0,0,0,.99-0.67c0-.36-0.79-0.56-2.4-0.6v5.11h-5.14l0.22,0.6h4.92v4.25h-5.91l0.24,0.6h5.14a24.125,24.125,0,0,1-7.08,9.09l0.41,0.48a20.406,20.406,0,0,0,7.2-7.63v8.86h1.41v-9.96Zm15.09-2.36c-0.17-.12-0.39.12-0.53,0.44-0.53,1.1-.75,1.39-1.08,2.11a23.474,23.474,0,0,0-.96,2.52c-0.07.24-.39,0.31-0.39-0.14a15.031,15.031,0,0,1,.36-3.48c0.36-1.37.8-2.6,1.01-3.32a3.565,3.565,0,0,0,.03-2.28,4.323,4.323,0,0,0-.94-1.46,0.692,0.692,0,0,0-.94-0.19,0.679,0.679,0,0,0,.17.86,2.967,2.967,0,0,1,.48,1.92,15.534,15.534,0,0,1-.43,3.05,25.581,25.581,0,0,0-.62,3.19,18.311,18.311,0,0,0-.12,3.36,8.147,8.147,0,0,0,.64,3.12,1,1,0,0,0,1.16.75c0.4-.08.48-0.82,0.31-1.4a5.374,5.374,0,0,1,.02-2.78c0.34-1.15.77-2.69,1.06-3.43,0.29-.77.65-1.9,0.77-2.21A0.552,0.552,0,0,0,1150.25,3827.41Zm12.67,8.21a5.514,5.514,0,0,0-2.35-1.44c-0.32-.12-0.65-0.24-0.99-0.33,0-.58,0-1.18-0.02-1.75-0.1-1.35-.12-2.84-0.17-3.7-0.02-.39.02-1.03,0.05-1.71a6.081,6.081,0,0,0,2.61-.74,0.98,0.98,0,0,0,.44-1.34,4.851,4.851,0,0,0-1.42-.41,5.522,5.522,0,0,1-1.32-.53,5.4,5.4,0,0,0-.05-2.18,2.143,2.143,0,0,0-1.34-1.42c-0.58-.22-0.89-0.19-1.01.02a0.734,0.734,0,0,0,.29.92,1.971,1.971,0,0,1,.5,1.39,18.735,18.735,0,0,1,.17,2.69,3.409,3.409,0,0,1,0,.64,8.012,8.012,0,0,1-2.35-.21,3.631,3.631,0,0,1-1.25-.51,1.052,1.052,0,0,0-.89-0.38,0.958,0.958,0,0,0,.39,1.06,4.145,4.145,0,0,0,1.84.96,7.53,7.53,0,0,0,2.24.16c0,0.58-.03,1.2-0.03,1.76,0,1.2.03,2.23,0.05,3.12,0,0.55.02,1.22,0.02,1.85a13.339,13.339,0,0,0-1.34-.22,7.1,7.1,0,0,0-3.12.34,2.162,2.162,0,0,0-1.54,1.8,2.076,2.076,0,0,0,1.4,2.04,6,6,0,0,0,3.69.36,2.567,2.567,0,0,0,2.09-2.19c0-.14.02-0.33,0.02-0.57,0.32,0.19.63,0.38,0.89,0.57,0.7,0.53,1.49,1.18,1.83,1.51a0.684,0.684,0,0,0,1.05.05A1.566,1.566,0,0,0,1162.92,3835.62Zm-2.28-10.7c0.17,0.12.17,0.29-.1,0.36-0.26.09-.6,0.19-1.01,0.29,0.05-.36.08-0.68,0.1-0.94,0.02-.17.05-0.34,0.07-0.5C1160.06,3824.46,1160.49,3824.8,1160.64,3824.92Zm-2.33,9.6a2.412,2.412,0,0,1-1.1,2.06,3.053,3.053,0,0,1-2.48.32c-1.12-.22-1.56-0.68-1.48-1.47a1.771,1.771,0,0,1,1.72-1.32,6.585,6.585,0,0,1,2.93.24c0.15,0.05.29,0.1,0.41,0.15v0.02Zm14.28-9.51h2.84l0.26-.48-0.24-.28c-0.22-.24-0.58-0.6-1.08-1.11l-1.06,1.27h-3.62a20.1,20.1,0,0,0,2.74-4.56,10.493,10.493,0,0,1,3.12,3.68,1.087,1.087,0,0,0,.86.74,0.682,0.682,0,0,0,.7-0.84,2.53,2.53,0,0,0-.87-1.63,10.863,10.863,0,0,0-3.55-2.5v-0.02c0.7-.07,1.06-0.19,1.06-0.39,0-.31-0.77-0.57-2.33-0.81a20.863,20.863,0,0,1-4.63,8.42l0.38,0.41a18.821,18.821,0,0,0,1.99-1.9h2.09v3.36h-3.84l0.24,0.6h3.6v7.42c-0.89.24-2.23,0.55-4.06,0.91,0.41,1.32.77,1.97,1.11,1.97,0.19,0,.33-0.29.41-0.86a62.923,62.923,0,0,0,8.49-3.15l-0.14-.67q-2.085.765-4.47,1.44v-7.06h4.16l0.26-.47a0.8,0.8,0,0,1-.1-0.13,0.335,0.335,0,0,0-.09-0.14,16.6,16.6,0,0,0,3.02-4.8h6.22v1.63c-0.02,5.24-.26,8.84-0.74,10.78a1.542,1.542,0,0,1-1.61,1.34c-0.67,0-1.85-.09-3.56-0.28v0.62a22.749,22.749,0,0,1,2.64.62,1.134,1.134,0,0,1,.89,1.13,2.875,2.875,0,0,0,2.91-2.18q0.825-2.565.86-13.16l0.6-.33a0.447,0.447,0,0,0,.27-0.36c0-.27-0.51-0.79-1.54-1.59l-0.91,1.18h-5.76a17.854,17.854,0,0,0,.98-3.26c0.7-.12,1.06-0.29,1.06-0.48,0-.36-0.84-0.65-2.5-0.94a23.764,23.764,0,0,1-3.26,9.53c-0.24-.24-0.48-0.51-0.7-0.72l-1.06,1.41h-2.04v-3.36Zm-4.6,5.31-0.46.26a8.57,8.57,0,0,1,1.06,3.89c0.02,0.75.24,1.11,0.62,1.11a0.945,0.945,0,0,0,.94-1.16Q1170.15,3832.515,1167.99,3830.32Zm5.54,4.56,0.48,0.22a24.586,24.586,0,0,0,1.92-3.85,0.844,0.844,0,0,0,.84-0.38c0-.31-0.65-0.67-1.97-1.08A39.672,39.672,0,0,1,1173.53,3834.88Zm5.57-8.23-0.36.4a8.2,8.2,0,0,1,2.3,4.37,0.977,0.977,0,0,0,.87,1.04,0.861,0.861,0,0,0,.84-1.06C1182.75,3829.77,1181.52,3828.18,1179.1,3826.65Zm21,9.05a8.463,8.463,0,0,1-3.88,1.89,11.808,11.808,0,0,1-1.64.24c-0.36.05-.45,0.15-0.48,0.27,0,0.12.19,0.24,0.58,0.26a9.472,9.472,0,0,0,1.99-.19,12.25,12.25,0,0,0,3.07-.96,8.179,8.179,0,0,0,3.05-2.47,7.078,7.078,0,0,0,1.42-3.41,8.987,8.987,0,0,0-.17-4.01,5.475,5.475,0,0,0-2.02-3.07,4.547,4.547,0,0,0-3.6-.87,5.909,5.909,0,0,0-2.95,1.42,3.662,3.662,0,0,0-.89,1.29,7.343,7.343,0,0,1,.75-2.8,3.128,3.128,0,0,0-.17-2.84,2.229,2.229,0,0,0-1.27-.98,0.679,0.679,0,0,0-.82.17,0.829,0.829,0,0,0,.41.77,2.043,2.043,0,0,1,.62,1.72,14.156,14.156,0,0,1-.45,2.64,10.4,10.4,0,0,0-.32,3.39,7.012,7.012,0,0,0,.85,3.31c0.52,0.84,1.24,1.39,1.84,1.06,0.63-.34.39-1.3,0.05-1.85a4.455,4.455,0,0,1-1.01-2.52,3.706,3.706,0,0,1,1.2-2.83,4.169,4.169,0,0,1,2.33-1.13,3.692,3.692,0,0,1,2.91.81,4.041,4.041,0,0,1,1.32,2.84,10.218,10.218,0,0,1-.41,4.44A7.579,7.579,0,0,1,1200.1,3835.7Zm23.41-.24c-0.48-.72-1.85-0.56-2.76-0.24a17.5,17.5,0,0,1-3.84.69,4.413,4.413,0,0,1-3.5-.81c-1.04-1.04-.94-2.57.84-3.96a22.182,22.182,0,0,1,3.74-2.28,20.966,20.966,0,0,0,3.86-2.17,1.46,1.46,0,0,0,.08-2.16,2.306,2.306,0,0,0-1.23-.55c-0.45-.05-0.84.19-0.53,0.58a0.889,0.889,0,0,1-.09,1.22,9.555,9.555,0,0,1-2.09,1.44c-0.46.29-.86,0.53-1.27,0.79a1.069,1.069,0,0,1-.36-0.88,22,22,0,0,1,.31-2.55,14.9,14.9,0,0,1,.58-1.97,2.133,2.133,0,0,0,.04-1.53,4,4,0,0,0-1.12-1.32c-0.36-.27-0.94-0.51-1.16-0.17a0.994,0.994,0,0,0,.39.89,2.643,2.643,0,0,1,.38,1.53c-0.05.68-.17,1.61-0.24,2.43a11.412,11.412,0,0,0-.17,2.71,2.071,2.071,0,0,0,.92,1.13c-0.34.22-.7,0.43-1.08,0.69a10.927,10.927,0,0,0-3.05,2.93,3.328,3.328,0,0,0,.29,3.75c0.86,1.01,2.73,1.34,4.89,1.37a32.953,32.953,0,0,0,5.14-.34C1223.3,3836.56,1224.02,3836.2,1223.51,3835.46Zm21.63-7.57h3a21.023,21.023,0,0,1-1.71,4.71l0.53,0.34a26.6,26.6,0,0,0,2.54-4.44l0.6-.27a0.316,0.316,0,0,0,.24-0.26,4.75,4.75,0,0,0-1.41-1.8l-0.94,1.12h-8.78l0.26,0.6h4.27v8.91a0.731,0.731,0,0,1-.86.79,31.1,31.1,0,0,1-3.55-.24V3838a12.9,12.9,0,0,1,2.47.5,1.116,1.116,0,0,1,.79,1.08c1.71,0,2.55-.64,2.55-1.92v-9.77Zm-14.14-8.28c-0.24-.12-0.77-0.38-1.61-0.76v11.04h1.34v-1.49h2.6v3.43h-4.73l0.24,0.6h4.49v3.63l-0.24.02c-1.64.24-3.27,0.43-4.88,0.58,0.41,1.53.77,2.3,1.11,2.3a1.022,1.022,0,0,0,.45-0.91,103.255,103.255,0,0,0,10.61-2.55l-0.05-.69c-1.53.31-3.19,0.65-4.99,0.93l-0.6.1v-3.41h4.83l0.24-.45a12.616,12.616,0,0,0-1.44-1.64l-1.08,1.49h-2.55v-3.43h2.79v1.05h1.34v-8.76l0.55-.36a0.533,0.533,0,0,0,.27-0.33,4.422,4.422,0,0,0-1.47-1.51l-0.91,1.12H1231Zm6.53,4.59v3.6h-2.81v-3.6h2.81Zm0-.6h-2.81v-3.39h2.81v3.39Zm-4.18-3.39v3.39h-2.62v-3.39h2.62Zm-2.62,7.59v-3.6h2.62v3.6h-2.62Zm13.49-4.35a14.369,14.369,0,0,0-3.09-1.56l-0.29.48a9.647,9.647,0,0,1,3.74,3.53,1.118,1.118,0,0,0,.87.72,0.666,0.666,0,0,0,.74-0.77,2.832,2.832,0,0,0-1.39-1.99,27.02,27.02,0,0,0,3.58-3.05l0.69-.24a0.244,0.244,0,0,0,.22-0.24,4.69,4.69,0,0,0-1.56-1.77l-0.84,1.05h-7.01l0.26,0.6h6.8A19.32,19.32,0,0,1,1244.22,3823.45Zm17.89,8.36h-9.63l0.24,0.6h8.55a24.7,24.7,0,0,1-9.43,6.17l0.31,0.52a24.218,24.218,0,0,0,9.96-5.56v6.19h1.42v-6.91a24.889,24.889,0,0,0,9.19,5.92,4.506,4.506,0,0,1,1.17-1.48,27.922,27.922,0,0,1-9.88-4.85h9.19l0.26-.46-0.21-.24a8.769,8.769,0,0,0-1.4-1.39l-1.22,1.49h-7.1v-1.01a1.182,1.182,0,0,0,.96-0.63c0-.31-0.8-0.52-2.38-0.59v2.23Zm3.24-10.61v1.99h1.34v-1.99h6.56l0.24-.51a15.319,15.319,0,0,0-1.61-1.56l-1.2,1.47h-3.99v-1.23a1.212,1.212,0,0,0,.96-0.67c0-.36-0.76-0.55-2.3-0.55v2.45h-5.09v-1.3a1.147,1.147,0,0,0,.96-0.65c0-.33-0.79-0.5-2.3-0.52v2.47h-6.48l0.24,0.6h6.24v2.45h1.34v-2.45h5.09Zm-4.44,4.2-0.34.41a4.648,4.648,0,0,1,1.66,2.59,0.89,0.89,0,0,0,.79.91,0.819,0.819,0,0,0,.91-0.94C1263.93,3827.32,1262.93,3826.31,1260.91,3825.4Zm-5.88.77-0.29.43a6.538,6.538,0,0,1,2.33,3.07,0.987,0.987,0,0,0,.86.86,0.809,0.809,0,0,0,.89-0.95C1258.82,3828.42,1257.55,3827.27,1255.03,3826.17Zm10.58,4.72,0.44,0.39a21.4,21.4,0,0,0,3.81-4.08,2.24,2.24,0,0,0,.39.02c0.52,0,.79-0.09.79-0.31,0-.34-0.7-0.84-2.09-1.51A29.745,29.745,0,0,1,1265.61,3830.89Zm-11.97-6.14,0.19,0.62q7.89-.06,16.49-0.67a3.676,3.676,0,0,0,1.08.19c0.24,0,.38-0.04.38-0.19,0-.29-0.57-0.79-1.73-1.49A99.755,99.755,0,0,1,1253.64,3824.75Zm36.26-1.25h7.81l0.26-.48a16.573,16.573,0,0,0-1.68-1.85l-1.32,1.73h-8.16c0.43-1.25.77-2.33,1.03-3.26,0.65-.12.98-0.29,0.98-0.51,0-.33-0.76-0.67-2.28-1.03a32,32,0,0,1-4.44,11.71l0.51,0.36a23.154,23.154,0,0,0,3.93-6.67h1.95v16.23h1.41v-6.41h7.06l0.27-.46a15.884,15.884,0,0,0-1.73-1.84l-1.32,1.7h-4.28v-4.47h6.72l0.27-.5-0.19-.24a10.223,10.223,0,0,0-1.42-1.44l-1.3,1.58h-4.08v-4.15Zm-8.97,1.71a31.549,31.549,0,0,0,2.13-5.43c0.75-.12,1.11-0.29,1.11-0.53,0-.33-0.77-0.69-2.31-1.05a42.148,42.148,0,0,1-5.66,13.37l0.5,0.36a43.438,43.438,0,0,0,3.15-4.66v12.46h1.37v-13.28a1.226,1.226,0,0,0,.96-0.62C1282.18,3825.57,1281.74,3825.37,1280.93,3825.21Zm28.65,10.49a8.45,8.45,0,0,1-3.89,1.89,11.48,11.48,0,0,1-1.63.24c-0.36.05-.46,0.15-0.48,0.27,0,0.12.19,0.24,0.58,0.26a9.472,9.472,0,0,0,1.99-.19,12.377,12.377,0,0,0,3.07-.96,8.258,8.258,0,0,0,3.05-2.47,6.964,6.964,0,0,0,1.41-3.41,8.826,8.826,0,0,0-.16-4.01,5.475,5.475,0,0,0-2.02-3.07,4.547,4.547,0,0,0-3.6-.87,5.825,5.825,0,0,0-2.95,1.42,3.534,3.534,0,0,0-.89,1.29,7.329,7.329,0,0,1,.74-2.8,3.1,3.1,0,0,0-.16-2.84,2.21,2.21,0,0,0-1.28-.98,0.664,0.664,0,0,0-.81.17,0.8,0.8,0,0,0,.4.77,2.017,2.017,0,0,1,.63,1.72,14.179,14.179,0,0,1-.46,2.64,10.7,10.7,0,0,0-.31,3.39,7.01,7.01,0,0,0,.84,3.31c0.53,0.84,1.25,1.39,1.85,1.06,0.62-.34.38-1.3,0.05-1.85a4.455,4.455,0,0,1-1.01-2.52,3.706,3.706,0,0,1,1.2-2.83,4.136,4.136,0,0,1,2.33-1.13,3.67,3.67,0,0,1,2.9.81,4,4,0,0,1,1.32,2.84,10.068,10.068,0,0,1-.41,4.44A7.56,7.56,0,0,1,1309.58,3835.7Zm11.25-1.8a3.057,3.057,0,0,0-2.97,3,2.774,2.774,0,0,0,1.7,2.68,2.558,2.558,0,0,0,1.3.32,2.909,2.909,0,0,0,2.16-.94,3,3,0,0,0,.84-2.06A3.072,3.072,0,0,0,1320.83,3833.9Zm0.03,0.84a2.2,2.2,0,0,1,1.24.4,2.128,2.128,0,0,1,.15,3.39,2,2,0,0,1-1.39.53,2.046,2.046,0,0,1-1.83-1.01,2.281,2.281,0,0,1-.33-1.15,2.071,2.071,0,0,1,.57-1.47A2.224,2.224,0,0,1,1320.86,3834.74Zm22.66-12.49h-9.39l0.24,0.6h8.38a30.54,30.54,0,0,1-2.47,4.71l-2.19.07c-0.26,0-.62,0-1.1.02-0.5,0-.89.03-1.1,0.03,0.31,1.51.64,2.26,1,2.26a1.014,1.014,0,0,0,.53-0.89c4.49-.39,8.67-0.84,12.53-1.4l0.72-.09a10.307,10.307,0,0,1,1.01,1.39,1.383,1.383,0,0,0,.96.94,0.734,0.734,0,0,0,.79-0.87,2.914,2.914,0,0,0-1.03-1.85,16.593,16.593,0,0,0-5.21-3.16l-0.34.45a18.343,18.343,0,0,1,3.24,2.5q-4.2.315-7.7,0.5l-1.25.05a39.072,39.072,0,0,0,3.48-4.51l0.1-.15h9.5l0.29-.48a16.888,16.888,0,0,0-1.8-1.8l-1.32,1.68h-6.46v-2.66a1.374,1.374,0,0,0,1.08-.7c0-.36-0.84-0.55-2.49-0.57v3.93Zm-9.58,17.05,0.26,0.55a12.625,12.625,0,0,0,5.07-2.16q2.49-2.055,2.74-6.41a1.223,1.223,0,0,0,1-.65c0-.38-0.81-0.62-2.47-0.74a12.625,12.625,0,0,1-.93,5.25Q1338.305,3837.78,1333.94,3839.3Zm19.66-6.03-0.65-.24c-0.19,2.71-.48,4.23-0.84,4.51a5.671,5.671,0,0,1-2.3.27,9,9,0,0,1-1.8-.12,0.618,0.618,0,0,1-.46-0.72v-6.05a1.309,1.309,0,0,0,1.03-.62c0-.34-0.81-0.58-2.42-0.68v7.61a1.641,1.641,0,0,0,.53,1.49c0.4,0.26,1.65.41,3.76,0.41a12.157,12.157,0,0,0,3.41-.31,1.336,1.336,0,0,0,.82-1.3,0.762,0.762,0,0,1-.82-0.53A15.94,15.94,0,0,1,1353.6,3833.27Zm14.69-1.03a7.813,7.813,0,0,0,.12-1.54v-1.41h6.63l0.26-.43a10.369,10.369,0,0,0-1.51-1.57l-1.13,1.4h-4.25v-2.72h7.47l0.31-.45a16.28,16.28,0,0,0-1.61-1.61l-1.17,1.46h-5v-1.32a1.35,1.35,0,0,0,1.01-.64c0-.34-0.81-0.53-2.42-0.56v2.52h-7.25l0.26,0.6H1367v2.72h-6.58l0.26,0.6H1367v1.34a8.4,8.4,0,0,1-.2,1.61h-9.14l0.34,0.6h8.64q-1.62,4.86-9.34,6.34l0.34,0.6c5.88-.75,9.36-2.93,10.41-6.58,1.8,3.26,5.04,5.33,9.72,6.24a4.437,4.437,0,0,1,1.01-1.54c-4.92-.55-8.33-2.23-10.17-5.06h9.28l0.29-.43a13.215,13.215,0,0,0-1.68-1.68l-1.27,1.51h-6.94Zm-1.15-11.02h-7.06a5.754,5.754,0,0,0-.12-0.89l-0.6-.09a5.912,5.912,0,0,1-1.41,3.89,1.49,1.49,0,0,0-.53.91,0.757,0.757,0,0,0,.91.77,1.494,1.494,0,0,0,1.2-1.01,5.29,5.29,0,0,0,.63-2.52,1.057,1.057,0,0,0-.03-0.29,0.442,0.442,0,0,0-.02-0.17h15.84a7.616,7.616,0,0,1-.79,1.83l0.48,0.36c0.86-.65,1.44-1.13,1.75-1.42l0.79-.1c0.27-.02.39-0.12,0.39-0.28,0-.29-0.58-1.01-1.76-2.12l-0.91,1.13h-7.39v-1.85a1.409,1.409,0,0,0,1.03-.69c0-.34-0.79-0.53-2.4-0.6v3.14Zm31.96,3.58a7.468,7.468,0,0,0-2.78-2.81,8.631,8.631,0,0,0-4.25-1.1,10.768,10.768,0,0,0-5.04,1.17,11.313,11.313,0,0,0-3.41,2.79,7.912,7.912,0,0,0-1.8,3.72,5.8,5.8,0,0,0,.36,3.96,2.945,2.945,0,0,0,2.71,2.04,4.792,4.792,0,0,0,3.51-2.26,12,12,0,0,0,1.87-4.68,17.451,17.451,0,0,0,.38-3.67c0-.65-0.02-1.51-0.07-2.04,0.24-.03.48-0.07,0.7-0.1a7.476,7.476,0,0,1,4.63.99,5.508,5.508,0,0,1,2.35,3.28,9.8,9.8,0,0,1,.34,4.42,6.117,6.117,0,0,1-2.28,3.77,11.213,11.213,0,0,1-6.46,2.04c-0.65,0-1.17-.05-1.41-0.07a0.3,0.3,0,0,0-.39.19c-0.02.14,0.12,0.26,0.39,0.29a11.544,11.544,0,0,0,4.29-.03,12.33,12.33,0,0,0,4.39-1.6,5.882,5.882,0,0,0,2.6-3.36,9.563,9.563,0,0,0,.33-3.68A6.647,6.647,0,0,0,1399.1,3824.8Zm-9.48,1.1a10.358,10.358,0,0,1-1.53,4.27,4.882,4.882,0,0,1-2.72,2.21c-1.05.34-1.96,0.15-2.32-.76a6.328,6.328,0,0,1,.19-4.06,8.78,8.78,0,0,1,3.19-3.91,10.289,10.289,0,0,1,3.36-1.54A18.975,18.975,0,0,1,1389.62,3825.9Zm15.41,2.76a3.707,3.707,0,0,0,2.81.39c0.89-.22,2.21-0.7,3.36-1.13-0.03.79-.05,1.56-0.07,2.35-0.08,1.32-.08,2.5-0.05,3.7a2.9,2.9,0,0,0,1.56,2.71,10.131,10.131,0,0,0,3.86.53,32.785,32.785,0,0,0,4.32-.22c0.67-.09,1.25-0.48,1.03-1.08a1.448,1.448,0,0,0-1.56-.77,15.876,15.876,0,0,0-2.59.68,10.531,10.531,0,0,1-2.85.19c-1.4-.05-2.28-0.63-2.4-1.61a26.077,26.077,0,0,1-.03-4.13c0.03-.69.05-1.8,0.05-2.76,0.89-.29,1.8-0.53,2.95-0.89a8.914,8.914,0,0,1,2.64-.62,0.467,0.467,0,0,1,.34.84c-1.25,1.34-2.26,2.64-2.91,3.41-0.64.79-.93,1.22-1.03,1.37a0.36,0.36,0,0,0-.02.5,0.6,0.6,0,0,0,.6-0.24c0.29-.29.65-0.63,1.53-1.54,0.92-.91,1.25-1.29,1.83-1.82a6.115,6.115,0,0,1,1.77-1.23,4.371,4.371,0,0,0,1.44-.55,0.926,0.926,0,0,0,0-1.29,2.339,2.339,0,0,0-1.36-1.23,5.569,5.569,0,0,0-2.14.46c-0.96.31-2.5,0.81-4.27,1.39-0.46.14-.91,0.29-1.35,0.43v-0.21a5.706,5.706,0,0,1,.41-2.6,1.609,1.609,0,0,0,0-1.84,2.917,2.917,0,0,0-1.46-1.08c-0.55-.17-1.13-0.34-1.37.04a1.076,1.076,0,0,0,.43,1.04,2.687,2.687,0,0,1,.75,1.41c0.04,0.51.07,1.61,0.02,3.05,0,0.19-.02.38-0.02,0.58-0.72.19-1.4,0.38-2,.5a6.028,6.028,0,0,1-2.71.14,3.071,3.071,0,0,1-1.05-.4,1.05,1.05,0,0,0-1.25-.1C1403.95,3827.32,1404.26,3828.14,1405.03,3828.66Zm21.04,10.18a11.944,11.944,0,0,0,1.8-1.1,16.709,16.709,0,0,0,3.1-3.03,19.96,19.96,0,0,0,2.21-3.43,33.145,33.145,0,0,0,1.75-3.96c0.1-.24.17-0.46,0.24-0.67,1.56-.22,2.42-0.32,3.19-0.44,0.84-.14,1.11-0.21,1.27-0.24a2.617,2.617,0,0,1,.56,0,1.059,1.059,0,0,1,.5.22,1.269,1.269,0,0,1,.05.86,30.626,30.626,0,0,1-.48,3.84,9.234,9.234,0,0,1-.65,2.33,1.019,1.019,0,0,1-1.39.39c-0.72-.22-1.23-0.41-1.68-0.55-0.29-.1-0.53-0.08-0.58.07a0.455,0.455,0,0,0,.34.45,6.3,6.3,0,0,1,1.25.94,3.243,3.243,0,0,1,.76,1.25,0.975,0.975,0,0,0,.65.77,1.09,1.09,0,0,0,1.2-.68,9,9,0,0,0,1.11-3.02c0.36-1.54.55-2.62,0.72-3.75,0.14-1.1.21-1.77,0.28-2.18a1.268,1.268,0,0,1,.32-0.7,0.693,0.693,0,0,0,.16-0.76,3.68,3.68,0,0,0-1-1.13,0.828,0.828,0,0,0-1.06-.12,3.671,3.671,0,0,1-1.13.6,10.883,10.883,0,0,1-2.04.41c-0.69.09-1.37,0.19-2.04,0.26,0.19-.91.31-1.8,0.48-2.74a4.887,4.887,0,0,1,.24-0.91,0.985,0.985,0,0,0-.24-1.05,2.5,2.5,0,0,0-1.22-.77c-0.58-.19-0.94-0.22-1.08.02a1.02,1.02,0,0,0,.28.94,2.9,2.9,0,0,1,.46,1.58c-0.05.6-.19,1.87-0.41,3.03a0.07,0.07,0,0,1-.02.04,21.377,21.377,0,0,1-2.71.12,10.483,10.483,0,0,1-2.48-.33c-0.48-.15-1.22-0.39-1.44-0.03a1.147,1.147,0,0,0,.58,1.2,3.693,3.693,0,0,0,2.06.68,12.252,12.252,0,0,0,1.9-.2c0.43-.04,1.08-0.12,1.82-0.21-0.26.93-.57,1.94-0.93,2.9a19.912,19.912,0,0,1-2.07,3.99,18.455,18.455,0,0,1-3.33,3.6,12.053,12.053,0,0,1-1.54,1.17C1425.47,3838.72,1425.71,3839.03,1426.07,3838.84Zm24.02-13.03c0.7,0.79,1.47,1.15,1.99.84,0.68-.41.29-1.42-0.36-2a5.592,5.592,0,0,0-1.84-1.15,8.585,8.585,0,0,0-1.95-.53,1.017,1.017,0,0,0-1.08.15c-0.09.26,0.22,0.43,0.84,0.74A7.165,7.165,0,0,1,1450.09,3825.81Zm14.67-2.93a0.551,0.551,0,0,0-.56.29c-0.16.24-.81,1.08-2.13,2.66a28.294,28.294,0,0,1-3.39,3.43,37.186,37.186,0,0,1-4.15,3.22,9.824,9.824,0,0,1-3.89,1.46,2.347,2.347,0,0,1-1.24-.16l-0.87-.2a1.55,1.55,0,0,0,.31,1.73,1.779,1.779,0,0,0,2.07.46,14.234,14.234,0,0,0,4.15-1.97,31.646,31.646,0,0,0,4.51-3.53,25.476,25.476,0,0,0,3.36-3.98c1.03-1.47,1.51-2.28,1.85-2.81C1464.97,3823.14,1464.92,3822.95,1464.76,3822.88Zm9.05,4.25a4.059,4.059,0,0,1,1.75.62,5.955,5.955,0,0,1,1.87,2.06c0.58,0.99,1.16,2.19,2.16,1.81,1.06-.39.58-1.81-0.19-2.65a7.548,7.548,0,0,0-2.61-1.82,6.815,6.815,0,0,0-2.93-.62c-0.24-.03-0.56-0.03-0.56-0.36-0.02-1.06,0-2.02.05-2.84,0.05-.84.07-1.56,0.15-1.96a2.293,2.293,0,0,0-.1-1.47,2,2,0,0,0-1.27-.86,1.021,1.021,0,0,0-1.08.12,0.873,0.873,0,0,0,.41,1.08,2.366,2.366,0,0,1,.76,1.58,13.89,13.89,0,0,1,.08,2.67c-0.05,1.12-.12,2.37-0.17,3.84-0.05,1.44-.1,3.09-0.17,4.27-0.1,1.18-.24,2.16-0.36,2.88a3.845,3.845,0,0,0,.19,2.26,1.8,1.8,0,0,0,1.56,1.1c0.63-.07.7-1.06,0.55-1.8-0.14-.72-0.33-1.46-0.48-2.35a23.385,23.385,0,0,1-.12-3.36c0.03-.94,0-3,0-3.48C1473.3,3827.34,1473.4,3827.08,1473.81,3827.13Zm7.92-.08a0.641,0.641,0,0,0,.38-0.98,3.482,3.482,0,0,0-1.58-1.06,4.891,4.891,0,0,0-1.46-.33,0.6,0.6,0,0,0-.46.09,0.4,0.4,0,0,0,.22.53,11.024,11.024,0,0,1,1.56,1.23A1.553,1.553,0,0,0,1481.73,3827.05Zm2.11-1.1a0.636,0.636,0,0,0,.31-0.98,3.223,3.223,0,0,0-1.63-1.01,4.18,4.18,0,0,0-1.46-.24,0.43,0.43,0,0,0-.43.12,0.351,0.351,0,0,0,.24.5,4.178,4.178,0,0,1,1.63,1.11A1.4,1.4,0,0,0,1483.84,3825.95Zm16.48-5.88a3.045,3.045,0,0,0-2.13-.19c-0.77.14-1.87,0.36-3.05,0.5a9.1,9.1,0,0,1-3.14-.12,1.2,1.2,0,0,0-1.04-.14c-0.26.24,0.03,0.91,0.58,1.29a3.591,3.591,0,0,0,2.4.32c1.13-.15,2.33-0.34,3.07-0.41a7.816,7.816,0,0,1,2.5.05c0.81,0.16,1.46.24,1.68-.05C1501.4,3821.01,1500.97,3820.41,1500.32,3820.07Zm-5.64,15.6a23.173,23.173,0,0,0,4.56-4.08,19.077,19.077,0,0,0,2.62-4.49c0.36-.81.48-1.29,0.84-1.34a0.7,0.7,0,0,0,.65-0.36,1.561,1.561,0,0,0-.67-1.08c-0.48-.41-0.94-0.77-1.18-0.94a0.739,0.739,0,0,0-.84.12,2.261,2.261,0,0,1-1.34.46c-0.75.09-2.76,0.24-3.8,0.33a16.605,16.605,0,0,1-3.04.08,6.215,6.215,0,0,1-1.64-.39,1.149,1.149,0,0,0-1.15-.14c-0.31.31-.02,0.98,0.58,1.46a4.017,4.017,0,0,0,2.88.6c1.2-.17,2.85-0.45,3.81-0.57,0.99-.12,2-0.22,2.69-0.24,0.77-.05.94,0.33,0.67,1.12a15.768,15.768,0,0,1-2.3,4.81,16.731,16.731,0,0,1-3.62,3.69,21.368,21.368,0,0,1-3.41,2.11,16.14,16.14,0,0,1-1.56.68c-0.36.12-.48,0.26-0.46,0.38a0.568,0.568,0,0,0,.65.1A15.493,15.493,0,0,0,1494.68,3835.67Zm12.36-3.79a14.25,14.25,0,0,0,2.31-.91,27.975,27.975,0,0,0,2.73-1.54,34.517,34.517,0,0,0,3.79-2.69c0.24-.21.48-0.43,0.75-0.65a1.043,1.043,0,0,1,.53.39,3.406,3.406,0,0,1,.33,1.7c0.03,0.75,0,1.49-.05,2.64-0.04,1.18-.09,2.5-0.12,3.56a24.254,24.254,0,0,1-.24,2.61c-0.07.48,0.22,1.51,0.87,1.54,0.67,0.05.98-.58,0.96-1.54,0-.96-0.07-2.3-0.1-3.43,0-1.1,0-2.33.03-3.19a18.573,18.573,0,0,1,.14-2.45,2.15,2.15,0,0,0,.26-1.08,1.721,1.721,0,0,0-1.08-1.01,3.344,3.344,0,0,0-.96-0.26c0.44-.39.87-0.8,1.28-1.18,0.88-.82,1.75-1.54,2.23-1.94a4.652,4.652,0,0,0,1.03-1.08,1.227,1.227,0,0,0-.24-1.3c-0.34-.41-1.37-1.03-1.92-0.7a0.637,0.637,0,0,0,0,.82,0.984,0.984,0,0,1-.29,1.22,31.947,31.947,0,0,1-2.42,2.67,50.818,50.818,0,0,1-4.23,3.69,29.7,29.7,0,0,1-4.03,2.76,16.387,16.387,0,0,1-1.73.87C1506.49,3831.54,1506.66,3831.98,1507.04,3831.88Zm33.62-10.97a1.118,1.118,0,0,0-1.22.12,3.666,3.666,0,0,1-1.54.38c-0.76.1-2.42,0.29-3.67,0.41a16.79,16.79,0,0,1-2.88.15,4.989,4.989,0,0,1-1.54-.34,0.8,0.8,0,0,0-.91.02c-0.26.2-.05,0.87,0.55,1.28a2.616,2.616,0,0,0,2.14.45c0.96-.14,2.11-0.45,3.24-0.67,1.13-.19,2.21-0.29,3.19-0.36a2.645,2.645,0,0,1,1.28.02,0.981,0.981,0,0,1-.03.89c-0.19.58-.41,1.54-0.77,2.5a20.914,20.914,0,0,1-1.87,3.6,16.53,16.53,0,0,1-3.5,3.91,16.343,16.343,0,0,1-3.65,2.38c-0.94.48-1.3,0.69-1.56,0.79-0.29.1-.43,0.29-0.36,0.46a0.785,0.785,0,0,0,.86.02,16.413,16.413,0,0,0,3.05-1.39,15.391,15.391,0,0,0,3.77-2.71,21.313,21.313,0,0,0,3.5-4.16,17.992,17.992,0,0,0,1.97-3.96,4.4,4.4,0,0,1,.79-1.49,0.971,0.971,0,0,0,.27-1.17A3.07,3.07,0,0,0,1540.66,3820.91Zm4.52,12.99a3.072,3.072,0,0,0-2.98,3,2.782,2.782,0,0,0,1.71,2.68,2.521,2.521,0,0,0,1.29.32,2.909,2.909,0,0,0,2.16-.94,2.957,2.957,0,0,0,.84-2.06A3.058,3.058,0,0,0,1545.18,3833.9Zm0.02,0.84a2.209,2.209,0,0,1,1.25.4,2.143,2.143,0,0,1,.15,3.39,2.006,2.006,0,0,1-1.4.53,2.041,2.041,0,0,1-1.82-1.01,2.2,2.2,0,0,1-.34-1.15,2.079,2.079,0,0,1,.58-1.47A2.2,2.2,0,0,1,1545.2,3834.74Z" transform="translate(-1096.69 -3818.06)"/>
</svg>
