<svg xmlns="http://www.w3.org/2000/svg" width="292.53" height="31.69" viewBox="0 0 292.53 31.69">
  <defs>
    <style>
      .cls-1 {
        fill-rule: evenodd;
      }
    </style>
  </defs>
  <path id="ttl_Dream003.svg" class="cls-1" d="M1210.52,6859.99v4.62h-14.63v-4.62h14.63Zm-1.44-8.96v4.03h-13.19v-4.03h13.19Zm-12.74-.87c-0.56-.28-1.19-0.53-1.85-0.81a0.425,0.425,0,0,0-.63.46V6867a0.474,0.474,0,0,0,.56.52h0.91a0.478,0.478,0,0,0,.56-0.52v-1.51h14.63V6867a0.474,0.474,0,0,0,.56.52h0.87a0.468,0.468,0,0,0,.53-0.52v-6.41l0.8-.56a0.412,0.412,0,0,0,.25-0.39,4.428,4.428,0,0,0-1.51-1.64,0.5,0.5,0,0,0-.8.07l-0.91,1.05h-14.42v-3.19h13.19v0.6a0.49,0.49,0,0,0,.56.56h0.88a0.49,0.49,0,0,0,.56-0.56v-4.97l0.8-.56a0.507,0.507,0,0,0,.28-0.39c0-.24-0.52-0.8-1.64-1.61a0.5,0.5,0,0,0-.77.07l-0.91,1.09h-12.5Zm-2.94-10.71c0.14-.25.39-0.84,0.77-1.75,1.02-.14,1.51-0.35,1.51-0.63,0-.39-0.88-0.77-2.66-1.23a0.508,0.508,0,0,0-.67.42,22.421,22.421,0,0,1-5.42,9.56c-0.25.24-.32,0.45-0.18,0.59a0.519,0.519,0,0,0,.77.07,21,21,0,0,0,5.39-6.16h0.91a5.969,5.969,0,0,1,1.93,3.5,1.205,1.205,0,0,0,1.01,1.19,1.1,1.1,0,0,0,1.23-1.26c0-1.22-.95-2.34-2.84-3.43h6.86a0.552,0.552,0,0,0,.56-0.24,0.616,0.616,0,0,0,0-.77c-0.35-.49-0.7-0.84-0.94-1.16l-0.28-.31a0.481,0.481,0,0,0-.81.03l-1.19,1.58h-5.95Zm-2.31,6.86-0.1-.91a0.5,0.5,0,0,0-.35-0.53,0.475,0.475,0,0,0-.56.53,7.19,7.19,0,0,1-1.96,4.69,2.178,2.178,0,0,0-.84,1.29,1.1,1.1,0,0,0,1.26,1.23c0.63,0,1.22-.49,1.75-1.51a9.042,9.042,0,0,0,.84-3.92h23.27a20.129,20.129,0,0,1-1.26,2.66,0.445,0.445,0,0,0,0,.63,0.549,0.549,0,0,0,.77,0,26.572,26.572,0,0,0,2.56-2.13l1.26-.21a0.427,0.427,0,0,0,.42-0.42c0-.42-0.7-1.3-2.1-2.66a0.5,0.5,0,0,0-.81.03l-0.94,1.23h-10.96v-2c0.84-.28,1.3-0.56,1.3-0.84s-0.42-.49-1.19-0.66a14.073,14.073,0,0,0,2.13-2.49h1.47l0.18,0.18a5.971,5.971,0,0,1,1.82,3.39,1.011,1.011,0,0,0,.98,1.09,1.1,1.1,0,0,0,1.22-1.26c0-1.26-.98-2.38-2.87-3.4h8.65a0.59,0.59,0,0,0,.56-0.24,0.554,0.554,0,0,0-.07-0.74,16.876,16.876,0,0,0-1.44-1.57,0.457,0.457,0,0,0-.77.03l-1.26,1.65h-7.91a11.447,11.447,0,0,0,.84-1.75c0.95-.14,1.44-0.35,1.44-0.6,0-.38-0.84-0.77-2.49-1.19a0.539,0.539,0,0,0-.7.42,15.869,15.869,0,0,1-3.01,6.3,1.243,1.243,0,0,0-.38-0.03c-0.07,0-.14-0.04-0.21-0.04-0.14,0-.21.21-0.21,0.56v3.19h-10.33Zm58.52,3.43a0.566,0.566,0,0,0,.56-0.25,0.575,0.575,0,0,0-.07-0.73,18,18,0,0,0-1.29-1.65,0.425,0.425,0,0,0-.77.07l-1.16,1.68h-1.33v-8.33h4.59a0.59,0.59,0,0,0,.56-0.24,0.632,0.632,0,0,0-.07-0.77c-0.49-.6-1.02-1.16-1.51-1.65a0.482,0.482,0,0,0-.77.07l-1.33,1.72h-7.24c-0.42,0-.63.17-0.49,0.45a0.637,0.637,0,0,0,.63.42h3.67v8.33h-3.46c-0.42,0-.6.14-0.53,0.42a0.582,0.582,0,0,0,.63.46h3.36v8.85c-1.26.39-2.66,0.74-4.16,1.09a0.462,0.462,0,0,0-.39.7c0.6,1.61,1.09,2.41,1.54,2.41,0.28,0,.49-0.45.6-1.4a94.236,94.236,0,0,0,9.45-4.13,0.472,0.472,0,0,0,.31-0.63,0.511,0.511,0,0,0-.73-0.28c-1.4.56-2.98,1.12-4.66,1.65v-8.26h4.06Zm4.38-3.89h4.86v5.92h-4.86v-5.92Zm4.86-.87h-4.86v-5.67h4.86v5.67Zm2.03,0v-5.67h5.11v5.67h-5.11Zm5.11,6.79h-5.11v-5.92h5.11v5.92Zm-11.72-13.34c-0.49-.24-1.12-0.52-1.86-0.87l-0.17-.07c-0.04,0-.07-0.04-0.11-0.04a1.152,1.152,0,0,0-.1.63v16.24a0.482,0.482,0,0,0,.56.56h0.87a0.477,0.477,0,0,0,.53-0.56v-1.68h4.86v5.85h-7.45c-0.39,0-.6.17-0.49,0.45a0.6,0.6,0,0,0,.63.42h7.31v6.02h-9.94c-0.42,0-.59.18-0.49,0.46a0.62,0.62,0,0,0,.63.42h21.46a0.533,0.533,0,0,0,.59-0.28,0.582,0.582,0,0,0-.07-0.77c-0.52-.6-1.08-1.19-1.64-1.75a0.475,0.475,0,0,0-.77.07l-1.44,1.85h-6.3v-6.02h8.37a0.543,0.543,0,0,0,.45-0.94,16.406,16.406,0,0,0-1.54-1.68,0.455,0.455,0,0,0-.77.07l-1.33,1.68h-5.18v-5.85h5.11v0.81a0.5,0.5,0,0,0,.56.56h0.88a0.49,0.49,0,0,0,.56-0.56v-13.44l0.87-.56a0.493,0.493,0,0,0,.28-0.39q0-.42-1.68-1.89a0.51,0.51,0,0,0-.8.07l-0.98,1.19h-11.41Zm59.11,26.04c-5.25.84-7.14-4.83-7.14-9.06V6842a2.772,2.772,0,0,0-3.08-3.04h-1.01a0.665,0.665,0,0,0,0,1.33h1.08a0.8,0.8,0,0,1,.77.8v14.42c0,5.67,3.33,11.73,9.63,10.23C1314.36,6865.52,1314.19,6864.3,1313.38,6864.47Zm57.89-23.94a2.367,2.367,0,0,0-2.27-.42,16.661,16.661,0,0,0-5.5,2.87,0.437,0.437,0,0,1-.21.07h-15.01a0.72,0.72,0,1,0,0,1.44h13.02a0.123,0.123,0,0,1,.07.21c-3.85,3.08-7.07,7.77-6.55,12.74a7.823,7.823,0,0,0,4.87,6.37,15.824,15.824,0,0,0,6.96,1.19,1.191,1.191,0,1,0-.07-2.38c-4.2.03-9.24-.7-9.66-5.92-0.38-4.65,2.84-9.13,6.27-12.14a0.489,0.489,0,0,1,.31-0.11h4.76a4.342,4.342,0,0,0,2.73-.66A2.185,2.185,0,0,0,1371.27,6840.53Zm-1.22,2.1a2.556,2.556,0,0,1-1.44.42h-3.04a0.088,0.088,0,0,1-.04-0.17,10.67,10.67,0,0,1,3.68-1.58C1370.26,6841.13,1370.92,6841.86,1370.05,6842.63Zm49.42,8.33c3.78,0,4.93-2.41,4.97-2.48a0.722,0.722,0,0,0-1.3-.63c-0.03.07-.87,1.68-3.67,1.68h-4.1a0.158,0.158,0,0,1-.17-0.14v-10.12a1.051,1.051,0,1,0-2.1.04v10.11a0.151,0.151,0,0,1-.14.14h-5.64a0.179,0.179,0,0,1-.03-0.35c1.71-.73,3.85-1.61,4.16-4.09,0.7-4.38-6.05-4.13-8.5-3.89-1.02.11-.91,1.82,0.1,1.75,1.16-.07,7.28-0.7,6.97,2-0.25,2.59-5.11,4.06-6.93,4.51a0.737,0.737,0,0,0,.07,1.47h9.8a0.151,0.151,0,0,1,.14.14v7.56a0.11,0.11,0,0,1-.14.11c-2.84-.42-5.78-0.81-8.23.21-1.61.7-2.94,2.1-2.31,3.99,0.53,1.5,2.17,2.17,3.61,2.52a10.053,10.053,0,0,0,2.9.25c2.03-.08,4.69-0.5,5.74-2.63a5,5,0,0,0,.49-2.07c0-.07.11-0.1,0.18-0.07a31.117,31.117,0,0,1,6.33,3.19,1.153,1.153,0,0,0,1.09-2.03,26.266,26.266,0,0,0-7.42-2.8,0.248,0.248,0,0,1-.14-0.18v-8.05a0.158,0.158,0,0,1,.17-0.14h4.1Zm-6.65,11.27c-0.63,1.33-2.56,1.79-3.96,1.89a6.842,6.842,0,0,1-4.65-1.01,1.671,1.671,0,0,1,.45-2.7,5.731,5.731,0,0,1,2.98-.73,22.3,22.3,0,0,1,5.28.66c0.11,0,.14.07,0.14,0.18A5.037,5.037,0,0,1,1412.82,6862.23Zm66.32-20.16a0.739,0.739,0,0,0-1.33-.63c-0.03.07-.84,1.68-3.64,1.68h-6.4a0.151,0.151,0,0,1-.14-0.14v-3.71a1.12,1.12,0,1,0-2.24,0v3.71a0.162,0.162,0,0,1-.18.14h-13.05a0.735,0.735,0,0,0,0,1.47h13.05a0.145,0.145,0,0,1,.18.14v4.76a0.11,0.11,0,0,1-.14.11,4.349,4.349,0,0,0-1.65-.11,4.992,4.992,0,0,0-3.43,2.7,5.752,5.752,0,0,0-.35,4.23,3.873,3.873,0,0,0,3.12,2.77,3.563,3.563,0,0,0,3.43-1.3,6.289,6.289,0,0,0,.63-0.98,0.11,0.11,0,0,1,.21.04c-0.07,3.67-2.52,6.3-5.6,8.12-0.67.31-.14,1.36,0.56,1.05,3.15-1.47,5.91-3.75,6.72-7.28a9.946,9.946,0,0,0-1.19-7.53,0.437,0.437,0,0,1-.07-0.21v-6.37a0.131,0.131,0,0,1,.14-0.14h6.4C1477.92,6844.59,1479.07,6842.18,1479.14,6842.07Zm-12.77,11.03a5.367,5.367,0,0,1-1.09,3.92,2.04,2.04,0,0,1-2.1.66,2.133,2.133,0,0,1-1.61-1.75,5.739,5.739,0,0,1,.14-3.04,3.131,3.131,0,0,1,2.14-2.14C1465.35,6850.47,1466.3,6851.91,1466.37,6853.1Z" transform="translate(-1186.69 -6835.84)"/>
</svg>
