<svg xmlns="http://www.w3.org/2000/svg" width="32.53" height="239.47" viewBox="0 0 32.53 239.47">
  <defs>
    <style>
      .cls-1 {
        fill-rule: evenodd;
      }
    </style>
  </defs>
  <path id="ttl_Blog.svg" class="cls-1" d="M1038.27,8317.23a0.515,0.515,0,0,0,.56.56h0.87a0.493,0.493,0,0,0,.53-0.56v-17.85a11.357,11.357,0,0,1,2.1,4.16,1.279,1.279,0,0,0,1.01,1.19,1.052,1.052,0,0,0,1.09-1.29c0-1.72-1.4-3.5-4.2-5.43V8295h4.02a0.662,0.662,0,0,0,.6-0.28,0.632,0.632,0,0,0-.07-0.73,18.337,18.337,0,0,0-1.23-1.51,0.447,0.447,0,0,0-.8.04l-1.12,1.61h-1.4v-5.81c1.01-.32,1.5-0.63,1.5-0.95,0-.49-0.94-0.8-2.87-0.94a0.481,0.481,0,0,0-.59.52v7.18h-3.96c-0.38,0-.59.17-0.49,0.42a0.611,0.611,0,0,0,.63.45h3.78l-0.1.6a47.061,47.061,0,0,1-4.76,14.17,0.475,0.475,0,0,0,.1.67,0.46,0.46,0,0,0,.74-0.18,42.619,42.619,0,0,0,4.06-8.99v15.96Zm11.76-8.02v-4.2h8.12v4.2h-8.12Zm8.12,5.46h-8.12v-4.58h8.12v4.58Zm-6.65-15.36a27.581,27.581,0,0,0,1.43-3.71h2.21a23.717,23.717,0,0,0,1.64,3.71h-5.28Zm-3.43,17.92a0.5,0.5,0,0,0,.56.56h0.87a0.493,0.493,0,0,0,.53-0.56v-1.68h8.12v1.68a0.5,0.5,0,0,0,.56.56h0.91a0.486,0.486,0,0,0,.52-0.56v-11.52l0.49-.31a0.29,0.29,0,0,0,.18-0.25,3.591,3.591,0,0,0-1.54-1.43,0.675,0.675,0,0,0-.81,0l-0.49.42h-7.91l-0.63-.28-0.66-.28,0.07-.14a21.889,21.889,0,0,0,2.2-3.26h6.27a23.882,23.882,0,0,0,6.61,6.76,0.49,0.49,0,0,0,.77-0.14,5.591,5.591,0,0,1,.74-0.81c0.31-.24.28-0.52-0.07-0.73a23.967,23.967,0,0,1-6.3-5.08h5.28a0.592,0.592,0,0,0,.56-0.21,0.583,0.583,0,0,0-.07-0.77c-0.42-.52-0.77-0.91-1.01-1.15l-0.35-.35a0.458,0.458,0,0,0-.77.03l-1.26,1.58h-3.08a21.989,21.989,0,0,1-2.21-3.71h5.57a0.521,0.521,0,0,0,.52-0.18,0.58,0.58,0,0,0-.03-0.77,11.443,11.443,0,0,0-1.02-1.15l-0.28-.28a0.457,0.457,0,0,0-.77.07l-1.12,1.43h-5.81c0.35-1.36.6-2.41,0.7-3.11h9.28a0.65,0.65,0,0,0,.56-0.21,0.593,0.593,0,0,0-.07-0.77c-0.46-.56-0.95-1.05-1.44-1.54a0.472,0.472,0,0,0-.77.03l-1.26,1.61h-6.12c0.07-.52.24-1.43,0.42-2.66,0.91-.24,1.36-0.52,1.36-0.84,0-.52-0.91-0.87-2.76-1.05a0.527,0.527,0,0,0-.63.53c-0.14,1.57-.28,2.9-0.46,4.02h-7.07c-0.38,0-.59.18-0.49,0.46a0.62,0.62,0,0,0,.63.42h6.76a29.836,29.836,0,0,1-.7,3.11h-4.97c-0.39,0-.6.18-0.49,0.46a0.637,0.637,0,0,0,.63.42h4.55a21.686,21.686,0,0,1-1.44,3.71h-5c-0.42,0-.63.17-0.49,0.45a0.637,0.637,0,0,0,.63.42h4.41a23.461,23.461,0,0,1-6.65,7.77,0.489,0.489,0,1,0,.59.77,29.725,29.725,0,0,0,5.15-4.34v12.85Zm6.72,28.31a7.944,7.944,0,0,0,.49-1.85h7.52a0.638,0.638,0,0,0,.56-0.21,0.626,0.626,0,0,0-.07-0.77c-0.49-.56-0.98-1.09-1.47-1.62a0.479,0.479,0,0,0-.77.08l-1.22,1.64h-4.41c0.03-.8.07-1.36,0.07-1.75v-0.63c0.87-.32,1.29-0.6,1.29-0.88,0-.38-0.87-0.59-2.66-0.7a0.491,0.491,0,0,0-.59.53v1.65a13.476,13.476,0,0,1-.11,1.78h-6.3c-0.45,0-.63.21-0.49,0.49a0.6,0.6,0,0,0,.63.39h6.02c-0.59,2.94-2.66,5.11-6.23,6.54-0.35.14-.49,0.35-0.38,0.56a0.633,0.633,0,0,0,.73.32c3.57-.95,5.92-2.56,7.04-4.8a12.782,12.782,0,0,1,5.11,3.54,1.813,1.813,0,0,0,1.22.8,1,1,0,0,0,1.12-1.12C1061.89,8347.96,1059.55,8346.63,1054.79,8345.54Zm-0.32,11.2v5.43h-4.44v-5.43h4.44Zm-3.95-.87c-0.7-.32-1.26-0.53-1.75-0.74a0.4,0.4,0,0,0-.63.42v9.52a0.477,0.477,0,0,0,.56.53h0.8a0.471,0.471,0,0,0,.53-0.53v-2.03h4.44v1.3a0.464,0.464,0,0,0,.53.52h0.73a0.464,0.464,0,0,0,.53-0.52v-7l0.91-.63a0.405,0.405,0,0,0,.24-0.32,4.641,4.641,0,0,0-1.57-1.61,0.523,0.523,0,0,0-.77.07l-0.84,1.02h-3.71Zm9.1,10.32a1.04,1.04,0,0,1-1.26,1.09c-1.16,0-2.52-.07-4.13-0.21-0.39-.04-0.6.1-0.6,0.35a0.552,0.552,0,0,0,.53.59,14.3,14.3,0,0,1,2.97.63,1.635,1.635,0,0,1,1.05.98,0.525,0.525,0,0,0,.6.49,2.618,2.618,0,0,0,2.8-2.9v-14.46h3.57a0.526,0.526,0,0,0,.56-0.24,0.6,0.6,0,0,0-.11-0.74,15.409,15.409,0,0,0-1.47-1.57,0.445,0.445,0,0,0-.77.07l-1.19,1.61h-17.11v-5.36c0.94-.38,1.4-0.7,1.4-0.98,0-.42-0.88-0.73-2.63-0.84a0.491,0.491,0,0,0-.59.53v17.29h-2.42v-21c0.95-.39,1.4-0.74,1.4-0.98,0-.43-0.87-0.67-2.69-0.74a0.5,0.5,0,0,0-.6.52v22.2h-2.34v-16.1c0.94-.32,1.4-0.63,1.4-0.91,0-.42-0.88-0.7-2.66-0.81a0.5,0.5,0,0,0-.6.53v21.52a0.5,0.5,0,0,0,.56.56h0.77a0.493,0.493,0,0,0,.53-0.56v-3.36h6.65v2.24a0.5,0.5,0,0,0,.56.56h0.7a0.486,0.486,0,0,0,.56-0.56v-12.88h14.56v13.44Zm-4.06,28.1a0.383,0.383,0,0,0-.14.74,11.976,11.976,0,0,1,4.48,3.78c0.56,0.73,1.36.52,1.43-.49C1061.26,8395.59,1056.26,8394.26,1055.56,8394.29Zm2.87-2.31a0.417,0.417,0,0,0-.11.81,11.148,11.148,0,0,1,4.66,3.53,0.739,0.739,0,0,0,1.36-.56C1064.1,8393,1059.13,8391.98,1058.43,8391.98Zm-12.71,8.37a0.145,0.145,0,0,1-.14-0.18c0.04-1.05.11-2.1,0.11-3.15v-1.12a1.176,1.176,0,0,0-2.35.04c0,0.38.04,1.08,0.04,1.08,0,1.05,0,2.1-.04,3.15a0.166,0.166,0,0,1-.17.18h-5.15a0.63,0.63,0,1,0,0,1.26h5.11a0.158,0.158,0,0,1,.14.17,32.326,32.326,0,0,1-1.01,6.48,30.379,30.379,0,0,1-5.25,10.29l-0.04.03a1.107,1.107,0,0,0,1.79,1.3,35.81,35.81,0,0,0,5.49-11.13,34.2,34.2,0,0,0,1.23-6.97,0.158,0.158,0,0,1,.14-0.17h4.72a0.63,0.63,0,0,0,0-1.26h-4.62Zm15.89,17.15a0.037,0.037,0,0,1-.03-0.04h-0.25c-1.82.04-5.84,0.32-7.49-1.05-1.78-1.47-1.26-4.06-.07-5.67a27.282,27.282,0,0,1,6.37-5.7c0.63-.46,1.86-1.23.88-2.14-2-1.96-5.04-2.41-7.7-2.48a0.613,0.613,0,0,0-.11,1.22,10.937,10.937,0,0,1,5.74,2.17,0.566,0.566,0,0,1,0,.88c-0.49.35-1.36,0.98-1.99,1.47-2.49,1.92-5.25,4.2-5.71,7.59a4.663,4.663,0,0,0,2.56,5.01,13.223,13.223,0,0,0,5.7.94,5.988,5.988,0,0,0,2.35-.17A1.1,1.1,0,0,0,1061.61,8417.5Zm-1.01,35.58a0.934,0.934,0,0,0-1.44-1.19c-1.64,2.14-5.18,3.29-7.03.6-0.91-1.33-.98-2.77-1.65-4.2a9.075,9.075,0,0,0-1.57-2.49c-0.88-1.01-2.52.25-1.51,1.26,2,1.93,2,5.71,2,8.26v10.26a0.131,0.131,0,0,1-.14.14c-2.73-.42-5.81-0.91-8.4.07a4.186,4.186,0,0,0-2.42,2.03,2.991,2.991,0,0,0,.6,3.36c2.2,2.17,6.19,2.03,8.96,1.29a4.614,4.614,0,0,0,2.73-1.99,5.843,5.843,0,0,0,.7-2.49c0-.1.07-0.14,0.14-0.1a41.673,41.673,0,0,1,7.31,3.6c1.26,0.77,2.38-1.29,1.09-2.03a33.309,33.309,0,0,0-8.4-3.25,0.182,0.182,0,0,1-.14-0.18v-12.18a0.1,0.1,0,0,1,.17-0.07C1054.16,8456.51,1058.29,8455.85,1060.6,8453.08Zm-11.55,16.38a2.715,2.715,0,0,1-1.61,1.37c-2.1.87-5.6,0.98-7.35-.7-1.3-1.26.1-2.7,1.26-3.15,2.45-.98,5.32-0.39,7.87.21a0.149,0.149,0,0,1,.14.17A6.16,6.16,0,0,1,1049.05,8469.46Zm8.68,39.5c-0.18-2.63-1.3-6.93-4.24-8.4a4.723,4.723,0,0,0-4.79.63,10.48,10.48,0,0,0-2.77,3.25,13.876,13.876,0,0,0-1.4,3.47,15.771,15.771,0,0,0-.63,3.67,0.106,0.106,0,0,1-.21,0,12.521,12.521,0,0,1-.31-3.85,44.769,44.769,0,0,1,1.47-8.82,1.134,1.134,0,0,0-2.24-.35,53.837,53.837,0,0,0-1.02,9.1,24.469,24.469,0,0,0,1.33,8.54,0.979,0.979,0,0,0,1.89-.38c-0.14-3.22.39-7.7,2.24-10.71a9.272,9.272,0,0,1,2.45-2.77c0.88-.56,2.28-1.05,3.26-0.38,2.2,1.29,2.62,4.58,2.8,6.93a21.935,21.935,0,0,1-.28,3.99c-0.74,3.99-2.17,7.84-5.6,10.57-0.53.38-1.09,0.66-1.61,1.05h-0.04a0.611,0.611,0,0,0,.56,1.08,12.414,12.414,0,0,0,1.89-1.01,17.433,17.433,0,0,0,6.93-11.1A16.045,16.045,0,0,0,1057.73,8508.96Z" transform="translate(-1033.28 -8286.19)"/>
</svg>
