<svg xmlns="http://www.w3.org/2000/svg" width="451.19" height="21.85" viewBox="0 0 451.19 21.85">
  <defs>
    <style>
      .cls-1 {
        fill-rule: evenodd;
      }
    </style>
  </defs>
  <path id="ttl_villa003.svg" class="cls-1" d="M1109.94,1989.86h9.55l0.29-.5a14.057,14.057,0,0,0-1.78-1.87l-1.41,1.77h-6.77v-3.05a1.4,1.4,0,0,0,.98-0.62,0.5,0.5,0,0,0-.38-0.31,48.014,48.014,0,0,0,5.09-3.24l0.86-.22a0.387,0.387,0,0,0,.34-0.29c0-.28-0.63-0.91-1.85-1.87l-1.08,1.23h-12.56l0.24,0.6h12.32a30.547,30.547,0,0,1-4.25,3.6,7.891,7.891,0,0,0-1.23-.12v4.29h-10.08l0.22,0.6h9.98v6.89a0.769,0.769,0,0,1-.93.77c-0.77,0-2.16-.07-4.2-0.26v0.64a23.539,23.539,0,0,1,3.07.65,1.056,1.056,0,0,1,.82.99v0.02c1.82-.02,2.76-0.67,2.76-1.94v-7.76Zm33.43-4.89a0.619,0.619,0,0,0,.36-0.96,3.251,3.251,0,0,0-1.59-1.08,4.393,4.393,0,0,0-1.46-.32,0.467,0.467,0,0,0-.43.1,0.4,0.4,0,0,0,.21.53,9.492,9.492,0,0,1,1.54,1.22A1.678,1.678,0,0,0,1143.37,1984.97Zm2.09-1.11a0.619,0.619,0,0,0,.33-0.98,3.316,3.316,0,0,0-1.63-.99,5.766,5.766,0,0,0-1.49-.26,0.539,0.539,0,0,0-.43.12,0.358,0.358,0,0,0,.24.5,3.95,3.95,0,0,1,1.63,1.11A1.425,1.425,0,0,0,1145.46,1983.86Zm-3.27,11.6c-0.48-.72-1.85-0.56-2.76-0.24a17.5,17.5,0,0,1-3.84.69,4.413,4.413,0,0,1-3.5-.81c-1.04-1.04-.94-2.57.84-3.97a22.78,22.78,0,0,1,3.74-2.27,20.966,20.966,0,0,0,3.86-2.17,1.461,1.461,0,0,0,.08-2.16,2.306,2.306,0,0,0-1.23-.55c-0.45-.05-0.84.19-0.53,0.58a0.929,0.929,0,0,1-.09,1.25,11.608,11.608,0,0,1-2.09,1.41c-0.46.29-.86,0.53-1.27,0.79a1.069,1.069,0,0,1-.36-0.88,22,22,0,0,1,.31-2.55,14.9,14.9,0,0,1,.58-1.97,2.133,2.133,0,0,0,.04-1.53,4.214,4.214,0,0,0-1.12-1.32c-0.39-.27-0.96-0.51-1.16-0.15a0.979,0.979,0,0,0,.39.87,2.511,2.511,0,0,1,.36,1.53c-0.03.68-.15,1.61-0.22,2.43a11.412,11.412,0,0,0-.17,2.71,2.071,2.071,0,0,0,.92,1.13c-0.34.21-.7,0.43-1.08,0.69a10.927,10.927,0,0,0-3.05,2.93,3.328,3.328,0,0,0,.29,3.75c0.86,1.01,2.73,1.34,4.89,1.37a32.953,32.953,0,0,0,5.14-.34C1141.98,1996.56,1142.67,1996.2,1142.19,1995.46Zm27.48-5.12a10.7,10.7,0,0,0-2.91-2.52,7.875,7.875,0,0,0-1.36-.74,0.458,0.458,0,0,0-.53.07c-0.1.19,0.09,0.34,0.33,0.46a8.916,8.916,0,0,1,1.32.93,7.275,7.275,0,0,1,1.83,2.26,6.153,6.153,0,0,1,.69,3.31,3.436,3.436,0,0,1-2.35,3.07,5.271,5.271,0,0,1-4.53-.33,4.117,4.117,0,0,1-1.59-3.34c0-.43-0.02-0.81,0-1.2,0.22,0.07.46,0.12,0.67,0.19a8.048,8.048,0,0,0,2.6.22,0.916,0.916,0,0,0,.88-0.43,0.958,0.958,0,0,0-.48-0.91,1.945,1.945,0,0,0-1.27-.22,7.868,7.868,0,0,1-2.3-.34c0.05-.33.09-0.67,0.14-1.03q0.105-.855.24-1.68c0.22-.12.46-0.22,0.7-0.34a20.566,20.566,0,0,0,2.28-1.15,0.991,0.991,0,0,0,.55-1.2,1.436,1.436,0,0,0-1.44-.69c-0.43-.05-0.89-0.1-1.3-0.17,0.22-.79.46-1.66,0.68-2.31,0.33-1.08.43-1.89-.03-2.35a4.029,4.029,0,0,0-1.51-.93c-0.38-.1-0.65-0.08-0.74.12a0.577,0.577,0,0,0,.26.64,2.205,2.205,0,0,1,.55.99,3.31,3.31,0,0,1,.07,1.25,10.569,10.569,0,0,1-.28,1.46c-0.05.26-.12,0.55-0.2,0.86a3.884,3.884,0,0,1-1.39-.64c-0.41-.34-0.62-0.84-1.03-0.7a1.115,1.115,0,0,0,.12,1.27,3.016,3.016,0,0,0,1.54,1.23c0.16,0.04.31,0.12,0.48,0.16-0.15.6-.29,1.35-0.46,2.33a13.566,13.566,0,0,0-1.1.8,1.838,1.838,0,0,0-.87,1.44c0,0.59.39,0.95,1.18,1.44a2.791,2.791,0,0,0,.33.19c-0.02.33-.04,0.67-0.07,0.98a7.318,7.318,0,0,0,.75,3.99,4.228,4.228,0,0,0,2.97,1.92,7.768,7.768,0,0,0,3.79-.22,6.258,6.258,0,0,0,2.88-1.85,4.369,4.369,0,0,0,.96-2.85A6.167,6.167,0,0,0,1169.67,1990.34Zm-7.83-4.44c0.75,0.03.6,0.39,0.34,0.58-0.14.09-.55,0.36-0.98,0.62a10.767,10.767,0,0,1,.24-1.05,0.426,0.426,0,0,0,.04-0.17A2.565,2.565,0,0,0,1161.84,1985.9Zm-2.61,4.11c-0.31-.34-0.27-0.7.26-1.04,0.1-.04.19-0.11,0.29-0.16-0.07.43-.14,0.96-0.19,1.49C1159.47,1990.2,1159.35,1990.1,1159.23,1990.01Zm26.89,4.82v-5.45l0.58-.36a0.36,0.36,0,0,0,.24-0.28,3.959,3.959,0,0,0-1.44-1.49l-0.94,1.12h-3.24l0.24,0.6h3.22v6.49a25.947,25.947,0,0,1-3.46,2.42c0.65,1.2,1.16,1.82,1.49,1.82,0.22,0,.31-0.31.31-0.96a32.943,32.943,0,0,0,2.57-3.26,5.95,5.95,0,0,0,3.15,2.66c1.6,0.65,4.22.99,7.85,0.99h5.64a4.1,4.1,0,0,1,.64-1.56c-2.47.21-4.7,0.31-6.72,0.31a24.757,24.757,0,0,1-6.72-.7A5.879,5.879,0,0,1,1186.12,1994.83Zm9.2-6.74h6.74l0.24-.44a9.531,9.531,0,0,0-1.08-1.22,1.363,1.363,0,0,0-.31-0.29l-1.08,1.35h-3.14a14.26,14.26,0,0,0,1.39-1.68c0.65-.05.96-0.17,0.96-0.34,0-.26-0.65-0.65-1.97-1.15h5.18l0.24-.41a14.147,14.147,0,0,0-1.46-1.49l-1.01,1.3h-4.73v-2.28h5.81l0.27-.41a13.1,13.1,0,0,0-1.4-1.54l-0.98,1.35h-3.7v-1.49c0.7-.22,1.04-0.41,1.04-0.65,0-.36-0.8-0.57-2.4-0.62v2.76h-5.74l0.26,0.6h5.48v2.28h-6.65l0.26,0.6h9.53a15.229,15.229,0,0,1-1.2,3.17h-3.39a0.84,0.84,0,0,0,.49-0.75c0-.86-0.82-1.65-2.43-2.4l-0.34.43a3.757,3.757,0,0,1,1.25,2.04,0.951,0.951,0,0,0,.39.68h-4.23l0.27,0.6h6.02v2.16h-5.42l0.28,0.6h5.14v2.45h-6.65l0.31,0.6h6.34v2.92h1.42v-2.92h7.2l0.24-.41a14.863,14.863,0,0,0-1.56-1.54l-1.08,1.35h-4.8v-2.45h5.76l0.24-.41c-0.36-.43-0.84-0.91-1.44-1.49l-1.06,1.3h-3.5v-2.16Zm-12.72-8.96-0.39.44a7.373,7.373,0,0,1,2.38,3.33,0.9,0.9,0,0,0,.79.79,0.8,0.8,0,0,0,.89-0.93C1186.27,1981.49,1185.04,1980.29,1182.6,1979.13Zm30.76,14.81a5.964,5.964,0,0,0,.91,2.76,1.338,1.338,0,0,0,1.35.72c0.43-.16.48-1.1,0.24-1.8a9.3,9.3,0,0,1-.53-2.97,6.1,6.1,0,0,1,.6-2.62,0.4,0.4,0,0,0,.02-0.53c-0.17-.09-0.33.05-0.5,0.29a9.062,9.062,0,0,0-.87,1.44,0.916,0.916,0,0,1-.31.51,0.867,0.867,0,0,1-.12-0.77,12.466,12.466,0,0,1,.22-1.9,17.937,17.937,0,0,1,.53-2.28c0.24-.7.62-1.75,0.81-2.26a4.838,4.838,0,0,0,.39-2.01,3.022,3.022,0,0,0-.72-1.66,1.071,1.071,0,0,0-1.18-.45,0.823,0.823,0,0,0,.19.93,3.313,3.313,0,0,1,.22,2.07c-0.15.86-.39,1.51-0.7,2.9a34.893,34.893,0,0,0-.62,3.6A16.168,16.168,0,0,0,1213.36,1993.94Zm10.94-10.34a7.177,7.177,0,0,0,2.93-.27c0.77-.26,1.11-0.81.89-1.17a1.3,1.3,0,0,0-1.44-.17,7.753,7.753,0,0,1-2.33.5,7.46,7.46,0,0,1-2.16-.14c-0.57-.19-0.93-0.24-1.05,0-0.1.24,0.21,0.43,0.6,0.6A8.393,8.393,0,0,0,1224.3,1983.6Zm-3.45,9.24c-0.22.12-.1,0.55,0.24,0.94a6.222,6.222,0,0,0,1.82,1.39,9.251,9.251,0,0,0,2.83.72,10.481,10.481,0,0,0,3.12-.19c0.94-.22,1.66-0.65,1.44-1.18a1.348,1.348,0,0,0-1.39-.62c-0.57,0-1.63.36-2.81,0.45a8.6,8.6,0,0,1-2.88-.21,5.711,5.711,0,0,1-1.48-.8A1.02,1.02,0,0,0,1220.85,1992.84Zm22-3.29c-0.52-.26-0.86-0.43-0.98-0.48a4.968,4.968,0,0,0-.53-0.24v9.1h1.37v-1.95h5.04v1.49h1.34v-6.98l0.51-.36a0.384,0.384,0,0,0,.19-0.29,0.506,0.506,0,0,0-.17-0.31l0.1-.1a18.8,18.8,0,0,0,2.21-3.65,22.9,22.9,0,0,0,2.56,7.44,18.075,18.075,0,0,1-6.64,5.98l0.36,0.5a16.839,16.839,0,0,0,7.1-5.23,19.7,19.7,0,0,0,5.3,4.75,4.4,4.4,0,0,1,1.25-1.36,17.677,17.677,0,0,1-5.83-4.54,22.686,22.686,0,0,0,2.95-9.51h2.59l0.24-.43a11.84,11.84,0,0,0-1.56-1.73l-1.15,1.56h-6.17a28.481,28.481,0,0,0,.94-3.5c0.7-.14,1.06-0.31,1.06-0.53,0-.33-0.82-0.65-2.45-0.93a26.916,26.916,0,0,1-3.24,10.7l-0.1.12c-0.02-.02-0.09-0.07-0.24-0.19-0.19-.14-0.36-0.29-0.53-0.41l-0.81,1.08h-1.63v-5.35h4.36l0.27-.46a12.561,12.561,0,0,0-1.56-1.7l-1.06,1.56h-2.01v-3.87a1.488,1.488,0,0,0,.98-0.67c0-.31-0.82-0.53-2.42-0.62v5.16h-4.28l0.24,0.6h4.04v5.35h-1.64Zm-0.14.6h5.04v5.23h-5.04v-5.23Zm12.48,2.02a21.51,21.51,0,0,1-2.78-7.49c0.02-.07.07-0.22,0.14-0.43s0.14-.34.17-0.44h4.68A24.028,24.028,0,0,1,1255.19,1992.17Zm20.95-.84c-1.08.24-2.04,0.43-2.91,0.55a45.673,45.673,0,0,0,4.18-7.06c0.65,0,.99-0.12.99-0.33,0-.36-0.63-0.8-1.9-1.3a53.953,53.953,0,0,1-4.06,8.81c-0.67.05-1.2,0.1-1.56,0.14,0.31,1.3.6,1.95,0.89,1.95a0.828,0.828,0,0,0,.46-0.77c1.27-.36,2.49-0.77,3.67-1.22a16,16,0,0,1-4.75,7.22l0.45,0.46a15.749,15.749,0,0,0,6.15-9.53,0.944,0.944,0,0,0,.93-0.39c0-.28-0.64-0.62-1.97-1C1276.5,1989.86,1276.33,1990.68,1276.14,1991.33Zm4.25-11.28-0.12-.08c-0.46-.24-0.91-0.45-1.35-0.64v16.94c-0.21.07-.88,0.24-1.97,0.53,0.51,1.34.92,2.02,1.21,2.02,0.16,0,.26-0.32.28-0.96a40.418,40.418,0,0,0,5.19-2.57,9.019,9.019,0,0,1,.43,1.87c0.1,0.72.31,1.08,0.67,1.08a0.828,0.828,0,0,0,.82-1.03c0-1.66-1.11-3.55-3.31-5.72l-0.46.34a14.636,14.636,0,0,1,1.61,2.86c-1.01.41-2.07,0.81-3.17,1.17v-6.6h3.1v1.15h1.27v-9.31l0.55-.38a0.355,0.355,0,0,0,.17-0.27,3.514,3.514,0,0,0-1.32-1.46l-0.84,1.06h-2.76Zm-0.17.6h3.1v3.6h-3.1v-3.6Zm0,8.01v-3.81h3.1v3.81h-3.1Zm7.56,6.41c1.39,0.22,2.11.67,2.14,1.37a2.944,2.944,0,0,0,1.24-.41c0.99-.5,1.47-1.73,1.47-3.69a7.685,7.685,0,0,0-2.86-5.74,32.375,32.375,0,0,0,2.09-5.62l0.58-.29a0.32,0.32,0,0,0,.24-0.26,5.569,5.569,0,0,0-1.54-1.66l-0.74,1.08H1288c-0.44-.26-0.96-0.52-1.56-0.81v20.69h1.34v-4.66Zm0-.57v-14.05h2.74a41.8,41.8,0,0,1-1.47,6.24,8.548,8.548,0,0,1,2.31,5.24c0,1.77-.56,2.66-1.68,2.66C1289.12,1994.59,1288.5,1994.54,1287.78,1994.5Zm-14.76-10.18a9.406,9.406,0,0,0-1.66-1.11l-0.36.41a7.361,7.361,0,0,1,2.26,3.24,0.9,0.9,0,0,0,.74.82,0.683,0.683,0,0,0,.72-0.82,3.25,3.25,0,0,0-1.17-2.09,33.856,33.856,0,0,0,2.49-4.87c0.67-.02,1.01-0.14,1.01-0.38,0-.36-0.74-0.77-2.21-1.23A30.535,30.535,0,0,1,1273.02,1984.32Zm45.46,0.93a3.869,3.869,0,0,0-3.65.05,7.6,7.6,0,0,0-2.86,2.4,2.729,2.729,0,0,0-.33.43,2.184,2.184,0,0,0-1.42-.81,3.135,3.135,0,0,0-1.82.17c-0.17.07-.39,0.16-0.6,0.24,0.09-.12.16-0.27,0.26-0.39a30.408,30.408,0,0,0,1.63-2.81,8.666,8.666,0,0,0,.63-1.51,3.072,3.072,0,0,0,.48-0.24,4.372,4.372,0,0,0,1.41-1.56c0.22-.43.34-0.67,0.12-0.84a2.857,2.857,0,0,0-1.01-.33c-0.14-.03-0.6-0.12-0.98-0.2a1.025,1.025,0,0,0-.36-0.33,0.912,0.912,0,0,0-1.01-.03,0.749,0.749,0,0,0,.15.96,1.256,1.256,0,0,1,.36,1.28c-0.15.02-.27,0.07-0.41,0.09a4.1,4.1,0,0,1-2.12-.07c-0.57-.22-1.03-0.5-1.34-0.07a1.269,1.269,0,0,0,.5,1.51,3.659,3.659,0,0,0,2.21.36,4.631,4.631,0,0,0,.65-0.1,10.253,10.253,0,0,1-.84,1.73,11.073,11.073,0,0,1-2.78,3.41,14.658,14.658,0,0,1-1.35.77,1.441,1.441,0,0,0-.57,1.18c0,0.48.07,0.84,0.64,0.84a2.739,2.739,0,0,0,1.95-1.37c0.31-.46.67-0.87,1.03-1.32a2.641,2.641,0,0,1,.46-0.27,3.2,3.2,0,0,1,1.73-.26,2.53,2.53,0,0,1,1.7.96,1.992,1.992,0,0,1,.34,1.06c-0.51.23-1.01,0.5-1.47,0.76a12.06,12.06,0,0,0-2.49,1.78,3.216,3.216,0,0,0-1.16,2.33,2.5,2.5,0,0,0,1.16,2.4,7.517,7.517,0,0,0,3.55.98,29.442,29.442,0,0,0,3.86-.24,5.128,5.128,0,0,0,1.44-.29c0.39-.21.39-0.64-0.05-0.96a1.9,1.9,0,0,0-1.6-.43,18.206,18.206,0,0,0-1.8.34,16.9,16.9,0,0,1-2.5.26,3.227,3.227,0,0,1-2.62-1.17,2.154,2.154,0,0,1,.29-2.38,5.775,5.775,0,0,1,2.14-1.73c0.36-.19.79-0.38,1.25-0.57v0.16a11.518,11.518,0,0,1-.39,2.45c-0.17.53,0.05,0.96,0.6,0.89a1.444,1.444,0,0,0,1.11-.86,4.626,4.626,0,0,0,.31-2.33c-0.03-.31-0.07-0.63-0.12-0.94,0.31-.12.6-0.26,0.86-0.36,1.01-.43,2.31-0.86,3.1-1.27a6.289,6.289,0,0,0,1.97-1.49A1.546,1.546,0,0,0,1318.48,1985.25Zm-7.78-4.34a2.105,2.105,0,0,0-.14-0.67,2.741,2.741,0,0,1,.28.05,0.907,0.907,0,0,1,.65.24c0.07,0.09-.05.36-0.45,0.57-0.1.05-.22,0.1-0.34,0.17A1.08,1.08,0,0,0,1310.7,1980.91Zm5.98,6.67c-1.11.6-2.4,1.18-3.51,1.68-0.24.1-.45,0.22-0.69,0.32a2.255,2.255,0,0,0-.22-0.48,5.774,5.774,0,0,1,1.44-2.21,4.736,4.736,0,0,1,2.26-1.3,1.473,1.473,0,0,1,1.65.34C1317.8,1986.24,1317.78,1986.98,1316.68,1987.58Zm29.16,3.29a8.431,8.431,0,0,1-2.43,2.28,16.2,16.2,0,0,1-3.33,1.42,7.614,7.614,0,0,1-1.71.29,0.373,0.373,0,0,0-.4.31c0,0.14.16,0.21,0.48,0.24a10.348,10.348,0,0,0,2.01-.29,20.14,20.14,0,0,0,3.46-1.32,8.427,8.427,0,0,0,3.21-2.47,4.98,4.98,0,0,0,.99-3.6,4.533,4.533,0,0,0-1.42-2.98,5.223,5.223,0,0,0-3.48-1.42,8.842,8.842,0,0,0-3.36.84,25.6,25.6,0,0,0-2.57,1.28c-0.67.38-2.2,1.27-2.66,1.48a3.747,3.747,0,0,1-1.51.6,5.286,5.286,0,0,1-1.47-.16,0.685,0.685,0,0,0-.76.09,0.993,0.993,0,0,0,.52,1.03,3.731,3.731,0,0,0,2.16.84,4.183,4.183,0,0,0,2.62-1c0.77-.63,1.75-1.47,2.42-1.97a16.155,16.155,0,0,1,2.38-1.47,5.15,5.15,0,0,1,2.4-.4,3.547,3.547,0,0,1,2.42,1.15,3.291,3.291,0,0,1,.8,2.45A5.9,5.9,0,0,1,1345.84,1990.87Zm19.9-6.82c0.69-.62,1.73-1.36,2.25-1.84a2.079,2.079,0,0,0,.84-1.44,1.612,1.612,0,0,0-.57-1.37,1.053,1.053,0,0,0-1.08-.46,0.546,0.546,0,0,0-.12.67,1.453,1.453,0,0,1-.07,1.13c-0.24.36-1.2,1.39-1.83,2.16a25.06,25.06,0,0,0-2.13,3.17,6.305,6.305,0,0,0-.89,2.64,4.916,4.916,0,0,0,1.1,1.9,19.818,19.818,0,0,1,1.71,2.71,19.039,19.039,0,0,1,1.29,2.88c0.27,0.89.41,1.44,0.53,1.97a0.831,0.831,0,0,0,.94.72c0.43-.07.64-0.53,0.64-1.32a6.707,6.707,0,0,0-.86-2.91,14.77,14.77,0,0,0-1.82-2.71c-0.72-.86-1.47-1.73-1.78-2.16a3.532,3.532,0,0,1-.79-1.2,5.308,5.308,0,0,1,.69-2.02A12.336,12.336,0,0,1,1365.74,1984.05Zm28.6,9.46a7.324,7.324,0,0,1-2.06,1.92,13.777,13.777,0,0,1-2.84,1.2,5.238,5.238,0,0,1-1.44.24,0.353,0.353,0,0,0-.36.29,0.367,0.367,0,0,0,.41.19,6.9,6.9,0,0,0,1.73-.26,18.9,18.9,0,0,0,2.93-1.11,7.339,7.339,0,0,0,2.76-2.08,4.364,4.364,0,0,0,.81-3.08,3.728,3.728,0,0,0-1.2-2.52,4.282,4.282,0,0,0-2.95-1.22,7.13,7.13,0,0,0-2.85.72,17.913,17.913,0,0,0-2.19,1.08c-0.57.31-1.89,1.08-2.28,1.27a3.237,3.237,0,0,1-1.27.51,3.894,3.894,0,0,1-1.25-.15,0.552,0.552,0,0,0-.65.1,0.844,0.844,0,0,0,.46.86,3.178,3.178,0,0,0,1.82.72,3.686,3.686,0,0,0,2.21-.86c0.67-.56,1.51-1.28,2.07-1.68a13.321,13.321,0,0,1,2.01-1.25,3.964,3.964,0,0,1,2.04-.31,2.934,2.934,0,0,1,2.09.96,2.691,2.691,0,0,1,.67,2.06A5.048,5.048,0,0,1,1394.34,1993.51Zm14.42-7.85a10.717,10.717,0,0,0,2.73-.86c0.87-.31,2.43-0.99,3.43-1.37,0.46-.17.92-0.31,1.37-0.43a11.972,11.972,0,0,0-1.27,1.1,4.685,4.685,0,0,0-1.18,2.16,28.378,28.378,0,0,0-.6,3.22,14.831,14.831,0,0,0,.05,3.84,3.684,3.684,0,0,0,1.2,2.47,4.939,4.939,0,0,0,2.88,1.03,13.574,13.574,0,0,0,2.57,0c0.58-.04.82-0.45,0.6-0.76a1.908,1.908,0,0,0-1.1-.77,5.852,5.852,0,0,0-1.88-.07,3.03,3.03,0,0,1-2.18-.53,2.792,2.792,0,0,1-1.03-1.99,16.136,16.136,0,0,1,.07-4.23,12.862,12.862,0,0,1,.58-2.71,5.211,5.211,0,0,1,1.46-1.99c0.48-.41,1.01-0.82,1.39-1.11,0.05,0,.12-0.02.17-0.02a19.4,19.4,0,0,1,2.98-.31,8.915,8.915,0,0,1,1.6.21,0.739,0.739,0,0,0,.89-0.26,0.875,0.875,0,0,0-.53-1.06,4,4,0,0,0-2.35-.24c-0.84.12-2.69,0.6-4.29,1.01-1.64.43-3.48,1.01-4.32,1.27a15.963,15.963,0,0,1-3.17.75,3.828,3.828,0,0,1-1.56-.27,0.914,0.914,0,0,0-1.03-.07,1.133,1.133,0,0,0,.38,1.3A2.6,2.6,0,0,0,1408.76,1985.66Zm25.72,10.88c1.13,0.64,2.6-.03,3.46-1.01,0.29-.34.58-0.67,0.84-1.01v0.12a1.89,1.89,0,0,0,.19,1.22,0.8,0.8,0,0,0,1.01-.43,2.872,2.872,0,0,0,.26-1.68c-0.02-.33-0.04-0.84-0.07-1.37,0.19-.38.41-0.76,0.63-1.17a7.441,7.441,0,0,0,1.03-3.68,11.562,11.562,0,0,1,3.65.17,3.9,3.9,0,0,1,2.85,2.12,4.928,4.928,0,0,1-.33,4.58,7.26,7.26,0,0,1-4.37,3.1,21.976,21.976,0,0,1-3.72.52,0.428,0.428,0,0,0-.43.24c0,0.15.14,0.29,0.5,0.34a16.522,16.522,0,0,0,3.77-.34,9.236,9.236,0,0,0,4.58-2.32,5.568,5.568,0,0,0,1.71-4.97,4.616,4.616,0,0,0-2.91-3.89,10.531,10.531,0,0,0-5.42-.6,1.68,1.68,0,0,0-.29-0.63,0.555,0.555,0,0,0-.77-0.28,0.816,0.816,0,0,0,.19.79,0.818,0.818,0,0,1,.1.24c-0.26.05-.53,0.12-0.82,0.19,0.03-.84.05-1.78,0.05-2.38v-0.14a14.363,14.363,0,0,0,1.71-.55,3.941,3.941,0,0,0,1.53-1.03c0.24-.34.29-0.63,0.03-0.82a1.215,1.215,0,0,0-1.16-.1,3.129,3.129,0,0,0-1.1.75,6.855,6.855,0,0,1-.96.65c0-.51.05-0.99,0.07-1.3a3.477,3.477,0,0,0,.07-1.37,2.083,2.083,0,0,0-.84-0.93,1.377,1.377,0,0,0-1.2-.32,0.521,0.521,0,0,0,.2.7,1.222,1.222,0,0,1,.55,1.03c0,0.43-.07,1.87-0.1,2.59a5.04,5.04,0,0,1-.86.1,2.667,2.667,0,0,1-1.08-.17,0.852,0.852,0,0,0-.94-0.07,0.808,0.808,0,0,0,.58.86,4.081,4.081,0,0,0,2.25.24c-0.04.77-.12,1.92-0.12,2.57,0,0.03-.02.07-0.02,0.1a8.488,8.488,0,0,0-2.33,1.34,8.626,8.626,0,0,0-2.81,4.16C1433.26,1994.23,1433.33,1995.89,1434.48,1996.54Zm5.76-6.36c-0.04.07-.09,0.16-0.14,0.23,0-.69,0-1.77.02-2.56a5.359,5.359,0,0,1,.92-0.2c0,0.08-.03.17-0.03,0.24A7.711,7.711,0,0,1,1440.24,1990.18Zm-4.99,1.84a7.074,7.074,0,0,1,3.53-3.69c-0.02,1.05-.05,2.3-0.05,2.71v1.63a12.308,12.308,0,0,1-1.51,1.63,1.932,1.932,0,0,1-1.97.46C1434.72,1994.42,1434.84,1993.13,1435.25,1992.02Zm31.01-4.25c0.26-.38.31-0.62,0.19-0.72a0.8,0.8,0,0,0-.63.39,15.294,15.294,0,0,0-1.65,2.35,20.156,20.156,0,0,0-1.13,2.35,11.369,11.369,0,0,1,.5-4.03,18.9,18.9,0,0,1,1.15-2.98,4.227,4.227,0,0,0,.24-2.52,5.408,5.408,0,0,0-1.15-2.68c-0.41-.48-0.77-0.68-0.98-0.46a0.745,0.745,0,0,0,.09.82,6.055,6.055,0,0,1,.53,1.75,6.931,6.931,0,0,1-.14,2.59c-0.27.96-.65,1.97-0.89,3.07a33.584,33.584,0,0,0-.62,3.58,10.914,10.914,0,0,0,.31,3.98,5.515,5.515,0,0,0,1.25,2.38,0.967,0.967,0,0,0,1.05.26,1.053,1.053,0,0,0,.24-1.29,8.057,8.057,0,0,1-.6-2.79,9.872,9.872,0,0,1,.87-3.64C1465.37,1989.26,1465.99,1988.16,1466.26,1987.77Zm9.16-5.49a4.862,4.862,0,0,0-.57-2.52,2.112,2.112,0,0,0-1.25-.72,0.868,0.868,0,0,0-.89.12c-0.17.29,0.12,0.57,0.43,0.84a2.283,2.283,0,0,1,.7,1.44,24.149,24.149,0,0,1,.19,2.69v1.32a8.017,8.017,0,0,1-1.73.28,5.312,5.312,0,0,1-2.18-.12,0.486,0.486,0,0,0-.58.12c-0.12.24,0.27,0.6,0.94,0.72a15.543,15.543,0,0,0,3.24.12c0.1,0,.22-0.02.34-0.02,0,0.43-.03.86-0.03,1.25a39.241,39.241,0,0,1-.33,4.05,7.709,7.709,0,0,1-1.35,3.29,14.413,14.413,0,0,1-1.65,1.88,13.282,13.282,0,0,1-1.35,1.12c-0.31.2-.53,0.36-0.43,0.53,0.1,0.19.46,0.19,0.91-.09a14.091,14.091,0,0,0,2.62-2,10.012,10.012,0,0,0,2.47-4.24,14.528,14.528,0,0,0,.67-4.66c0-.41-0.02-0.87-0.02-1.32a20.415,20.415,0,0,0,2.06-.48,1.044,1.044,0,1,0,.27-2.07,9.123,9.123,0,0,1-1.66-.81A4.653,4.653,0,0,1,1475.42,1982.28Zm1.2,2.33a7.777,7.777,0,0,1-1.08.43c-0.02-.67-0.04-1.32-0.07-1.87a7.912,7.912,0,0,0,.63.5c0.28,0.22.52,0.38,0.62,0.46A0.29,0.29,0,0,1,1476.62,1984.61Zm2.4-1.59a0.629,0.629,0,0,0,.39-0.96,3.324,3.324,0,0,0-1.59-1.08,4.729,4.729,0,0,0-1.46-.31,0.536,0.536,0,0,0-.46.1,0.384,0.384,0,0,0,.22.5,10.429,10.429,0,0,1,1.56,1.25A1.59,1.59,0,0,0,1479.02,1983.02Zm2.12-1.1a0.649,0.649,0,0,0,.33-0.99,3.412,3.412,0,0,0-1.65-.98,5.243,5.243,0,0,0-1.47-.26,0.539,0.539,0,0,0-.43.12,0.348,0.348,0,0,0,.24.5,4.308,4.308,0,0,1,1.63,1.1A1.377,1.377,0,0,0,1481.14,1981.92Zm10.84,10.44c-0.41.94-.82,1.78-1.13,2.52a6.456,6.456,0,0,0-.7,1.75,1.5,1.5,0,0,0,.39,1.32,0.66,0.66,0,0,0,.98-0.24,39.213,39.213,0,0,0,1.61-3.96c0.33-1.05,1.03-3.24,1.22-3.89s0.79-2.37.99-3.07a6.651,6.651,0,0,0,.21-0.77,9.607,9.607,0,0,0,1.2-.21,5.032,5.032,0,0,0,2.19-1.18c0.4-.43.48-0.67,0.33-0.96a1.621,1.621,0,0,0-1.1-.5,8.444,8.444,0,0,1-1.73-.63,2.776,2.776,0,0,0,0-1.25,1.977,1.977,0,0,0-.86-1.29,1,1,0,0,0-1.06-.19,0.764,0.764,0,0,0,.1,1,3.5,3.5,0,0,1,.52,1.61,9.42,9.42,0,0,1-.28,2.55,6.575,6.575,0,0,1-1.92.33,3.818,3.818,0,0,1-1.2-.07c-0.34-.1-0.6-0.24-0.7-0.26a0.329,0.329,0,0,0-.46,0,0.685,0.685,0,0,0,.48.88,6.045,6.045,0,0,0,2.43.34c0.31,0,.65-0.02,1.01-0.05-0.32,1.01-.75,2.26-0.99,2.79C1493.2,1989.67,1492.41,1991.4,1491.98,1992.36Zm4.94-8.76a0.267,0.267,0,0,1,0,.43,9.172,9.172,0,0,1-.96.5c0.07-.36.14-0.64,0.19-0.81,0.03-.12.07-0.31,0.12-0.51C1496.56,1983.38,1496.82,1983.53,1496.92,1983.6Zm6.17,2.85a8.652,8.652,0,0,0-1.32.99,7.394,7.394,0,0,0-1.11,1.37c-0.12.19-.19,0.48-0.07,0.52a0.807,0.807,0,0,0,.46-0.43,4.246,4.246,0,0,1,1.08-.89c0.45-.24,1.08-0.62,1.63-0.86s1.01-.43,1.18-0.5a1.023,1.023,0,0,0,.62-0.56,0.994,0.994,0,0,0-.48-1.03,2.717,2.717,0,0,0-1.58-.41,5.263,5.263,0,0,0-1.68.15,20.547,20.547,0,0,0-2.04.57c-0.29.12-.8,0.36-0.63,0.65a0.953,0.953,0,0,0,.79,0,9.229,9.229,0,0,1,1.25-.26,6.06,6.06,0,0,1,1.78.02,0.971,0.971,0,0,1,.62.27A1,1,0,0,1,1503.09,1986.45Zm2.59,9.73a17.23,17.23,0,0,0-2.02.26,6.988,6.988,0,0,1-2.23-.07,3.352,3.352,0,0,1-2.06-1.25,2.8,2.8,0,0,1-.1-2.42,9,9,0,0,1,.84-2c0.17-.24.22-0.45,0.1-0.52-0.1-.08-0.27.04-0.41,0.26a9.7,9.7,0,0,0-1.03,1.92,3.892,3.892,0,0,0-.31,3.34c0.52,1.15,1.36,1.82,3.31,2.13a17.879,17.879,0,0,0,4.49.15c0.64-.08,1.2-0.56.88-1.08A1.672,1.672,0,0,0,1505.68,1996.18Zm11.77-13.06a1.91,1.91,0,0,1,.56,1.51c0.02,0.84.04,2.62,0.07,3.79a15.123,15.123,0,0,0,.38,3.34,6.371,6.371,0,0,0,1.92,2.78,5.127,5.127,0,0,0,2.98,1.11c0.65,0.05,1.25-.05,1.32-0.43a1.489,1.489,0,0,0-.43-1.06,2.478,2.478,0,0,1-.34-1.42,2.447,2.447,0,0,1,.34-1,0.254,0.254,0,0,0,.02-0.39,0.458,0.458,0,0,0-.5.17,3.019,3.019,0,0,0-.7,1.06,1.686,1.686,0,0,0-.17.64,0.382,0.382,0,0,1-.29.36,2.506,2.506,0,0,1-1.24-.09,3.408,3.408,0,0,1-1.25-.84,4.584,4.584,0,0,1-.7-2.79c0-1.61,0-2.73.07-3.86a4.527,4.527,0,0,0-.33-2.64,2.7,2.7,0,0,0-1.11-1.01c-0.28-.14-0.84-0.36-0.98-0.05A0.93,0.93,0,0,0,1517.45,1983.12Zm13.81,2.13a5.25,5.25,0,0,1,1.58.65,2,2,0,0,1,.91,1.85,9.356,9.356,0,0,0-.05,2.07,0.986,0.986,0,0,0,.99.64,0.787,0.787,0,0,0,.89-0.79,5.288,5.288,0,0,0-.29-2.35,4.551,4.551,0,0,0-1.85-2.07,5.3,5.3,0,0,0-1.97-.57c-0.43-.05-0.6.02-0.62,0.21C1530.82,1985.06,1530.92,1985.21,1531.26,1985.25Zm15.12,8.65a3.072,3.072,0,0,0-2.98,3,2.768,2.768,0,0,0,1.71,2.68,2.521,2.521,0,0,0,1.29.32,2.909,2.909,0,0,0,2.16-.94,3,3,0,0,0,.84-2.06A3.058,3.058,0,0,0,1546.38,1993.9Zm0.02,0.84a2.233,2.233,0,0,1,1.25.4,2.1,2.1,0,0,1,.91,1.76,2.07,2.07,0,0,1-.77,1.63,1.965,1.965,0,0,1-1.39.53,2.041,2.041,0,0,1-1.82-1.01,2.2,2.2,0,0,1-.34-1.15,2.037,2.037,0,0,1,.58-1.47A2.185,2.185,0,0,1,1546.4,1994.74Z" transform="translate(-1098.22 -1978.06)"/>
</svg>
