<svg id="ttl_SecondMain.svg" xmlns="http://www.w3.org/2000/svg" width="51.44" height="340.38" viewBox="0 0 51.44 340.38">
  <defs>
    <style>
      .cls-1 {
        fill-rule: evenodd;
      }
    </style>
  </defs>
  <path id="セ_カ_ン_ド_ラ_イ_フ" data-name="セ カ ン ド ラ イ フ" class="cls-1" d="M1062.66,2936.14a1.232,1.232,0,0,0-1.05-.28l-15.92,1.05a0.131,0.131,0,0,1-.14-0.14v-5.99a1.076,1.076,0,1,0-2.14,0v6.16a0.248,0.248,0,0,1-.14.18l-7.38.49a0.717,0.717,0,0,0,.07,1.43h0.03l7.28-.49a0.131,0.131,0,0,1,.14.14v7.46a6.782,6.782,0,0,0,1.65,4.69,5.908,5.908,0,0,0,4.34,1.64h8.4a0.794,0.794,0,1,0,.03-1.57h-8.22c-3.43-.39-4.03-2.24-4.06-4.87v-7.52a0.151,0.151,0,0,1,.14-0.14l13.86-.95a0.191,0.191,0,0,1,.14.32c-2.7,2.55-5.81,4.62-9.56,5.18a0.564,0.564,0,0,0,.11,1.12c4.9-.35,9.06-3.01,12.42-6.41l0.07-.07A1.024,1.024,0,0,0,1062.66,2936.14Zm-11.41,52.36a0.1,0.1,0,0,1-.1-0.14,40.679,40.679,0,0,0,.63-6.76,1.086,1.086,0,0,0-2.17-.03,41.437,41.437,0,0,1-.63,6.79,0.145,0.145,0,0,1-.18.14h-7.24a0.735,0.735,0,0,0,0,1.47h6.93a0.119,0.119,0,0,1,.1.14c-1.82,6.33-6.82,11.23-12.46,15.89a0.587,0.587,0,0,0,.74.91c5.81-4.38,11.69-9.38,13.89-16.8,0-.11.07-0.14,0.18-0.14h7.24c0.11,0,.18.03,0.18,0.14a21.881,21.881,0,0,1-4.24,12.91,0.486,0.486,0,0,1-.8,0,12.581,12.581,0,0,0-1.79-1.96,0.683,0.683,0,0,0-.98.95l0.46,0.42c1.08,1.08,1.64,1.61,1.68,2.97a1.171,1.171,0,0,0,.38.81,1.192,1.192,0,0,0,1.61-.18c4.03-5.14,5.64-9.69,5.95-16.34v-0.04a1.131,1.131,0,0,0-1.12-1.15h-8.26Zm-10.01,66.17c-1.54,0-1.43,2.45.14,2.38a20.073,20.073,0,0,0,13.3-5.77,51.917,51.917,0,0,0,8.09-11.8,0.593,0.593,0,0,0-1.02-.6c-2.34,3.54-4.58,7.21-7.66,10.19a20.554,20.554,0,0,1-6.48,4.38A16.594,16.594,0,0,1,1041.24,3054.67Zm-2.41-16.94a0.573,0.573,0,0,0-.53,1.01,38.732,38.732,0,0,1,3.4,2.28c0.91,0.73,1.64,1.61,2.48,2.38a1.149,1.149,0,0,0,1.61-.11,1.122,1.122,0,0,0-.1-1.61A24.528,24.528,0,0,0,1038.83,3037.73Zm14.07,50.41a0.378,0.378,0,0,0-.18.73,11.736,11.736,0,0,1,4.41,3.92c0.49,0.74,1.33.56,1.4-.45C1058.53,3089.61,1053.6,3088.14,1052.9,3088.14Zm2.9-2.21a0.4,0.4,0,0,0-.14.77,11.491,11.491,0,0,1,4.59,3.64c0.49,0.74,1.43.53,1.36-.49C1061.47,3087.09,1056.5,3085.93,1055.8,3085.93Zm2.98,13.44c-4.83.11-8.65-.87-11.62-3.18a0.922,0.922,0,0,1-.35-0.7v-6.65c-0.11-1.93-1.09-3.12-3.01-3.12h-1.02a0.665,0.665,0,0,0,0,1.33h0.91a1.1,1.1,0,0,1,.95,1.16l0.03,23.41a1.071,1.071,0,1,0,2.14.07v-13.68a0.225,0.225,0,0,1,.35-0.21,18.611,18.611,0,0,0,11.69,3.78A1.106,1.106,0,0,0,1058.78,3099.37Zm-0.81,47.08a1.191,1.191,0,0,1,1.16,1.26c-0.46,8.78-9.52,13.72-16.21,17.43a0.6,0.6,0,0,1-.63-1.02c5.53-3.5,14-8.33,14.28-15.78a0.46,0.46,0,0,0-.42-0.46h-15.01a0.715,0.715,0,1,1,0-1.43h16.83Zm-1.85-5.67a0.72,0.72,0,1,0,0-1.44h-12.36a0.72,0.72,0,1,0,0,1.44h12.36Zm1.78,49.75c0-1.47-2.38-1.4-2.38.1v0.07c0,3.92-3.11,6.97-6.16,9.31-4.2,3.36-6.19,4.2-12.42,7.56a0.6,0.6,0,0,0,.56,1.05,83.045,83.045,0,0,0,12.28-6.68,0.087,0.087,0,0,1,.14.07v14.38a1.155,1.155,0,0,0,2.31,0v-16.17a0.266,0.266,0,0,1,.11-0.24C1055.31,3197.56,1057.9,3194.48,1057.9,3190.53Zm-16.69,56.93a0.716,0.716,0,0,0,0,1.43h15.57a0.4,0.4,0,0,1,.39.42,13.627,13.627,0,0,1-1.3,5.25,21.163,21.163,0,0,1-4.62,6.09,43.62,43.62,0,0,1-11.23,7.56,0.6,0.6,0,0,0,.52,1.09,47.782,47.782,0,0,0,12.88-8.05c3.64-3.43,6.13-7.49,6.41-12.5v-0.03a1.166,1.166,0,0,0-1.12-1.26h-17.5Z" transform="translate(-1011.56 -2929.59)"/>
  <path id="second_life" data-name="second life" class="cls-1" d="M1018.25,3092.69a0.264,0.264,0,0,0,.3.28h2.36c0.21,0,.3-0.08.3-0.2a0.307,0.307,0,0,0-.28-0.34,0.307,0.307,0,0,1-.27-0.24,1.106,1.106,0,0,1,.15-0.47,4.165,4.165,0,0,0,.57-2.23,3.308,3.308,0,0,0-.8-2.32,2.322,2.322,0,0,0-1.78-.82,2.071,2.071,0,0,0-1.73.88,7.112,7.112,0,0,0-.8,1.82l-0.19.6a8.285,8.285,0,0,1-.82,1.93,1.486,1.486,0,0,1-1.25.61c-1.16,0-1.75-.69-1.75-2.06a3.247,3.247,0,0,1,.95-2.43,3.062,3.062,0,0,1,1.79-.83,0.279,0.279,0,0,0,.28-0.32,0.268,0.268,0,0,0-.3-0.32h-2.89a0.272,0.272,0,0,0-.31.28,0.326,0.326,0,0,0,.31.32,0.36,0.36,0,0,1,.38.3,1.634,1.634,0,0,1-.25.65,4.974,4.974,0,0,0-.66,2.39,3.815,3.815,0,0,0,.57,2.12,2.345,2.345,0,0,0,2.12,1.12,2.246,2.246,0,0,0,1.9-1,7.8,7.8,0,0,0,1.01-2.34l0.15-.52c0.38-1.33.97-2.01,1.71-2.01a1.429,1.429,0,0,1,1.11.46,2.156,2.156,0,0,1,.61,1.61,2.9,2.9,0,0,1-.78,2.01,2.8,2.8,0,0,1-1.45.75A0.3,0.3,0,0,0,1018.25,3092.69Zm-0.78,12.3a4.044,4.044,0,0,1,2.12.81,2.85,2.85,0,0,1,1.15,2.31,2.711,2.711,0,0,1-.73,1.96,3.526,3.526,0,0,1-2.54,1v-6.08Zm-0.38,7.43a4.319,4.319,0,0,0,3.15-1.27,4.119,4.119,0,0,0,1.14-3.02,4.412,4.412,0,0,0-1.21-3.16,4.972,4.972,0,0,0-3.73-1.43,4.658,4.658,0,0,0-3.55,1.35,4.742,4.742,0,0,0-1.3,3.42,4.269,4.269,0,0,0,2.17,3.93,0.284,0.284,0,0,0,.42-0.1l0.04-.04a0.287,0.287,0,0,0-.08-0.44,3.551,3.551,0,0,1-1.71-3.12,3.3,3.3,0,0,1,.95-2.42,3.943,3.943,0,0,1,3.04-1.19h0.32v7.17c0,0.22.06,0.32,0.18,0.32h0.17Zm-2.85,18.51a0.275,0.275,0,0,0-.08-0.43,3.5,3.5,0,0,1-1.69-3.04,3.081,3.081,0,0,1,1.16-2.47,4.392,4.392,0,0,1,2.89-.95,5.189,5.189,0,0,1,2.73.71,2.764,2.764,0,0,1,1.49,2.59,2.52,2.52,0,0,1-1.03,2.26,0.737,0.737,0,0,0-.74-0.47,0.728,0.728,0,0,0-.78.87,0.832,0.832,0,0,0,.97.92,1.789,1.789,0,0,0,1.39-.86,4.435,4.435,0,0,0,.83-2.78,4.581,4.581,0,0,0-1.25-3.26,4.947,4.947,0,0,0-3.71-1.45,4.738,4.738,0,0,0-3.55,1.37,4.526,4.526,0,0,0-1.28,3.28,4.249,4.249,0,0,0,2.17,3.87,0.284,0.284,0,0,0,.42-0.1Zm6.51,14.92a2.788,2.788,0,0,1-1.08,2.31,4.872,4.872,0,0,1-3.17.95,5.476,5.476,0,0,1-2.7-.65,3.015,3.015,0,0,1-.42-4.89,4.732,4.732,0,0,1,3.14-.96,5.024,5.024,0,0,1,3.06.88A2.8,2.8,0,0,1,1020.75,3145.85Zm0.67,0a4.58,4.58,0,0,0-1.25-3.26,5.371,5.371,0,0,0-7.32-.02,4.925,4.925,0,0,0,0,6.58,4.859,4.859,0,0,0,3.7,1.43,4.738,4.738,0,0,0,3.6-1.43A4.541,4.541,0,0,0,1021.42,3145.85Zm-9.26,25.93a0.273,0.273,0,0,0,.27-0.32,3.2,3.2,0,0,1,.13-0.83,1.006,1.006,0,0,1,1.07-.58h4.25q3.435,0,3.43-3.26a3.8,3.8,0,0,0-1.94-3.37h1.67a0.254,0.254,0,0,0,.27-0.34,13.76,13.76,0,0,1-.23-2.35,0.287,0.287,0,0,0-.29-0.32,0.268,0.268,0,0,0-.3.32,4.02,4.02,0,0,1-.12.96,0.979,0.979,0,0,1-1.06.47h-5.68a0.973,0.973,0,0,1-1.09-.65,4.407,4.407,0,0,1-.11-0.78,0.27,0.27,0,1,0-.53,0v4.16a0.249,0.249,0,0,0,.23.31,0.281,0.281,0,0,0,.3-0.31,3.394,3.394,0,0,1,.13-0.86,0.991,0.991,0,0,1,1.07-.53h4.58a3.061,3.061,0,0,1,2.28,3.02c0,1.47-.95,2.2-2.87,2.2h-3.99a0.97,0.97,0,0,1-1.11-.65c-0.03-.22-0.07-0.48-0.09-0.76a0.27,0.27,0,1,0-.53,0v4.15A0.267,0.267,0,0,0,1012.16,3171.78Zm3.41,16.99a3.155,3.155,0,0,1-1.87-.7,2.825,2.825,0,0,1-1.23-2.34,2.718,2.718,0,0,1,1.02-2.17,4.657,4.657,0,0,1,3.04-.93,4.769,4.769,0,0,1,2.91.81,2.641,2.641,0,0,1,1.12,2.21,3.132,3.132,0,0,1-.62,1.9,2.316,2.316,0,0,1-1.87,1.22h-2.5Zm-3.41,3.04a0.273,0.273,0,0,0,.27-0.32,3.606,3.606,0,0,1,.13-0.9,1.034,1.034,0,0,1,1.09-.53h11.59a0.251,0.251,0,0,0,.28-0.34,16.584,16.584,0,0,1-.22-2.4,0.287,0.287,0,0,0-.29-0.32,0.276,0.276,0,0,0-.3.32,3.166,3.166,0,0,1-.12.99,1.026,1.026,0,0,1-1.06.46h-3.84a3.9,3.9,0,0,0,1.65-3.3,4.012,4.012,0,0,0-1.14-2.82,5.544,5.544,0,0,0-7.41-.04,3.923,3.923,0,0,0-1.1,2.84,3.673,3.673,0,0,0,1.84,3.28l-1.35.08a0.267,0.267,0,0,0-.28.31v2.37A0.267,0.267,0,0,0,1012.16,3191.81Zm0,31.66a0.27,0.27,0,0,0,.27-0.31,3.794,3.794,0,0,1,.13-0.92,0.986,0.986,0,0,1,1.07-.52h11.63a0.244,0.244,0,0,0,.26-0.33,23.333,23.333,0,0,1-.22-2.43,0.271,0.271,0,0,0-.29-0.3,0.268,0.268,0,0,0-.3.32,4.071,4.071,0,0,1-.12.98,1.024,1.024,0,0,1-1.04.45h-9.92a0.957,0.957,0,0,1-1.09-.67,5.728,5.728,0,0,1-.11-0.8,0.267,0.267,0,1,0-.53,0v4.22A0.263,0.263,0,0,0,1012.16,3223.47Zm0,13.89a0.264,0.264,0,0,0,.27-0.32,4,4,0,0,1,.15-0.91,1.027,1.027,0,0,1,1.05-.46h7.41a0.254,0.254,0,0,0,.27-0.34,15.007,15.007,0,0,1-.23-2.38,0.287,0.287,0,0,0-.29-0.32,0.268,0.268,0,0,0-.3.32,3.566,3.566,0,0,1-.12.93,0.968,0.968,0,0,1-1.06.48h-5.68a0.969,0.969,0,0,1-1.09-.66,4.8,4.8,0,0,1-.11-0.75,0.27,0.27,0,1,0-.53,0v4.09A0.258,0.258,0,0,0,1012.16,3237.36Zm13.19-2.34a0.872,0.872,0,0,0-.97-1,1.007,1.007,0,0,0,0,2.01,0.948,0.948,0,0,0,.69-0.3A1,1,0,0,0,1025.35,3235.02Zm-4.29,11.62a0.269,0.269,0,0,0-.29-0.32h-0.11a0.268,0.268,0,0,0-.3.32v1.53h-6.73a1.009,1.009,0,0,1-1.09-.68,3.909,3.909,0,0,1-.11-0.73,0.267,0.267,0,1,0-.53,0v4.21c0,0.2.07,0.3,0.23,0.3a0.269,0.269,0,0,0,.3-0.3,3.96,3.96,0,0,1,.15-1.03,1.031,1.031,0,0,1,1.05-.46h6.73v2.42a0.276,0.276,0,0,0,.3.32h0.11a0.277,0.277,0,0,0,.29-0.32v-2.42h1.29c1.79,0,2.7.58,2.7,1.75a1.329,1.329,0,0,1-.3.93,0.938,0.938,0,0,0-.59-0.22,0.713,0.713,0,0,0-.75.86,0.732,0.732,0,0,0,.84.79,1.024,1.024,0,0,0,.8-0.41,3.114,3.114,0,0,0,.57-1.99,2.919,2.919,0,0,0-.78-2.09,3.251,3.251,0,0,0-2.49-.93h-1.29v-1.53Zm-3.59,15.91a4.05,4.05,0,0,1,2.12.82,2.832,2.832,0,0,1,1.15,2.3,2.734,2.734,0,0,1-.73,1.97,3.562,3.562,0,0,1-2.54.99v-6.08Zm-0.38,7.43a4.279,4.279,0,0,0,3.15-1.27,4.1,4.1,0,0,0,1.14-3.02,4.445,4.445,0,0,0-1.21-3.16,5.01,5.01,0,0,0-3.73-1.43,4.7,4.7,0,0,0-3.55,1.35,4.775,4.775,0,0,0-1.3,3.42,4.258,4.258,0,0,0,2.17,3.93,0.289,0.289,0,0,0,.42-0.09l0.04-.04a0.287,0.287,0,0,0-.08-0.44,3.575,3.575,0,0,1-1.71-3.12,3.309,3.309,0,0,1,.95-2.43,3.978,3.978,0,0,1,3.04-1.19h0.32v7.18c0,0.21.06,0.31,0.18,0.31h0.17Z" transform="translate(-1011.56 -2929.59)"/>
</svg>
