<svg xmlns="http://www.w3.org/2000/svg" width="32.91" height="292.563" viewBox="0 0 32.91 292.563">
  <metadata><?xpacket begin="﻿" id="W5M0MpCehiHzreSzNTczkc9d"?>
<x:xmpmeta xmlns:x="adobe:ns:meta/" x:xmptk="Adobe XMP Core 5.6-c138 79.159824, 2016/09/14-01:09:01        ">
   <rdf:RDF xmlns:rdf="http://www.w3.org/1999/02/22-rdf-syntax-ns#">
      <rdf:Description rdf:about=""/>
   </rdf:RDF>
</x:xmpmeta>
                                                                                                    
                                                                                                    
                                                                                                    
                                                                                                    
                                                                                                    
                                                                                                    
                                                                                                    
                                                                                                    
                                                                                                    
                                                                                                    
                                                                                                    
                                                                                                    
                                                                                                    
                                                                                                    
                                                                                                    
                                                                                                    
                                                                                                    
                                                                                                    
                                                                                                    
                                                                                                    
                           
<?xpacket end="w"?></metadata>
<defs>
    <style>
      .cls-1 {
        fill-rule: evenodd;
      }
    </style>
  </defs>
  <path id="logo_top.svg" class="cls-1" d="M1038.27,109.228a0.516,0.516,0,0,0,.56.561h0.87a0.494,0.494,0,0,0,.53-0.561V91.377a11.414,11.414,0,0,1,2.1,4.165,1.279,1.279,0,0,0,1.01,1.19,1.054,1.054,0,0,0,1.09-1.3c0-1.716-1.4-3.5-4.2-5.426V87h4.02a0.672,0.672,0,0,0,.6-0.28,0.641,0.641,0,0,0-.07-0.735,19.1,19.1,0,0,0-1.23-1.505,0.445,0.445,0,0,0-.8.035l-1.12,1.611h-1.4V80.316c1.01-.315,1.5-0.63,1.5-0.945,0-.49-0.94-0.805-2.87-0.945a0.486,0.486,0,0,0-.59.525v7.176h-3.96c-0.38,0-.59.175-0.49,0.42a0.61,0.61,0,0,0,.63.455h3.78l-0.1.595a47.056,47.056,0,0,1-4.76,14.177,0.47,0.47,0,0,0,.1.665,0.461,0.461,0,0,0,.74-0.175,42.787,42.787,0,0,0,4.06-9v15.961Zm11.76-8.015v-4.2h8.12v4.2h-8.12Zm8.12,5.46h-8.12v-4.585h8.12v4.585Zm-6.65-15.366a27.324,27.324,0,0,0,1.43-3.71h2.21a23.513,23.513,0,0,0,1.64,3.71h-5.28Zm-3.43,17.921a0.5,0.5,0,0,0,.56.561h0.87a0.494,0.494,0,0,0,.53-0.561v-1.68h8.12v1.68a0.5,0.5,0,0,0,.56.561h0.91a0.487,0.487,0,0,0,.52-0.561V97.712l0.49-.315a0.285,0.285,0,0,0,.18-0.245,3.583,3.583,0,0,0-1.54-1.435,0.69,0.69,0,0,0-.81,0l-0.49.42h-7.91l-0.63-.279-0.66-.28,0.07-.14a21.58,21.58,0,0,0,2.2-3.256h6.27a23.8,23.8,0,0,0,6.61,6.756,0.488,0.488,0,0,0,.77-0.14,5.3,5.3,0,0,1,.74-0.805,0.4,0.4,0,0,0-.07-0.735,24.052,24.052,0,0,1-6.3-5.076h5.28a0.592,0.592,0,0,0,.56-0.21,0.582,0.582,0,0,0-.07-0.77c-0.42-.525-0.77-0.91-1.01-1.155l-0.35-.35a0.458,0.458,0,0,0-.77.035l-1.26,1.575h-3.08a21.59,21.59,0,0,1-2.21-3.71h5.57a0.522,0.522,0,0,0,.52-0.175,0.579,0.579,0,0,0-.03-0.77,11.478,11.478,0,0,0-1.02-1.155l-0.28-.28a0.462,0.462,0,0,0-.77.07l-1.12,1.435h-5.81c0.35-1.365.6-2.415,0.7-3.116h9.28a0.65,0.65,0,0,0,.56-0.21,0.594,0.594,0,0,0-.07-0.77c-0.46-.56-0.95-1.05-1.44-1.54a0.475,0.475,0,0,0-.77.035l-1.26,1.61h-6.12c0.07-.525.24-1.435,0.42-2.66,0.91-.245,1.36-0.525,1.36-0.84,0-.525-0.91-0.876-2.76-1.05a0.524,0.524,0,0,0-.63.525c-0.14,1.575-.28,2.905-0.46,4.025h-7.07c-0.38,0-.59.175-0.49,0.455a0.62,0.62,0,0,0,.63.42h6.76a30.2,30.2,0,0,1-.7,3.116h-4.97c-0.39,0-.6.175-0.49,0.455a0.637,0.637,0,0,0,.63.42h4.55a21.529,21.529,0,0,1-1.44,3.71h-5c-0.42,0-.63.175-0.49,0.455a0.637,0.637,0,0,0,.63.42h4.41a23.564,23.564,0,0,1-6.65,7.771,0.486,0.486,0,0,0-.18.664,0.5,0.5,0,0,0,.77.106,29.743,29.743,0,0,0,5.15-4.341v12.846Zm6.72,28.313a7.912,7.912,0,0,0,.49-1.856h7.52a0.638,0.638,0,0,0,.56-0.21,0.627,0.627,0,0,0-.07-0.77c-0.49-.56-0.98-1.085-1.47-1.61a0.476,0.476,0,0,0-.77.07l-1.22,1.645h-4.41c0.03-.805.07-1.365,0.07-1.75v-0.63c0.87-.315,1.29-0.595,1.29-0.875,0-.385-0.87-0.595-2.66-0.7a0.486,0.486,0,0,0-.59.525v1.645a13.556,13.556,0,0,1-.11,1.785h-6.3c-0.45,0-.63.21-0.49,0.49a0.594,0.594,0,0,0,.63.385h6.02c-0.59,2.941-2.66,5.111-6.23,6.546-0.35.14-.49,0.35-0.38,0.56a0.63,0.63,0,0,0,.73.315c3.57-.945,5.92-2.555,7.04-4.795a12.725,12.725,0,0,1,5.11,3.535,1.8,1.8,0,0,0,1.22.805,1,1,0,0,0,1.12-1.12C1061.89,139.956,1059.55,138.626,1054.79,137.541Zm-0.32,11.2v5.425h-4.44v-5.425h4.44Zm-3.95-.875c-0.7-.316-1.26-0.526-1.75-0.735a0.4,0.4,0,0,0-.63.419v9.522a0.474,0.474,0,0,0,.56.525h0.8a0.468,0.468,0,0,0,.53-0.525v-2.031h4.44v1.3a0.468,0.468,0,0,0,.53.525h0.73a0.468,0.468,0,0,0,.53-0.525v-7l0.91-.63a0.4,0.4,0,0,0,.24-0.314,4.649,4.649,0,0,0-1.57-1.611,0.52,0.52,0,0,0-.77.071l-0.84,1.015h-3.71Zm9.1,10.326a1.039,1.039,0,0,1-1.26,1.085c-1.16,0-2.52-.07-4.13-0.21-0.39-.035-0.6.1-0.6,0.35a0.557,0.557,0,0,0,.53.595,14.3,14.3,0,0,1,2.97.63,1.635,1.635,0,0,1,1.05.98,0.528,0.528,0,0,0,.6.49,2.624,2.624,0,0,0,2.8-2.905V144.751h3.57a0.52,0.52,0,0,0,.56-0.245,0.6,0.6,0,0,0-.11-0.735,15.509,15.509,0,0,0-1.47-1.575,0.447,0.447,0,0,0-.77.07l-1.19,1.61h-17.11v-5.355c0.94-.385,1.4-0.7,1.4-0.98,0-.421-0.88-0.736-2.63-0.841a0.487,0.487,0,0,0-.59.525v17.292h-2.42v-21c0.95-.385,1.4-0.735,1.4-0.98,0-.42-0.87-0.665-2.69-0.735a0.5,0.5,0,0,0-.6.525v22.192h-2.34v-16.1c0.94-.316,1.4-0.63,1.4-0.91,0-.421-0.88-0.7-2.66-0.806a0.491,0.491,0,0,0-.6.525v21.528a0.5,0.5,0,0,0,.56.559h0.77a0.492,0.492,0,0,0,.53-0.559v-3.361h6.65v2.241a0.5,0.5,0,0,0,.56.56h0.7a0.488,0.488,0,0,0,.56-0.56V144.751h14.56v13.442Zm-14.6,31.638a2.65,2.65,0,0,0-2.94-2.975h-1.01a0.684,0.684,0,0,0,0,1.365h0.8a1.05,1.05,0,0,1,.98,1.155v12.671a1.086,1.086,0,1,0,2.17-.07V189.831Zm11.69-2.73a1.157,1.157,0,0,0-2.31,0v12.146c-0.07,6.126-5.11,9.452-9.83,12.637a0.6,0.6,0,0,0,.63,1.015c6.09-3.536,11.51-7.421,11.51-14.982V187.1Zm0.84,49.835a0.386,0.386,0,0,0-.21.736,11.526,11.526,0,0,1,4.24,4.06c0.49,0.77,1.36.595,1.43-.42C1063.12,238.581,1058.22,236.936,1057.55,236.936Zm2.98-2.135a0.42,0.42,0,0,0-.14.805,11.326,11.326,0,0,1,4.41,3.816,0.738,0.738,0,0,0,1.4-.456C1066.16,236.2,1061.23,234.836,1060.53,234.8Zm-19.67,28.878a0.618,0.618,0,0,0,.59,1.085c4.62-2.31,9.59-4.725,13.2-8.54a20.1,20.1,0,0,0,4.69-7.491,21.313,21.313,0,0,0,.94-6.616,1.228,1.228,0,0,0-2.45-.07,22.024,22.024,0,0,1-1.01,6.931,17.5,17.5,0,0,1-4.41,6.65C1049.01,258.919,1044.92,261.334,1040.86,263.679Zm-1.51-20.862a0.659,0.659,0,0,0-.56,1.19,15.143,15.143,0,0,1,3.75,3.256,29.6,29.6,0,0,1,2.03,3.255,1.2,1.2,0,0,0,1.99-1.33c-1.82-2.695-4.06-5.181-7.17-6.371h-0.04Zm11.24,51.24c-0.11-1.925-1.09-3.115-3.01-3.115h-1.02a0.665,0.665,0,0,0,0,1.33h0.91a1.1,1.1,0,0,1,.95,1.155l0.03,23.837a1.071,1.071,0,1,0,2.14.071V294.057Zm8.33,63.316c-4.83.105-8.65-.875-11.62-3.186a0.91,0.91,0,0,1-.35-0.7v-6.651c-0.11-1.925-1.09-3.115-3.01-3.115h-1.02a0.665,0.665,0,0,0,0,1.33h0.91a1.1,1.1,0,0,1,.95,1.155l0.03,23.417a1.071,1.071,0,1,0,2.14.07V356.008a0.226,0.226,0,0,1,.35-0.21,18.611,18.611,0,0,0,11.69,3.78A1.1,1.1,0,0,0,1058.92,357.373Z" transform="translate(-1033.28 -78.188)"/>
</svg>
