<svg xmlns="http://www.w3.org/2000/svg" width="452.28" height="21.97" viewBox="0 0 452.28 21.97">
  <defs>
    <style>
      .cls-1 {
        fill-rule: evenodd;
      }
    </style>
  </defs>
  <path id="ttl_villa002.svg" class="cls-1" d="M1108.02,1604.53v9.2h1.34v-1.54h5.57v1.54h1.37v-8.28l0.33-.22a0.186,0.186,0,0,0,.12-0.17,3.273,3.273,0,0,0-1.34-1.17l-0.6.48h-5.42a4.627,4.627,0,0,1-.44-0.2c-0.21-.09-0.38-0.16-0.45-0.19l0.07-.09a14.293,14.293,0,0,0,1.49-2.24h4.29a16.9,16.9,0,0,0,4.83,4.85,4.492,4.492,0,0,1,1.1-1.15,16.331,16.331,0,0,1-4.73-3.7h3.92l0.26-.4c-0.41-.51-0.72-0.87-0.91-1.06l-0.53-.53-1.1,1.39h-2.12a16.525,16.525,0,0,1-1.51-2.54h4.11l0.24-.38a8.026,8.026,0,0,0-.89-1.06l-0.48-.48-1.01,1.32h-3.98c0.24-.94.4-1.66,0.48-2.14h6.64l0.27-.43a13.851,13.851,0,0,0-1.49-1.56l-1.1,1.39h-4.2c0.04-.36.16-0.98,0.28-1.82a1.046,1.046,0,0,0,.94-0.58c0-.4-0.77-0.64-2.28-0.74-0.12,1.25-.24,2.3-0.36,3.14h-5.31l0.24,0.6h4.95a21.137,21.137,0,0,1-.48,2.14h-3.87l0.24,0.6h3.44a14.983,14.983,0,0,1-.99,2.54h-3.91l0.26,0.6h3.36a16.513,16.513,0,0,1-4.87,5.55l0.39,0.53A21.382,21.382,0,0,0,1108.02,1604.53Zm2.35-3.48a17.01,17.01,0,0,0,.98-2.54h1.52a15.727,15.727,0,0,0,1.12,2.54h-3.62Zm4.56,7.4v3.14h-5.57v-3.14h5.57Zm0-.6h-5.57v-2.88h5.57v2.88Zm-13.63-5.45v11.33h1.34V1601.1a7.874,7.874,0,0,1,1.44,2.86,0.87,0.87,0,0,0,.7.82,0.722,0.722,0,0,0,.74-0.89c0-1.18-.96-2.4-2.88-3.72v-2.07h3.05l0.26-.45a16.278,16.278,0,0,0-1.34-1.61l-1.01,1.46h-0.96v-3.98a1.238,1.238,0,0,0,1.03-.65c0-.38-0.79-0.6-2.37-0.67v5.3h-3.15l0.19,0.6h2.93l-0.07.41a35.2,35.2,0,0,1-3.43,10.03l0.55,0.36A30.059,30.059,0,0,0,1101.3,1602.4Zm42.1-.7v9.22a0.714,0.714,0,0,1-.87.74c-0.88,0-1.96-.07-3.24-0.16v0.62a13.612,13.612,0,0,1,2.4.48,1.08,1.08,0,0,1,.77,1.03c1.51,0.03,2.28-.65,2.28-2.01v-9.92h2.76l0.22-.43a15.379,15.379,0,0,0-1.51-1.61l-1.06,1.44h-11.74v-3.67a1.333,1.333,0,0,0,.96-0.67c0-.34-0.74-0.53-2.2-0.6v12.24h-1.66V1594a1.455,1.455,0,0,0,.96-0.67c0-.34-0.74-0.48-2.26-0.51v15.58h-1.61v-11.04a1.231,1.231,0,0,0,.97-0.63c0-.31-0.75-0.5-2.24-0.57v15.53h1.27V1609h4.57v1.92h1.24v-9.22h9.99Zm-6.24,2.14c-0.7-.31-1.25-0.53-1.63-0.7v7.37h1.29v-1.75h3.05v1.25h1.22v-5.16l0.63-.43a0.294,0.294,0,0,0,.17-0.22,4.163,4.163,0,0,0-1.4-1.35l-0.79.99h-2.54Zm-0.34.6h3.05v3.72h-3.05v-3.72Zm3.27-7.68a5.814,5.814,0,0,0,.33-1.27h5.45l0.24-.44a16.188,16.188,0,0,0-1.51-1.6l-1.06,1.44h-3.02c0.05-.56.05-0.94,0.05-1.2v-0.44a1.082,1.082,0,0,0,.88-0.6c0-.28-0.74-0.45-2.23-0.5v1.51a9.078,9.078,0,0,1-.07,1.23h-4.82l0.28,0.6h4.44c-0.43,2.11-1.96,3.67-4.65,4.63l0.29,0.53c2.64-.63,4.36-1.76,5.16-3.36a9.067,9.067,0,0,1,3.5,2.42,1.2,1.2,0,0,0,.84.55,0.687,0.687,0,0,0,.77-0.77C1144.96,1598.41,1143.35,1597.5,1140.09,1596.76Zm15.95,2.9a11.061,11.061,0,0,0,2.76-.86c0.84-.31,2.4-0.99,3.41-1.37,0.46-.17.91-0.31,1.37-0.43a16.182,16.182,0,0,0-1.28,1.1,4.671,4.671,0,0,0-1.17,2.16,28.378,28.378,0,0,0-.6,3.22,13.252,13.252,0,0,0,.05,3.84,3.6,3.6,0,0,0,1.2,2.47,4.829,4.829,0,0,0,2.88,1.03,13.574,13.574,0,0,0,2.57,0c0.57-.04.81-0.45,0.6-0.76a2.028,2.028,0,0,0-1.11-.77,6.737,6.737,0,0,0-1.87-.07,3.056,3.056,0,0,1-2.18-.53,2.765,2.765,0,0,1-1.04-1.99,16.582,16.582,0,0,1,.07-4.23,16,16,0,0,1,.58-2.71,5.073,5.073,0,0,1,1.49-1.99c0.46-.41,1.01-0.82,1.37-1.11,0.07,0,.12-0.02.17-0.02a19.288,19.288,0,0,1,2.97-.31,8.914,8.914,0,0,1,1.61.21,0.777,0.777,0,0,0,.91-0.26,0.931,0.931,0,0,0-.53-1.06,4.091,4.091,0,0,0-2.37-.24c-0.84.12-2.69,0.6-4.3,1.01-1.63.43-3.48,1.01-4.32,1.27a15.963,15.963,0,0,1-3.17.75,3.546,3.546,0,0,1-1.56-.27,0.974,0.974,0,0,0-1.03-.07,1.148,1.148,0,0,0,.38,1.3A2.6,2.6,0,0,0,1156.04,1599.66Zm13.27,1.63a0.64,0.64,0,0,0,.39-0.96,3.51,3.51,0,0,0-1.61-1.08,5.4,5.4,0,0,0-1.44-.33,0.607,0.607,0,0,0-.46.09,0.387,0.387,0,0,0,.22.53,9.3,9.3,0,0,1,1.56,1.25A1.59,1.59,0,0,0,1169.31,1601.29Zm2.09-1.1a0.634,0.634,0,0,0,.34-0.98,3.266,3.266,0,0,0-1.63-1.01,4.267,4.267,0,0,0-1.47-.24,0.488,0.488,0,0,0-.45.12,0.376,0.376,0,0,0,.24.5,4.046,4.046,0,0,1,1.65,1.11A1.43,1.43,0,0,0,1171.4,1600.19Zm10.57-6.26c-0.7-.36-1.25-0.63-1.68-0.8v13.76h1.39v-1.56h2.52c-0.36,4.17-2.93,6.77-7.71,7.75l0.31,0.6a11.97,11.97,0,0,0,6.13-2.35,8.3,8.3,0,0,0,2.71-6h2.49v5.81a1.762,1.762,0,0,0,.58,1.58c0.46,0.29,1.8.43,4.03,0.43a19.589,19.589,0,0,0,3.79-.24,1.259,1.259,0,0,0,1.01-1.32,0.789,0.789,0,0,1-.91-0.6,14.457,14.457,0,0,1-.17-3l-0.65-.26a10.089,10.089,0,0,1-.62,3.45c-0.26.44-1.13,0.68-2.57,0.68a13.333,13.333,0,0,1-2.61-.17,0.692,0.692,0,0,1-.48-0.75v-5.61h2.66v1.41h1.39v-11.73l0.67-.39a0.32,0.32,0,0,0,.22-0.29,4.252,4.252,0,0,0-1.56-1.56l-0.96,1.16h-9.98Zm-0.29.6h10.51v2.85h-10.51v-2.85Zm10.51,3.45v2.98h-10.51v-2.98h10.51Zm0,3.58v3.17h-10.51v-3.17h10.51Zm25.49,3.31a8.521,8.521,0,0,1-2.42,2.28,16.533,16.533,0,0,1-3.34,1.42,7.656,7.656,0,0,1-1.7.29,0.378,0.378,0,0,0-.41.31c0,0.14.17,0.21,0.48,0.24a10.251,10.251,0,0,0,2.01-.29,20.14,20.14,0,0,0,3.46-1.32,8.456,8.456,0,0,0,3.22-2.47,5.018,5.018,0,0,0,.98-3.6,4.444,4.444,0,0,0-1.42-2.98,5.2,5.2,0,0,0-3.48-1.42,8.842,8.842,0,0,0-3.36.84,24.324,24.324,0,0,0-2.56,1.28c-0.68.38-2.21,1.27-2.67,1.48a3.707,3.707,0,0,1-1.51.61,5.521,5.521,0,0,1-1.46-.17,0.7,0.7,0,0,0-.77.09,0.988,0.988,0,0,0,.53,1.03,3.683,3.683,0,0,0,2.16.85,4.171,4.171,0,0,0,2.61-1.01c0.77-.63,1.75-1.47,2.43-1.97a15.571,15.571,0,0,1,2.37-1.47,5.2,5.2,0,0,1,2.4-.4,3.589,3.589,0,0,1,2.43,1.15,3.28,3.28,0,0,1,.79,2.45A5.9,5.9,0,0,1,1217.68,1604.87Zm14.78-3.1c0.26-.38.31-0.62,0.19-0.72a0.762,0.762,0,0,0-.62.39,14.473,14.473,0,0,0-1.66,2.35,20.156,20.156,0,0,0-1.13,2.35,12.087,12.087,0,0,1,.48-4.03,19.323,19.323,0,0,1,1.18-2.98,4.227,4.227,0,0,0,.24-2.52,5.5,5.5,0,0,0-1.15-2.68c-0.41-.48-0.77-0.68-0.99-0.46a0.775,0.775,0,0,0,.1.82,6.749,6.749,0,0,1,.53,1.75,7.178,7.178,0,0,1-.15,2.59c-0.26.96-.65,1.97-0.89,3.07a33.584,33.584,0,0,0-.62,3.58,11.369,11.369,0,0,0,.31,3.98,5.515,5.515,0,0,0,1.25,2.38,0.975,0.975,0,0,0,1.06.26,1.027,1.027,0,0,0,.24-1.29,7.833,7.833,0,0,1-.6-2.79,9.766,9.766,0,0,1,.86-3.65C1231.57,1603.26,1232.19,1602.16,1232.46,1601.77Zm9.17-5.49a4.751,4.751,0,0,0-.58-2.52,2.112,2.112,0,0,0-1.25-.72,0.841,0.841,0,0,0-.88.12c-0.17.29,0.12,0.57,0.43,0.84a2.278,2.278,0,0,1,.69,1.44,24.16,24.16,0,0,1,.2,2.69v1.32a8.231,8.231,0,0,1-1.73.28,5.37,5.37,0,0,1-2.19-.12,0.467,0.467,0,0,0-.57.12c-0.12.24,0.26,0.6,0.93,0.72a15.543,15.543,0,0,0,3.24.12c0.1,0,.22-0.02.32-0.02,0.02,0.43,0,.86,0,1.25a39.686,39.686,0,0,1-.34,4.06,7.748,7.748,0,0,1-1.37,3.28,13.784,13.784,0,0,1-1.63,1.88,14.577,14.577,0,0,1-1.34,1.12c-0.32.2-.53,0.36-0.44,0.53,0.1,0.19.46,0.19,0.92-.09a14.142,14.142,0,0,0,2.61-2,9.91,9.91,0,0,0,2.47-4.24,14.863,14.863,0,0,0,.68-4.66c0-.41-0.03-0.87-0.03-1.32,0.79-.15,1.61-0.34,2.07-0.48a1.3,1.3,0,0,0,1.17-1.08,1.27,1.27,0,0,0-.91-0.99,9.454,9.454,0,0,1-1.66-.81A4.977,4.977,0,0,1,1241.63,1596.28Zm1.2,2.33a8.95,8.95,0,0,1-1.08.43c-0.03-.67-0.05-1.32-0.07-1.87,0.24,0.21.45,0.36,0.62,0.5,0.29,0.22.53,0.38,0.62,0.46A0.292,0.292,0,0,1,1242.83,1598.61Zm11.98,7.75c-0.41.94-.82,1.78-1.13,2.52a6.456,6.456,0,0,0-.7,1.75,1.5,1.5,0,0,0,.39,1.32,0.656,0.656,0,0,0,.98-0.24,39.213,39.213,0,0,0,1.61-3.96c0.34-1.05,1.03-3.24,1.22-3.89s0.8-2.37.99-3.07a6.651,6.651,0,0,0,.21-0.77,9.292,9.292,0,0,0,1.2-.21,5.032,5.032,0,0,0,2.19-1.18c0.41-.43.48-0.67,0.33-0.96a1.621,1.621,0,0,0-1.1-.5,8.662,8.662,0,0,1-1.73-.63,2.776,2.776,0,0,0,0-1.25,1.977,1.977,0,0,0-.86-1.29,0.994,0.994,0,0,0-1.06-.19,0.764,0.764,0,0,0,.1,1,3.611,3.611,0,0,1,.53,1.61,9.911,9.911,0,0,1-.29,2.55,6.575,6.575,0,0,1-1.92.33,3.818,3.818,0,0,1-1.2-.07c-0.34-.1-0.6-0.24-0.7-0.26a0.317,0.317,0,0,0-.45,0,0.67,0.67,0,0,0,.48.88,5.966,5.966,0,0,0,2.42.34c0.31,0,.65-0.02,1.01-0.05-0.31,1.01-.75,2.26-0.99,2.79C1256.03,1603.67,1255.24,1605.4,1254.81,1606.36Zm4.94-8.76a0.267,0.267,0,0,1,0,.43,9.172,9.172,0,0,1-.96.5c0.07-.36.15-0.64,0.19-0.81,0.03-.12.08-0.31,0.12-0.51C1259.39,1597.38,1259.66,1597.53,1259.75,1597.6Zm6.17,2.85a8.652,8.652,0,0,0-1.32.99,7.345,7.345,0,0,0-1.1,1.37c-0.12.19-.2,0.48-0.08,0.53a0.927,0.927,0,0,0,.46-0.44,4.246,4.246,0,0,1,1.08-.89c0.46-.24,1.08-0.62,1.63-0.86s1.01-.43,1.18-0.5a1,1,0,0,0,.62-0.56,0.978,0.978,0,0,0-.48-1.03,2.7,2.7,0,0,0-1.58-.41,5.291,5.291,0,0,0-1.68.15,20.547,20.547,0,0,0-2.04.57c-0.29.12-.79,0.36-0.63,0.65a0.977,0.977,0,0,0,.8,0,8.725,8.725,0,0,1,1.24-.26,6.06,6.06,0,0,1,1.78.02,0.946,0.946,0,0,1,.62.27A1,1,0,0,1,1265.92,1600.45Zm2.59,9.73a16.822,16.822,0,0,0-2.01.26,7.05,7.05,0,0,1-2.24-.07,3.352,3.352,0,0,1-2.06-1.25,2.8,2.8,0,0,1-.1-2.42,9,9,0,0,1,.84-2c0.17-.24.22-0.45,0.1-0.53-0.1-.07-0.26.05-0.41,0.27a9.7,9.7,0,0,0-1.03,1.92,3.892,3.892,0,0,0-.31,3.34c0.53,1.15,1.37,1.82,3.31,2.13a17.879,17.879,0,0,0,4.49.15c0.65-.08,1.2-0.56.89-1.08A1.7,1.7,0,0,0,1268.51,1610.18Zm8.25-1.44-0.29.4a9.179,9.179,0,0,1,2.71,3.68,1.078,1.078,0,0,0,.94.91,1.04,1.04,0,0,0,1.13-1.2,2.26,2.26,0,0,0-.7-1.61A9.466,9.466,0,0,0,1276.76,1608.74Zm20.44-9.68v12.24l-0.57.1c-0.77.14-1.23,0.24-1.37,0.26,0.38,1.4.72,2.09,1.08,2.09,0.22,0,.34-0.29.41-0.86,2.42-.82,4.46-1.59,6.17-2.35l0.04,0.12a5.912,5.912,0,0,1,.44,1.41,0.827,0.827,0,0,0,.64.84,0.778,0.778,0,0,0,.84-0.91,4.052,4.052,0,0,0-.79-2.09,10.353,10.353,0,0,0-2.88-2.83l-0.36.41a12.02,12.02,0,0,1,1.75,2.42c-0.81.27-2.16,0.63-4.05,1.11v-4.92h3.89v1h1.29v-6.93l0.48-.34a0.325,0.325,0,0,0,.15-0.24,3.338,3.338,0,0,0-1.28-1.37l-0.76.94h-1.11v-2.19a1.171,1.171,0,0,0,.89-0.55c0-.31-0.7-0.48-2.09-0.5v3.24h-1.32q-0.645-.33-1.08-0.51a20.2,20.2,0,0,0,3.07-4.87,9.561,9.561,0,0,1,2.96,3.05,1.236,1.236,0,0,0,.81.77,0.672,0.672,0,0,0,.72-0.79c0-1.11-1.41-2.28-4.25-3.56l0.03-.04c0.65-.12.96-0.27,0.96-0.46,0-.29-0.7-0.55-2.09-0.82a21,21,0,0,1-4.87,8.38l0.41,0.43A24.614,24.614,0,0,0,1297.2,1599.06Zm1.35,0.7h3.89v2.47h-3.89v-2.47Zm0,5.74v-2.67h3.89v2.67h-3.89Zm11.73-4.93h-2.59a11.627,11.627,0,0,0-1.49-.72v11.02h1.35v-9.7h2.73v12.56h1.4v-12.56h2.92v6.82a0.66,0.66,0,0,1-.81.67,9.655,9.655,0,0,1-1.32-.09v0.62c1.01,0.17,1.53.63,1.53,1.35,1.3,0,1.95-.58,1.95-1.76v-7.17l0.55-.41a0.325,0.325,0,0,0,.15-0.24,4.494,4.494,0,0,0-1.4-1.47l-0.89,1.08h-2.68v-3.79h5.35l0.26-.48a9.529,9.529,0,0,0-1.51-1.61l-1.15,1.49h-6.65a25.05,25.05,0,0,0,.89-2.54c0.69-.1,1.03-0.24,1.03-0.46,0-.31-0.74-0.67-2.23-1.08a21.221,21.221,0,0,1-3.31,8.4l0.48,0.39a16.888,16.888,0,0,0,2.85-4.11h2.59v3.79Zm24.25,9.27a12.528,12.528,0,0,1-4.1,1.56,11.651,11.651,0,0,1-2.69.24c-0.38-.02-0.72.02-0.74,0.24a0.768,0.768,0,0,0,.77.34,16.71,16.71,0,0,0,2.76-.08,13.585,13.585,0,0,0,4.56-1.27,7.258,7.258,0,0,0,3.36-3.36,3.726,3.726,0,0,0-.77-3.96c-1.18-1.22-2.55-1.58-4.71-1.46a7.218,7.218,0,0,0-3,.98c-1.12.63-2.08,1.3-2.76,1.71a1.354,1.354,0,0,1-1.39.26c-0.38-.19-0.26-0.89-0.17-1.51,0.08-.6.24-2.04,0.36-3.12,0.12-1.11.27-1.85,0.32-2.24a1.011,1.011,0,0,1,.86-0.76,5.54,5.54,0,0,1,2.06-.17,8.975,8.975,0,0,1,1.52.41,0.782,0.782,0,0,0,.76-0.2,1.146,1.146,0,0,0,.12-1.24,3.76,3.76,0,0,0-1.24-1.71,4.732,4.732,0,0,0-2.04-.91,3.481,3.481,0,0,0-1.01-.02c-0.27.02-.51,0.02-0.55,0.26a0.617,0.617,0,0,0,.55.46,5.493,5.493,0,0,1,1.53.81,1.258,1.258,0,0,1,.68,1.15,1.945,1.945,0,0,1-1.32.41,9.774,9.774,0,0,0-2.21.6,1.815,1.815,0,0,0-.96,1.68c-0.12.91-.19,2.28-0.41,3.39s-0.38,2.13-.5,2.71a2.39,2.39,0,0,0,.45,1.75c0.36,0.58.43,0.84,0.99,0.84a1.616,1.616,0,0,0,1.29-.38c0.36-.36,1.35-1.3,2.16-1.97a9.94,9.94,0,0,1,3.15-1.94,4.64,4.64,0,0,1,3.6.4,2.677,2.677,0,0,1,1.22,2.76C1336.93,1607.78,1336.14,1608.86,1334.53,1609.84Zm13.91-1.54c0.36,0.17.79,0.1,0.81-.38a13.627,13.627,0,0,1,.36-2.64c0.29-.75,1.01-2.57,1.3-3.34,0.31-.79.98-2.52,1.13-2.88a0.19,0.19,0,0,0,.04-0.12h0.08a14.025,14.025,0,0,0,2.73-.48,3.158,3.158,0,0,0,1.52-.74,0.634,0.634,0,0,0-.05-0.82,2.646,2.646,0,0,0-1.11-.53c-0.55-.16-1.13-0.4-1.49-0.52a3.67,3.67,0,0,0-.45-0.17,2.146,2.146,0,0,0-.05-0.77,1.945,1.945,0,0,0-.72-0.98,1,1,0,0,0-1.01-.2,0.482,0.482,0,0,0-.02.68,2.183,2.183,0,0,1,.33,1.29,4.008,4.008,0,0,1-.5,1.56,6.644,6.644,0,0,0-.34.82,4.2,4.2,0,0,1-.79-0.07,5.482,5.482,0,0,1-1.17-.36,0.821,0.821,0,0,0-.77-0.1c-0.15.19,0.09,0.5,0.5,0.77a4.16,4.16,0,0,0,1.54.6,1.487,1.487,0,0,1,.36.05c-0.19.52-.36,1.05-0.53,1.48-0.38,1.01-1.08,3.1-1.44,3.77s-0.6,1.2-.86,1.68a1.981,1.981,0,0,0-.27,1.52A1.7,1.7,0,0,0,1348.44,1608.3Zm4.53-11.42a4.056,4.056,0,0,0,.24-0.72c0.29,0.17.6,0.31,0.77,0.41a1.222,1.222,0,0,1,.5.36,0.752,0.752,0,0,1-.57.45,9.339,9.339,0,0,1-1.35.46A8.577,8.577,0,0,0,1352.97,1596.88Zm10.52,1.53a9.589,9.589,0,0,0-1.78-1.08,6.935,6.935,0,0,0-1.34-.52,1.016,1.016,0,0,0-.94.04c-0.07.1,0.05,0.29,0.31,0.39a4.475,4.475,0,0,1,1.23.84,7.29,7.29,0,0,1,1.22,1.25c0.19,0.31.07,0.48-.36,0.5a3.264,3.264,0,0,0-1.08.26,0.484,0.484,0,0,0-.31.27c0,0.12.19,0.19,0.69,0.21,0.48,0,.92,0,1.25.03a2.448,2.448,0,0,1,.84.26,1.108,1.108,0,0,0,.89-0.05,0.771,0.771,0,0,0,.36-1A2.973,2.973,0,0,0,1363.49,1598.41Zm-6.89,8.69c-1.42.15-2.4,0.87-2.55,1.95a2.436,2.436,0,0,0,1.23,2.64,4.943,4.943,0,0,0,3.86.07,2.353,2.353,0,0,0,1.15-2.21c0-.12-0.02-0.29-0.04-0.5,0.36,0.19.72,0.41,1,.57a1.984,1.984,0,0,0,1.25.48,0.8,0.8,0,0,0,.24-1,1.728,1.728,0,0,0-.79-0.96,6.929,6.929,0,0,0-2.06-.8,2.527,2.527,0,0,1-.12-0.4c-0.27-.92-0.56-2.12-0.7-2.91a4.671,4.671,0,0,1,.02-2.09c0.15-.48.27-0.74,0.05-0.86a0.8,0.8,0,0,0-.69.57,2.862,2.862,0,0,0-.2,1.76c0.17,0.69.36,1.7,0.51,2.45a12.438,12.438,0,0,1,.21,1.29A8.833,8.833,0,0,0,1356.6,1607.1Zm2.47,1.37v0.05c-0.05.94-.22,1.68-0.94,1.97a3.084,3.084,0,0,1-2.18.07,1.361,1.361,0,0,1-1.08-1.42,1.686,1.686,0,0,1,1.66-1.17,5.172,5.172,0,0,1,2.42.43A0.42,0.42,0,0,0,1359.07,1608.47Zm13.17-11.35a1.947,1.947,0,0,1,.55,1.51c0.03,0.84.05,2.62,0.07,3.79a15.79,15.79,0,0,0,.39,3.34,6.288,6.288,0,0,0,1.92,2.78,5.1,5.1,0,0,0,2.97,1.11c0.65,0.05,1.25-.05,1.32-0.43a1.41,1.41,0,0,0-.43-1.06,2.4,2.4,0,0,1-.33-1.42,2.32,2.32,0,0,1,.33-1,0.256,0.256,0,0,0,.03-0.39,0.469,0.469,0,0,0-.51.17,3.14,3.14,0,0,0-.69,1.06,1.686,1.686,0,0,0-.17.64,0.394,0.394,0,0,1-.29.36,2.545,2.545,0,0,1-1.25-.09,3.408,3.408,0,0,1-1.25-.84,4.579,4.579,0,0,1-.69-2.79c0-1.6,0-2.73.07-3.86a4.518,4.518,0,0,0-.34-2.64,2.634,2.634,0,0,0-1.1-1.01c-0.29-.14-0.84-0.36-0.98-0.05A0.93,0.93,0,0,0,1372.24,1597.12Zm13.8,2.13a5.054,5.054,0,0,1,1.58.65,2.022,2.022,0,0,1,.92,1.85,8.181,8.181,0,0,0-.05,2.06,0.977,0.977,0,0,0,.98.65,0.783,0.783,0,0,0,.89-0.79,5.148,5.148,0,0,0-.29-2.35,4.494,4.494,0,0,0-1.85-2.07,5.261,5.261,0,0,0-1.96-.57c-0.44-.05-0.6.02-0.63,0.21C1385.61,1599.06,1385.7,1599.21,1386.04,1599.25Zm20.71-.57,0.12,0.24a27.163,27.163,0,0,0,9.16,10.7,5.721,5.721,0,0,1,1.23-1.39,26.123,26.123,0,0,1-10.06-10.06h8.83l0.29-.5a14.722,14.722,0,0,0-1.65-1.9l-1.37,1.8h-6.55v-3.64a1.409,1.409,0,0,0,1.03-.72c0-.36-0.84-0.58-2.5-0.65v5.01h-9.31l0.21,0.6h8.16a27.926,27.926,0,0,1-9.16,11.93l0.4,0.48a26.035,26.035,0,0,0,9.7-10.87v8.31h-4.54l0.22,0.6h4.32v5.11h1.47v-5.11h4.75l0.29-.51a20.111,20.111,0,0,0-1.61-1.7l-1.25,1.61h-2.18v-9.34Zm31.75,12.65h-16.13l0.26,0.6h15.87v1.77h1.46v-10.68l0.62-.4a0.445,0.445,0,0,0,.24-0.34,4.265,4.265,0,0,0-1.58-1.51l-0.96,1.13h-5.67V1594c0.75-.24,1.11-0.46,1.11-0.67,0-.36-0.82-0.58-2.5-0.65v9.22h-8.28l0.22,0.59h15.34v3.97h-14.36l0.24,0.6h14.12v4.27Zm-14.53-17.24-0.38.44a12.682,12.682,0,0,1,3.1,5.35,0.759,0.759,0,0,0,.69.69,0.83,0.83,0,0,0,.87-1C1428.25,1597.91,1426.83,1596.09,1423.97,1594.09Zm11.14,6.44,0.53,0.33a32.768,32.768,0,0,0,3.86-5.18q1.08,0,1.08-.36c0-.34-0.69-0.84-2.11-1.49A35.289,35.289,0,0,1,1435.11,1600.53Zm30.78-1.73a7.573,7.573,0,0,0-2.79-2.81,8.6,8.6,0,0,0-4.25-1.1,10.8,10.8,0,0,0-5.04,1.17,11.39,11.39,0,0,0-3.4,2.79,7.926,7.926,0,0,0-1.81,3.72,5.855,5.855,0,0,0,.37,3.96,2.935,2.935,0,0,0,2.71,2.04,4.776,4.776,0,0,0,3.5-2.26,12,12,0,0,0,1.87-4.68,18.287,18.287,0,0,0,.39-3.67c0-.65-0.03-1.51-0.07-2.04,0.24-.03.48-0.07,0.69-0.1a7.46,7.46,0,0,1,4.63.99,5.521,5.521,0,0,1,2.36,3.28,9.808,9.808,0,0,1,.33,4.42,6.03,6.03,0,0,1-2.28,3.77,11.154,11.154,0,0,1-6.45,2.04c-0.65,0-1.18-.05-1.42-0.07a0.289,0.289,0,0,0-.38.19c-0.03.14,0.12,0.26,0.38,0.29a11.594,11.594,0,0,0,4.3-.03,12.474,12.474,0,0,0,4.39-1.6,5.9,5.9,0,0,0,2.59-3.36,9.756,9.756,0,0,0,.34-3.68A6.753,6.753,0,0,0,1465.89,1598.8Zm-9.48,1.1a10.173,10.173,0,0,1-1.54,4.27,4.864,4.864,0,0,1-2.71,2.21c-1.06.34-1.97,0.15-2.33-.76a6.328,6.328,0,0,1,.19-4.06,8.847,8.847,0,0,1,3.19-3.91,10.384,10.384,0,0,1,3.36-1.54A19.663,19.663,0,0,1,1456.41,1599.9Zm18.52,1.49a4.824,4.824,0,0,1,1.78.77,5.954,5.954,0,0,1,1.42,1.22,1.154,1.154,0,0,0,1.51.41,1.068,1.068,0,0,0-.07-1.61,4.075,4.075,0,0,0-1.4-.93,6.221,6.221,0,0,0-2.23-.46c-0.72-.05-1.66-0.14-1.68.24C1474.24,1601.22,1474.43,1601.29,1474.93,1601.39Zm4.95-4.39a8.652,8.652,0,0,0-1.95-.53,6.139,6.139,0,0,0-1.2-.1c-0.31,0-.72.08-0.72,0.32,0,0.14.2,0.24,0.6,0.33a3.961,3.961,0,0,1,2.43,1.42,6,6,0,0,0,1.44,1.27,1.031,1.031,0,0,0,1.41-.05,1.091,1.091,0,0,0-.21-1.51A4.452,4.452,0,0,0,1479.88,1597Zm13.01-.1c-0.24-.14-0.77.58-1.16,1.13a38.462,38.462,0,0,1-2.52,3.17,26.014,26.014,0,0,1-3.48,3.19,34.032,34.032,0,0,1-3.38,2.35c-1.78,1.06-2.78,1.61-3.48,1.56a2.074,2.074,0,0,1-1.25-.43,0.757,0.757,0,0,0-.86-0.21,1.129,1.129,0,0,0,.05,1.36,1.822,1.822,0,0,0,1.65,1.16,5.846,5.846,0,0,0,2.86-1.08,29.63,29.63,0,0,0,5.13-3.87c1.66-1.56,2.21-2.14,3.29-3.31a29.673,29.673,0,0,0,2.69-3.51C1493.01,1597.53,1493.15,1597.05,1492.89,1596.9Zm-3.05-.69a0.619,0.619,0,0,0,.36-0.96,3.251,3.251,0,0,0-1.59-1.08,5.3,5.3,0,0,0-1.46-.32,0.548,0.548,0,0,0-.43.1,0.4,0.4,0,0,0,.21.53,8.926,8.926,0,0,1,1.56,1.22A1.533,1.533,0,0,0,1489.84,1596.21Zm2.09-1.11a0.619,0.619,0,0,0,.33-0.98,3.316,3.316,0,0,0-1.63-.99,5.567,5.567,0,0,0-1.46-.26,0.609,0.609,0,0,0-.46.12,0.41,0.41,0,0,0,.24.53,3.657,3.657,0,0,1,1.63,1.08A1.425,1.425,0,0,0,1491.93,1595.1Zm21.64-.26a1.118,1.118,0,0,0-1.23.12,3.656,3.656,0,0,1-1.53.38c-0.77.1-2.43,0.29-3.68,0.41a15.613,15.613,0,0,1-2.88.14,4.689,4.689,0,0,1-1.53-.33,0.779,0.779,0,0,0-.91.02c-0.27.19-.05,0.87,0.55,1.27a2.569,2.569,0,0,0,2.13.46c0.96-.14,2.12-0.46,3.24-0.67,1.13-.19,2.21-0.29,3.2-0.36a2.6,2.6,0,0,1,1.27.02,0.95,0.95,0,0,1-.03.89c-0.19.58-.4,1.54-0.76,2.5a21.049,21.049,0,0,1-1.88,3.6,16.726,16.726,0,0,1-3.5,3.91,16.119,16.119,0,0,1-3.65,2.38c-0.93.48-1.29,0.69-1.56,0.79-0.29.09-.43,0.29-0.36,0.45a0.772,0.772,0,0,0,.87.03,18.077,18.077,0,0,0,3.04-1.39,15.2,15.2,0,0,0,3.77-2.72,21.046,21.046,0,0,0,3.51-4.15,18.675,18.675,0,0,0,1.97-3.96,4.235,4.235,0,0,1,.79-1.49,0.97,0.97,0,0,0,.26-1.17A2.965,2.965,0,0,0,1513.57,1594.84Zm3.17,0.43a0.641,0.641,0,0,0,.36-0.98,3.268,3.268,0,0,0-1.59-1.06,5.814,5.814,0,0,0-1.46-.34,0.53,0.53,0,0,0-.43.1,0.394,0.394,0,0,0,.21.53,10.726,10.726,0,0,1,1.54,1.22A1.58,1.58,0,0,0,1516.74,1595.27Zm2.08-1.1a0.63,0.63,0,0,0,.34-0.99,3.337,3.337,0,0,0-1.63-1.01,4.926,4.926,0,0,0-1.49-.24,0.476,0.476,0,0,0-.43.12,0.375,0.375,0,0,0,.24.51,3.677,3.677,0,0,1,1.63,1.1A1.464,1.464,0,0,0,1518.82,1594.17Zm8.37,5.64c0.7,0.79,1.47,1.15,1.99.84,0.68-.41.29-1.42-0.36-2a5.531,5.531,0,0,0-1.85-1.15,8.384,8.384,0,0,0-1.94-.53,1.017,1.017,0,0,0-1.08.15c-0.1.26,0.22,0.43,0.84,0.74A7.165,7.165,0,0,1,1527.19,1599.81Zm14.67-2.93a0.551,0.551,0,0,0-.56.29c-0.16.24-.81,1.08-2.13,2.66a28.294,28.294,0,0,1-3.39,3.43,37.186,37.186,0,0,1-4.15,3.22,9.824,9.824,0,0,1-3.89,1.46,2.387,2.387,0,0,1-1.25-.16l-0.86-.2a1.55,1.55,0,0,0,.31,1.73,1.779,1.779,0,0,0,2.07.46,14.234,14.234,0,0,0,4.15-1.97,31.646,31.646,0,0,0,4.51-3.53,25.476,25.476,0,0,0,3.36-3.98c1.03-1.47,1.51-2.28,1.85-2.81C1542.07,1597.14,1542.02,1596.95,1541.86,1596.88Zm5.18,11.02a3.072,3.072,0,0,0-2.98,3,2.768,2.768,0,0,0,1.71,2.68,2.521,2.521,0,0,0,1.29.32,2.909,2.909,0,0,0,2.16-.94,3,3,0,0,0,.84-2.06A3.058,3.058,0,0,0,1547.04,1607.9Zm0.02,0.84a2.233,2.233,0,0,1,1.25.4,2.1,2.1,0,0,1,.91,1.76,2.07,2.07,0,0,1-.77,1.63,1.965,1.965,0,0,1-1.39.53,2.041,2.041,0,0,1-1.82-1.01,2.2,2.2,0,0,1-.34-1.15,2.037,2.037,0,0,1,.58-1.47A2.185,2.185,0,0,1,1547.06,1608.74Z" transform="translate(-1097.78 -1591.94)"/>
</svg>
