<svg xmlns="http://www.w3.org/2000/svg" width="339.5" height="31.62" viewBox="0 0 339.5 31.62">
  <defs>
    <style>
      .cls-1 {
        fill-rule: evenodd;
      }
    </style>
  </defs>
  <path id="ttl_Dream002.svg" class="cls-1" d="M614.266,6866.96a0.515,0.515,0,0,0,.56.56H615.7a0.49,0.49,0,0,0,.525-0.56v-17.85a11.357,11.357,0,0,1,2.1,4.16,1.277,1.277,0,0,0,1.015,1.19,1.051,1.051,0,0,0,1.085-1.29c0-1.72-1.4-3.5-4.2-5.43v-3.01h4.025a0.647,0.647,0,0,0,.6-0.28,0.624,0.624,0,0,0-.07-0.73,17.21,17.21,0,0,0-1.225-1.51,0.451,0.451,0,0,0-.805.04l-1.12,1.61h-1.4v-5.81c1.015-.32,1.5-0.63,1.5-0.95,0-.49-0.945-0.8-2.87-0.94a0.483,0.483,0,0,0-.6.52v7.18H610.31c-0.385,0-.595.17-0.49,0.42a0.6,0.6,0,0,0,.63.45h3.781l-0.105.6a46.923,46.923,0,0,1-4.761,14.17,0.475,0.475,0,0,0,.105.67,0.455,0.455,0,0,0,.735-0.18,42.621,42.621,0,0,0,4.061-8.99v15.96Zm11.761-8.02v-4.2h8.121v4.2h-8.121Zm8.121,5.46h-8.121v-4.58h8.121v4.58Zm-6.651-15.36a27.034,27.034,0,0,0,1.435-3.71h2.2a23.3,23.3,0,0,0,1.646,3.71H627.5Zm-3.43,17.92a0.5,0.5,0,0,0,.56.56H625.5a0.49,0.49,0,0,0,.525-0.56v-1.68h8.121v1.68a0.5,0.5,0,0,0,.56.56h0.91a0.49,0.49,0,0,0,.525-0.56v-11.52l0.49-.31a0.283,0.283,0,0,0,.175-0.25,3.591,3.591,0,0,0-1.54-1.43,0.668,0.668,0,0,0-.805,0l-0.49.42h-7.911l-0.63-.28-0.665-.28,0.07-.14a21.539,21.539,0,0,0,2.205-3.26h6.266a23.9,23.9,0,0,0,6.615,6.76,0.491,0.491,0,0,0,.77-0.14,5.551,5.551,0,0,1,.735-0.81c0.315-.24.28-0.52-0.07-0.73a24.132,24.132,0,0,1-6.3-5.08h5.285a0.6,0.6,0,0,0,.56-0.21,0.588,0.588,0,0,0-.07-0.77,14.145,14.145,0,0,0-1.015-1.15l-0.35-.35a0.458,0.458,0,0,0-.77.03l-1.26,1.58h-3.08a22.064,22.064,0,0,1-2.206-3.71h5.566a0.531,0.531,0,0,0,.525-0.18,0.585,0.585,0,0,0-.035-0.77,10.819,10.819,0,0,0-1.015-1.15l-0.28-.28a0.457,0.457,0,0,0-.77.07l-1.12,1.43h-5.811c0.35-1.36.6-2.41,0.7-3.11h9.276a0.644,0.644,0,0,0,.56-0.21,0.587,0.587,0,0,0-.07-0.77,20.154,20.154,0,0,0-1.435-1.54,0.472,0.472,0,0,0-.77.03l-1.26,1.61h-6.126c0.07-.52.245-1.43,0.42-2.66q1.365-.36,1.365-0.84c0-.52-0.91-0.87-2.765-1.05a0.529,0.529,0,0,0-.63.53c-0.14,1.57-.28,2.9-0.455,4.02h-7.071c-0.385,0-.6.18-0.49,0.46a0.612,0.612,0,0,0,.63.42h6.756a28.6,28.6,0,0,1-.7,3.11h-4.971c-0.385,0-.6.18-0.49,0.46a0.641,0.641,0,0,0,.63.42h4.551a22.081,22.081,0,0,1-1.435,3.71h-5.006c-0.42,0-.63.17-0.49,0.45a0.641,0.641,0,0,0,.63.42h4.411a23.407,23.407,0,0,1-6.651,7.77,0.49,0.49,0,1,0,.6.77,29.531,29.531,0,0,0,5.146-4.34v12.85Zm59.22-24.19a7.7,7.7,0,0,0,.49-1.85H691.3a0.644,0.644,0,0,0,.56-0.21,0.626,0.626,0,0,0-.07-0.77c-0.49-.56-0.98-1.09-1.47-1.61a0.473,0.473,0,0,0-.77.07l-1.225,1.64h-4.411c0.035-.8.07-1.36,0.07-1.75v-0.63c0.875-.31,1.3-0.59,1.3-0.87,0-.39-0.875-0.6-2.66-0.7a0.483,0.483,0,0,0-.595.52v1.65a13.537,13.537,0,0,1-.105,1.78h-6.3c-0.455,0-.631.21-0.491,0.49a0.591,0.591,0,0,0,.631.39h6.02c-0.6,2.94-2.66,5.11-6.23,6.54-0.351.14-.49,0.35-0.385,0.56a0.639,0.639,0,0,0,.735.32c3.57-.95,5.915-2.56,7.035-4.8a12.744,12.744,0,0,1,5.111,3.54,1.82,1.82,0,0,0,1.225.8,1,1,0,0,0,1.12-1.12C690.393,6845.19,688.048,6843.86,683.287,6842.77Zm-0.315,11.2v5.43h-4.445v-5.43h4.445Zm-3.955-.87c-0.7-.32-1.26-0.53-1.75-0.74a0.4,0.4,0,0,0-.63.42v9.52a0.479,0.479,0,0,0,.56.53H678a0.468,0.468,0,0,0,.525-0.53v-2.03h4.445v1.3a0.461,0.461,0,0,0,.525.52h0.735a0.461,0.461,0,0,0,.526-0.52v-7l0.91-.63a0.4,0.4,0,0,0,.245-0.32,4.682,4.682,0,0,0-1.576-1.61,0.523,0.523,0,0,0-.77.07l-0.84,1.02h-3.71Zm9.1,10.32a1.04,1.04,0,0,1-1.26,1.09c-1.155,0-2.521-.07-4.131-0.21-0.385-.04-0.6.1-0.6,0.35a0.548,0.548,0,0,0,.525.59,14.391,14.391,0,0,1,2.976.63,1.624,1.624,0,0,1,1.05.99,0.517,0.517,0,0,0,.6.48,2.616,2.616,0,0,0,2.8-2.9v-14.46h3.57a0.521,0.521,0,0,0,.56-0.24,0.6,0.6,0,0,0-.105-0.74,16.617,16.617,0,0,0-1.47-1.57,0.445,0.445,0,0,0-.77.07l-1.19,1.61H673.556v-5.36c0.945-.38,1.4-0.7,1.4-0.98,0-.42-0.875-0.73-2.625-0.84a0.493,0.493,0,0,0-.6.53v17.29h-2.415v-21c0.945-.39,1.4-0.74,1.4-0.98,0-.42-0.875-0.67-2.7-0.74a0.505,0.505,0,0,0-.595.53v22.19h-2.346v-16.1c0.946-.32,1.4-0.63,1.4-0.91,0-.42-0.876-0.7-2.661-0.81a0.493,0.493,0,0,0-.6.53v21.52a0.5,0.5,0,0,0,.56.56h0.77a0.49,0.49,0,0,0,.525-0.56v-3.36h6.651v2.24a0.5,0.5,0,0,0,.56.56H673a0.484,0.484,0,0,0,.56-0.56v-12.88h14.562v13.44Zm51.73-1.54a69.237,69.237,0,0,1-9.416.28c-3.186-.17-7.876-1.15-7.491-5.49,0.315-3.43,3.815-5.88,6.476-7.46,3.01-1.85,6.23-3.08,9.346-4.69a1.081,1.081,0,0,0-.525-2.06c-4.306.17-9.626,1.01-13.407-1.58a0.788,0.788,0,0,0-.945,1.26c3.08,2.35,6.966,2.42,10.746,2.45,0.315,0.04.42,0.46,0.14,0.56a50.414,50.414,0,0,0-9.1,5.08c-2.765,1.96-5.635,5.46-4.34,9.2,1.225,3.71,5.88,4.69,9.276,4.9a64.123,64.123,0,0,0,9.381-.21A1.122,1.122,0,0,0,739.848,6861.88Zm52.5,0a69.237,69.237,0,0,1-9.416.28c-3.186-.17-7.876-1.15-7.491-5.49,0.315-3.43,3.815-5.88,6.476-7.46,3.01-1.85,6.23-3.08,9.346-4.69a1.081,1.081,0,0,0-.525-2.06c-4.306.17-9.626,1.01-13.407-1.58a0.788,0.788,0,0,0-.945,1.26c3.08,2.35,6.966,2.42,10.746,2.45,0.315,0.04.42,0.46,0.14,0.56a50.414,50.414,0,0,0-9.1,5.08c-2.765,1.96-5.635,5.46-4.34,9.2,1.225,3.71,5.88,4.69,9.276,4.9a64.123,64.123,0,0,0,9.381-.21A1.122,1.122,0,0,0,792.348,6861.88Zm55.125-1.05c-0.56.04-1.47,0.18-1.47,0.18-2.415.21-5.461,0.49-8.3-.49a3.725,3.725,0,0,1-2.59-3.85c0.175-1.93,1.61-3.5,3.115-4.94a42.84,42.84,0,0,1,7.631-5.53c0.63-.38,1.75-0.87,1.75-1.82a1.049,1.049,0,0,0-1.19-.94c-3.36.31-6.651,0.77-10.116-.81a0.758,0.758,0,0,0-.77,1.3c2.38,1.54,4.935,1.82,7.981,1.57,0.315-.03.385,0.46,0.14,0.63a75.22,75.22,0,0,0-6.266,4.62,10.592,10.592,0,0,0-3.85,5.67,5.212,5.212,0,0,0,3.325,5.99,19.373,19.373,0,0,0,9.311.87s0.945-.14,1.47-0.21A1.124,1.124,0,0,0,847.473,6860.83Zm-19.252-1.26a12.762,12.762,0,0,0-1.155,1.26,0.4,0.4,0,0,1-.7-0.1c-2.17-5.92-.945-12.43.98-18.27a1.141,1.141,0,0,0-2.17-.7c-2.311,7.31-3.151,15.05.455,22.08a1.012,1.012,0,0,0,1.89-.45c0-1.23.525-1.75,1.645-2.84l0.42-.45a0.671,0.671,0,1,0-.945-0.95Zm70.527-9.38a11.711,11.711,0,0,0-4.656-2.06,12.406,12.406,0,0,0-1.645-.25,18.608,18.608,0,0,0-4.83.11,0.151,0.151,0,0,1-.14-0.14v-3.19a0.128,0.128,0,0,1,.14-0.14h2.415c3.78,0,4.935-2.41,4.971-2.52a0.712,0.712,0,0,0-1.3-.59c-0.035.07-.875,1.68-3.675,1.68h-2.38c-0.105,0-.14-0.07-0.14-0.18v-2.9a0.981,0.981,0,0,0-1.961,0v2.9a0.166,0.166,0,0,1-.175.18H879.5a0.715,0.715,0,1,0,0,1.43h5.88a0.159,0.159,0,0,1,.175.14v3.61a0.182,0.182,0,0,1-.139.17c-3.116.98-6.266,2.31-8.261,5.11-2.136,2.98-1.681,5.46.21,6.69a5.121,5.121,0,0,0,3.605.45,12.738,12.738,0,0,0,4.621-2.06,0.116,0.116,0,0,1,.175.07,5.051,5.051,0,0,0,1.12,2.55c0.63,0.95,2-.07,1.435-1.05v-0.03a4.459,4.459,0,0,1-.77-2.59,1.588,1.588,0,0,0-.035-0.39,0.315,0.315,0,0,1,.105-0.24,17.255,17.255,0,0,0,4.165-7.56c0.1-.18,0-0.35.49-0.35,0.525,0.14,1.015.21,1.5,0.35a9.061,9.061,0,0,1,3.711,2.1,5.684,5.684,0,0,1,1.54,4.55,6.788,6.788,0,0,1-.665,2.17,10.71,10.71,0,0,1-2.941,3.25,18.16,18.16,0,0,1-4.83,2.28c-0.875.28-1.785,0.49-2.835,0.73l-0.035.04c-0.665.14-.525,1.29,0.21,1.12,0.98-.11,1.925-0.32,3.045-0.56a22.344,22.344,0,0,0,5.426-2.1,12.637,12.637,0,0,0,3.99-3.61,6.8,6.8,0,0,0,1.015-3.04A7.282,7.282,0,0,0,898.748,6850.19Zm-18.062,8.61a2.964,2.964,0,0,1-2.24-.21c-1.26-1.05-1.12-2.62-.07-4.2,1.54-2.34,4.305-3.85,7.036-4.79a0.1,0.1,0,0,1,.139.1v6.65a0.871,0.871,0,0,1-.42.53A11.023,11.023,0,0,1,880.686,6858.8Zm9.871-9.8a9.4,9.4,0,0,0-.315.91,20.666,20.666,0,0,1-2.59,4.69,0.1,0.1,0,0,1-.175-0.07v-5.28a0.161,0.161,0,0,1,.14-0.18,15,15,0,0,1,2.835-.17A0.107,0.107,0,0,1,890.557,6849Zm58.171,0.25c-0.175-2.63-1.295-6.93-4.236-8.4a4.732,4.732,0,0,0-4.795.63,10.4,10.4,0,0,0-2.766,3.25,13.69,13.69,0,0,0-1.4,3.47,15.771,15.771,0,0,0-.63,3.67,0.106,0.106,0,0,1-.21,0,12.363,12.363,0,0,1-.315-3.85,45.141,45.141,0,0,1,1.47-8.82,1.134,1.134,0,0,0-2.24-.35,53.321,53.321,0,0,0-1.015,9.1,24.354,24.354,0,0,0,1.33,8.54,0.979,0.979,0,0,0,1.89-.38c-0.14-3.22.385-7.7,2.241-10.71a9.2,9.2,0,0,1,2.45-2.77c0.875-.56,2.275-1.05,3.255-0.38,2.205,1.29,2.625,4.58,2.8,6.93a21.5,21.5,0,0,1-.28,3.99c-0.735,3.99-2.17,7.84-5.6,10.57-0.525.38-1.085,0.66-1.61,1.05h-0.035a0.61,0.61,0,0,0,.56,1.08,12.414,12.414,0,0,0,1.89-1.01,17.438,17.438,0,0,0,6.931-11.1A16.046,16.046,0,0,0,948.728,6849.25Z" transform="translate(-609.281 -6835.91)"/>
</svg>
