<svg xmlns="http://www.w3.org/2000/svg" width="306.22" height="21.72" viewBox="0 0 306.22 21.72">
  <defs>
    <style>
      .cls-1 {
        fill-rule: evenodd;
      }
    </style>
  </defs>
  <path id="ttl_villa004.svg" class="cls-1" d="M1108.02,2379.53v9.2h1.34v-1.54h5.57v1.54h1.37v-8.28l0.33-.22a0.186,0.186,0,0,0,.12-0.17,3.273,3.273,0,0,0-1.34-1.17l-0.6.48h-5.42a4.627,4.627,0,0,1-.44-0.2c-0.21-.09-0.38-0.16-0.45-0.19l0.07-.09a13.841,13.841,0,0,0,1.49-2.24h4.29a16.778,16.778,0,0,0,4.83,4.85,4.492,4.492,0,0,1,1.1-1.15,16.331,16.331,0,0,1-4.73-3.7h3.92l0.26-.4c-0.41-.51-0.72-0.87-0.91-1.06l-0.53-.53-1.1,1.39h-2.12a16.525,16.525,0,0,1-1.51-2.54h4.11l0.24-.38a8.026,8.026,0,0,0-.89-1.06l-0.48-.48-1.01,1.32h-3.98c0.24-.94.4-1.66,0.48-2.14h6.64l0.27-.43a13.851,13.851,0,0,0-1.49-1.56l-1.1,1.39h-4.2c0.04-.36.16-0.98,0.28-1.82a1.046,1.046,0,0,0,.94-0.58c0-.4-0.77-0.64-2.28-0.74-0.12,1.25-.24,2.3-0.36,3.14h-5.31l0.24,0.6h4.95a21.137,21.137,0,0,1-.48,2.14h-3.87l0.24,0.6h3.44a14.983,14.983,0,0,1-.99,2.54h-3.91l0.26,0.6h3.36a16.513,16.513,0,0,1-4.87,5.55l0.39,0.53A21.382,21.382,0,0,0,1108.02,2379.53Zm2.35-3.48a17.01,17.01,0,0,0,.98-2.54h1.52a15.727,15.727,0,0,0,1.12,2.54h-3.62Zm4.56,7.4v3.14h-5.57v-3.14h5.57Zm0-.6h-5.57v-2.88h5.57v2.88Zm-13.63-5.45v11.33h1.34V2376.1a7.874,7.874,0,0,1,1.44,2.86,0.87,0.87,0,0,0,.7.82,0.722,0.722,0,0,0,.74-0.89c0-1.18-.96-2.4-2.88-3.72v-2.07h3.05l0.26-.45a16.278,16.278,0,0,0-1.34-1.61l-1.01,1.46h-0.96v-3.98a1.238,1.238,0,0,0,1.03-.65c0-.38-0.79-0.6-2.37-0.67v5.3h-3.15l0.19,0.6h2.93l-0.07.41a35.2,35.2,0,0,1-3.43,10.03l0.55,0.36A30.059,30.059,0,0,0,1101.3,2377.4Zm45.46-.7v9.22a0.714,0.714,0,0,1-.87.74c-0.88,0-1.96-.07-3.24-0.16v0.62a13.612,13.612,0,0,1,2.4.48,1.08,1.08,0,0,1,.77,1.03c1.51,0.03,2.28-.65,2.28-2.01v-9.92h2.76l0.22-.43a15.379,15.379,0,0,0-1.51-1.61l-1.06,1.44h-11.74v-3.67a1.333,1.333,0,0,0,.96-0.67c0-.34-0.74-0.53-2.2-0.6v12.24h-1.66V2369a1.455,1.455,0,0,0,.96-0.67c0-.34-0.74-0.48-2.26-0.51v15.58h-1.6v-11.04a1.227,1.227,0,0,0,.96-0.63c0-.31-0.75-0.5-2.24-0.57v15.53h1.28V2384h4.56v1.92h1.24v-9.22h9.99Zm-6.24,2.14c-0.7-.31-1.25-0.53-1.63-0.7v7.37h1.29v-1.75h3.05v1.25h1.22v-5.16l0.63-.43a0.294,0.294,0,0,0,.17-0.22,4.188,4.188,0,0,0-1.4-1.34l-0.79.98h-2.54Zm-0.34.6h3.05v3.72h-3.05v-3.72Zm3.27-7.68a5.814,5.814,0,0,0,.33-1.27h5.45l0.24-.44a16.188,16.188,0,0,0-1.51-1.6l-1.06,1.44h-3.02c0.05-.56.05-0.94,0.05-1.2v-0.44a1.082,1.082,0,0,0,.88-0.6c0-.28-0.74-0.45-2.23-0.5v1.51a9.078,9.078,0,0,1-.07,1.23h-4.82l0.28,0.6h4.44c-0.43,2.11-1.96,3.67-4.65,4.63l0.29,0.53c2.64-.63,4.36-1.76,5.16-3.36a9.067,9.067,0,0,1,3.5,2.42,1.2,1.2,0,0,0,.84.55,0.687,0.687,0,0,0,.77-0.77C1148.32,2373.41,1146.71,2372.5,1143.45,2371.76Zm22.32-1.23a2.622,2.622,0,0,0-1.58-.86c-0.63-.12-0.96-0.1-1.04.17a0.9,0.9,0,0,0,.58.81,1.471,1.471,0,0,1,.62,1.44c0,0.84.05,1.59-.02,3.1-0.05,1.49-.07,2.9-0.14,3.87a1.932,1.932,0,0,0,.26,1.51,0.591,0.591,0,0,0,.94-0.12,2.619,2.619,0,0,0,.45-1.71c-0.07-.74-0.12-2.28-0.14-3.77,0-1.46-.05-2.52.02-2.97A1.658,1.658,0,0,0,1165.77,2370.53Zm-4.85,16.83a0.6,0.6,0,0,0,.7.1,18.681,18.681,0,0,0,4.05-1.47,13.562,13.562,0,0,0,3.32-2.52,10.772,10.772,0,0,0,2.37-3.81,13.484,13.484,0,0,0,.82-5.14c0-1.63-.07-2.81-0.07-3.41a4.31,4.31,0,0,1,.12-0.98,1.211,1.211,0,0,0-.51-1.04,3.124,3.124,0,0,0-1.1-.62c-0.91-.31-1.37-0.24-1.59.02-0.26.32,0.03,0.63,0.41,0.94a1.76,1.76,0,0,1,.72,1.42c0.05,0.79.22,2.16,0.19,3.84a19.48,19.48,0,0,1-.55,4.61,9.6,9.6,0,0,1-2.25,4.08,11.579,11.579,0,0,1-3.68,2.66,23.533,23.533,0,0,1-2.42.98C1161.14,2387.12,1160.87,2387.22,1160.92,2387.36Zm26.6-16.25c-0.41-.19-0.67-0.24-0.81-0.05a0.819,0.819,0,0,0,.33.84,3.017,3.017,0,0,1,.65,1.37c0.17,0.74.12,1.25,0.24,1.78a1.3,1.3,0,0,0,1.56.98c0.74-.24.74-1.08,0.5-1.92a4.838,4.838,0,0,0-1.1-2.02A4.256,4.256,0,0,0,1187.52,2371.11Zm-3.41,15.24a0.724,0.724,0,0,0,.75.15,20.971,20.971,0,0,0,6.5-2.6,21.11,21.11,0,0,0,3.48-2.68,16.91,16.91,0,0,0,3.55-4.4,17.179,17.179,0,0,0,1.28-3.09c0.09-.29.24-0.75,0.33-0.99a1.341,1.341,0,0,0-.07-1.13,2.828,2.828,0,0,0-1.2-1.22,1.586,1.586,0,0,0-1.7-.12,0.837,0.837,0,0,0,.4,1.1,1.559,1.559,0,0,1,.56,1.61,14.56,14.56,0,0,1-1.11,3.31,16.258,16.258,0,0,1-3.24,4.35,22.2,22.2,0,0,1-3.45,2.86,17.232,17.232,0,0,1-3.87,1.92c-0.89.31-1.29,0.43-1.65,0.52S1184.09,2386.16,1184.11,2386.35Zm17.12-15.82a0.624,0.624,0,0,0,.36-0.96,3.187,3.187,0,0,0-1.59-1.05,4.746,4.746,0,0,0-1.46-.34,0.53,0.53,0,0,0-.43.1,0.4,0.4,0,0,0,.21.53,9.492,9.492,0,0,1,1.54,1.22A1.578,1.578,0,0,0,1201.23,2370.53Zm2.08-1.1a0.616,0.616,0,0,0,.34-0.96,3.266,3.266,0,0,0-1.63-1.01,5.368,5.368,0,0,0-1.49-.26,0.487,0.487,0,0,0-.43.14,0.38,0.38,0,0,0,.24.51,3.657,3.657,0,0,1,1.63,1.08A1.408,1.408,0,0,0,1203.31,2369.43Zm25.1,7.94a8.663,8.663,0,0,0-2.74-.26c-1.08.02-4.2,0.12-5.33,0.17s-3.41.14-4.49,0.19a10.911,10.911,0,0,1-2.92-.29c-0.65-.19-1.44-0.5-1.88-0.17-0.31.22-.09,0.85,0.46,1.25a4.051,4.051,0,0,0,2.38.68c0.93-.03,2.08-0.27,3.07-0.39,1.25-.12,3.19-0.22,4.17-0.26a31.91,31.91,0,0,1,4.04.12c0.96,0.07,2.49.26,3.02,0.36,0.55,0.07.94,0,.98-0.34A1.1,1.1,0,0,0,1228.41,2377.37Zm16.4-1.24a4.093,4.093,0,0,1,1.77.62,5.561,5.561,0,0,1,1.85,2.06c0.58,0.99,1.15,2.19,2.19,1.8s0.55-1.8-.22-2.64a7.341,7.341,0,0,0-2.59-1.82,6.878,6.878,0,0,0-2.93-.62c-0.24-.03-0.55-0.03-0.55-0.36-0.05-1.06,0-2.02.02-2.84,0.05-.84.1-1.56,0.17-1.96a2.228,2.228,0,0,0-.1-1.47,2.05,2.05,0,0,0-1.27-.86,1.064,1.064,0,0,0-1.1.12,0.9,0.9,0,0,0,.41,1.08,2.306,2.306,0,0,1,.76,1.58,15.483,15.483,0,0,1,.1,2.67c-0.05,1.12-.12,2.37-0.17,3.84-0.05,1.44-.09,3.09-0.19,4.27s-0.22,2.16-.34,2.88a3.843,3.843,0,0,0,.17,2.26,1.8,1.8,0,0,0,1.56,1.1c0.65-.07.75-1.06,0.58-1.8-0.15-.72-0.36-1.46-0.48-2.35a20.815,20.815,0,0,1-.12-3.36v-3.48C1244.33,2376.34,1244.42,2376.08,1244.81,2376.13Zm36.72-2.33a7.468,7.468,0,0,0-2.78-2.81,8.631,8.631,0,0,0-4.25-1.1,10.768,10.768,0,0,0-5.04,1.17,11.313,11.313,0,0,0-3.41,2.79,7.912,7.912,0,0,0-1.8,3.72,5.914,5.914,0,0,0,.36,3.96,2.945,2.945,0,0,0,2.71,2.04,4.792,4.792,0,0,0,3.51-2.26,12,12,0,0,0,1.87-4.68,17.451,17.451,0,0,0,.38-3.67c0-.65-0.02-1.51-0.07-2.04,0.24-.03.48-0.07,0.7-0.1a7.476,7.476,0,0,1,4.63.99,5.508,5.508,0,0,1,2.35,3.28,9.8,9.8,0,0,1,.34,4.42,6.117,6.117,0,0,1-2.28,3.77,11.213,11.213,0,0,1-6.46,2.04c-0.65,0-1.17-.05-1.41-0.07a0.3,0.3,0,0,0-.39.19c-0.02.14,0.12,0.26,0.39,0.29a11.544,11.544,0,0,0,4.29-.03,12.33,12.33,0,0,0,4.39-1.6,5.882,5.882,0,0,0,2.6-3.36,9.563,9.563,0,0,0,.33-3.68A6.544,6.544,0,0,0,1281.53,2373.8Zm-9.48,1.1a10.358,10.358,0,0,1-1.53,4.27,4.882,4.882,0,0,1-2.72,2.21c-1.05.34-1.96,0.15-2.32-.77a6.3,6.3,0,0,1,.19-4.05,8.78,8.78,0,0,1,3.19-3.91,10.289,10.289,0,0,1,3.36-1.54A18.975,18.975,0,0,1,1272.05,2374.9Zm31.44-2.23v-2.11h9.55l0.26-.48a9.914,9.914,0,0,0-1.77-1.71l-1.23,1.59h-6.81v-1.49a1.441,1.441,0,0,0,1.05-.67c0-.31-0.81-0.53-2.42-0.6v2.76h-9.36l0.21,0.6h9.15v2.11h-5.19a8.888,8.888,0,0,0-1.63-.72v8.52h1.35v-0.94h9.36v2.33h-13.73l0.26,0.6h13.47v3.58a0.677,0.677,0,0,1-.79.74c-0.72,0-1.85-.09-3.41-0.26v0.62a15.9,15.9,0,0,1,2.76.65,1.031,1.031,0,0,1,.5.94,5.843,5.843,0,0,0,.79-0.1,0.112,0.112,0,0,1,.1-0.02,1.643,1.643,0,0,0,1.46-1.83v-4.32h6.1l0.29-.45-0.24-.27a10.865,10.865,0,0,0-1.47-1.49l-1.27,1.61h-3.41v-2.33h1.73v0.8h1.37v-6.58l0.5-.41a0.7,0.7,0,0,0,.29-0.36,4.16,4.16,0,0,0-1.44-1.46l-0.93,1.15h-5.45Zm5.66,3.6v2.67h-5.66v-2.67h5.66Zm0-.6h-5.66v-2.4h5.66v2.4Zm-7.03-2.4v2.4h-5.47v-2.4h5.47Zm-5.47,5.67v-2.67h5.47v2.67h-5.47Zm-0.32,3.84-0.28.45a7.392,7.392,0,0,1,2.64,3,1.037,1.037,0,0,0,.89.89,0.792,0.792,0,0,0,.84-0.94,2.353,2.353,0,0,0-.89-1.51A8.729,8.729,0,0,0,1296.33,2382.78Zm30.12-13.49a10.857,10.857,0,0,0-1.73-.8v10.3c0,4.11-1.01,7.25-3.02,9.48l0.48,0.48c2.28-1.82,3.57-4.61,3.91-8.3h5.83v6.81h1.37v-6.81h6.45v5.21c0,0.5-.36.76-1.05,0.76a22.832,22.832,0,0,1-3.15-.19v0.65a15.913,15.913,0,0,1,2.4.5,1.093,1.093,0,0,1,.75.99c1.65,0.02,2.49-.65,2.49-1.99v-16.01l0.63-.41a0.4,0.4,0,0,0,.22-0.31,4.388,4.388,0,0,0-1.52-1.56l-1.01,1.2h-13.05Zm13.29,5.78v4.78h-6.45v-4.78h6.45Zm0-.6h-6.45v-4.58h6.45v4.58Zm-7.82-4.58v4.58h-5.78v-4.58h5.78Zm-5.81,9.96c0-.24.03-0.58,0.03-1.04v-3.74h5.78v4.78h-5.81Zm37.55-1.01,2.57-.67v6.81h1.32v-7.15l2.71-.72v4.59a0.57,0.57,0,0,1-.65.64,9.767,9.767,0,0,1-1.34-.12v0.6c0.98,0.2,1.48.6,1.46,1.2,1.22,0,1.82-.52,1.82-1.6v-5.09l0.56-.41a0.308,0.308,0,0,0,.14-0.24,3.735,3.735,0,0,0-1.49-1.37l-0.79,1.2-2.42.65v-3.12a1.11,1.11,0,0,0,.88-0.63c0-.33-0.74-0.52-2.2-0.6v4.69l-2.57.67v-2.76a1.342,1.342,0,0,0,.84-0.65c0-.29-0.72-0.48-2.19-0.53v4.3l-2.25.6,0.33,0.57,1.92-.5v7.01a1.648,1.648,0,0,0,.58,1.53,10.725,10.725,0,0,0,3.77.36,27.183,27.183,0,0,0,6.07-.36,1.274,1.274,0,0,0,.79-1.29,0.68,0.68,0,0,1-.72-0.48,11.169,11.169,0,0,1-.14-2.26l-0.6-.21c-0.19,1.94-.58,2.97-1.18,3.14a20.572,20.572,0,0,1-3.67.19,14.414,14.414,0,0,1-3.24-.19,0.753,0.753,0,0,1-.31-0.72v-7.08Zm-7.95-6.53h5l0.28-.46a12.671,12.671,0,0,0-1.44-1.6l-1.08,1.46h-1.77v-3.22a1.212,1.212,0,0,0,.96-0.67c0-.31-0.77-0.53-2.33-0.62v4.51h-3.84l0.24,0.6h2.61v2.47c0,5.93-.98,10.44-2.97,13.52l0.53,0.38q3.315-3.855,3.74-11.31c0-.26.03-0.45,0.03-0.62h2.66a46.1,46.1,0,0,1-.67,8.95,1.189,1.189,0,0,1-1.25,1.06,10.507,10.507,0,0,1-2.14-.24v0.67c1.3,0.17,1.95.63,1.97,1.35a2.562,2.562,0,0,0,2.16-.77c0.79-.99,1.2-4.51,1.23-10.59l0.55-.41a0.3,0.3,0,0,0,.17-0.26,0.936,0.936,0,0,0-.29-0.53,16.157,16.157,0,0,0,2.81-3.96h10.05l0.29-.45a10.308,10.308,0,0,0-1.58-1.66l-1.18,1.51h-7.3a25.012,25.012,0,0,0,1.01-2.73c0.67-.12,1.01-0.29,1.01-0.51,0-.33-0.74-0.67-2.23-0.98a20.064,20.064,0,0,1-3.29,8.25l-0.07.1a2.488,2.488,0,0,0-.24-0.19,2.868,2.868,0,0,0-.31-0.24l-0.84,1.03h-2.5c0.02-.36.02-0.84,0.02-1.42v-2.42Zm29.66,8.83a9.831,9.831,0,0,0-1.56-.81v8.4h1.37v-1.54h3.53v1.47H1390v-6.44l0.55-.33a0.32,0.32,0,0,0,.22-0.29,4.194,4.194,0,0,0-1.39-1.54l-0.84,1.08h-3.17Zm-0.19.6h3.53v4.85h-3.53v-4.85Zm7.94-3.07a19.855,19.855,0,0,0,3.41,5.38,16.885,16.885,0,0,1-5.95,4.1l0.33,0.55a18.317,18.317,0,0,0,6.53-3.74,18.326,18.326,0,0,0,5.43,3.48,4.888,4.888,0,0,1,1.13-1.39,17.594,17.594,0,0,1-5.76-3,18.345,18.345,0,0,0,3.21-4.88l0.55-.31a0.394,0.394,0,0,0,.24-0.31,3.693,3.693,0,0,0-1.39-1.56l-0.89,1.08h-8.47l0.26,0.6h1.37Zm0.79,0h6.15a14.314,14.314,0,0,1-2.76,4.54A19.782,19.782,0,0,1,1393.91,2378.67Zm1.2-9.48h3.13v5.06a1.252,1.252,0,0,0,.5,1.28,5.342,5.342,0,0,0,2.06.24,8.3,8.3,0,0,0,2.14-.17,1.058,1.058,0,0,0,.79-1.2,0.642,0.642,0,0,1-.69-0.41,6.793,6.793,0,0,1-.2-2.18v-0.56l-0.64-.26a11.539,11.539,0,0,1-.44,3.07c-0.12.31-.6,0.46-1.44,0.46-0.52,0-.79-0.17-0.79-0.55v-4.4l0.51-.33a0.388,0.388,0,0,0,.21-0.29,3.936,3.936,0,0,0-1.34-1.39l-0.87,1.03h-2.88a12.048,12.048,0,0,0-1.39-.7v2.76a7.419,7.419,0,0,1-2.47,6.03l0.38,0.45c2.28-1.29,3.43-3.45,3.43-6.45v-1.49Zm-6.72,5.88h-4.7l0.24,0.6h6.62l0.27-.41c-0.53-.65-0.99-1.17-1.37-1.56Zm-0.26-6.02h-4.1l0.24,0.6h6.14l0.26-.44c-0.16-.19-0.26-0.31-0.31-0.36-0.45-.52-0.81-0.93-1.1-1.2Zm0.19,9.02h-4.63l0.26,0.6h6.58l0.29-.45a11.566,11.566,0,0,0-1.39-1.54Zm1.03-6h-6.81l0.21,0.6h9.05l0.24-.43-0.21-.27a10.272,10.272,0,0,0-1.3-1.34Z" transform="translate(-1097.78 -2367.03)"/>
</svg>
