<svg xmlns="http://www.w3.org/2000/svg" width="325.594" height="57.91" viewBox="0 0 325.594 57.91">
  <defs>
    <style>
      .cls-1 {
        fill-rule: evenodd;
      }
    </style>
  </defs>
  <path id="ttl_villa001.svg" class="cls-1" d="M532.072,1140.65a36.562,36.562,0,0,0,2.617-2.81h4.9l0.264-.46a15.533,15.533,0,0,0-1.416-1.65l-1.176,1.51h-2.088a36.74,36.74,0,0,0,3.5-5.28c0.744-.03,1.1-0.15,1.1-0.34,0-.29-0.624-0.72-1.848-1.29-0.5,1-.984,1.92-1.44,2.71l-0.072.12a8.683,8.683,0,0,0-1.176-1.32l-0.912,1.34h-0.984v-2.57a1.334,1.334,0,0,0,.936-0.69c0-.34-0.768-0.51-2.3-0.58v3.84h-3.96l0.264,0.6h3.576v3.53H527.2l0.288,0.6h5.689a34.623,34.623,0,0,1-6.553,6.24l0.384,0.51a36.783,36.783,0,0,0,3.408-2.52v8.28h1.32v-1.54h4.825v1.2h1.368v-8.43l0.552-.36a0.358,0.358,0,0,0,.168-0.28,3.649,3.649,0,0,0-1.392-1.47l-0.912,1.11h-4.273Zm1.585-3.34H533.2v-3.53h2.856A33.19,33.19,0,0,1,533.657,1137.31Zm-1.921,3.94h4.825v3.12h-4.825v-3.12Zm4.825,7.03h-4.825v-3.31h4.825v3.31Zm8.185-10.95a36.479,36.479,0,0,0,2.736-5.35l0.6-.26a0.318,0.318,0,0,0,.24-0.27,5.612,5.612,0,0,0-1.536-1.7l-0.792,1.08h-3.553a13.651,13.651,0,0,0-1.56-.84v20.74h1.392v-19.3h3.793a38.367,38.367,0,0,1-2.136,6.02c2.064,1.78,3.072,3.7,3.072,5.74,0,1.51-.48,2.26-1.44,2.26a19.161,19.161,0,0,1-2.473-.22v0.63a11.083,11.083,0,0,1,1.969.5,1.065,1.065,0,0,1,.72,1.01c1.776-.12,2.688-1.35,2.688-3.63C548.466,1141.22,547.218,1139.09,544.746,1137.33Zm20.574-7.05c0.672-.07,1.032-0.22,1.032-0.41,0-.31-0.744-0.6-2.208-0.86a23.3,23.3,0,0,1-9.985,10.92l0.36,0.5a22.384,22.384,0,0,0,10.3-9.26,1.657,1.657,0,0,1,.168-0.27,25.254,25.254,0,0,0,9.649,8.38,4.658,4.658,0,0,1,1.224-1.49,25.492,25.492,0,0,1-10.393-7.32Zm-5.136,17.83c-0.936.03-2.28,0.05-4.081,0.1,0.36,1.51.721,2.25,1.105,2.25a0.981,0.981,0,0,0,.432-0.84c4.608-.4,8.952-0.86,13.057-1.41l0.5-.07a9.852,9.852,0,0,1,1.32,1.94,0.774,0.774,0,0,0,.72.5,0.765,0.765,0,0,0,.816-0.91,2.982,2.982,0,0,0-.984-1.82,17.266,17.266,0,0,0-5.425-3.58l-0.336.48a18.547,18.547,0,0,1,3.337,2.76l-0.744.05c-3.025.22-5.545,0.38-7.513,0.46l-1.344.04c0.048-.07.12-0.14,0.192-0.26a56.958,56.958,0,0,0,2.88-5.14H574.2l0.288-.48a14.417,14.417,0,0,0-1.464-1.46l-0.24-.22-1.32,1.56H555.407l0.336,0.6h6.577a0.13,0.13,0,0,0-.024.1,0.084,0.084,0,0,0-.024.07A32.273,32.273,0,0,1,560.184,1148.11Zm7.464-10.37h-8.424l0.24,0.6h10.657l0.288-.48c-0.456-.45-0.985-0.96-1.608-1.49Zm32.074-1.94a7.539,7.539,0,0,0-2.784-2.81,8.611,8.611,0,0,0-4.248-1.1,10.786,10.786,0,0,0-5.041,1.17,11.353,11.353,0,0,0-3.408,2.79,7.912,7.912,0,0,0-1.8,3.72,5.843,5.843,0,0,0,.36,3.96,2.943,2.943,0,0,0,2.712,2.04,4.786,4.786,0,0,0,3.5-2.26,12.069,12.069,0,0,0,1.872-4.68,18.06,18.06,0,0,0,.384-3.67c0-.65-0.024-1.51-0.072-2.04,0.24-.03.48-0.07,0.7-0.1a7.476,7.476,0,0,1,4.632.99,5.519,5.519,0,0,1,2.352,3.28,9.753,9.753,0,0,1,.336,4.42,6.064,6.064,0,0,1-2.28,3.77,11.178,11.178,0,0,1-6.456,2.04c-0.648,0-1.176-.05-1.416-0.07a0.3,0.3,0,0,0-.385.19c-0.023.14,0.121,0.26,0.385,0.29a11.575,11.575,0,0,0,4.3-.03,12.426,12.426,0,0,0,4.392-1.6,5.89,5.89,0,0,0,2.593-3.37,9.566,9.566,0,0,0,.336-3.67A6.678,6.678,0,0,0,599.722,1135.8Zm-9.48,1.1a10.3,10.3,0,0,1-1.536,4.28,4.88,4.88,0,0,1-2.713,2.2c-1.056.34-1.968,0.15-2.328-.76a6.317,6.317,0,0,1,.192-4.06,8.8,8.8,0,0,1,3.192-3.91,10.332,10.332,0,0,1,3.361-1.54A19.417,19.417,0,0,1,590.242,1136.9Zm19.257-4.13a10.407,10.407,0,0,0-.984-0.52,3.458,3.458,0,0,1-.385-0.2c-0.12-.07-0.192-0.09-0.239-0.12v15.56h1.368v-2.69h2.76v1.75h1.32v-12.82l0.576-.4a0.272,0.272,0,0,0,.12-0.22,4.174,4.174,0,0,0-1.368-1.46l-0.84,1.12H609.5Zm-0.24.6h2.76v10.83h-2.76v-10.83Zm8.88,5.24a10.254,10.254,0,0,0-1.656-.77v9.89h1.344v-1.37h6.745v1.15h1.344v-7.85l0.648-.41a0.353,0.353,0,0,0,.192-0.26,3.945,3.945,0,0,0-1.512-1.44l-0.864,1.06h-6.241Zm6.433,4.03v3.12h-6.745v-3.12h6.745Zm0-.6h-6.745v-2.83h6.745v2.83Zm-4.008-9.29H616.2c0-.19-0.048-0.5-0.1-0.91l-0.624-.07a5.008,5.008,0,0,1-1.272,3.4,1.05,1.05,0,0,0-.312.65,0.7,0.7,0,0,0,.816.77,1.289,1.289,0,0,0,1.056-.91,5.389,5.389,0,0,0,.456-2.33h10.417a15.683,15.683,0,0,1-.6,1.51l-0.5-.43-1.1,1.34h-8.377l0.264,0.6h10.561l0.264-.48-0.576-.57c0.432-.41.912-0.91,1.464-1.51l0.768-.17a0.326,0.326,0,0,0,.336-0.27c0-.26-0.576-0.88-1.7-1.84l-0.912,1.22h-4.584v-2.3a1.418,1.418,0,0,0,1.008-.68q0-.54-2.376-0.57v3.55Zm5.568,16.49H613.315l0.264,0.6h15.073l0.264-.48a15.69,15.69,0,0,0-1.56-1.73Zm14.951-8.04v-3.05h3.1l0.264-.41a17.394,17.394,0,0,0-1.248-1.44l-0.984,1.25h-1.128v-2.88h3.072l0.24-.43a10.65,10.65,0,0,0-1.224-1.44l-0.96,1.27h-1.128v-2.71h3.7l0.264-.48c-0.744-.79-1.176-1.27-1.344-1.44l-1.056,1.32h-4.968l-0.168-.1c-0.024,0-.264-0.14-0.768-0.38l-0.36-.15a1.656,1.656,0,0,1-.216-0.09v12.79h1.32v-1.03h5.28a28.475,28.475,0,0,1-.48,6,1.258,1.258,0,0,1-1.3,1.13,15.017,15.017,0,0,1-2.472-.22v0.65a11.554,11.554,0,0,1,1.752.43,0.973,0.973,0,0,1,.7.89,2.722,2.722,0,0,0,2.016-.84c0.72-.89,1.08-3.26,1.08-7.15v-0.53l0.48-.34a0.527,0.527,0,0,0,.192-0.28,3.715,3.715,0,0,0-1.344-1.42l-0.816,1.08h-1.488Zm-1.3,0h-2.3v-3.05h2.3v3.05Zm0-6.53v2.88h-2.3v-2.88h2.3Zm-2.3-.6v-2.71h2.3v2.71h-2.3Zm9.865,6.48a16.03,16.03,0,0,0-1.537-.7v6.25h1.3v-1.25H649.7v3.48c-1.824.12-3.6,0.17-5.281,0.19,0.216,1.42.48,2.14,0.84,2.14a1.051,1.051,0,0,0,.5-0.84c3.241-.32,6.025-0.72,8.329-1.18a3.974,3.974,0,0,1,.7-0.12,6.7,6.7,0,0,1,.48,1.08,0.936,0.936,0,0,0,.792.84,0.781,0.781,0,0,0,.84-0.91c0-1.23-1.3-2.52-3.864-3.84l-0.312.43a9.239,9.239,0,0,1,1.68,1.8c-1.776.17-2.832,0.29-3.192,0.31H651v-3.38h2.664v0.74h1.3v-4.05l0.528-.36a0.388,0.388,0,0,0,.168-0.25,4.523,4.523,0,0,0-1.392-1.29l-0.792.91H651v-1.56a1.11,1.11,0,0,0,.816-0.58c0-.31-0.7-0.5-2.112-0.6v2.74h-2.352Zm3.648,0.6h2.664v3.1H651v-3.1Zm-1.3,0v3.1h-2.593v-3.1H649.7Zm-2.809-9.79a16.72,16.72,0,0,0,2.929,4.13,16.123,16.123,0,0,1-6.073,3.28l0.336,0.58a18.73,18.73,0,0,0,6.7-3.05,18.179,18.179,0,0,0,5.424,2.62,3.808,3.808,0,0,1,.96-1.32,17.417,17.417,0,0,1-5.544-2.16,15.552,15.552,0,0,0,2.784-3.65l0.7-.29a0.291,0.291,0,0,0,.216-0.26,4.241,4.241,0,0,0-1.488-1.56l-0.888,1.08h-7.513l0.24,0.6h1.224Zm0.793,0h5.3a12.475,12.475,0,0,1-2.4,3.38A11.586,11.586,0,0,1,647.684,1131.36Zm-7.273,11.57-0.384.26a5.513,5.513,0,0,1,1.008,2.57c0.048,0.5.216,0.74,0.5,0.74a0.585,0.585,0,0,0,.6-0.69A4.107,4.107,0,0,0,640.411,1142.93Zm-2.664.93-0.528.15a9.8,9.8,0,0,1,.288,2.25,8.586,8.586,0,0,1-.072,1.13,0.928,0.928,0,0,0-.024.29,0.525,0.525,0,0,0-.024.17,0.453,0.453,0,0,0,.528.5c0.5,0,.768-0.41.768-1.25A7.737,7.737,0,0,0,637.747,1143.86Zm-1.728.08a7.878,7.878,0,0,1-1.129,4.29,1.329,1.329,0,0,0-.312.67,0.652,0.652,0,0,0,.816.65,1.084,1.084,0,0,0,.84-0.69,6.641,6.641,0,0,0,.529-2.96,17.78,17.78,0,0,0-.144-1.92Zm3.1-.46-0.5.19a7.139,7.139,0,0,1,.768,3.12c0,0.55.144,0.84,0.456,0.84a0.668,0.668,0,0,0,.72-0.79A5.6,5.6,0,0,0,639.115,1143.48Zm23.349,2.26-0.288.4a9.261,9.261,0,0,1,2.712,3.68,1.069,1.069,0,0,0,.936.91,1.038,1.038,0,0,0,1.129-1.2,2.256,2.256,0,0,0-.7-1.61A9.475,9.475,0,0,0,662.464,1145.74Zm29.792-14.41a1.249,1.249,0,0,0,1.056-.67c0-.36-0.864-0.57-2.568-0.65v2.28a23.118,23.118,0,0,1-1.968,10.06,15.859,15.859,0,0,1-7.729,7.3l0.336,0.53a16.192,16.192,0,0,0,7.633-5.45,19.17,19.17,0,0,0,3.048-8.67,19.013,19.013,0,0,0,1.584,5.69,18.791,18.791,0,0,0,7.633,8.02,4.586,4.586,0,0,1,1.392-1.42c-6.96-3.33-10.417-8.76-10.417-16.22v-0.8Zm32.434,4.47a7.539,7.539,0,0,0-2.784-2.81,8.611,8.611,0,0,0-4.248-1.1,10.786,10.786,0,0,0-5.041,1.17,11.353,11.353,0,0,0-3.408,2.79,7.912,7.912,0,0,0-1.8,3.72,5.843,5.843,0,0,0,.36,3.96,2.943,2.943,0,0,0,2.712,2.04,4.786,4.786,0,0,0,3.5-2.26,12.069,12.069,0,0,0,1.872-4.68,18.06,18.06,0,0,0,.384-3.67c0-.65-0.024-1.51-0.072-2.04,0.24-.03.48-0.07,0.7-0.1a7.476,7.476,0,0,1,4.632.99,5.519,5.519,0,0,1,2.352,3.28,9.781,9.781,0,0,1,.336,4.42,6.064,6.064,0,0,1-2.28,3.77,11.178,11.178,0,0,1-6.456,2.04c-0.648,0-1.176-.05-1.416-0.07a0.3,0.3,0,0,0-.384.19c-0.024.14,0.12,0.26,0.384,0.29a11.575,11.575,0,0,0,4.3-.03,12.426,12.426,0,0,0,4.392-1.6,5.89,5.89,0,0,0,2.593-3.37,9.566,9.566,0,0,0,.336-3.67A6.678,6.678,0,0,0,724.69,1135.8Zm-9.48,1.1a10.3,10.3,0,0,1-1.536,4.28,4.88,4.88,0,0,1-2.713,2.2c-1.056.34-1.968,0.15-2.328-.76a6.317,6.317,0,0,1,.192-4.06,8.8,8.8,0,0,1,3.192-3.91,10.332,10.332,0,0,1,3.361-1.54A19.417,19.417,0,0,1,715.21,1136.9Zm19.336,4.35a14.965,14.965,0,0,0-.072,3.77,5.024,5.024,0,0,0,1.944,3.02,5.521,5.521,0,0,0,3.576.94,8.731,8.731,0,0,0,4.177-1.68c1.368-1.01,2.52-2.07,3.072-2.55a13.159,13.159,0,0,0,1.08-1.1,0.283,0.283,0,0,0,.024-0.43,0.358,0.358,0,0,0-.456.12c-0.12.12-.768,0.72-1.176,1.03s-1.44,1.05-2.112,1.46-1.848,1.03-2.424,1.32a6.224,6.224,0,0,1-2.328.58,4.218,4.218,0,0,1-2.833-.91,4.646,4.646,0,0,1-1.416-2.72,17,17,0,0,1,.1-3.72c0.1-.93.432-3.41,0.552-4.08,0.144-.69.432-1.94,0.576-2.64a2.322,2.322,0,0,0-.072-1.85,2.881,2.881,0,0,0-1.056-.84,0.715,0.715,0,0,0-.744-0.12,0.58,0.58,0,0,0-.024.7,3.164,3.164,0,0,1,.456,1.34c0,0.53-.192,2.14-0.264,3C735.05,1136.73,734.618,1140.26,734.546,1141.25Zm23.194,2.61a15.507,15.507,0,0,1-1.537,2.26,4.809,4.809,0,0,0-1.08,1.7,0.781,0.781,0,0,0,.672.84,1.534,1.534,0,0,0,1.056-1.03c0.265-.5,1.081-1.99,1.465-2.73,0.528-1.06,1.176-2.31,1.7-3.48s1.056-2.72,1.536-3.87c0.048-.1.072-0.19,0.12-0.29a6.24,6.24,0,0,1,3.024-.62,2.5,2.5,0,0,1,1.176,2.4,12.5,12.5,0,0,1-.552,3.96,4.785,4.785,0,0,1-1.9,2.64c-0.648.34-1.872-.31-2.28-0.46a0.873,0.873,0,0,0-1.056.1,1.547,1.547,0,0,0,.912.82,5.085,5.085,0,0,1,1.3,1.05,1.435,1.435,0,0,0,1.056.7,3.238,3.238,0,0,0,1.632-1.01,7.159,7.159,0,0,0,1.824-3.31,10.477,10.477,0,0,0,.408-4.56c-0.24-1.49-.792-2.84-2.088-3.22a3.8,3.8,0,0,0-2.4.14c-0.144.05-.384,0.15-0.672,0.27a11.582,11.582,0,0,0,.552-2.28,4.456,4.456,0,0,0-.288-2.23,1,1,0,0,0-1.248-.44,0.721,0.721,0,0,0,.048.99,3.379,3.379,0,0,1,.336,1.73,10.884,10.884,0,0,1-.456,2.64c-0.336.12-.648,0.24-0.864,0.33a18.16,18.16,0,0,1-2.3.75,3.794,3.794,0,0,1-1.561,0,0.824,0.824,0,0,0-.888.38,0.952,0.952,0,0,0,.768.98,2.46,2.46,0,0,0,1.777.08c0.408-.17,1.1-0.56,1.656-0.82,0.216-.12.576-0.29,0.936-0.48-0.36.96-.84,2.04-1.248,2.88C758.7,1141.85,758.172,1143.07,757.74,1143.86Zm15.769-6.38a7.287,7.287,0,0,0-1.56-1.42,0.839,0.839,0,0,0-.768-0.21c-0.216.24,0.048,0.55,0.24,0.72a3.464,3.464,0,0,1,.96,1.12,3.6,3.6,0,0,1,.288,1.85,2.1,2.1,0,0,1-.24,1.18,1.519,1.519,0,0,1-.864.34,5.722,5.722,0,0,1-.792.09,0.4,0.4,0,0,0-.408.36,0.489,0.489,0,0,0,.48.41c0.336,0.07,1.224.19,1.728,0.24a6.436,6.436,0,0,0,1.752-.02c0.528-.15.744-0.65,0.6-1.64A6.129,6.129,0,0,0,773.509,1137.48Zm0.312-2.76a0.643,0.643,0,0,0,.384-0.96,3.319,3.319,0,0,0-1.608-1.08,5.926,5.926,0,0,0-1.44-.34,0.53,0.53,0,0,0-.456.12c-0.12.17,0,.36,0.216,0.51a9.389,9.389,0,0,1,1.56,1.24A1.608,1.608,0,0,0,773.821,1134.72Zm2.112-1.11a0.627,0.627,0,0,0,.312-0.98,3.512,3.512,0,0,0-1.632-1.01,5.068,5.068,0,0,0-1.464-.24,0.6,0.6,0,0,0-.456.12,0.4,0.4,0,0,0,.24.51,3.938,3.938,0,0,1,1.656,1.1A1.425,1.425,0,0,0,775.933,1133.61Zm17.459,13.23a12.619,12.619,0,0,1-4.1,1.56,11.635,11.635,0,0,1-2.688.24c-0.384-.02-0.72.02-0.744,0.24a0.764,0.764,0,0,0,.768.34,16.7,16.7,0,0,0,2.76-.08,13.546,13.546,0,0,0,4.56-1.27,7.2,7.2,0,0,0,3.361-3.36,3.71,3.71,0,0,0-.768-3.96c-1.176-1.22-2.545-1.58-4.705-1.46a7.174,7.174,0,0,0-3,.98c-1.128.63-2.088,1.3-2.76,1.71a1.36,1.36,0,0,1-1.392.26c-0.384-.19-0.264-0.89-0.168-1.51,0.072-.6.24-2.04,0.36-3.12,0.12-1.11.264-1.85,0.312-2.24a1.026,1.026,0,0,1,.864-0.76,5.561,5.561,0,0,1,2.064-.17,8.8,8.8,0,0,1,1.512.41,0.8,0.8,0,0,0,.768-0.2,1.171,1.171,0,0,0,.12-1.24,3.762,3.762,0,0,0-1.248-1.71,4.67,4.67,0,0,0-2.04-.91,3.466,3.466,0,0,0-1.008-.02c-0.264.02-.5,0.02-0.552,0.26a0.63,0.63,0,0,0,.552.46,5.5,5.5,0,0,1,1.536.81,1.259,1.259,0,0,1,.672,1.15,1.93,1.93,0,0,1-1.32.41,9.843,9.843,0,0,0-2.208.6,1.815,1.815,0,0,0-.96,1.68c-0.12.91-.192,2.28-0.408,3.39-0.216,1.13-.384,2.13-0.5,2.71a2.39,2.39,0,0,0,.456,1.75c0.36,0.58.432,0.84,0.984,0.84a1.62,1.62,0,0,0,1.3-.38c0.36-.36,1.344-1.3,2.16-1.97a9.853,9.853,0,0,1,3.144-1.94,4.64,4.64,0,0,1,3.6.4,2.676,2.676,0,0,1,1.224,2.76C795.793,1144.78,795,1145.86,793.392,1146.84Zm30.594-3.77a7.217,7.217,0,0,1-1.7-2.21c-0.168-.33-0.409-0.81-0.6-1.27,0.025-.26.049-0.53,0.049-0.82a1.642,1.642,0,0,0-.865-1.53,1.071,1.071,0,0,0-1.248-.07,1.291,1.291,0,0,0,.192,1.1,4.951,4.951,0,0,1,.288,1.71,7.212,7.212,0,0,1-.072.95,16.67,16.67,0,0,0-1.608-.76,10.309,10.309,0,0,0-3.888-.8c-0.624,0-1.272,0-1.968.05,0.576-1.03,1.2-2.09,1.656-2.97,0.648-1.25,1.656-2.76,2.04-3.39a2.359,2.359,0,0,0,.528-1.46,0.986,0.986,0,0,0-.7-0.72,1.353,1.353,0,0,0-1.224,0,17.047,17.047,0,0,1-1.944.93,6.562,6.562,0,0,1-2.136.65c-0.552-.05-1.248-0.33-1.513.1a0.9,0.9,0,0,0,.481.98,2.256,2.256,0,0,0,1.752.12,23.258,23.258,0,0,0,2.76-1.32c0.36-.21.648-0.12,0.5,0.31-0.144.41-.96,2.07-1.488,3.03-0.48.93-1.224,2.47-1.968,3.94a7.106,7.106,0,0,0-1.609.45,6.1,6.1,0,0,0-3.144,2.26c-0.528.81-.96,2.49-0.288,3.12,0.792,0.77,2.328.26,3.312-.77a13.5,13.5,0,0,0,2.329-3.89,3.376,3.376,0,0,1,.192-0.43,3.906,3.906,0,0,1,.48-0.05,7.96,7.96,0,0,1,3.84.41,17.51,17.51,0,0,1,3.288,1.73c-0.048.14-.1,0.28-0.144,0.41a8.8,8.8,0,0,1-2.112,3.4,10.181,10.181,0,0,1-3.528,2.21,0.919,0.919,0,0,0-.648.51c0.048,0.14.312,0.28,0.912,0.12a9.964,9.964,0,0,0,4.248-2.48,10.889,10.889,0,0,0,2.328-3.38c0.937,0.79,1.657,1.56,2.425,1.63,0.84,0.07,1.536.15,1.656-.36A1.882,1.882,0,0,0,823.986,1143.07ZM809.1,1143a2.17,2.17,0,0,1-1.68.77c-0.552-.29-0.024-1.3,1.152-2.09a7.481,7.481,0,0,1,2.161-.98A8.683,8.683,0,0,1,809.1,1143Zm12.193-1.3a7.6,7.6,0,0,0,.192-0.77,5.641,5.641,0,0,0,.649,1.42A8.246,8.246,0,0,0,821.3,1141.7Zm12.218,2.16a15.506,15.506,0,0,1-1.536,2.26,4.815,4.815,0,0,0-1.081,1.7,0.782,0.782,0,0,0,.673.84,1.534,1.534,0,0,0,1.056-1.03c0.264-.5,1.08-1.99,1.464-2.73,0.528-1.06,1.176-2.31,1.7-3.48s1.056-2.72,1.536-3.87c0.048-.1.072-0.19,0.12-0.29a6.24,6.24,0,0,1,3.024-.62,2.5,2.5,0,0,1,1.176,2.4,12.474,12.474,0,0,1-.552,3.96,4.785,4.785,0,0,1-1.9,2.64c-0.648.34-1.872-.31-2.28-0.46a0.873,0.873,0,0,0-1.056.1,1.547,1.547,0,0,0,.912.82,5.085,5.085,0,0,1,1.3,1.05,1.435,1.435,0,0,0,1.056.7,3.238,3.238,0,0,0,1.632-1.01,7.168,7.168,0,0,0,1.825-3.31,10.477,10.477,0,0,0,.408-4.56c-0.24-1.49-.793-2.84-2.089-3.22a3.8,3.8,0,0,0-2.4.14c-0.144.05-.384,0.15-0.672,0.27a11.582,11.582,0,0,0,.552-2.28,4.456,4.456,0,0,0-.288-2.23,1,1,0,0,0-1.248-.44,0.721,0.721,0,0,0,.048.99,3.379,3.379,0,0,1,.336,1.73,10.884,10.884,0,0,1-.456,2.64c-0.336.12-.648,0.24-0.864,0.33a18.16,18.16,0,0,1-2.3.75,3.789,3.789,0,0,1-1.56,0,0.824,0.824,0,0,0-.888.38,0.952,0.952,0,0,0,.768.98,2.457,2.457,0,0,0,1.776.08c0.408-.17,1.1-0.56,1.656-0.82,0.216-.12.576-0.29,0.936-0.48-0.36.96-.84,2.04-1.248,2.88C834.475,1141.85,833.947,1143.07,833.515,1143.86Zm15.769-6.38a7.287,7.287,0,0,0-1.56-1.42,0.839,0.839,0,0,0-.768-0.21c-0.216.24,0.048,0.55,0.24,0.72a3.464,3.464,0,0,1,.96,1.12,3.6,3.6,0,0,1,.288,1.85,2.1,2.1,0,0,1-.24,1.18,1.519,1.519,0,0,1-.864.34,5.722,5.722,0,0,1-.792.09,0.4,0.4,0,0,0-.408.36,0.489,0.489,0,0,0,.48.41c0.336,0.07,1.224.19,1.728,0.24a6.436,6.436,0,0,0,1.752-.02c0.528-.15.744-0.65,0.6-1.64A6.129,6.129,0,0,0,849.284,1137.48Zm0.312-2.76a0.643,0.643,0,0,0,.384-0.96,3.319,3.319,0,0,0-1.608-1.08,5.926,5.926,0,0,0-1.44-.34,0.53,0.53,0,0,0-.456.12c-0.12.17,0,.36,0.216,0.51a9.389,9.389,0,0,1,1.56,1.24A1.608,1.608,0,0,0,849.6,1134.72Zm2.112-1.11a0.627,0.627,0,0,0,.312-0.98,3.512,3.512,0,0,0-1.632-1.01,5.068,5.068,0,0,0-1.464-.24,0.6,0.6,0,0,0-.456.12,0.4,0.4,0,0,0,.24.51,3.938,3.938,0,0,1,1.656,1.1A1.425,1.425,0,0,0,851.708,1133.61Zm-310.827,44.57a20.664,20.664,0,0,0,1.224,2.96,11.975,11.975,0,0,0,5.9,5.11,3.718,3.718,0,0,1,1.128-1.37,13.676,13.676,0,0,1-4.993-2.81,15.242,15.242,0,0,0,2.857-2.01,4.514,4.514,0,0,0,.576.09c0.264,0,.384-0.07.384-0.21,0-.29-0.528-0.77-1.584-1.47a18.748,18.748,0,0,1-2.689,3.12,11.081,11.081,0,0,1-2.112-3.41h7.2l0.288-.45-0.216-.24a6.915,6.915,0,0,0-1.272-1.28l-1.152,1.37h-5.089v-1.39a1.165,1.165,0,0,0,.888-0.48q0-.39-2.232-0.72v2.59h-7.248l0.216,0.6h6.024a16.508,16.508,0,0,1-6.865,4.2l0.289,0.53a21.79,21.79,0,0,0,4.656-1.77v3.38c-1.248.14-2.184,0.26-2.784,0.34,0.408,1.34.744,2.01,1.056,2.01a0.912,0.912,0,0,0,.408-0.79,64.452,64.452,0,0,0,7.056-2.02l-0.12-.64c-1.176.28-2.616,0.57-4.272,0.88v-3.96a11.9,11.9,0,0,0,2.448-2.16h0.024Zm4.489-3.29v0.92h1.3v-4.18l0.576-.38a0.364,0.364,0,0,0,.216-0.27,3.763,3.763,0,0,0-1.416-1.37l-0.84.96h-3.865v-2.18h7.177l0.24-.46a9.974,9.974,0,0,0-1.536-1.65l-1.152,1.51h-4.729v-1.39a1.166,1.166,0,0,0,.96-0.63c0-.31-0.768-0.52-2.3-0.6v2.62h-6.72l0.216,0.6h6.5v2.18h-3.456a15.727,15.727,0,0,0-1.56-.72v6.05h1.3v-1.01h9.1Zm-3.553-3.72v3.12h-2.112v-3.12h2.112Zm1.3,0h2.257v3.12h-2.257v-3.12Zm-6.84,0h2.136v3.12h-2.136v-3.12Zm-4.321-1.87-0.456.29a10.566,10.566,0,0,1,.936,4.18,0.541,0.541,0,0,0,.576.6c0.553,0,.817-0.34.817-1.04A6.392,6.392,0,0,0,531.952,1169.3Zm-3.936.58c0,0.24.024,0.48,0.024,0.72a11.163,11.163,0,0,1-1.056,5.18,1.512,1.512,0,0,0-.168.53,0.61,0.61,0,0,0,.72.67c0.528,0,.912-0.48,1.176-1.39a8.454,8.454,0,0,0,.288-2.33,20.863,20.863,0,0,0-.36-3.33Zm1.9,16.85h1.344v-20.26a1.4,1.4,0,0,0,1.033-.7q0-.57-2.377-0.57v21.53Zm28.38-6.87a15.506,15.506,0,0,1-1.536,2.26,4.809,4.809,0,0,0-1.08,1.7,0.781,0.781,0,0,0,.7.84c0.36,0.08.768-.52,1.032-1.03,0.288-.5,1.08-1.99,1.464-2.73,0.552-1.06,1.2-2.31,1.729-3.48s1.1-2.69,1.536-3.87c0.024-.1.072-0.19,0.1-0.29,0.168-.07.312-0.14,0.432-0.19a4.008,4.008,0,0,1,2.616-.43,2.526,2.526,0,0,1,1.176,2.4,13.229,13.229,0,0,1-.552,3.96,4.8,4.8,0,0,1-1.92,2.64c-0.624.34-1.872-.31-2.28-0.46a0.893,0.893,0,0,0-1.056.1,1.534,1.534,0,0,0,.936.82,6.079,6.079,0,0,1,1.3,1.05,1.4,1.4,0,0,0,1.032.7,3.238,3.238,0,0,0,1.632-1.01,7.054,7.054,0,0,0,1.824-3.31,10.509,10.509,0,0,0,.432-4.56c-0.24-1.49-.816-2.84-2.112-3.22a3.71,3.71,0,0,0-2.376.14c-0.144.05-.408,0.15-0.7,0.27a11.582,11.582,0,0,0,.552-2.28,4.456,4.456,0,0,0-.288-2.23,0.968,0.968,0,0,0-1.224-.44c-0.36.27-.168,0.65,0.048,0.99a3.17,3.17,0,0,1,.312,1.73,10.884,10.884,0,0,1-.456,2.64c-0.336.12-.648,0.24-0.864,0.33a17.049,17.049,0,0,1-2.3.75,4.27,4.27,0,0,1-1.536,0,0.77,0.77,0,0,0-.888.38,0.937,0.937,0,0,0,.768.98,2.566,2.566,0,0,0,1.776.08c0.408-.17,1.08-0.56,1.633-0.82,0.239-.12.576-0.29,0.96-0.48-0.384.96-.864,2.04-1.273,2.88C559.276,1177.85,558.724,1179.07,558.292,1179.86Zm15.77-6.38a6.811,6.811,0,0,0-1.536-1.42,0.849,0.849,0,0,0-.768-0.21,0.524,0.524,0,0,0,.239.72,3.408,3.408,0,0,1,.937,1.12,3.6,3.6,0,0,1,.312,1.85,1.878,1.878,0,0,1-.264,1.18,1.4,1.4,0,0,1-.864.34,5.412,5.412,0,0,1-.769.09,0.441,0.441,0,0,0-.432.36,0.521,0.521,0,0,0,.5.41,13.525,13.525,0,0,0,1.7.24,5.57,5.57,0,0,0,1.776-.02c0.528-.15.72-0.65,0.576-1.64A6.129,6.129,0,0,0,574.062,1173.48Zm10.5,3.77a14.965,14.965,0,0,0-.072,3.77,5.021,5.021,0,0,0,1.945,3.02,5.521,5.521,0,0,0,3.576.94,8.731,8.731,0,0,0,4.176-1.68c1.368-1.01,2.52-2.07,3.072-2.55a13.057,13.057,0,0,0,1.081-1.1,0.283,0.283,0,0,0,.024-0.43,0.358,0.358,0,0,0-.456.12c-0.12.12-.769,0.72-1.176,1.03s-1.441,1.05-2.113,1.46-1.848,1.03-2.424,1.32a6.224,6.224,0,0,1-2.328.58,4.217,4.217,0,0,1-2.832-.91,4.653,4.653,0,0,1-1.417-2.72,17,17,0,0,1,.1-3.72c0.1-.93.433-3.41,0.553-4.08,0.144-.69.432-1.94,0.576-2.64a2.322,2.322,0,0,0-.072-1.85,2.875,2.875,0,0,0-1.057-.84,0.715,0.715,0,0,0-.744-0.12,0.581,0.581,0,0,0-.024.7,3.163,3.163,0,0,1,.457,1.34c0,0.53-.192,2.14-0.265,3C585.064,1172.73,584.632,1176.26,584.56,1177.25Zm28.153-6.2c0.7-.62,1.728-1.36,2.256-1.84a2.1,2.1,0,0,0,.84-1.44,1.628,1.628,0,0,0-.576-1.37,1.047,1.047,0,0,0-1.08-.46,0.549,0.549,0,0,0-.12.67,1.445,1.445,0,0,1-.072,1.13c-0.24.36-1.2,1.39-1.824,2.16a24.678,24.678,0,0,0-2.136,3.17,6.327,6.327,0,0,0-.888,2.64,4.784,4.784,0,0,0,1.1,1.9,20.519,20.519,0,0,1,1.7,2.71,18.353,18.353,0,0,1,1.3,2.88c0.264,0.89.408,1.44,0.528,1.97a0.83,0.83,0,0,0,.936.72c0.432-.07.648-0.53,0.648-1.32a6.692,6.692,0,0,0-.864-2.91,14.494,14.494,0,0,0-1.824-2.71c-0.72-.86-1.464-1.73-1.776-2.16a3.513,3.513,0,0,1-.792-1.2,5.24,5.24,0,0,1,.7-2.02A12.3,12.3,0,0,1,612.713,1171.05Zm14.279,10.25c0.36,0.17.792,0.1,0.816-.38a13.176,13.176,0,0,1,.36-2.64c0.288-.74,1.009-2.57,1.3-3.34,0.312-.79.984-2.52,1.128-2.88a0.171,0.171,0,0,0,.048-0.12h0.072a14.006,14.006,0,0,0,2.736-.48,3.1,3.1,0,0,0,1.512-.74,0.625,0.625,0,0,0-.048-0.82,2.552,2.552,0,0,0-1.1-.53c-0.552-.16-1.128-0.4-1.488-0.52a4,4,0,0,0-.456-0.17,2.021,2.021,0,0,0-.048-0.77,1.956,1.956,0,0,0-.72-0.98,1,1,0,0,0-1.008-.2,0.481,0.481,0,0,0-.024.68,2.26,2.26,0,0,1,.336,1.29,4.243,4.243,0,0,1-.5,1.56,7.439,7.439,0,0,0-.336.82,4.151,4.151,0,0,1-.793-0.07,5.554,5.554,0,0,1-1.176-.36,0.815,0.815,0,0,0-.768-0.1c-0.144.19,0.1,0.5,0.5,0.77a4.128,4.128,0,0,0,1.536.6,1.474,1.474,0,0,1,.36.05c-0.192.52-.36,1.05-0.527,1.48-0.385,1.01-1.081,3.1-1.441,3.77s-0.6,1.2-.864,1.68a1.968,1.968,0,0,0-.264,1.52A1.7,1.7,0,0,0,626.992,1181.3Zm4.537-11.42a4.224,4.224,0,0,0,.24-0.72c0.288,0.17.6,0.31,0.768,0.41a1.305,1.305,0,0,1,.5.36,0.789,0.789,0,0,1-.576.45,9.1,9.1,0,0,1-1.344.46A10.322,10.322,0,0,0,631.529,1169.88Zm10.513,1.53a9.217,9.217,0,0,0-1.777-1.08,6.856,6.856,0,0,0-1.344-.52,1.013,1.013,0,0,0-.936.04c-0.072.1,0.048,0.29,0.312,0.39a4.531,4.531,0,0,1,1.224.84,6.871,6.871,0,0,1,1.224,1.25c0.192,0.31.073,0.48-.36,0.5a3.264,3.264,0,0,0-1.08.26,0.5,0.5,0,0,0-.312.27c0,0.12.192,0.19,0.7,0.21,0.48,0,.913,0,1.248.03a2.52,2.52,0,0,1,.841.26,1.1,1.1,0,0,0,.888-0.05,0.769,0.769,0,0,0,.36-1A2.968,2.968,0,0,0,642.042,1171.41Zm-6.889,8.69c-1.416.15-2.4,0.87-2.544,1.95a2.436,2.436,0,0,0,1.224,2.64,4.953,4.953,0,0,0,3.864.07,2.363,2.363,0,0,0,1.152-2.21c0-.12-0.024-0.29-0.048-0.5,0.36,0.19.72,0.41,1.008,0.57a1.977,1.977,0,0,0,1.249.48,0.81,0.81,0,0,0,.24-1,1.755,1.755,0,0,0-.792-0.96,6.967,6.967,0,0,0-2.065-.8,3.368,3.368,0,0,1-.12-0.4c-0.264-.92-0.552-2.12-0.7-2.91a4.635,4.635,0,0,1,.024-2.09c0.144-.48.264-0.74,0.048-0.86a0.8,0.8,0,0,0-.7.57,2.9,2.9,0,0,0-.192,1.76c0.168,0.69.36,1.7,0.5,2.45,0.072,0.38.168,0.81,0.216,1.29A8.888,8.888,0,0,0,635.153,1180.1Zm2.472,1.37v0.05c-0.048.94-.216,1.68-0.936,1.97a3.1,3.1,0,0,1-2.184.07,1.365,1.365,0,0,1-1.08-1.42,1.686,1.686,0,0,1,1.656-1.17,5.174,5.174,0,0,1,2.424.43A0.528,0.528,0,0,0,637.625,1181.47Zm19.737-8.5c-0.576.68-2.016,2.45-2.928,3.44-0.888.98-1.632,1.96-2.112,2.59a6.28,6.28,0,0,0-1.176,1.85,1.343,1.343,0,0,0,.384,1.27,0.83,0.83,0,0,0,.864.19,1.913,1.913,0,0,0,.816-1.25,10.77,10.77,0,0,1,1.512-3.16,6.813,6.813,0,0,1,3.552-2.43,6.543,6.543,0,0,1,4.777.17,3.936,3.936,0,0,1,2.376,3.38,4.126,4.126,0,0,1-1.536,3.29,6.623,6.623,0,0,1-3.336,1.23,1.356,1.356,0,0,0-.336-1.85,3.45,3.45,0,0,0-2.785-.51c-0.888.17-1.92,0.82-1.92,1.61,0.024,0.79.648,1.37,2.3,1.71a9.072,9.072,0,0,0,4.248-.03,7.159,7.159,0,0,0,3.576-2.11,4.367,4.367,0,0,0,1.176-3.55,4.417,4.417,0,0,0-1.968-3.34,7.177,7.177,0,0,0-3.5-1.3,7.95,7.95,0,0,0-3.528.46,5.447,5.447,0,0,0-1.465.77s1.272-1.32,1.9-2.02c0.625-.72,1.513-1.8,2.257-2.54a12.075,12.075,0,0,1,1.9-1.63,0.93,0.93,0,0,0,.552-0.6,0.864,0.864,0,0,0-.312-0.87,1.953,1.953,0,0,0-1.416-.69,6.077,6.077,0,0,0-1.992.86c-0.889.48-1.969,0.98-2.785,1.32a3.4,3.4,0,0,1-1.488.36,2.83,2.83,0,0,1-.888-0.17,0.445,0.445,0,0,0-.6.22,0.915,0.915,0,0,0,.288.84,1.957,1.957,0,0,0,1.392.6,4.07,4.07,0,0,0,1.992-.6c0.769-.41,2.065-1.18,2.353-1.37a1.146,1.146,0,0,1,.888-0.22c0.12,0.12-.024.39-0.312,0.77C659.787,1170.07,657.939,1172.3,657.362,1172.97Zm-0.432,10.04c-0.144-.41.384-0.65,0.864-0.65,0.673,0.02,1.3.43,0.552,1.2A1.7,1.7,0,0,1,656.93,1183.01Zm19.838-1.71c0.36,0.17.792,0.1,0.816-.38a13.176,13.176,0,0,1,.36-2.64c0.288-.74,1.009-2.57,1.3-3.34,0.312-.79.984-2.52,1.128-2.88a0.171,0.171,0,0,0,.048-0.12h0.072a14.006,14.006,0,0,0,2.736-.48,3.1,3.1,0,0,0,1.512-.74,0.625,0.625,0,0,0-.048-0.82,2.552,2.552,0,0,0-1.1-.53c-0.552-.16-1.128-0.4-1.488-0.52a4,4,0,0,0-.456-0.17,2.021,2.021,0,0,0-.048-0.77,1.956,1.956,0,0,0-.72-0.98,1,1,0,0,0-1.008-.2,0.481,0.481,0,0,0-.024.68,2.26,2.26,0,0,1,.336,1.29,4.243,4.243,0,0,1-.5,1.56,7.439,7.439,0,0,0-.336.82,4.151,4.151,0,0,1-.793-0.07,5.554,5.554,0,0,1-1.176-.36,0.815,0.815,0,0,0-.768-0.1c-0.144.19,0.1,0.5,0.5,0.77a4.128,4.128,0,0,0,1.536.6,1.474,1.474,0,0,1,.36.05c-0.192.52-.36,1.05-0.527,1.48-0.385,1.01-1.081,3.1-1.441,3.77s-0.6,1.2-.864,1.68a1.968,1.968,0,0,0-.264,1.52A1.7,1.7,0,0,0,676.768,1181.3Zm4.537-11.42a4.224,4.224,0,0,0,.24-0.72c0.288,0.17.6,0.31,0.768,0.41a1.305,1.305,0,0,1,.5.36,0.789,0.789,0,0,1-.576.45,9.1,9.1,0,0,1-1.344.46A10.322,10.322,0,0,0,681.305,1169.88Zm10.513,1.53a9.217,9.217,0,0,0-1.777-1.08,6.856,6.856,0,0,0-1.344-.52,1.013,1.013,0,0,0-.936.04c-0.072.1,0.048,0.29,0.312,0.39a4.531,4.531,0,0,1,1.224.84,6.9,6.9,0,0,1,1.224,1.25c0.192,0.31.073,0.48-.36,0.5a3.264,3.264,0,0,0-1.08.26,0.5,0.5,0,0,0-.312.27c0,0.12.192,0.19,0.7,0.21,0.48,0,.913,0,1.248.03a2.52,2.52,0,0,1,.841.26,1.1,1.1,0,0,0,.888-0.05,0.769,0.769,0,0,0,.36-1A2.968,2.968,0,0,0,691.818,1171.41Zm-6.889,8.69c-1.416.15-2.4,0.87-2.544,1.95a2.436,2.436,0,0,0,1.224,2.64,4.953,4.953,0,0,0,3.864.07,2.363,2.363,0,0,0,1.152-2.21c0-.12-0.024-0.29-0.048-0.5,0.36,0.19.72,0.41,1.008,0.57a1.977,1.977,0,0,0,1.249.48,0.81,0.81,0,0,0,.24-1,1.755,1.755,0,0,0-.792-0.96,6.967,6.967,0,0,0-2.065-.8,3.368,3.368,0,0,1-.12-0.4c-0.264-.92-0.552-2.12-0.7-2.91a4.635,4.635,0,0,1,.024-2.09c0.144-.48.264-0.74,0.048-0.86a0.8,0.8,0,0,0-.7.57,2.9,2.9,0,0,0-.192,1.76c0.168,0.69.36,1.7,0.5,2.45,0.072,0.38.168,0.81,0.216,1.29A8.888,8.888,0,0,0,684.929,1180.1Zm2.472,1.37v0.05c-0.048.94-.216,1.68-0.936,1.97a3.1,3.1,0,0,1-2.184.07,1.365,1.365,0,0,1-1.08-1.42,1.686,1.686,0,0,1,1.656-1.17,5.174,5.174,0,0,1,2.424.43A0.528,0.528,0,0,0,687.4,1181.47Zm31.03-3.69a0.706,0.706,0,0,0-.432.57,17.111,17.111,0,0,1-1.008,2.55,4.895,4.895,0,0,1-1.9,1.96,2.96,2.96,0,0,1-3.408-.24,3.7,3.7,0,0,1-.96-3.43c0.216-1.63.408-3-.528-3.79a3.858,3.858,0,0,0-3.841-.27,8.982,8.982,0,0,0-2.616,2.02c0.24-.45.48-0.91,0.72-1.32a48.9,48.9,0,0,1,2.832-4.15,19.918,19.918,0,0,1,1.9-2.11,1.062,1.062,0,0,0,.144-1.35,3.122,3.122,0,0,0-.865-0.79,0.706,0.706,0,0,0-.816-0.1,0.686,0.686,0,0,0,.072.7,0.907,0.907,0,0,1,0,1.13c-0.36.53-1.368,1.97-2.064,3-0.7,1.01-1.632,2.49-2.16,3.38a33.18,33.18,0,0,0-2.184,4.49,13.623,13.623,0,0,0-1.008,3.36,1.914,1.914,0,0,0,.72,1.42,0.783,0.783,0,0,0,.936.12,1.607,1.607,0,0,0,.12-1.25,10.342,10.342,0,0,1,.36-3.48,5.145,5.145,0,0,1,.144-0.5,16.871,16.871,0,0,1,2.352-2.5,3.9,3.9,0,0,1,2.712-1.13,1.675,1.675,0,0,1,1.705,2.11c-0.168,1.44-.481,3.08.624,4.49a4.088,4.088,0,0,0,3.864,1.63,4.269,4.269,0,0,0,3.432-2.44,13.368,13.368,0,0,0,1.32-3.44A0.486,0.486,0,0,0,718.431,1177.78Zm8.277-5.12a10.686,10.686,0,0,0,2.736-.86c0.864-.31,2.424-0.99,3.432-1.37,0.456-.17.912-0.31,1.368-0.43a12,12,0,0,0-1.272,1.1,4.626,4.626,0,0,0-1.176,2.16,27.509,27.509,0,0,0-.6,3.22,14.574,14.574,0,0,0,.048,3.84,3.667,3.667,0,0,0,1.2,2.47,4.92,4.92,0,0,0,2.88,1.03,13.561,13.561,0,0,0,2.569,0c0.576-.04.816-0.45,0.6-0.76a1.9,1.9,0,0,0-1.1-.77,5.8,5.8,0,0,0-1.873-.07,3.04,3.04,0,0,1-2.184-.53,2.794,2.794,0,0,1-1.032-1.99,16.126,16.126,0,0,1,.072-4.23,13.546,13.546,0,0,1,.576-2.71,5.219,5.219,0,0,1,1.464-1.99c0.48-.41,1.008-0.82,1.392-1.11,0.048,0,.12-0.02.168-0.02a19.437,19.437,0,0,1,2.977-.31,8.939,8.939,0,0,1,1.608.21,0.736,0.736,0,0,0,.888-0.26,0.875,0.875,0,0,0-.528-1.06,4.009,4.009,0,0,0-2.352-.24c-0.84.12-2.689,0.6-4.3,1.01-1.632.43-3.48,1.01-4.32,1.27a15.912,15.912,0,0,1-3.168.75,3.85,3.85,0,0,1-1.56-.27,0.919,0.919,0,0,0-1.033-.07,1.144,1.144,0,0,0,.385,1.3A2.584,2.584,0,0,0,726.708,1172.66Zm23.611,8.24a3.067,3.067,0,0,0-2.977,3,2.774,2.774,0,0,0,1.705,2.68,2.554,2.554,0,0,0,1.3.32,2.909,2.909,0,0,0,2.16-.94,2.992,2.992,0,0,0,.84-2.06A3.063,3.063,0,0,0,750.319,1180.9Zm0.024,0.84a2.231,2.231,0,0,1,1.248.4,2.135,2.135,0,0,1,.144,3.39,1.98,1.98,0,0,1-1.392.53,2.048,2.048,0,0,1-1.824-1.01,2.22,2.22,0,0,1-.336-1.15,2.059,2.059,0,0,1,.576-1.47A2.2,2.2,0,0,1,750.343,1181.74Zm21.312-15.37c-0.72-.36-1.272-0.6-1.632-0.74v7.18h1.368v-0.92H782.7v0.77h1.392v-5.25l0.552-.39a0.373,0.373,0,0,0,.216-0.31,4.233,4.233,0,0,0-1.44-1.42l-0.936,1.08H771.655Zm-0.264.6H782.7v1.8H771.391v-1.8Zm11.305,4.32H771.391v-1.92H782.7v1.92Zm-3.816,5.84a18,18,0,0,0,2.832,5.28,15.086,15.086,0,0,1-4.585,3.81l0.36,0.53a15.171,15.171,0,0,0,5.113-3.38,16.506,16.506,0,0,0,4.536,2.97,3.468,3.468,0,0,1,1.08-1.27,14.567,14.567,0,0,1-4.872-2.71,21.58,21.58,0,0,0,2.64-4.71l0.624-.33a0.325,0.325,0,0,0,.216-0.29,4.16,4.16,0,0,0-1.44-1.46l-0.84.96h-7.3l0.24,0.6h1.393Zm0.768,0h4.992a18.4,18.4,0,0,1-2.208,4.37A14.06,14.06,0,0,1,779.648,1177.13Zm-4.177,6.05v3.55h1.344v-12.27h10.9l0.312-.48a11.239,11.239,0,0,0-1.512-1.39,2.034,2.034,0,0,1-.288-0.24l-1.272,1.51H766.374l0.217,0.6h2.952v8.67c-0.648.05-1.608,0.12-2.881,0.17,0.336,1.39.625,2.08,0.961,2.08a0.875,0.875,0,0,0,.456-0.81c2.5-.36,4.848-0.79,7.056-1.32C775.279,1183.22,775.4,1183.2,775.471,1183.18Zm-4.584-6.48v-2.24h4.584v2.24h-4.584Zm4.584,0.59v2.33h-4.584v-2.33h4.584Zm0,2.93v2.24c-0.7.12-2.232,0.31-4.584,0.55v-2.79h4.584Zm21.626-3.74a10.107,10.107,0,0,0-1.632-.7v10.95h1.368v-9.65h15.025v6.86a0.8,0.8,0,0,1-.12.48,2.382,2.382,0,0,1-1.248.2,27.917,27.917,0,0,1-2.832-.15v0.67a8.052,8.052,0,0,1,2.616.51,0.848,0.848,0,0,1,.552.81v0.03c1.608,0,2.4-.65,2.4-1.95v-6.93l0.624-.41a0.414,0.414,0,0,0,.192-0.29,4.041,4.041,0,0,0-1.489-1.46l-0.936,1.03H797.1Zm4.488,2.54c-0.36-.19-0.888-0.45-1.584-0.74v6.05h1.345v-1.39h5.76v0.74h1.3v-3.6l0.648-.38a0.289,0.289,0,0,0,.168-0.24,3.484,3.484,0,0,0-1.44-1.4l-0.888.96h-5.3Zm-0.239.6h5.76v2.72h-5.76v-2.72Zm-0.745-9c-0.552-.26-1.08-0.48-1.608-0.67v5.47h1.32v-0.98H808.4v0.91h1.32v-3.7l0.576-.36a0.376,0.376,0,0,0,.216-0.28,3.782,3.782,0,0,0-1.416-1.42l-0.912,1.03H800.6Zm-0.288.6H808.4v2.62h-8.089v-2.62Zm3.241-3.02h-9.337l0.24,0.6h19.826l0.24-.43c-0.5-.58-1.08-1.16-1.705-1.76l-1.224,1.59h-6.672v-1.8a1.314,1.314,0,0,0,1.008-.6c0-.36-0.792-0.55-2.376-0.58v2.98Zm20,11.16c-0.408.94-.816,1.78-1.128,2.52a6.354,6.354,0,0,0-.7,1.75,1.57,1.57,0,0,0,.384,1.32,0.662,0.662,0,0,0,.984-0.24,40.257,40.257,0,0,0,1.608-3.96c0.336-1.05,1.032-3.24,1.224-3.89s0.792-2.37,1.008-3.07c0.049-.19.121-0.46,0.193-0.77a8.827,8.827,0,0,0,1.2-.21,5.327,5.327,0,0,0,2.208-1.18c0.384-.43.48-0.67,0.312-0.96a1.716,1.716,0,0,0-1.1-.53,7.244,7.244,0,0,1-1.728-.6,2.451,2.451,0,0,0,0-1.25,1.911,1.911,0,0,0-.864-1.29,0.991,0.991,0,0,0-1.057-.19,0.8,0.8,0,0,0,.1,1,3.254,3.254,0,0,1,.528,1.61,9.68,9.68,0,0,1-.288,2.55,6.544,6.544,0,0,1-1.92.33,3.818,3.818,0,0,1-1.2-.07c-0.336-.1-0.6-0.24-0.7-0.26a0.324,0.324,0,0,0-.456,0,0.7,0.7,0,0,0,.48.88,6,6,0,0,0,2.424.34c0.312,0,.672-0.02,1.008-0.05-0.312,1.01-.744,2.26-0.96,2.79C824.805,1176.67,823.989,1178.4,823.557,1179.36Zm4.945-8.76a0.256,0.256,0,0,1,0,.43,9.4,9.4,0,0,1-.96.5c0.1-.36.168-0.64,0.192-0.81,0.024-.12.072-0.31,0.12-0.51C828.142,1170.38,828.406,1170.53,828.5,1170.6Zm6.192,2.85a7.2,7.2,0,0,0-2.448,2.36,0.562,0.562,0,0,0-.072.53,0.809,0.809,0,0,0,.456-0.44,4.281,4.281,0,0,1,1.08-.89c0.456-.24,1.08-0.62,1.632-0.86,0.576-.24,1.008-0.43,1.176-0.5a1.042,1.042,0,0,0,.648-0.56,1.027,1.027,0,0,0-.48-1.03,2.849,2.849,0,0,0-1.608-.41,7.291,7.291,0,0,0-1.68.15,15.522,15.522,0,0,0-2.04.57c-0.288.1-.792,0.36-0.624,0.65a1.021,1.021,0,0,0,.816,0,8.4,8.4,0,0,1,1.248-.26,6.061,6.061,0,0,1,1.776.02,0.851,0.851,0,0,1,.6.27A1.055,1.055,0,0,1,834.694,1173.45Zm2.592,9.73a18.021,18.021,0,0,0-2.04.26,7,7,0,0,1-2.232-.07,3.305,3.305,0,0,1-2.04-1.25,2.77,2.77,0,0,1-.12-2.42,7.6,7.6,0,0,1,.864-2c0.168-.24.192-0.45,0.072-0.52-0.1-.08-0.24.04-0.408,0.26a9.434,9.434,0,0,0-1.032,1.92,3.927,3.927,0,0,0-.312,3.31c0.528,1.18,1.392,1.85,3.336,2.16a17.668,17.668,0,0,0,4.464.15c0.649-.08,1.2-0.56.888-1.08A1.619,1.619,0,0,0,837.286,1183.18Zm1.032-11.65a0.612,0.612,0,0,0,.361-0.96,3.418,3.418,0,0,0-1.585-1.08,4.638,4.638,0,0,0-1.464-.31,0.473,0.473,0,0,0-.432.1,0.4,0.4,0,0,0,.216.53,9.1,9.1,0,0,1,1.536,1.22A1.643,1.643,0,0,0,838.318,1171.53Zm2.089-1.1a0.62,0.62,0,0,0,.336-0.98,3.259,3.259,0,0,0-1.633-.99,5.319,5.319,0,0,0-1.488-.26,0.545,0.545,0,0,0-.432.12,0.36,0.36,0,0,0,.24.5,3.976,3.976,0,0,1,1.633,1.11A1.415,1.415,0,0,0,840.407,1170.43Zm8.782,10.47a3.066,3.066,0,0,0-2.976,3,2.774,2.774,0,0,0,1.7,2.68,2.554,2.554,0,0,0,1.3.32,2.909,2.909,0,0,0,2.16-.94,2.992,2.992,0,0,0,.84-2.06A3.063,3.063,0,0,0,849.189,1180.9Zm0.024,0.84a2.231,2.231,0,0,1,1.248.4,2.135,2.135,0,0,1,.144,3.39,1.98,1.98,0,0,1-1.392.53,2.048,2.048,0,0,1-1.824-1.01,2.23,2.23,0,0,1-.336-1.15,2.059,2.059,0,0,1,.576-1.47A2.2,2.2,0,0,1,849.213,1181.74Z" transform="translate(-526.625 -1129)"/>
</svg>
