<svg xmlns="http://www.w3.org/2000/svg" width="566.661" height="57.85" viewBox="0 0 566.661 57.85">
  <defs>
    <style>
      .cls-1 {
        fill-rule: evenodd;
      }
    </style>
  </defs>
  <path id="ttl_Second001.svg" class="cls-1" d="M771.135,3518.17h-5.929v17.29h1.056v-16.23h4.873v-1.06Zm18.047,19.47h-6.241l0.264,0.6h13.73l0.24-.48a11.652,11.652,0,0,0-1.657-1.8l-1.3,1.68h-3.6v-10.32h6.961l0.264-.51a13.8,13.8,0,0,0-1.68-1.8l-1.249,1.71h-4.3v-6.6a1.487,1.487,0,0,0,1.1-.72c0-.39-0.84-0.58-2.544-0.65v7.97h-6.913l0.24,0.6h6.673v10.32Zm-8.257-12.39a34.619,34.619,0,0,0,2.112-5.44c0.744-.1,1.128-0.27,1.128-0.51,0-.38-0.768-0.74-2.28-1.1a41.715,41.715,0,0,1-5.76,13.37l0.5,0.36a33.617,33.617,0,0,0,3.024-4.32v12.12h1.392v-13.28a1.209,1.209,0,0,0,.96-0.62C782.005,3525.59,781.645,3525.4,780.925,3525.25Zm32.314-2.08h-5.016c-0.408-.17-0.936-0.39-1.608-0.6v5.01h1.32v-0.93h5.3v2.18h-7.776l0.264,0.6h7.512v2.19H803.4l0.216,0.6h9.625v2.44h-8.016l0.288,0.6h7.728v1.83a0.644,0.644,0,0,1-.768.69,25.092,25.092,0,0,1-3.384-.24v0.63a14.113,14.113,0,0,1,2.424.57,1.084,1.084,0,0,1,.72,1.04c1.632,0,2.424-.6,2.424-1.8v-2.72h5.425v1.59h1.368v-4.63h3.48l0.264-.44a8.928,8.928,0,0,0-1.392-1.72l-1.128,1.56h-1.224v-1.73l0.528-.39a0.525,0.525,0,0,0,.264-0.33,3.468,3.468,0,0,0-1.416-1.32l-0.912.98h-5.257v-2.18h5.281v0.74h1.32v-3.26l0.48-.34a0.48,0.48,0,0,0,.264-0.34,3.328,3.328,0,0,0-1.392-1.29l-0.888,1.01h-5.065v-1.8h9.457l0.24-.44a10.818,10.818,0,0,0-1.3-1.41,2.707,2.707,0,0,1-.456-0.39l-1.224,1.64h-6.721v-1.4c0.72-.24,1.081-0.45,1.081-0.67,0-.31-0.817-0.53-2.5-0.6v2.67h-9.312l0.264,0.6h9.048v1.8Zm0,0.6v2.28h-5.3v-2.28h5.3Zm1.416,0h5.281v2.28h-5.281v-2.28Zm0,8.45h5.425v2.44h-5.425v-2.44Zm0-.6v-2.19h5.425v2.19h-5.425Zm15.434,7.96h5.928V3522.3h-1.056v16.23h-4.872v1.05Zm34.149-21.41h-5.929v17.29h1.056v-16.23h4.873v-1.06Zm14.665,3.72v0.53c0,3.87-1.824,6.7-5.448,8.5l0.36,0.5q6.516-2.445,6.5-9v-0.53h2.76v5.79a0.7,0.7,0,0,1-.84.72,21.074,21.074,0,0,1-2.352-.15v0.6a6.137,6.137,0,0,1,1.752.44,0.965,0.965,0,0,1,.648.98c1.441,0.02,2.161-.55,2.161-1.75v-6.63h6.936l0.264-.45-0.216-.24a8.971,8.971,0,0,0-1.416-1.42l-1.176,1.51h-6.769v-2.01a1.13,1.13,0,0,0,.96-0.65c0-.34-0.768-0.53-2.328-0.55v3.21h-9.385l0.24,0.6H878.9Zm1.584,8.81-0.336.44a8.358,8.358,0,0,1,2.569,3.21,1.029,1.029,0,0,0,.768.77,0.739,0.739,0,0,0,.816-0.86C884.3,3533.1,883.031,3531.93,880.487,3530.7Zm-6.312,1.52a5.658,5.658,0,0,1-2.784,4.32,0.822,0.822,0,0,0-.529.74,0.794,0.794,0,0,0,.889.91,2.17,2.17,0,0,0,1.608-1.03,7.693,7.693,0,0,0,1.44-4.73Zm13.2-.58-0.336.41a11.652,11.652,0,0,1,3.288,4.34,1.078,1.078,0,0,0,.864.91,0.8,0.8,0,0,0,.84-0.96C892.032,3534.88,890.5,3533.3,887.376,3531.64Zm-1.416-8.38-0.36.46a13.036,13.036,0,0,1,3.744,4.58,1.152,1.152,0,0,0,.888.89,0.739,0.739,0,0,0,.816-0.86,3.653,3.653,0,0,0-1.2-2.14A16.461,16.461,0,0,0,885.96,3523.26Zm-14.81,5.95,0.408,0.44a13.056,13.056,0,0,0,4.489-4.8c0.7-.03,1.056-0.15,1.056-0.39,0-.38-0.672-0.79-1.992-1.25A15.157,15.157,0,0,1,871.15,3529.21Zm15.7,5.29-0.6-.22a13.594,13.594,0,0,1-.408,2.4,1.211,1.211,0,0,1-1.008.94,24.067,24.067,0,0,1-2.857.12,25.082,25.082,0,0,1-3.048-.12,0.705,0.705,0,0,1-.576-0.8v-3.76a1.261,1.261,0,0,0,1.008-.65c0-.36-0.792-0.58-2.376-0.65v5.54a1.577,1.577,0,0,0,.48,1.37c0.384,0.27,1.7.39,3.96,0.39a32.528,32.528,0,0,0,5.449-.24,1.309,1.309,0,0,0,1.008-1.32,0.875,0.875,0,0,1-.744-0.34,3.991,3.991,0,0,1-.288-1.85v-0.81Zm24.6,1.58a23.537,23.537,0,0,0,3.624-2.52l0.649-.26a0.536,0.536,0,0,0,.384-0.32,4.363,4.363,0,0,0-1.633-1.44l-0.84.91h-6.264c0.792-.74,1.392-1.34,1.8-1.77h1.128a25.755,25.755,0,0,0,4.272-.19,1.06,1.06,0,0,0,.744-1.13,0.819,0.819,0,0,1-.72-0.29,4.032,4.032,0,0,1-.24-1.8l-0.576-.22a8.976,8.976,0,0,1-.432,2.05c-0.168.36-1.2,0.52-3.12,0.52a9.344,9.344,0,0,1-2.664-.21,0.542,0.542,0,0,1-.264-0.58v-2.02a1.05,1.05,0,0,0,.84-0.55c0-.31-0.72-0.48-2.16-0.5v3.21a1.643,1.643,0,0,0,.432,1.35,2.332,2.332,0,0,0,1.08.29,23.7,23.7,0,0,1-7.921,5.54l0.384,0.53a24.065,24.065,0,0,0,6.025-3.12,25.457,25.457,0,0,0,3.216,2.47,36.591,36.591,0,0,1-10.009,3.15l0.36,0.6a36.069,36.069,0,0,0,10.9-3.03,29.455,29.455,0,0,0,9.361,2.69,4.431,4.431,0,0,1,1.032-1.44A32.186,32.186,0,0,1,911.445,3536.08Zm-1.272-.58a22.3,22.3,0,0,1-3.648-2.35,0.281,0.281,0,0,1,.12-0.09h6.888A19.417,19.417,0,0,1,910.173,3535.5Zm3-11.37H902.132q-0.036-.255-0.072-0.72l-0.6-.1a5.625,5.625,0,0,1-1.824,3.67,0.935,0.935,0,0,0-.384.75,0.783,0.783,0,0,0,.912.84,1.734,1.734,0,0,0,1.344-1.16,6.054,6.054,0,0,0,.624-2.68h15.986a15,15,0,0,1-1.368,2.16,9.575,9.575,0,0,0-1.729-1.04l-0.288.44a6.591,6.591,0,0,1,2.257,3.04,0.868,0.868,0,0,0,.792.8,0.736,0.736,0,0,0,.792-0.87,2.859,2.859,0,0,0-1.32-1.99,14.036,14.036,0,0,0,2.184-1.92l0.768-.19a0.318,0.318,0,0,0,.312-0.27,4.874,4.874,0,0,0-1.536-1.84l-0.912,1.08h-4.081c0.7-.75,1.368-1.54,2.017-2.36,0.648-.02.96-0.14,0.96-0.33,0-.31-0.648-0.75-1.969-1.3A23.419,23.419,0,0,1,913.173,3524.13Zm-4.176-3.8c2.832-.19,5.328-0.38,7.489-0.6a4.421,4.421,0,0,0,.984.15c0.264,0,.384-0.05.384-0.19,0-.27-0.552-0.75-1.656-1.42a83.509,83.509,0,0,1-14.762,1.78l0.312,0.6c2.568-.08,4.465-0.15,5.737-0.22l0.576-.05a4.5,4.5,0,0,1,1.488,2.62,0.73,0.73,0,0,0,.768.72,0.743,0.743,0,0,0,.816-0.87C911.133,3521.99,910.413,3521.15,909,3520.33Zm0,4.97-0.288.43a5.261,5.261,0,0,1,2.064,2.14,0.8,0.8,0,0,0,.7.55,0.691,0.691,0,0,0,.768-0.79C912.237,3526.74,911.157,3525.97,909,3525.3Zm-5.3-4.65-0.264.43a4.368,4.368,0,0,1,1.729,2.4,0.705,0.705,0,0,0,.7.57,0.759,0.759,0,0,0,.84-0.88C906.693,3522.13,905.709,3521.29,903.692,3520.65Zm0.192,5.25a5.137,5.137,0,0,1-1.7,3.31,1.217,1.217,0,0,0-.552.82,0.744,0.744,0,0,0,.864.82,1.629,1.629,0,0,0,1.248-.99,6.471,6.471,0,0,0,.745-3.29,3.031,3.031,0,0,0-.025-0.5Zm24.3,13.68h5.928V3522.3h-1.056v16.23h-4.872v1.05Zm34.149-21.41H956.4v17.29h1.056v-16.23h4.873v-1.06Zm16.772,11.69h9.553l0.288-.5a14.307,14.307,0,0,0-1.776-1.87l-1.416,1.77h-6.769v-3.05a1.425,1.425,0,0,0,.985-0.62,0.51,0.51,0,0,0-.384-0.31,46.971,46.971,0,0,0,5.088-3.24l0.864-.22a0.386,0.386,0,0,0,.336-0.29c0-.28-0.624-0.91-1.848-1.87l-1.08,1.23H970.391l0.24,0.6h12.313a30.013,30.013,0,0,1-4.249,3.6,7.836,7.836,0,0,0-1.224-.12v4.29H967.39l0.216,0.6h9.985v6.89a0.774,0.774,0,0,1-.936.77c-0.768,0-2.16-.07-4.2-0.26v0.64a23.436,23.436,0,0,1,3.072.65,1.05,1.05,0,0,1,.816.99v0.02c1.824-.02,2.76-0.67,2.76-1.94v-7.76Zm21.427-1.25c-0.718-.31-1.27-0.55-1.678-0.69v11.81h1.418v-5.04h10.01v2.18a0.64,0.64,0,0,1-.75.7,26.194,26.194,0,0,1-3.45-.22v0.67a9.365,9.365,0,0,1,2.61.6,0.9,0.9,0,0,1,.58.84v0.03c1.63,0.02,2.45-.55,2.45-1.75v-8.02l0.5-.41a0.482,0.482,0,0,0,.22-0.34,3.709,3.709,0,0,0-1.49-1.34l-0.89.98h-9.53Zm-0.26.6h10.01v2h-10.01v-2Zm10.01,4.88h-10.01v-2.28h10.01v2.28Zm-7.66-12.12a25.048,25.048,0,0,1-2.14,3.72l-1.6.02c-0.552,0-1.416.02-2.616,0.02,0.216,1.42.48,2.14,0.84,2.14a1.052,1.052,0,0,0,.528-0.84c6.192-.36,10.9-0.74,14.062-1.15a14.515,14.515,0,0,1,1.4,1.53,1.11,1.11,0,0,0,.79.48,0.684,0.684,0,0,0,.77-0.76c0-1.35-2.24-2.91-6.7-4.71l-0.31.46a21.628,21.628,0,0,1,3.43,2.42c-3.24.19-6.17,0.31-8.76,0.36h-0.96a46.2,46.2,0,0,0,3.29-3.69h10.94l0.27-.46a14.225,14.225,0,0,0-1.85-1.92l-1.25,1.78h-7.01v-2c0.72-.21,1.08-0.4,1.08-0.62,0-.34-0.81-0.55-2.47-0.62v3.24h-9.7l0.24,0.6h7.728Zm23.32,3.69a10.665,10.665,0,0,0,2.74-.86c0.86-.31,2.42-0.99,3.43-1.37,0.46-.17.91-0.31,1.37-0.43a11.05,11.05,0,0,0-1.27,1.1,4.6,4.6,0,0,0-1.18,2.16,28.378,28.378,0,0,0-.6,3.22,14.831,14.831,0,0,0,.05,3.84,3.641,3.641,0,0,0,1.2,2.47,4.915,4.915,0,0,0,2.88,1.03,13.574,13.574,0,0,0,2.57,0c0.57-.04.81-0.45,0.6-0.76a1.932,1.932,0,0,0-1.11-.77,5.767,5.767,0,0,0-1.87-.07,3.03,3.03,0,0,1-2.18-.53,2.8,2.8,0,0,1-1.04-1.99,16.086,16.086,0,0,1,.08-4.23,13.581,13.581,0,0,1,.57-2.71,5.231,5.231,0,0,1,1.47-1.99c0.48-.41,1-0.82,1.39-1.11,0.05,0,.12-0.02.17-0.02a19.288,19.288,0,0,1,2.97-.31,8.914,8.914,0,0,1,1.61.21,0.739,0.739,0,0,0,.89-0.26,0.875,0.875,0,0,0-.53-1.06,4,4,0,0,0-2.35-.24c-0.84.12-2.69,0.6-4.3,1.01-1.63.43-3.48,1.01-4.32,1.27a15.8,15.8,0,0,1-3.17.75,3.9,3.9,0,0,1-1.56-.27,0.915,0.915,0,0,0-1.03-.07,1.139,1.139,0,0,0,.39,1.3A2.562,2.562,0,0,0,1025.94,3525.66Zm20.82,13.92h5.93V3522.3h-1.06v16.23h-4.87v1.05Zm20.66-4.84-0.28.4a9.371,9.371,0,0,1,2.71,3.68,1.069,1.069,0,0,0,.94.91,1.034,1.034,0,0,0,1.12-1.2,2.247,2.247,0,0,0-.69-1.61A9.508,9.508,0,0,0,1067.42,3534.74Zm30.36-15.15c0.65-.12.99-0.26,0.99-0.46,0-.31-0.68-0.64-2.02-1a37.417,37.417,0,0,1-2.47,3.84,24.307,24.307,0,0,1-7.64,6.43l0.34,0.5a23.671,23.671,0,0,0,7.82-5.45,29.291,29.291,0,0,0,2.57-3.26,25.317,25.317,0,0,0,9.75,7.9,4.391,4.391,0,0,1,1.1-1.47A25.617,25.617,0,0,1,1097.78,3519.59Zm0.17,13.47h5.95l0.24-.44a20.132,20.132,0,0,0-1.61-1.58l-1.17,1.41h-3.41v-4.43h5.95l0.29-.49a15.061,15.061,0,0,0-1.68-1.24l-1.18,1.12h-10.94l0.21,0.61h5.93v4.43h-6.07l0.29,0.61h5.78v4.87h-8.78l0.26,0.6h18.8l0.26-.48a11.684,11.684,0,0,0-1.78-1.8l-1.32,1.68h-6.02v-4.87Zm24.92-7.88a21.117,21.117,0,0,1-1.11,5.76,14.718,14.718,0,0,1-7.34,8.26l0.36,0.55a14.637,14.637,0,0,0,7.51-6.26,19.436,19.436,0,0,0,2.14-8.43h7.44q0.03,8.46-1.08,11.02a1.668,1.668,0,0,1-1.73.98,29.374,29.374,0,0,1-4.54-.43v0.7a24.172,24.172,0,0,1,3.29.72,1.319,1.319,0,0,1,1.11,1.1,3.187,3.187,0,0,0,2.95-1.56q1.47-2.625,1.51-12.05l0.55-.36a0.588,0.588,0,0,0,.27-0.33,4.405,4.405,0,0,0-1.59-1.64l-0.96,1.25h-7.2a11.6,11.6,0,0,0,.03-1.2v-3.12a1.413,1.413,0,0,0,1.05-.72c0-.38-0.86-0.57-2.61-0.6v4.44c0,0.55,0,.99-0.03,1.32h-7.63l0.29,0.6h7.32Zm22.9,0.48a11.325,11.325,0,0,0,2.76-.86c0.84-.31,2.4-0.99,3.41-1.37a13.565,13.565,0,0,1,1.37-.43,16.182,16.182,0,0,0-1.28,1.1,4.583,4.583,0,0,0-1.17,2.16,24.509,24.509,0,0,0-.6,3.22,13.631,13.631,0,0,0,.04,3.84,3.681,3.681,0,0,0,1.2,2.47,4.881,4.881,0,0,0,2.89,1.03,13.468,13.468,0,0,0,2.56,0c0.58-.04.82-0.45,0.6-0.76a1.968,1.968,0,0,0-1.1-.77,6.737,6.737,0,0,0-1.87-.07,3.082,3.082,0,0,1-2.19-.53,2.792,2.792,0,0,1-1.03-1.99,16.136,16.136,0,0,1,.07-4.23,15.079,15.079,0,0,1,.58-2.71,4.979,4.979,0,0,1,1.49-1.99c0.45-.41,1.01-0.82,1.37-1.11,0.07,0,.12-0.02.16-0.02a19.518,19.518,0,0,1,2.98-.31,8.914,8.914,0,0,1,1.61.21,0.777,0.777,0,0,0,.91-0.26,0.944,0.944,0,0,0-.53-1.06,4.091,4.091,0,0,0-2.37-.24c-0.84.12-2.69,0.6-4.3,1.01-1.63.43-3.48,1.01-4.32,1.27a15.963,15.963,0,0,1-3.17.75,3.515,3.515,0,0,1-1.56-.27,0.974,0.974,0,0,0-1.03-.07,1.133,1.133,0,0,0,.38,1.3A2.6,2.6,0,0,0,1145.77,3525.66Zm13.27,1.63a0.64,0.64,0,0,0,.39-0.96,3.51,3.51,0,0,0-1.61-1.08,5.4,5.4,0,0,0-1.44-.33,0.6,0.6,0,0,0-.46.09,0.387,0.387,0,0,0,.22.53,9.73,9.73,0,0,1,1.56,1.25A1.59,1.59,0,0,0,1159.04,3527.29Zm2.09-1.1a0.639,0.639,0,0,0,.34-0.98,3.253,3.253,0,0,0-1.64-1.01,4.18,4.18,0,0,0-1.46-.24,0.514,0.514,0,0,0-.46.12,0.392,0.392,0,0,0,.24.5,4.019,4.019,0,0,1,1.66,1.11A1.43,1.43,0,0,0,1161.13,3526.19Zm20.84-2.5-0.22-.12c-0.38-.21-0.81-0.45-1.34-0.69v12.72h1.34v-1.08h6.22v0.98h1.37v-10.8l0.6-.41a0.305,0.305,0,0,0,.19-0.26,3.845,3.845,0,0,0-1.46-1.49l-0.91,1.15h-3.49c0.65-1.03,1.2-2.04,1.71-3.02h4.85l0.24-.43a8.889,8.889,0,0,0-1.63-1.71l-1.18,1.54h-9.34l0.19,0.6h4.97c-0.12.98-.29,1.99-0.5,3.02h-1.61Zm-0.22.6h6.22v2.55h-6.22v-2.55Zm6.22,9.63h-6.22v-3.05h6.22v3.05Zm0-3.65h-6.22v-2.83h6.22v2.83Zm-12.79,4.99c-0.19.08-.75,0.27-1.66,0.6,0.46,1.2.84,1.83,1.15,1.83,0.2,0,.29-0.31.32-0.94a29.7,29.7,0,0,0,4.58-2.97l-0.22-.61a20.348,20.348,0,0,1-2.56,1.4,2.772,2.772,0,0,0-.27.12v-8.26h2.74l0.26-.46a13.508,13.508,0,0,0-1.46-1.65l-1.15,1.51h-7.71l0.24,0.6h2.59v1.92a23.6,23.6,0,0,1-.38,4.73,10.643,10.643,0,0,1-2.62,5.16l0.46,0.46a10.224,10.224,0,0,0,3.02-4.04,18,18,0,0,0,.92-6.28v-1.95h1.75v8.83Zm0.72-14.21h-5.59l0.28,0.6h7.59l0.26-.45a17.457,17.457,0,0,0-1.49-1.54Zm9.91,14.43-0.26.48a10.159,10.159,0,0,1,3.89,3.05,0.783,0.783,0,0,0,.64.38,0.764,0.764,0,0,0,.82-0.91,2.086,2.086,0,0,0-1.25-1.49A13.886,13.886,0,0,0,1185.81,3535.48Zm-8.35,3.74,0.33,0.48a15.585,15.585,0,0,0,5.31-2.73c0.29,0.02.48,0.05,0.53,0.05,0.38,0,.57-0.08.57-0.27,0-.29-0.6-0.74-1.77-1.34A12.834,12.834,0,0,1,1177.46,3539.22Zm22.46-9.04h3.96a28.076,28.076,0,0,1-.53,6.19,1.568,1.568,0,0,1-1.58,1.25,19.648,19.648,0,0,1-2.91-.27v0.67a13.5,13.5,0,0,1,2.14.58,1.013,1.013,0,0,1,.65,1.01,2.537,2.537,0,0,0,2.44-1.18c0.75-1.27,1.16-3.89,1.18-7.8l0.41-.36a0.56,0.56,0,0,0,.17-0.31,3.238,3.238,0,0,0-1.3-1.37l-0.86.98h-3.68c0.19-1.44.34-2.78,0.39-4.03,0-.07.02-0.19,0.02-0.36h3.55v1.2h1.37v-5.81l0.51-.38a0.539,0.539,0,0,0,.19-0.34,3.482,3.482,0,0,0-1.35-1.39l-0.98,1.2h-5.55l0.2,0.6h5.61v4.32h-3.26c-0.67-.31-1.18-0.55-1.54-0.69a62.74,62.74,0,0,1-.81,7.75l1.27,0.29C1199.8,3531.04,1199.87,3530.46,1199.92,3530.18Zm9.93-7.01h7.54l0.26-.48a8.671,8.671,0,0,0-1.44-1.47l-1.05,1.35h-5.31v-2.28h8.55l0.26-.48a15.014,15.014,0,0,0-1.65-1.56l-1.13,1.44h-5.83l-0.2-.1c-0.45-.22-0.93-0.46-1.41-0.65v10.08h-2.38l0.27,0.6h2.11v7.71c-0.77.12-1.68,0.21-2.76,0.33,0.33,1.4.67,2.09,0.98,2.09,0.19,0,.34-0.26.46-0.81a44.452,44.452,0,0,0,6.93-2.24l-0.09-.64a33.36,33.36,0,0,1-3.94,1l-0.17.05v-7.49h2.04a26.024,26.024,0,0,0,1.01,3.55,12.782,12.782,0,0,0,5.83,6.29,4.827,4.827,0,0,1,1.11-1.39,13.194,13.194,0,0,1-4.97-3.69,20.814,20.814,0,0,0,3.07-2.21c0.34,0.02.51,0.05,0.53,0.05,0.34,0,.48-0.1.48-0.27,0-.33-0.55-0.84-1.66-1.56a20.322,20.322,0,0,1-2.78,3.48,12.406,12.406,0,0,1-1.78-4.25h6.48l0.24-.48a12.836,12.836,0,0,0-1.53-1.61l-1.18,1.49h-6.89v-2.73h7.61l0.29-.48a14.746,14.746,0,0,0-1.08-1.16,1.52,1.52,0,0,0-.24-0.19l-0.14-.14-1.08,1.37h-5.36v-2.52Zm30.87,10.34a7.234,7.234,0,0,1-2.07,1.92,13.459,13.459,0,0,1-2.83,1.2,5.238,5.238,0,0,1-1.44.24,0.353,0.353,0,0,0-.36.29,0.367,0.367,0,0,0,.41.19,6.961,6.961,0,0,0,1.73-.26,18.9,18.9,0,0,0,2.93-1.11,7.339,7.339,0,0,0,2.76-2.08,4.364,4.364,0,0,0,.81-3.08,3.794,3.794,0,0,0-1.2-2.52,4.282,4.282,0,0,0-2.95-1.22,7.178,7.178,0,0,0-2.86.72,17.7,17.7,0,0,0-2.18,1.08c-0.58.31-1.9,1.08-2.28,1.27a3.223,3.223,0,0,1-1.27.5,3.65,3.65,0,0,1-1.25-.14,0.552,0.552,0,0,0-.65.1,0.838,0.838,0,0,0,.46.86,3.178,3.178,0,0,0,1.82.72,3.565,3.565,0,0,0,2.21-.86c0.67-.55,1.51-1.27,2.06-1.68a13.083,13.083,0,0,1,2.02-1.25,4.071,4.071,0,0,1,2.04-.31,2.974,2.974,0,0,1,2.09.96,2.731,2.731,0,0,1,.67,2.06A5.048,5.048,0,0,1,1240.72,3533.51Zm12.25-7.85a10.665,10.665,0,0,0,2.74-.86c0.86-.31,2.42-0.99,3.43-1.37,0.46-.17.91-0.31,1.37-0.43a11.972,11.972,0,0,0-1.27,1.1,4.6,4.6,0,0,0-1.18,2.16,28.378,28.378,0,0,0-.6,3.22,14.831,14.831,0,0,0,.05,3.84,3.641,3.641,0,0,0,1.2,2.47,4.915,4.915,0,0,0,2.88,1.03,13.574,13.574,0,0,0,2.57,0c0.58-.04.82-0.45,0.6-0.76a1.908,1.908,0,0,0-1.1-.77,5.852,5.852,0,0,0-1.88-.07,3.03,3.03,0,0,1-2.18-.53,2.792,2.792,0,0,1-1.03-1.99,15.713,15.713,0,0,1,.07-4.23,13.581,13.581,0,0,1,.57-2.71,5.231,5.231,0,0,1,1.47-1.99c0.48-.41,1.01-0.82,1.39-1.11,0.05,0,.12-0.02.17-0.02a19.4,19.4,0,0,1,2.98-.31,8.915,8.915,0,0,1,1.6.21,0.739,0.739,0,0,0,.89-0.26,0.875,0.875,0,0,0-.53-1.06,4,4,0,0,0-2.35-.24c-0.84.12-2.69,0.6-4.3,1.01-1.63.43-3.48,1.01-4.32,1.27a15.873,15.873,0,0,1-3.16.75,3.828,3.828,0,0,1-1.56-.27,0.931,0.931,0,0,0-1.04-.07,1.155,1.155,0,0,0,.39,1.3A2.574,2.574,0,0,0,1252.97,3525.66Zm27.05-5.4a6.721,6.721,0,0,1,1.2.79,4.547,4.547,0,0,1,1.18,1.42,3.483,3.483,0,0,0,.24.53,7.278,7.278,0,0,1-2.09.43,3.939,3.939,0,0,1-1.47-.26,0.626,0.626,0,0,0-.76-0.03c-0.17.24-.08,0.51,0.36,0.7a5.372,5.372,0,0,0,1.87.5,9.655,9.655,0,0,0,2.59-.21c0.1,0.24.22,0.48,0.31,0.72,0.31,0.69.67,1.51,1.01,2.32a18.234,18.234,0,0,1-1.92.51,10.191,10.191,0,0,1-2.66.17,5.409,5.409,0,0,1-2.21-.82,0.534,0.534,0,0,0-.7-0.14,0.647,0.647,0,0,0,.22.77,4.484,4.484,0,0,0,1.49.81,7.069,7.069,0,0,0,2.37.41,12.376,12.376,0,0,0,2.88-.46c0.24-.07.58-0.14,0.94-0.24,0.38,0.99.91,2.38,1.03,2.76a1.489,1.489,0,0,1,.12,1.11,0.6,0.6,0,0,1-.65-0.05,11.337,11.337,0,0,0-2.35-.36,9.116,9.116,0,0,0-3.24.41,3.059,3.059,0,0,0-2.11,1.85,3.126,3.126,0,0,0,.48,2.95,5.689,5.689,0,0,0,3.31,1.46,18.833,18.833,0,0,0,3.91.1,2.421,2.421,0,0,0,1.54-.46,0.7,0.7,0,0,0-.34-0.98,2.125,2.125,0,0,0-1.44-.36c-0.5.07-1.49,0.24-2.23,0.29a8.9,8.9,0,0,1-2.78-.27,2.1,2.1,0,0,1-1.71-1.44,1.828,1.828,0,0,1,.79-2.02,5.577,5.577,0,0,1,3.22-.67,5.123,5.123,0,0,1,2.54.8,2.636,2.636,0,0,0,1.88.55,1.585,1.585,0,0,0,1.05-.96,2.512,2.512,0,0,0-.33-1.52c-0.2-.45-1.11-2.47-1.56-3.5,0.48-.14.98-0.29,1.44-0.46a9.842,9.842,0,0,0,2.78-1.29c0.58-.43.6-1.08-0.02-1.27a13.573,13.573,0,0,0-2.16-.48c-0.65-.12-2.24-0.46-2.57-0.53-0.15-.05-0.34-0.12-0.53-0.19a7.4,7.4,0,0,0,1.37-.6c0.43-.32.72-0.75,0.09-1.04a1.861,1.861,0,0,0-1.51,0c-0.24.1-.67,0.34-1.17,0.56-0.17-.46-0.34-0.87-0.48-1.16a3.176,3.176,0,0,0-1.25-1.58,5.214,5.214,0,0,0-1.61-.48,0.765,0.765,0,0,0-.74.12A0.588,0.588,0,0,0,1280.02,3520.26Zm5.23,4.01c0.41,0.17,1.39.55,1.92,0.74a2.668,2.668,0,0,1,1.06.46,1,1,0,0,1-.63.5,15.532,15.532,0,0,1-2.08.84c-0.41-.88-0.92-2.08-1.13-2.61a2.371,2.371,0,0,0-.15-0.34h0.05C1284.6,3524.01,1285.01,3524.17,1285.25,3524.27Zm17.21,8.09c-0.41.94-.81,1.78-1.13,2.52a6.365,6.365,0,0,0-.69,1.75,1.49,1.49,0,0,0,.38,1.32,0.668,0.668,0,0,0,.99-0.24,42.136,42.136,0,0,0,1.6-3.96c0.34-1.05,1.04-3.24,1.23-3.89s0.79-2.37.98-3.07a6.415,6.415,0,0,0,.22-0.77,9.607,9.607,0,0,0,1.2-.21,4.989,4.989,0,0,0,2.18-1.18,0.791,0.791,0,0,0,.34-0.96,1.65,1.65,0,0,0-1.11-.5,8.367,8.367,0,0,1-1.72-.63,2.776,2.776,0,0,0,0-1.25,2.017,2.017,0,0,0-.87-1.29,0.98,0.98,0,0,0-1.05-.19,0.773,0.773,0,0,0,.09,1,3.491,3.491,0,0,1,.53,1.61,9.911,9.911,0,0,1-.29,2.55,6.523,6.523,0,0,1-1.92.33,3.818,3.818,0,0,1-1.2-.07c-0.33-.1-0.6-0.24-0.69-0.26a0.329,0.329,0,0,0-.46,0,0.685,0.685,0,0,0,.48.88,5.994,5.994,0,0,0,2.42.34c0.32,0,.65-0.02,1.01-0.05-0.31,1.01-.74,2.26-0.98,2.79C1303.69,3529.67,1302.89,3531.4,1302.46,3532.36Zm4.95-8.76a0.272,0.272,0,0,1,0,.43,10.459,10.459,0,0,1-.96.5c0.07-.36.14-0.64,0.19-0.81,0.02-.12.07-0.31,0.12-0.51C1307.05,3523.38,1307.31,3523.53,1307.41,3523.6Zm6.16,2.85a8.652,8.652,0,0,0-1.32.99,7.773,7.773,0,0,0-1.1,1.37c-0.12.19-.19,0.48-0.07,0.52a0.8,0.8,0,0,0,.45-0.43,4.186,4.186,0,0,1,1.08-.88c0.46-.25,1.08-0.63,1.64-0.87s1.01-.43,1.17-0.5a1.014,1.014,0,0,0,.63-0.56,0.994,0.994,0,0,0-.48-1.03,2.729,2.729,0,0,0-1.59-.41,5.291,5.291,0,0,0-1.68.15c-0.5.12-1.37,0.33-2.04,0.57-0.29.12-.79,0.36-0.62,0.65a0.949,0.949,0,0,0,.79,0,9.229,9.229,0,0,1,1.25-.26,6,6,0,0,1,1.77.02,1,1,0,0,1,.63.27A1.047,1.047,0,0,1,1313.57,3526.45Zm2.6,9.73a16.967,16.967,0,0,0-2.02.26,6.979,6.979,0,0,1-2.23-.07,3.376,3.376,0,0,1-2.07-1.25,2.774,2.774,0,0,1-.09-2.42,9,9,0,0,1,.84-2c0.17-.24.21-0.45,0.09-0.52-0.09-.08-0.26.04-0.4,0.26a8.974,8.974,0,0,0-1.04,1.92,3.892,3.892,0,0,0-.31,3.34c0.53,1.15,1.37,1.82,3.31,2.13a17.891,17.891,0,0,0,4.49.15c0.65-.08,1.2-0.56.89-1.08A1.672,1.672,0,0,0,1316.17,3536.18Zm12.67-2.28a2.8,2.8,0,0,0-1.56.48,2.842,2.842,0,0,0-1.42,2.52,2.774,2.774,0,0,0,1.7,2.68,2.584,2.584,0,0,0,1.3.32,2.909,2.909,0,0,0,2.16-.94,3,3,0,0,0,.84-2.06A3.058,3.058,0,0,0,1328.84,3533.9Zm0.02,0.84a2.257,2.257,0,0,1,1.25.4,2.1,2.1,0,0,1,.91,1.76,2.07,2.07,0,0,1-.77,1.63,1.965,1.965,0,0,1-1.39.53,2.041,2.041,0,0,1-1.82-1.01,2.2,2.2,0,0,1-.34-1.15,2.037,2.037,0,0,1,.58-1.47A2.185,2.185,0,0,1,1328.86,3534.74Zm-549.066,24.95h4.849a22.692,22.692,0,0,1-2.088,4.83l0.552,0.36a29.048,29.048,0,0,0,3.048-4.61l0.672-.31a0.37,0.37,0,0,0,.264-0.31,6.561,6.561,0,0,0-1.632-1.85l-0.936,1.29h-8.329a26.928,26.928,0,0,0,1.1-3.12c0.744-.21,1.1-0.43,1.1-0.64,0-.34-0.792-0.65-2.352-0.92a25.455,25.455,0,0,1-3.864,9.87l0.456,0.38a17.859,17.859,0,0,0,3.288-4.97H778.4v0.77a19.318,19.318,0,0,1-1.872,8.84,14.648,14.648,0,0,1-5.64,5.88l0.336,0.5a14.007,14.007,0,0,0,6.432-5.69,16.3,16.3,0,0,0,1.92-6.02,20.472,20.472,0,0,0,1.368,4.73,17.144,17.144,0,0,0,5.257,6.6,4.372,4.372,0,0,1,1.224-1.4,16.56,16.56,0,0,1-5.928-6.31,15.693,15.693,0,0,1-1.705-7.39v-0.51Zm-13.225-3.64-0.312.43a6.012,6.012,0,0,1,2.136,3,0.8,0.8,0,0,0,.744.79,0.827,0.827,0,0,0,.913-0.96C770.05,3558.16,768.873,3557.08,766.569,3556.05Zm6.5,2.61-0.624-.36a57.767,57.767,0,0,1-4.129,8.24,1.834,1.834,0,0,1-1.512.96,7.731,7.731,0,0,1-.936-0.08v0.63a3.54,3.54,0,0,1,1.416.48,2.41,2.41,0,0,1,.744,2.04,11.489,11.489,0,0,1-.144,1.73c-0.048.24-.072,0.57-0.144,0.96-0.024.26-.048,0.43-0.048,0.45a0.733,0.733,0,0,0,.817.84c0.7,0,1.08-.53,1.08-1.56a15.533,15.533,0,0,0-.265-2.66,10.291,10.291,0,0,1-.192-1.25,4.33,4.33,0,0,1,.361-1.66Zm27.141,4.75c-0.168-.11-0.384.12-0.528,0.44-0.528,1.1-.744,1.39-1.08,2.11a23.055,23.055,0,0,0-.96,2.52c-0.072.24-.384,0.31-0.384-0.14a15.149,15.149,0,0,1,.36-3.49c0.36-1.36.792-2.59,1.008-3.31a3.536,3.536,0,0,0,.024-2.28,4.151,4.151,0,0,0-.936-1.46,0.688,0.688,0,0,0-.936-0.19,0.671,0.671,0,0,0,.168.86,3.043,3.043,0,0,1,.48,1.92,15.85,15.85,0,0,1-.432,3.05,26.371,26.371,0,0,0-.624,3.19,19.048,19.048,0,0,0-.12,3.36,8.027,8.027,0,0,0,.648,3.12,1,1,0,0,0,1.152.75c0.408-.08.48-0.82,0.312-1.4a5.383,5.383,0,0,1,.024-2.78c0.336-1.15.768-2.69,1.056-3.43,0.288-.77.648-1.9,0.768-2.21A0.552,0.552,0,0,0,800.215,3563.41Zm12.674,8.21a5.532,5.532,0,0,0-2.353-1.44,9.959,9.959,0,0,0-.984-0.33c0-.58,0-1.18-0.024-1.76-0.1-1.34-.12-2.83-0.168-3.69-0.024-.38.024-1.03,0.048-1.71a6.128,6.128,0,0,0,2.616-.74,0.98,0.98,0,0,0,.432-1.34,4.783,4.783,0,0,0-1.416-.41,5.589,5.589,0,0,1-1.32-.53,5.44,5.44,0,0,0-.048-2.18,2.144,2.144,0,0,0-1.344-1.42c-0.576-.22-0.888-0.19-1.008.02a0.74,0.74,0,0,0,.288.92,1.988,1.988,0,0,1,.5,1.39,18.749,18.749,0,0,1,.168,2.69,2.844,2.844,0,0,1,0,.64,8.045,8.045,0,0,1-2.352-.21,3.669,3.669,0,0,1-1.248-.51,1.049,1.049,0,0,0-.888-0.38,0.95,0.95,0,0,0,.384,1.06,4.133,4.133,0,0,0,1.848.96,7.472,7.472,0,0,0,2.232.16c0,0.58-.024,1.21-0.024,1.76,0,1.2.024,2.23,0.048,3.12,0,0.55.024,1.22,0.024,1.85a13.6,13.6,0,0,0-1.344-.22,7.107,7.107,0,0,0-3.12.34,2.142,2.142,0,0,0-1.536,1.8,2.071,2.071,0,0,0,1.392,2.04,6.022,6.022,0,0,0,3.7.36,2.572,2.572,0,0,0,2.088-2.19c0-.14.024-0.33,0.024-0.57,0.312,0.19.624,0.38,0.888,0.57,0.7,0.53,1.488,1.18,1.824,1.51a0.692,0.692,0,0,0,1.057.05A1.579,1.579,0,0,0,812.889,3571.62Zm-2.281-10.7c0.168,0.12.168,0.29-.1,0.36-0.264.09-.6,0.19-1.008,0.29,0.048-.36.072-0.68,0.1-0.94,0.024-.17.048-0.34,0.072-0.5C810.032,3560.46,810.464,3560.8,810.608,3560.92Zm-2.328,9.6a2.407,2.407,0,0,1-1.1,2.06,3.036,3.036,0,0,1-2.472.32c-1.128-.22-1.56-0.68-1.488-1.47a1.781,1.781,0,0,1,1.728-1.32,6.578,6.578,0,0,1,2.928.24c0.144,0.05.288,0.1,0.408,0.15v0.02Zm26.305-16.35h-5.929v17.29h1.056v-16.23h4.873v-1.06Zm7.613,10.49a3.7,3.7,0,0,0,2.808.39c0.889-.22,2.209-0.7,3.361-1.13-0.024.79-.048,1.56-0.072,2.35-0.072,1.32-.072,2.5-0.048,3.7a2.9,2.9,0,0,0,1.56,2.71,10.147,10.147,0,0,0,3.864.53,32.868,32.868,0,0,0,4.321-.22c0.672-.09,1.248-0.48,1.032-1.08a1.457,1.457,0,0,0-1.56-.77,15.852,15.852,0,0,0-2.593.68,10.575,10.575,0,0,1-2.856.19c-1.392-.05-2.28-0.63-2.4-1.61a26.5,26.5,0,0,1-.024-4.13c0.024-.7.048-1.8,0.048-2.76,0.888-.29,1.8-0.53,2.952-0.89a8.914,8.914,0,0,1,2.64-.62,0.466,0.466,0,0,1,.336.84c-1.248,1.34-2.256,2.64-2.9,3.41a15.19,15.19,0,0,0-1.032,1.37,0.367,0.367,0,0,0-.024.5,0.6,0.6,0,0,0,.6-0.24c0.288-.29.648-0.62,1.536-1.54,0.912-.91,1.248-1.29,1.824-1.82a5.826,5.826,0,0,1,1.777-1.22,4.625,4.625,0,0,0,1.44-.56,0.934,0.934,0,0,0,0-1.29,2.335,2.335,0,0,0-1.368-1.23,5.56,5.56,0,0,0-2.137.46c-0.96.31-2.5,0.81-4.272,1.39-0.456.14-.912,0.29-1.344,0.43v-0.21a5.629,5.629,0,0,1,.408-2.6,1.612,1.612,0,0,0,0-1.84,2.918,2.918,0,0,0-1.464-1.08c-0.552-.17-1.128-0.34-1.368.04a1.07,1.07,0,0,0,.432,1.04,2.652,2.652,0,0,1,.744,1.41,28.47,28.47,0,0,1,.024,3.05c0,0.19-.024.38-0.024,0.58-0.72.19-1.392,0.38-1.992,0.5a5.9,5.9,0,0,1-2.713.14,2.973,2.973,0,0,1-1.056-.4,1.047,1.047,0,0,0-1.248-.1C841.118,3563.32,841.43,3564.13,842.2,3564.66Zm26.563,10.18a12.415,12.415,0,0,0,1.8-1.1,16.752,16.752,0,0,0,3.1-3.03,19.479,19.479,0,0,0,2.208-3.43,30.694,30.694,0,0,0,1.752-3.96c0.1-.24.168-0.46,0.24-0.67,1.56-.22,2.424-0.32,3.192-0.44,0.841-.14,1.105-0.21,1.273-0.24a2.544,2.544,0,0,1,.552,0,1.076,1.076,0,0,1,.5.22,1.317,1.317,0,0,1,.048.86,31.047,31.047,0,0,1-.48,3.85,9.278,9.278,0,0,1-.648,2.32,1.022,1.022,0,0,1-1.393.39c-0.72-.22-1.224-0.41-1.68-0.55-0.288-.1-0.528-0.08-0.576.07a0.46,0.46,0,0,0,.336.45,6.227,6.227,0,0,1,1.248.94,3.35,3.35,0,0,1,.768,1.25,0.97,0.97,0,0,0,.649.77,1.088,1.088,0,0,0,1.2-.68,8.979,8.979,0,0,0,1.1-3.02c0.36-1.54.552-2.62,0.72-3.74,0.144-1.11.216-1.78,0.288-2.19a1.261,1.261,0,0,1,.312-0.7,0.68,0.68,0,0,0,.168-0.76,3.7,3.7,0,0,0-1.008-1.13,0.822,0.822,0,0,0-1.056-.12,3.657,3.657,0,0,1-1.128.6,10.844,10.844,0,0,1-2.041.41c-0.7.09-1.368,0.19-2.04,0.26,0.192-.91.312-1.8,0.48-2.74a4.887,4.887,0,0,1,.24-0.91,1,1,0,0,0-.24-1.05,2.492,2.492,0,0,0-1.224-.77c-0.576-.19-0.936-0.22-1.08.02a1.018,1.018,0,0,0,.288.94,2.861,2.861,0,0,1,.456,1.58c-0.048.6-.192,1.87-0.408,3.03a0.067,0.067,0,0,1-.024.04,21.324,21.324,0,0,1-2.712.12,10.432,10.432,0,0,1-2.472-.33c-0.48-.15-1.224-0.39-1.44-0.03a1.131,1.131,0,0,0,.576,1.2,3.7,3.7,0,0,0,2.064.68,12.2,12.2,0,0,0,1.9-.2c0.432-.04,1.08-0.12,1.824-0.21-0.264.93-.576,1.94-0.936,2.9a20.307,20.307,0,0,1-2.064,3.99,18.684,18.684,0,0,1-3.336,3.6,12.1,12.1,0,0,1-1.537,1.17C868.161,3574.72,868.4,3575.03,868.761,3574.84Zm29.54-13.03c0.7,0.79,1.464,1.15,1.992.84,0.672-.41.288-1.42-0.36-2a5.6,5.6,0,0,0-1.848-1.15,8.517,8.517,0,0,0-1.944-.53,1.016,1.016,0,0,0-1.08.15c-0.1.26,0.216,0.43,0.84,0.74A7.185,7.185,0,0,1,898.3,3561.81Zm14.665-2.93a0.54,0.54,0,0,0-.552.29c-0.168.24-.816,1.08-2.136,2.66a28.727,28.727,0,0,1-3.384,3.43,37.77,37.77,0,0,1-4.153,3.22,9.849,9.849,0,0,1-3.888,1.46,2.372,2.372,0,0,1-1.248-.16l-0.864-.2a1.555,1.555,0,0,0,.312,1.73,1.77,1.77,0,0,0,2.064.46,14.242,14.242,0,0,0,4.152-1.97,31.447,31.447,0,0,0,4.513-3.53,26.036,26.036,0,0,0,3.36-3.98c1.032-1.47,1.512-2.28,1.848-2.81C913.182,3559.14,913.134,3558.95,912.966,3558.88Zm14.572,4.25a4.031,4.031,0,0,1,1.752.62,5.891,5.891,0,0,1,1.872,2.07c0.576,0.98,1.153,2.18,2.161,1.8,1.056-.39.576-1.8-0.192-2.65a7.416,7.416,0,0,0-2.617-1.82,6.781,6.781,0,0,0-2.928-.62c-0.24-.03-0.552-0.03-0.552-0.36-0.024-1.06,0-2.02.048-2.84,0.048-.84.072-1.56,0.144-1.96a2.251,2.251,0,0,0-.1-1.47,2.018,2.018,0,0,0-1.272-.86,1.022,1.022,0,0,0-1.08.12,0.879,0.879,0,0,0,.408,1.08,2.336,2.336,0,0,1,.768,1.58,13.342,13.342,0,0,1,.072,2.67c-0.048,1.12-.12,2.37-0.168,3.84-0.048,1.44-.1,3.09-0.168,4.27-0.1,1.18-.24,2.16-0.36,2.88a3.8,3.8,0,0,0,.192,2.26,1.8,1.8,0,0,0,1.56,1.1c0.624-.07.7-1.06,0.552-1.8-0.144-.72-0.336-1.46-0.48-2.35a22.284,22.284,0,0,1-.12-3.36c0.024-.94,0-3,0-3.48C927.034,3563.34,927.13,3563.08,927.538,3563.13Zm7.921-.08a0.643,0.643,0,0,0,.384-0.98,3.506,3.506,0,0,0-1.584-1.06,4.874,4.874,0,0,0-1.464-.33,0.589,0.589,0,0,0-.456.09,0.408,0.408,0,0,0,.215.53,10.54,10.54,0,0,1,1.561,1.23A1.56,1.56,0,0,0,935.459,3563.05Zm2.112-1.1a0.639,0.639,0,0,0,.312-0.98,3.255,3.255,0,0,0-1.632-1.01,4.215,4.215,0,0,0-1.464-.24,0.439,0.439,0,0,0-.432.12,0.351,0.351,0,0,0,.24.5,4.113,4.113,0,0,1,1.632,1.11A1.4,1.4,0,0,0,937.571,3561.95Zm22-5.88a3.064,3.064,0,0,0-2.136-.19c-0.768.14-1.873,0.36-3.049,0.5a9.135,9.135,0,0,1-3.144-.12,1.179,1.179,0,0,0-1.032-.14c-0.264.24,0.024,0.91,0.576,1.29a3.589,3.589,0,0,0,2.4.32c1.128-.15,2.328-0.34,3.072-0.41a7.8,7.8,0,0,1,2.5.05c0.816,0.16,1.464.24,1.68-.05C960.654,3557.01,960.222,3556.41,959.574,3556.07Zm-5.641,15.6a23.471,23.471,0,0,0,4.561-4.08,18.732,18.732,0,0,0,2.616-4.49c0.36-.81.48-1.29,0.84-1.34a0.7,0.7,0,0,0,.648-0.36,1.574,1.574,0,0,0-.672-1.08c-0.48-.41-0.936-0.77-1.176-0.94a0.739,0.739,0,0,0-.84.12,2.287,2.287,0,0,1-1.344.46c-0.744.09-2.761,0.24-3.793,0.33a16.708,16.708,0,0,1-3.048.08,6.117,6.117,0,0,1-1.632-.39,1.154,1.154,0,0,0-1.152-.14c-0.312.31-.024,0.98,0.576,1.46a4.022,4.022,0,0,0,2.88.6c1.2-.17,2.856-0.45,3.816-0.57,0.985-.12,1.993-0.22,2.689-0.24,0.768-.05.936,0.33,0.672,1.12a15.69,15.69,0,0,1-2.3,4.8,16.63,16.63,0,0,1-3.624,3.7,21.183,21.183,0,0,1-3.408,2.11,16.14,16.14,0,0,1-1.56.68c-0.36.12-.48,0.26-0.456,0.38a0.563,0.563,0,0,0,.648.1A15.51,15.51,0,0,0,953.933,3571.67Zm17.877-3.79a14.035,14.035,0,0,0,2.3-.91,27.675,27.675,0,0,0,2.737-1.54,34.553,34.553,0,0,0,3.792-2.69c0.24-.21.48-0.43,0.744-0.65a1.014,1.014,0,0,1,.528.39,3.4,3.4,0,0,1,.336,1.7c0.024,0.75,0,1.49-.048,2.64-0.048,1.18-.1,2.5-0.12,3.56-0.048,1.05-.168,2.13-0.24,2.61s0.216,1.51.864,1.54c0.672,0.05.984-.58,0.96-1.54,0-.96-0.072-2.3-0.1-3.43,0-1.11,0-2.33.024-3.19a19.934,19.934,0,0,1,.144-2.45,2.242,2.242,0,0,0,.264-1.08,1.736,1.736,0,0,0-1.08-1.01,3.433,3.433,0,0,0-.96-0.26c0.432-.39.864-0.8,1.272-1.18,0.888-.82,1.752-1.54,2.232-1.94a4.488,4.488,0,0,0,1.033-1.08,1.23,1.23,0,0,0-.241-1.3c-0.336-.41-1.368-1.03-1.92-0.7a0.645,0.645,0,0,0,0,.82,0.985,0.985,0,0,1-.288,1.22,32.184,32.184,0,0,1-2.424,2.67,50.685,50.685,0,0,1-4.224,3.69,31.075,31.075,0,0,1-4.033,2.77c-0.792.43-1.176,0.62-1.728,0.86C971.258,3567.54,971.426,3567.98,971.81,3567.88Zm39.14-10.97a1.118,1.118,0,0,0-1.22.12,3.666,3.666,0,0,1-1.54.38c-0.77.1-2.42,0.29-3.67,0.41a16.79,16.79,0,0,1-2.88.15,4.989,4.989,0,0,1-1.54-.34,0.793,0.793,0,0,0-.908.02c-0.264.2-.048,0.87,0.552,1.28a2.6,2.6,0,0,0,2.136.45c0.96-.14,2.11-0.45,3.24-0.67,1.13-.19,2.21-0.29,3.19-0.36a2.591,2.591,0,0,1,1.27.02,0.942,0.942,0,0,1-.02.89c-0.19.58-.41,1.54-0.77,2.5a20.914,20.914,0,0,1-1.87,3.6,16.53,16.53,0,0,1-3.5,3.91,16.31,16.31,0,0,1-3.652,2.38c-0.936.48-1.3,0.69-1.56,0.79-0.288.1-.432,0.29-0.36,0.46a0.791,0.791,0,0,0,.864.02,16.582,16.582,0,0,0,3.048-1.39,15.2,15.2,0,0,0,3.77-2.72,20.7,20.7,0,0,0,3.5-4.15,17.992,17.992,0,0,0,1.97-3.96,4.4,4.4,0,0,1,.79-1.49,0.971,0.971,0,0,0,.27-1.17A3.07,3.07,0,0,0,1010.95,3556.91Zm9.2,18.67h5.93V3558.3h-1.06v16.23h-4.87v1.05Zm32.54-3.74a12.528,12.528,0,0,1-4.1,1.56,11.651,11.651,0,0,1-2.69.24c-0.38-.02-0.72.02-0.74,0.24a0.758,0.758,0,0,0,.77.34,16.71,16.71,0,0,0,2.76-.08,13.585,13.585,0,0,0,4.56-1.27,7.258,7.258,0,0,0,3.36-3.36,3.726,3.726,0,0,0-.77-3.96c-1.18-1.22-2.55-1.58-4.71-1.46a7.218,7.218,0,0,0-3,.98c-1.12.62-2.08,1.3-2.76,1.71a1.358,1.358,0,0,1-1.39.26c-0.38-.19-0.26-0.89-0.17-1.51,0.07-.6.24-2.04,0.36-3.12,0.12-1.11.27-1.85,0.31-2.24a1.037,1.037,0,0,1,.87-0.76,5.54,5.54,0,0,1,2.06-.17,8.975,8.975,0,0,1,1.52.41,0.782,0.782,0,0,0,.76-0.2,1.146,1.146,0,0,0,.12-1.24,3.76,3.76,0,0,0-1.24-1.71,4.732,4.732,0,0,0-2.04-.91,3.481,3.481,0,0,0-1.01-.02c-0.27.02-.51,0.02-0.55,0.26a0.617,0.617,0,0,0,.55.46,5.493,5.493,0,0,1,1.53.81,1.258,1.258,0,0,1,.68,1.15,1.945,1.945,0,0,1-1.32.41,9.774,9.774,0,0,0-2.21.6,1.815,1.815,0,0,0-.96,1.68c-0.12.91-.2,2.28-0.41,3.39-0.22,1.13-.39,2.13-0.51,2.71a2.4,2.4,0,0,0,.46,1.75c0.36,0.58.43,0.84,0.98,0.84a1.627,1.627,0,0,0,1.3-.38c0.36-.36,1.35-1.3,2.16-1.97a10.169,10.169,0,0,1,3.15-1.95,4.688,4.688,0,0,1,3.6.41,2.677,2.677,0,0,1,1.22,2.76C1055.09,3569.78,1054.3,3570.86,1052.69,3571.84Zm16.26-5.59a15.065,15.065,0,0,0-.07,3.77,5.073,5.073,0,0,0,1.94,3.02,5.542,5.542,0,0,0,3.58.94,8.713,8.713,0,0,0,4.18-1.68c1.37-1.01,2.52-2.07,3.07-2.55a13.781,13.781,0,0,0,1.08-1.1,0.285,0.285,0,0,0,.02-0.43,0.351,0.351,0,0,0-.45.12c-0.12.11-.77,0.72-1.18,1.03s-1.44,1.05-2.11,1.46-1.85,1.03-2.42,1.32a6.285,6.285,0,0,1-2.33.58,4.2,4.2,0,0,1-2.83-.91,4.617,4.617,0,0,1-1.42-2.72,17.284,17.284,0,0,1,.09-3.72c0.1-.93.44-3.41,0.56-4.08,0.14-.69.43-1.94,0.57-2.64a2.3,2.3,0,0,0-.07-1.85,2.81,2.81,0,0,0-1.06-.84,0.707,0.707,0,0,0-.74-0.12,0.583,0.583,0,0,0-.02.7,3.169,3.169,0,0,1,.45,1.34c0,0.53-.19,2.14-0.26,3C1069.46,3561.73,1069.02,3565.26,1068.95,3566.25Zm24.02-7.13a1.947,1.947,0,0,1,.55,1.51c0.03,0.84.05,2.62,0.07,3.79a15.79,15.79,0,0,0,.39,3.34,6.288,6.288,0,0,0,1.92,2.78,5.1,5.1,0,0,0,2.97,1.11c0.65,0.05,1.25-.05,1.32-0.43a1.41,1.41,0,0,0-.43-1.06,2.347,2.347,0,0,1,0-2.43,0.246,0.246,0,0,0,.03-0.38,0.469,0.469,0,0,0-.51.17,3.14,3.14,0,0,0-.69,1.06,1.643,1.643,0,0,0-.17.64,0.394,0.394,0,0,1-.29.36,2.545,2.545,0,0,1-1.25-.09,3.408,3.408,0,0,1-1.25-.84,4.579,4.579,0,0,1-.69-2.79c0-1.61,0-2.73.07-3.86a4.518,4.518,0,0,0-.34-2.64,2.634,2.634,0,0,0-1.1-1.01c-0.29-.14-0.84-0.36-0.98-0.05A0.93,0.93,0,0,0,1092.97,3559.12Zm13.8,2.13a5.054,5.054,0,0,1,1.58.65,2.022,2.022,0,0,1,.92,1.85,8.257,8.257,0,0,0-.05,2.07,0.982,0.982,0,0,0,.98.64,0.783,0.783,0,0,0,.89-0.79,5.148,5.148,0,0,0-.29-2.35,4.494,4.494,0,0,0-1.85-2.07,5.261,5.261,0,0,0-1.96-.57c-0.44-.05-0.6.02-0.63,0.21C1106.34,3561.06,1106.43,3561.21,1106.77,3561.25Zm13.92,8.65a3.057,3.057,0,0,0-2.97,3,2.774,2.774,0,0,0,1.7,2.68,2.584,2.584,0,0,0,1.3.32,2.909,2.909,0,0,0,2.16-.94,3,3,0,0,0,.84-2.06A3.072,3.072,0,0,0,1120.69,3569.9Zm0.03,0.84a2.257,2.257,0,0,1,1.25.4,2.135,2.135,0,0,1,.14,3.39,1.965,1.965,0,0,1-1.39.53,2.069,2.069,0,0,1-1.83-1.01,2.281,2.281,0,0,1-.33-1.15,2.071,2.071,0,0,1,.57-1.47A2.224,2.224,0,0,1,1120.72,3570.74Zm29.37-15.15a1.057,1.057,0,0,0,.98-0.46c0-.31-0.67-0.64-2.02-1a37.417,37.417,0,0,1-2.47,3.84,24.267,24.267,0,0,1-7.63,6.43l0.33,0.5a23.717,23.717,0,0,0,7.83-5.45,30.515,30.515,0,0,0,2.57-3.26,25.209,25.209,0,0,0,9.74,7.9,4.282,4.282,0,0,1,1.11-1.47A25.486,25.486,0,0,1,1150.09,3555.59Zm0.16,13.47h5.96l0.24-.44c-0.68-.72-1.23-1.25-1.61-1.58l-1.18,1.41h-3.41v-4.43h5.96l0.28-.49a14.193,14.193,0,0,0-1.68-1.24l-1.17,1.12h-10.95l0.22,0.61h5.93v4.43h-6.08l0.29,0.61h5.79v4.87h-8.79l0.27,0.6h18.79l0.26-.48a11.214,11.214,0,0,0-1.77-1.8l-1.32,1.68h-6.03v-4.87Zm25.88-7.88a20.761,20.761,0,0,1-1.1,5.76,14.737,14.737,0,0,1-7.35,8.26l0.36,0.55a14.663,14.663,0,0,0,7.52-6.26,19.441,19.441,0,0,0,2.13-8.43h7.44q0.045,8.46-1.08,11.02a1.66,1.66,0,0,1-1.73.98,29.26,29.26,0,0,1-4.53-.43v0.7a24.982,24.982,0,0,1,3.29.72,1.294,1.294,0,0,1,1.1,1.1,3.177,3.177,0,0,0,2.95-1.56q1.485-2.625,1.52-12.05l0.55-.36a0.557,0.557,0,0,0,.26-0.33,4.428,4.428,0,0,0-1.58-1.64l-0.96,1.25h-7.2c0.02-.21.02-0.62,0.02-1.2v-3.12a1.417,1.417,0,0,0,1.06-.72c0-.38-0.87-0.57-2.62-0.6v4.44c0,0.55,0,.99-0.02,1.32h-7.64l0.29,0.6h7.32Zm23.86,0.48a11.061,11.061,0,0,0,2.76-.86c0.84-.31,2.4-0.99,3.41-1.37,0.46-.17.91-0.31,1.37-0.43a14.368,14.368,0,0,0-1.27,1.1,4.6,4.6,0,0,0-1.18,2.16,28.378,28.378,0,0,0-.6,3.22,13.614,13.614,0,0,0,.05,3.84,3.6,3.6,0,0,0,1.2,2.47,4.829,4.829,0,0,0,2.88,1.03,13.574,13.574,0,0,0,2.57,0c0.57-.04.81-0.45,0.6-0.76a1.993,1.993,0,0,0-1.11-.77,6.712,6.712,0,0,0-1.87-.07,3.069,3.069,0,0,1-2.18-.53,2.792,2.792,0,0,1-1.03-1.99,15.713,15.713,0,0,1,.07-4.23,16.087,16.087,0,0,1,.57-2.71,5.073,5.073,0,0,1,1.49-1.99c0.46-.41,1.01-0.82,1.37-1.11,0.07,0,.12-0.02.17-0.02a19.408,19.408,0,0,1,2.97-.31,8.914,8.914,0,0,1,1.61.21,0.777,0.777,0,0,0,.91-0.26,0.935,0.935,0,0,0-.52-1.06,4.138,4.138,0,0,0-2.38-.24c-0.84.12-2.69,0.6-4.3,1.01-1.63.43-3.48,1.01-4.32,1.27a15.8,15.8,0,0,1-3.17.75,3.577,3.577,0,0,1-1.56-.27,0.974,0.974,0,0,0-1.03-.07,1.155,1.155,0,0,0,.39,1.3A2.562,2.562,0,0,0,1199.99,3561.66Zm13.28,1.64a0.653,0.653,0,0,0,.38-0.97,3.458,3.458,0,0,0-1.61-1.08,5.4,5.4,0,0,0-1.44-.33,0.574,0.574,0,0,0-.45.09,0.389,0.389,0,0,0,.21.53,9.3,9.3,0,0,1,1.56,1.25A1.651,1.651,0,0,0,1213.27,3563.3Zm2.08-1.11a0.634,0.634,0,0,0,.34-0.98,3.266,3.266,0,0,0-1.63-1.01,4.232,4.232,0,0,0-1.47-.24,0.488,0.488,0,0,0-.45.12,0.376,0.376,0,0,0,.24.5,3.978,3.978,0,0,1,1.65,1.11A1.43,1.43,0,0,0,1215.35,3562.19Zm16.65-5.14a14.268,14.268,0,0,0-1.66-.72v9.58h1.35v-1.22h5.21v1.08h1.34v-7.76l0.48-.28a0.348,0.348,0,0,0,.22-0.29,3.694,3.694,0,0,0-1.37-1.42l-0.91,1.03h-2.91a12.8,12.8,0,0,0,1.25-1.82,1.013,1.013,0,0,0,.89-0.48c0-.29-0.77-0.55-2.33-0.82a17.271,17.271,0,0,1-.5,3.12H1232Zm-0.31.6h5.21v2.81h-5.21v-2.81Zm5.21,6.44h-5.21v-3.03h5.21v3.03Zm-3.41,3.62h-9.63l0.24,0.6h8.62a24.643,24.643,0,0,1-9.48,6.24l0.38,0.53a26.648,26.648,0,0,0,9.87-5.59v6.24h1.41v-6.96a22.253,22.253,0,0,0,9.2,5.95,4.408,4.408,0,0,1,1.15-1.42,23.592,23.592,0,0,1-9.22-4.41c-0.38-.31-0.62-0.51-0.69-0.58h9.26l0.29-.5a19.73,19.73,0,0,0-1.63-1.59l-1.2,1.49h-7.16v-1.34a1.2,1.2,0,0,0,.87-0.58c0-.33-0.77-0.53-2.28-0.58v2.5Zm-9.05-11.45-0.29.48a7.954,7.954,0,0,1,2.86,2.88,1.159,1.159,0,0,0,.86.77,0.753,0.753,0,0,0,.82-0.89,2.124,2.124,0,0,0-.84-1.44A8.879,8.879,0,0,0,1224.44,3556.26Zm14.5,3.58,0.36,0.43a24.257,24.257,0,0,0,4.1-2.78c0.34,0.02.53,0.04,0.55,0.04,0.36,0,.53-0.07.53-0.26,0-.34-0.58-0.86-1.73-1.61A19.843,19.843,0,0,1,1238.94,3559.84Zm0.16,1.32-0.24.5a11.523,11.523,0,0,1,4.06,2.98,1.418,1.418,0,0,0,.91.65,0.69,0.69,0,0,0,.75-0.82,1.846,1.846,0,0,0-.99-1.42A14.56,14.56,0,0,0,1239.1,3561.16Zm-9.6,0a31.983,31.983,0,0,1-5.71,2.83c0.58,1.25,1.01,1.87,1.3,1.87,0.21,0,.33-0.31.36-0.96a38.575,38.575,0,0,0,4.29-3.21Zm25.86,5.09a15.065,15.065,0,0,0-.07,3.77,4.984,4.984,0,0,0,1.94,3.02,5.542,5.542,0,0,0,3.58.94,8.79,8.79,0,0,0,4.18-1.68c1.36-1.01,2.52-2.07,3.07-2.55,0.53-.48.93-0.94,1.08-1.1a0.285,0.285,0,0,0,.02-0.43,0.351,0.351,0,0,0-.45.12c-0.12.11-.77,0.72-1.18,1.03s-1.44,1.05-2.11,1.46-1.85,1.03-2.43,1.32a6.182,6.182,0,0,1-2.32.58,4.237,4.237,0,0,1-2.84-.91,4.607,4.607,0,0,1-1.41-2.72,17.284,17.284,0,0,1,.09-3.72c0.1-.93.43-3.41,0.55-4.08,0.15-.69.44-1.94,0.58-2.64a2.339,2.339,0,0,0-.07-1.85,2.887,2.887,0,0,0-1.06-.84,0.707,0.707,0,0,0-.74-0.12,0.583,0.583,0,0,0-.03.7,3.16,3.16,0,0,1,.46,1.34c0,0.53-.19,2.14-0.26,3C1255.86,3561.73,1255.43,3565.26,1255.36,3566.25Zm36.93,0.09a10.7,10.7,0,0,0-2.91-2.52,7.875,7.875,0,0,0-1.36-.74,0.458,0.458,0,0,0-.53.07c-0.1.19,0.09,0.34,0.33,0.46a8.916,8.916,0,0,1,1.32.93,7.275,7.275,0,0,1,1.83,2.26,6.153,6.153,0,0,1,.69,3.31,3.436,3.436,0,0,1-2.35,3.07,5.271,5.271,0,0,1-4.53-.33,4.117,4.117,0,0,1-1.59-3.34c0-.43-0.02-0.81,0-1.2,0.22,0.07.46,0.12,0.67,0.19a8.048,8.048,0,0,0,2.6.22,0.916,0.916,0,0,0,.88-0.43,0.981,0.981,0,0,0-.48-0.92,2.014,2.014,0,0,0-1.27-.21,7.868,7.868,0,0,1-2.3-.34c0.05-.33.09-0.67,0.14-1.03,0.07-.58.15-1.13,0.24-1.68,0.22-.12.46-0.22,0.7-0.34a20.566,20.566,0,0,0,2.28-1.15,0.991,0.991,0,0,0,.55-1.2,1.436,1.436,0,0,0-1.44-.69c-0.43-.05-0.89-0.1-1.3-0.17,0.22-.79.46-1.66,0.68-2.31,0.33-1.08.43-1.89-.03-2.35a4.029,4.029,0,0,0-1.51-.93c-0.38-.1-0.65-0.08-0.74.12a0.577,0.577,0,0,0,.26.64,2.205,2.205,0,0,1,.55.99,3.31,3.31,0,0,1,.07,1.25,10.569,10.569,0,0,1-.28,1.46c-0.05.26-.12,0.55-0.2,0.86a3.884,3.884,0,0,1-1.39-.64c-0.41-.34-0.62-0.84-1.03-0.7a1.115,1.115,0,0,0,.12,1.27,3.016,3.016,0,0,0,1.54,1.23c0.16,0.04.31,0.12,0.48,0.16-0.15.6-.29,1.35-0.46,2.33a13.566,13.566,0,0,0-1.1.8,1.838,1.838,0,0,0-.87,1.44c0,0.6.39,0.96,1.18,1.44a2.791,2.791,0,0,0,.33.19c-0.02.33-.04,0.67-0.07,0.98a7.318,7.318,0,0,0,.75,3.99,4.228,4.228,0,0,0,2.97,1.92,7.768,7.768,0,0,0,3.79-.22,6.258,6.258,0,0,0,2.88-1.85,4.369,4.369,0,0,0,.96-2.85A6.167,6.167,0,0,0,1292.29,3566.34Zm-7.83-4.44c0.75,0.03.6,0.39,0.34,0.58-0.14.09-.55,0.36-0.98,0.62a10.767,10.767,0,0,1,.24-1.05,0.426,0.426,0,0,0,.04-0.17A2.565,2.565,0,0,0,1284.46,3561.9Zm-2.61,4.11c-0.31-.34-0.27-0.7.26-1.04,0.1-.04.19-0.12,0.29-0.16-0.07.43-.14,0.96-0.19,1.48C1282.09,3566.2,1281.97,3566.1,1281.85,3566.01Zm26.4-9.65c0.26,0.12.84,0.41,1.08,0.48a0.827,0.827,0,0,1,.5.36,0.7,0.7,0,0,1-.19.5,1.117,1.117,0,0,0-.21.82,1.235,1.235,0,0,0,.76-0.48,1.134,1.134,0,0,1,.75-0.36,3.391,3.391,0,0,0,1.15-.12,0.775,0.775,0,0,0,.17-1.23,3.933,3.933,0,0,0-2.14-.79,6.006,6.006,0,0,0-1.77.03,0.557,0.557,0,0,0-.48.24C1307.77,3556.05,1307.99,3556.21,1308.25,3556.36Zm-3.84,7.08a2.253,2.253,0,0,0,2.11.07c0.77-.36,2.55-1.08,3.34-1.32a5.448,5.448,0,0,1,3.14-.12c1.18,0.36,1.95,1.27,1.87,3.19a8.327,8.327,0,0,1-1.48,4.88,8.817,8.817,0,0,1-3.82,2.73,17.884,17.884,0,0,1-2.76.89,0.358,0.358,0,0,0-.36.36c0,0.1.17,0.19,0.48,0.17a12.311,12.311,0,0,0,2.69-.67,13.771,13.771,0,0,0,4.1-2.04,7.3,7.3,0,0,0,2.83-4.32,5.867,5.867,0,0,0-.74-4.59,4.3,4.3,0,0,0-3.55-1.87,8.333,8.333,0,0,0-3.67.67,10.482,10.482,0,0,1-2.28.79,4.59,4.59,0,0,1-1.4-.09,1.155,1.155,0,0,0-.96.02A0.92,0.92,0,0,0,1304.41,3563.44Zm24.21,6.46a3.057,3.057,0,0,0-2.97,3,2.774,2.774,0,0,0,1.7,2.68,2.584,2.584,0,0,0,1.3.32,2.909,2.909,0,0,0,2.16-.94,3,3,0,0,0,.84-2.06A3.072,3.072,0,0,0,1328.62,3569.9Zm0.03,0.84a2.257,2.257,0,0,1,1.25.4,2.135,2.135,0,0,1,.14,3.39,1.965,1.965,0,0,1-1.39.53,2.046,2.046,0,0,1-1.83-1.01,2.281,2.281,0,0,1-.33-1.15,2.071,2.071,0,0,1,.57-1.47A2.224,2.224,0,0,1,1328.65,3570.74Z" transform="translate(-765.219 -3518.06)"/>
</svg>
