<svg xmlns="http://www.w3.org/2000/svg" width="462.063" height="57.72" viewBox="0 0 462.063 57.72">
  <defs>
    <style>
      .cls-1 {
        fill-rule: evenodd;
      }
    </style>
  </defs>
  <path id="ttl_Dream.svg" class="cls-1" d="M517.89,5189.17h-5.929v17.29h1.056v-16.23h4.873v-1.06Zm9.994,10.95c-0.048-.34-0.1-0.67-0.168-0.99l-0.552-.04a5.124,5.124,0,0,1-1.392,3.57,0.939,0.939,0,0,0-.288.6,0.8,0.8,0,0,0,.336.63,0.859,0.859,0,0,0,.552.21,1.3,1.3,0,0,0,1.056-.79,4.059,4.059,0,0,0,.528-2.01,1.145,1.145,0,0,0-.024-0.29,0.829,0.829,0,0,0-.024-0.29h16.538a9.991,9.991,0,0,1-1.152,2.14l0.432,0.38a16.853,16.853,0,0,0,2.208-1.83l0.72-.14a0.343,0.343,0,0,0,.336-0.26,5.8,5.8,0,0,0-1.656-2.02l-0.936,1.13H527.884Zm5.569,3.65h6.336a19.013,19.013,0,0,1-6.48,4.61,29.928,29.928,0,0,1-7.105,1.87l0.312,0.6c6.337-.63,11.233-2.79,14.641-6.46l0.744-.26a0.387,0.387,0,0,0,.337-0.29,4.565,4.565,0,0,0-1.609-1.66l-0.84.99H534.1a9.752,9.752,0,0,0,.936-1.04c0.768-.04,1.152-0.16,1.152-0.38,0-.26-0.672-0.57-1.992-0.93a17.154,17.154,0,0,1-7.513,5.92l0.288,0.51a19.416,19.416,0,0,0,4.705-2.16,5.528,5.528,0,0,1,1.944,2.01,0.961,0.961,0,0,0,.744.63,0.636,0.636,0,0,0,.72-0.72c0-.77-0.96-1.51-2.856-2.28A13.607,13.607,0,0,0,533.453,5203.77Zm9.24-5.38v0.72h1.321v-3.74l0.552-.36a0.409,0.409,0,0,0,.24-0.34,4.515,4.515,0,0,0-1.464-1.37l-0.864,1.01h-12.53l-0.336-.17a12.01,12.01,0,0,0-1.176-.5v5.52h1.32v-0.77h12.937Zm-4.9-3.48v2.88h-3.408v-2.88H537.8Zm1.3,0h3.6v2.88h-3.6v-2.88Zm-9.337,0h3.337v2.88h-3.337v-2.88Zm8.713-2.93v1.68h1.3v-1.68h6.673l0.264-.45a9.166,9.166,0,0,0-1.08-1.28l-0.456-.4-1.1,1.53h-4.3v-1.08a1.078,1.078,0,0,0,.864-0.62q0-.465-2.16-0.51v2.21h-4.944v-1.03a1.419,1.419,0,0,0,1.008-.67q0-.51-2.3-0.51v2.21h-6.6l0.24,0.6h6.361v1.68h1.3v-1.68h4.944Zm21.151,6.43c-0.168-.12-0.384.12-0.528,0.44-0.528,1.1-.744,1.39-1.08,2.11a23.055,23.055,0,0,0-.96,2.52c-0.072.24-.384,0.31-0.384-0.14a15.149,15.149,0,0,1,.36-3.49c0.36-1.36.792-2.59,1.008-3.31a3.536,3.536,0,0,0,.024-2.28,4.151,4.151,0,0,0-.936-1.46,0.688,0.688,0,0,0-.936-0.19,0.671,0.671,0,0,0,.168.86,3.043,3.043,0,0,1,.48,1.92,15.776,15.776,0,0,1-.433,3.05,26.566,26.566,0,0,0-.624,3.19,19.048,19.048,0,0,0-.12,3.36,8.045,8.045,0,0,0,.648,3.12,1,1,0,0,0,1.153.75c0.408-.08.48-0.82,0.312-1.4a5.383,5.383,0,0,1,.024-2.78c0.336-1.15.768-2.69,1.056-3.43,0.288-.77.648-1.9,0.768-2.21A0.552,0.552,0,0,0,559.62,5198.41Zm12.673,8.21a5.522,5.522,0,0,0-2.352-1.44,9.959,9.959,0,0,0-.984-0.33c0-.58,0-1.18-0.024-1.75-0.1-1.35-.12-2.84-0.168-3.7-0.024-.39.024-1.03,0.048-1.71a6.128,6.128,0,0,0,2.616-.74,0.981,0.981,0,0,0,.432-1.34,4.783,4.783,0,0,0-1.416-.41,5.589,5.589,0,0,1-1.32-.53,5.44,5.44,0,0,0-.048-2.18,2.143,2.143,0,0,0-1.345-1.42c-0.576-.22-0.888-0.19-1.008.02a0.74,0.74,0,0,0,.288.92,1.993,1.993,0,0,1,.505,1.39,18.894,18.894,0,0,1,.168,2.69,2.844,2.844,0,0,1,0,.64,8.049,8.049,0,0,1-2.353-.21,3.669,3.669,0,0,1-1.248-.51,1.049,1.049,0,0,0-.888-0.38,0.95,0.95,0,0,0,.384,1.06,4.133,4.133,0,0,0,1.848.96,7.472,7.472,0,0,0,2.232.16c0,0.58-.024,1.2-0.024,1.76,0,1.2.024,2.23,0.049,3.12,0,0.55.024,1.22,0.024,1.85-0.457-.1-0.913-0.17-1.345-0.22a7.107,7.107,0,0,0-3.12.34,2.142,2.142,0,0,0-1.536,1.8,2.071,2.071,0,0,0,1.392,2.04,6.022,6.022,0,0,0,3.7.36,2.572,2.572,0,0,0,2.089-2.19c0-.14.024-0.33,0.024-0.57,0.312,0.19.624,0.38,0.888,0.57,0.7,0.53,1.488,1.18,1.824,1.51a0.691,0.691,0,0,0,1.056.05A1.579,1.579,0,0,0,572.293,5206.62Zm-2.28-10.7c0.168,0.12.168,0.29-.1,0.36-0.264.09-.6,0.19-1.008,0.29,0.048-.36.072-0.68,0.1-0.94,0.024-.17.048-0.34,0.072-0.5C569.437,5195.46,569.869,5195.8,570.013,5195.92Zm-2.328,9.6a2.408,2.408,0,0,1-1.1,2.06,3.036,3.036,0,0,1-2.472.32c-1.128-.22-1.56-0.68-1.488-1.47a1.781,1.781,0,0,1,1.728-1.32,6.578,6.578,0,0,1,2.928.24c0.144,0.05.288,0.1,0.409,0.15v0.02Zm17.747-14.59c-0.7-.36-1.248-0.63-1.68-0.8v13.76h1.392v-1.56h2.52c-0.36,4.17-2.928,6.77-7.705,7.75l0.312,0.6a11.924,11.924,0,0,0,6.121-2.35,8.276,8.276,0,0,0,2.712-6h2.5v5.81a1.751,1.751,0,0,0,.576,1.58c0.456,0.29,1.8.43,4.033,0.43a19.674,19.674,0,0,0,3.792-.24,1.263,1.263,0,0,0,1.008-1.32,0.791,0.791,0,0,1-.912-0.6,14.517,14.517,0,0,1-.168-3l-0.648-.26a10.053,10.053,0,0,1-.624,3.45c-0.264.44-1.128,0.68-2.568,0.68a13.41,13.41,0,0,1-2.617-.17,0.7,0.7,0,0,1-.48-0.75v-5.61h2.665v1.41h1.392v-11.73l0.672-.39a0.325,0.325,0,0,0,.216-0.29,4.233,4.233,0,0,0-1.56-1.56l-0.96,1.16h-9.985Zm-0.288.6h10.513v2.85H585.144v-2.85Zm10.513,3.45v2.98H585.144v-2.98h10.513Zm0,3.58v3.17H585.144v-3.17h10.513Zm20.265-1.59c-0.576.68-2.017,2.45-2.929,3.44-0.888.98-1.632,1.97-2.112,2.59a6.28,6.28,0,0,0-1.176,1.85,1.343,1.343,0,0,0,.384,1.27,0.83,0.83,0,0,0,.864.19,1.913,1.913,0,0,0,.816-1.25,10.77,10.77,0,0,1,1.512-3.16,6.816,6.816,0,0,1,3.553-2.43,6.54,6.54,0,0,1,4.776.17,3.936,3.936,0,0,1,2.376,3.38,4.126,4.126,0,0,1-1.536,3.29,6.623,6.623,0,0,1-3.336,1.23,1.356,1.356,0,0,0-.336-1.85,3.448,3.448,0,0,0-2.784-.51c-0.888.17-1.921,0.82-1.921,1.61,0.024,0.79.649,1.37,2.305,1.71a9.072,9.072,0,0,0,4.248-.03,7.159,7.159,0,0,0,3.576-2.11,4.371,4.371,0,0,0,1.177-3.55,4.421,4.421,0,0,0-1.969-3.34,7.177,7.177,0,0,0-3.5-1.3,7.95,7.95,0,0,0-3.528.46,5.454,5.454,0,0,0-1.464.77s1.272-1.32,1.9-2.02c0.624-.72,1.512-1.8,2.256-2.54a12.075,12.075,0,0,1,1.9-1.63,0.93,0.93,0,0,0,.552-0.6,0.864,0.864,0,0,0-.312-0.87,1.953,1.953,0,0,0-1.416-.69,6.077,6.077,0,0,0-1.992.86c-0.888.48-1.968,0.98-2.784,1.32a3.405,3.405,0,0,1-1.489.36,2.83,2.83,0,0,1-.888-0.17,0.445,0.445,0,0,0-.6.22,0.915,0.915,0,0,0,.288.84,1.957,1.957,0,0,0,1.392.6,4.07,4.07,0,0,0,1.993-.6c0.768-.41,2.064-1.18,2.352-1.37a1.146,1.146,0,0,1,.888-0.22c0.12,0.12-.024.39-0.312,0.77C618.346,5194.07,616.5,5196.3,615.922,5196.97Zm-0.432,10.04c-0.144-.41.384-0.65,0.864-0.65,0.672,0.02,1.3.43,0.552,1.2A1.7,1.7,0,0,1,615.49,5207.01Zm32.753-5.67a10.7,10.7,0,0,0-2.9-2.52,7.943,7.943,0,0,0-1.368-.74,0.459,0.459,0,0,0-.528.07c-0.1.19,0.1,0.34,0.336,0.46a9.137,9.137,0,0,1,1.32.93,7.239,7.239,0,0,1,1.824,2.26,6.121,6.121,0,0,1,.7,3.31,3.447,3.447,0,0,1-2.352,3.07,5.286,5.286,0,0,1-4.537-.33,4.117,4.117,0,0,1-1.584-3.34c0-.43-0.024-0.81,0-1.2,0.216,0.07.456,0.12,0.672,0.19a8,8,0,0,0,2.592.22,0.929,0.929,0,0,0,.889-0.43,0.982,0.982,0,0,0-.48-0.91,1.968,1.968,0,0,0-1.273-.22,7.884,7.884,0,0,1-2.3-.34c0.048-.33.1-0.67,0.144-1.03,0.072-.58.144-1.13,0.24-1.68,0.216-.12.456-0.22,0.7-0.34a20.748,20.748,0,0,0,2.28-1.15,0.989,0.989,0,0,0,.553-1.2,1.436,1.436,0,0,0-1.44-.69c-0.433-.05-0.889-0.1-1.3-0.17,0.216-.79.456-1.66,0.672-2.31,0.336-1.08.432-1.89-.024-2.35a4.083,4.083,0,0,0-1.512-.93,0.594,0.594,0,0,0-.744.12,0.587,0.587,0,0,0,.264.64,2.228,2.228,0,0,1,.552.99,3.434,3.434,0,0,1,.072,1.25,9.845,9.845,0,0,1-.288,1.46c-0.048.26-.12,0.55-0.192,0.86a3.8,3.8,0,0,1-1.392-.64c-0.408-.34-0.624-0.84-1.032-0.7a1.119,1.119,0,0,0,.12,1.27,2.989,2.989,0,0,0,1.536,1.23c0.168,0.04.312,0.12,0.48,0.16-0.144.6-.288,1.35-0.456,2.33-0.456.31-.84,0.58-1.1,0.8a1.838,1.838,0,0,0-.864,1.44c0,0.59.384,0.95,1.176,1.44a2.855,2.855,0,0,0,.336.19c-0.024.33-.048,0.67-0.072,0.98a7.265,7.265,0,0,0,.744,3.99,4.256,4.256,0,0,0,2.976,1.92,7.784,7.784,0,0,0,3.793-.22,6.279,6.279,0,0,0,2.88-1.85,4.436,4.436,0,0,0,.96-2.85A6.143,6.143,0,0,0,648.243,5201.34Zm-7.825-4.44c0.744,0.03.6,0.39,0.336,0.58-0.144.09-.552,0.36-0.984,0.62,0.072-.36.144-0.72,0.24-1.05a0.369,0.369,0,0,0,.048-0.17A2.481,2.481,0,0,0,640.418,5196.9Zm-2.616,4.11c-0.312-.34-0.264-0.7.264-1.04,0.1-.04.192-0.12,0.288-0.16-0.072.43-.144,0.96-0.192,1.49C638.042,5201.2,637.922,5201.1,637.8,5201.01Zm39.28-5.21a7.535,7.535,0,0,0-2.785-2.81,8.611,8.611,0,0,0-4.248-1.1,10.779,10.779,0,0,0-5.04,1.17,11.345,11.345,0,0,0-3.409,2.79,7.912,7.912,0,0,0-1.8,3.72,5.843,5.843,0,0,0,.36,3.96,2.943,2.943,0,0,0,2.712,2.04,4.782,4.782,0,0,0,3.5-2.26,12.069,12.069,0,0,0,1.872-4.68,18.06,18.06,0,0,0,.384-3.67c0-.65-0.024-1.51-0.072-2.04,0.24-.03.48-0.07,0.7-0.1a7.476,7.476,0,0,1,4.632.99,5.516,5.516,0,0,1,2.353,3.28,9.77,9.77,0,0,1,.336,4.42,6.061,6.061,0,0,1-2.281,3.77,11.178,11.178,0,0,1-6.456,2.04c-0.648,0-1.176-.05-1.416-0.07a0.3,0.3,0,0,0-.384.19c-0.024.14,0.12,0.26,0.384,0.29a11.575,11.575,0,0,0,4.3-.03,12.439,12.439,0,0,0,4.393-1.6,5.9,5.9,0,0,0,2.592-3.36,9.638,9.638,0,0,0,.336-3.68A6.689,6.689,0,0,0,677.082,5195.8Zm-9.481,1.1a10.347,10.347,0,0,1-1.536,4.28,4.875,4.875,0,0,1-2.712,2.2c-1.057.34-1.969,0.15-2.329-.76a6.317,6.317,0,0,1,.192-4.06,8.8,8.8,0,0,1,3.193-3.91,10.327,10.327,0,0,1,3.36-1.54A19.417,19.417,0,0,1,667.6,5196.9Zm21.028,4.35a14.892,14.892,0,0,0-.1,3.77,5.165,5.165,0,0,0,1.968,3.02,5.646,5.646,0,0,0,3.577.94,8.968,8.968,0,0,0,4.152-1.68c1.392-1.04,2.544-2.07,3.072-2.55a14,14,0,0,0,1.1-1.1,0.328,0.328,0,0,0,.024-0.43,0.354,0.354,0,0,0-.456.12c-0.144.12-.792,0.72-1.2,1.03-0.384.31-1.44,1.05-2.088,1.46-0.672.41-1.872,1.03-2.424,1.32a6.224,6.224,0,0,1-2.328.58,4.378,4.378,0,0,1-2.832-.91,4.6,4.6,0,0,1-1.417-2.72,17.024,17.024,0,0,1,.1-3.72c0.1-.93.408-3.41,0.528-4.08,0.144-.69.456-1.94,0.6-2.64a2.227,2.227,0,0,0-.072-1.85,3.087,3.087,0,0,0-1.056-.84,0.752,0.752,0,0,0-.768-0.12,0.618,0.618,0,0,0-.024.7,3.144,3.144,0,0,1,.48,1.34c0,0.53-.192,2.14-0.264,3C689.133,5196.73,688.7,5200.26,688.629,5201.25Zm11.953-4.2a0.645,0.645,0,0,0,.36-0.99,3.294,3.294,0,0,0-1.584-1.05,4.493,4.493,0,0,0-1.464-.34,0.537,0.537,0,0,0-.432.1,0.38,0.38,0,0,0,.216.52,10.211,10.211,0,0,1,1.536,1.23A1.615,1.615,0,0,0,700.582,5197.05Zm2.088-1.11a0.627,0.627,0,0,0,.337-0.98,3.258,3.258,0,0,0-1.633-1.01,4.6,4.6,0,0,0-1.488-.24,0.481,0.481,0,0,0-.432.12,0.365,0.365,0,0,0,.24.5,3.791,3.791,0,0,1,1.632,1.11A1.462,1.462,0,0,0,702.67,5195.94Zm22.644,0.31a6.557,6.557,0,0,0-3.408.27c-1.152.38-2.616,1.08-3.648,1.53-0.264.12-.576,0.24-0.913,0.39-0.288-.7-0.552-1.35-0.719-1.87a2.106,2.106,0,0,1,.143-1.8,1.52,1.52,0,0,1,1.561-.39,3.823,3.823,0,0,1,1.536.84c0.36,0.31.7,0.58,1.032,0.82a1.138,1.138,0,0,0,1.1.09,0.948,0.948,0,0,0,.288-0.84,1.477,1.477,0,0,0-.336-0.91c-0.24-.26-0.432-0.48-0.7-0.74a0.883,0.883,0,0,0-.576-0.39,0.526,0.526,0,0,0-.24.6,1.068,1.068,0,0,1-.024.68,0.6,0.6,0,0,1-.6-0.12,5.356,5.356,0,0,0-1.248-.51,3.909,3.909,0,0,0-1.824-.07,1.728,1.728,0,0,0-1.2,1.06,3.216,3.216,0,0,0,.072,1.96c0.192,0.51.528,1.23,0.864,2-0.672.28-1.3,0.6-1.608,0.74a3.935,3.935,0,0,1-1.728.38,1.15,1.15,0,0,0-1.152.27,0.689,0.689,0,0,0,.36.74,1.785,1.785,0,0,0,1.128.51,3.748,3.748,0,0,0,1.8-.63c0.384-.19,1.008-0.55,1.68-0.91,0.313,0.74.6,1.59,0.889,2.5,0.384,1.29.816,2.37,1.128,3.55a6.468,6.468,0,0,1,.192,2.11c-0.048.7,0.144,1.23,0.648,1.27s0.792-.55.864-1.41a6.447,6.447,0,0,0-.456-2.64c-0.336-.91-1.1-2.59-1.416-3.29-0.264-.6-0.7-1.68-1.032-2.55,0.5-.28,1.008-0.57,1.368-0.76a11.5,11.5,0,0,1,3.552-1.54,4.085,4.085,0,0,1,3.768.86,2.047,2.047,0,0,1-.144,2.93,3.414,3.414,0,0,1-3.144.48,5.358,5.358,0,0,1-2.568-1.51,0.5,0.5,0,0,0-.5-0.17,0.371,0.371,0,0,0,.048.48,5.981,5.981,0,0,0,2.616,1.92,5.393,5.393,0,0,0,3.072.29,2.719,2.719,0,0,0,2.209-1.78,2.893,2.893,0,0,0-.169-2.78A3.671,3.671,0,0,0,725.314,5196.25Zm13.214,9.05c0.36,0.17.792,0.1,0.816-.38a13.176,13.176,0,0,1,.36-2.64c0.288-.74,1.008-2.57,1.3-3.34,0.312-.79.984-2.52,1.128-2.88a0.171,0.171,0,0,0,.048-0.12h0.072a14.006,14.006,0,0,0,2.736-.48,3.1,3.1,0,0,0,1.512-.74,0.625,0.625,0,0,0-.048-0.82,2.552,2.552,0,0,0-1.1-.53c-0.552-.16-1.128-0.4-1.488-0.52a4,4,0,0,0-.456-0.17,2.021,2.021,0,0,0-.048-0.77,1.956,1.956,0,0,0-.72-0.98,1,1,0,0,0-1.008-.2,0.481,0.481,0,0,0-.024.68,2.26,2.26,0,0,1,.336,1.29,4.243,4.243,0,0,1-.5,1.56,7.439,7.439,0,0,0-.336.82,4.14,4.14,0,0,1-.792-0.07,5.554,5.554,0,0,1-1.176-.36,0.817,0.817,0,0,0-.769-0.1c-0.143.19,0.1,0.5,0.5,0.77a4.128,4.128,0,0,0,1.536.6,1.487,1.487,0,0,1,.36.05c-0.192.52-.36,1.05-0.528,1.48-0.384,1.01-1.08,3.1-1.44,3.77s-0.6,1.2-.864,1.68a1.964,1.964,0,0,0-.265,1.52A1.693,1.693,0,0,0,738.528,5205.3Zm4.536-11.42a4.224,4.224,0,0,0,.24-0.72c0.288,0.17.6,0.31,0.768,0.41a1.305,1.305,0,0,1,.5.36,0.789,0.789,0,0,1-.576.45,9.1,9.1,0,0,1-1.344.46A10.322,10.322,0,0,0,743.064,5193.88Zm10.513,1.53a9.239,9.239,0,0,0-1.776-1.08,6.856,6.856,0,0,0-1.344-.52,1.015,1.015,0,0,0-.937.04c-0.071.1,0.048,0.29,0.313,0.39a4.531,4.531,0,0,1,1.224.84,6.9,6.9,0,0,1,1.224,1.25c0.192,0.31.072,0.48-.36,0.5a3.264,3.264,0,0,0-1.08.26,0.5,0.5,0,0,0-.312.27c0,0.12.192,0.19,0.7,0.21,0.48,0,.912,0,1.248.03a2.521,2.521,0,0,1,.84.26,1.1,1.1,0,0,0,.888-0.05,0.769,0.769,0,0,0,.36-1A2.968,2.968,0,0,0,753.577,5195.41Zm-6.889,8.69c-1.416.15-2.4,0.87-2.544,1.95a2.436,2.436,0,0,0,1.224,2.64,4.953,4.953,0,0,0,3.864.07,2.362,2.362,0,0,0,1.153-2.21c0-.12-0.024-0.29-0.048-0.5,0.36,0.19.72,0.41,1.008,0.57a1.973,1.973,0,0,0,1.248.48,0.81,0.81,0,0,0,.24-1,1.755,1.755,0,0,0-.792-0.96,6.942,6.942,0,0,0-2.065-.8,3.566,3.566,0,0,1-.12-0.4c-0.264-.92-0.552-2.12-0.7-2.91a4.622,4.622,0,0,1,.023-2.09c0.144-.48.265-0.74,0.048-0.86a0.8,0.8,0,0,0-.7.57,2.9,2.9,0,0,0-.192,1.76c0.168,0.69.36,1.7,0.5,2.45,0.072,0.38.168,0.81,0.216,1.29A8.888,8.888,0,0,0,746.688,5204.1Zm2.473,1.37v0.05c-0.049.94-.217,1.68-0.937,1.97a3.1,3.1,0,0,1-2.184.07,1.365,1.365,0,0,1-1.08-1.42,1.686,1.686,0,0,1,1.656-1.17,5.174,5.174,0,0,1,2.424.43A0.516,0.516,0,0,0,749.161,5205.47Zm14.85-11.35a1.932,1.932,0,0,1,.552,1.51c0.024,0.84.048,2.62,0.072,3.79a15.428,15.428,0,0,0,.384,3.34,6.338,6.338,0,0,0,1.92,2.78,5.115,5.115,0,0,0,2.976,1.11c0.648,0.05,1.248-.05,1.32-0.43a1.458,1.458,0,0,0-.432-1.06,2.291,2.291,0,0,1,0-2.42,0.255,0.255,0,0,0,.024-0.39,0.463,0.463,0,0,0-.5.17,3.153,3.153,0,0,0-.7,1.06,1.675,1.675,0,0,0-.168.64,0.389,0.389,0,0,1-.288.36,2.539,2.539,0,0,1-1.248-.09,3.4,3.4,0,0,1-1.248-.84,4.563,4.563,0,0,1-.7-2.79c0-1.61,0-2.73.072-3.86a4.554,4.554,0,0,0-.336-2.64,2.674,2.674,0,0,0-1.1-1.01c-0.288-.14-0.84-0.36-0.984-0.05A0.944,0.944,0,0,0,764.011,5194.12Zm13.8,2.13a5.165,5.165,0,0,1,1.584.65,2.008,2.008,0,0,1,.912,1.85,8.858,8.858,0,0,0-.048,2.07,0.982,0.982,0,0,0,.984.64,0.782,0.782,0,0,0,.888-0.79,5.228,5.228,0,0,0-.288-2.35,4.545,4.545,0,0,0-1.848-2.07,5.305,5.305,0,0,0-1.968-.57c-0.432-.05-0.6.02-0.624,0.21C777.38,5196.06,777.476,5196.21,777.812,5196.25Zm11.919,9.49-0.288.4a9.264,9.264,0,0,1,2.713,3.68,1.067,1.067,0,0,0,.936.91,1.037,1.037,0,0,0,1.128-1.2,2.255,2.255,0,0,0-.7-1.61A9.486,9.486,0,0,0,789.731,5205.74Zm21.91-12.97a9.369,9.369,0,0,0-1.56-.81v15.5h1.392v-2.71h3.24v1.75h1.344v-12.74l0.648-.41a0.266,0.266,0,0,0,.169-0.24,3.848,3.848,0,0,0-1.441-1.46l-0.888,1.12h-2.9Zm-0.168.6h3.24v10.78h-3.24v-10.78Zm12.6,5.28h6.409l0.24-.48c-0.48-.6-1.032-1.22-1.656-1.87l-1.272,1.75h-3.721v-6.91a1.51,1.51,0,0,0,1.08-.69c0-.36-0.864-0.58-2.592-0.65v8.25h-6.1l0.216,0.6h5.88v12.08h1.512v-12.08Zm22.041-6.45c0.24,0.33.6,0.77,0.384,0.86a2.225,2.225,0,0,0-.744.51c-0.432.4-.648,0.64-0.5,0.79a1.991,1.991,0,0,0,1.032-.29c0.264-.1.528-0.19,0.648-0.22a1.02,1.02,0,0,1,.408.05,0.947,0.947,0,0,0,.913,0,0.979,0.979,0,0,0-.025-1.34,4.65,4.65,0,0,0-1.056-1.2,4.465,4.465,0,0,0-1.32-.67,0.988,0.988,0,0,0-.792-0.03,0.518,0.518,0,0,0,.216.6A5.532,5.532,0,0,1,846.115,5192.2Zm-5.784,16.9a0.7,0.7,0,0,0,.168-0.8,2.929,2.929,0,0,1,.48-1.63,13.361,13.361,0,0,1,1.68-2.13,5.628,5.628,0,0,1,2.04-1.64,4.959,4.959,0,0,1,2.472-.38,3.683,3.683,0,0,1,2.4.77,2.486,2.486,0,0,1,1.08,1.56,2.354,2.354,0,0,1-.336,1.82,7.432,7.432,0,0,0-.408.72,1.053,1.053,0,0,0,.48,1.47,4.781,4.781,0,0,0,2.328.33,4.4,4.4,0,0,0,1.968-.36,0.579,0.579,0,0,0-.024-0.93,1.454,1.454,0,0,0-1.392-.1,7.441,7.441,0,0,1-1.7.53,1.021,1.021,0,0,1-.936-0.24,0.936,0.936,0,0,1,.336-1.08,3.723,3.723,0,0,0,.888-1.61,2.431,2.431,0,0,0-.36-1.9,4.135,4.135,0,0,0-2.016-1.82,7.778,7.778,0,0,0-2.929-.27,5.129,5.129,0,0,0-2.352.92c1.08-1.06,2.016-1.85,2.9-2.59,0.865-.75,1.9-1.57,2.185-1.76a4.049,4.049,0,0,0,1.1-.74,0.855,0.855,0,0,0-.336-0.99,2.072,2.072,0,0,0-1.9-.07c-0.721.27-2.089,0.82-2.785,1.03a11.212,11.212,0,0,1-2.5.56,3.141,3.141,0,0,1-1.44-.27,0.705,0.705,0,0,0-.792-0.14,0.919,0.919,0,0,0,.12,1.1,1.929,1.929,0,0,0,1.464.84,4.5,4.5,0,0,0,2.16-.65,18.887,18.887,0,0,1,2.28-1.03,2.359,2.359,0,0,1,1.344-.17c0.12,0.2-.072.41-0.432,0.72-0.384.32-1.632,1.25-2.376,1.93s-2.16,2.01-2.832,2.64a34.316,34.316,0,0,0-2.5,2.71,4.725,4.725,0,0,0-.984,2.23,1.452,1.452,0,0,0,.36,1.25A1.222,1.222,0,0,0,840.331,5209.1Zm30.3-12.13c-0.576.68-2.016,2.45-2.929,3.44-0.888.98-1.632,1.97-2.112,2.59a6.28,6.28,0,0,0-1.176,1.85,1.343,1.343,0,0,0,.384,1.27,0.83,0.83,0,0,0,.864.19,1.913,1.913,0,0,0,.816-1.25,10.77,10.77,0,0,1,1.512-3.16,6.816,6.816,0,0,1,3.553-2.43,6.54,6.54,0,0,1,4.776.17,3.936,3.936,0,0,1,2.376,3.38,4.126,4.126,0,0,1-1.536,3.29,6.623,6.623,0,0,1-3.336,1.23,1.356,1.356,0,0,0-.336-1.85,3.448,3.448,0,0,0-2.784-.51c-0.888.17-1.921,0.82-1.921,1.61,0.025,0.79.648,1.37,2.305,1.71a9.072,9.072,0,0,0,4.248-.03,7.159,7.159,0,0,0,3.576-2.11,4.367,4.367,0,0,0,1.176-3.55,4.414,4.414,0,0,0-1.968-3.34,7.177,7.177,0,0,0-3.5-1.3,7.95,7.95,0,0,0-3.528.46,5.454,5.454,0,0,0-1.464.77s1.272-1.32,1.9-2.02c0.624-.72,1.512-1.8,2.256-2.54a12.075,12.075,0,0,1,1.9-1.63,0.93,0.93,0,0,0,.552-0.6,0.864,0.864,0,0,0-.312-0.87,1.953,1.953,0,0,0-1.416-.69,6.077,6.077,0,0,0-1.992.86c-0.888.48-1.968,0.98-2.784,1.32a3.4,3.4,0,0,1-1.489.36,2.83,2.83,0,0,1-.888-0.17,0.445,0.445,0,0,0-.6.22,0.915,0.915,0,0,0,.288.84,1.957,1.957,0,0,0,1.393.6,4.07,4.07,0,0,0,1.992-.6c0.768-.41,2.064-1.18,2.352-1.37a1.146,1.146,0,0,1,.888-0.22c0.12,0.12-.024.39-0.312,0.77C873.058,5194.07,871.21,5196.3,870.634,5196.97Zm-0.432,10.04c-0.144-.41.384-0.65,0.864-0.65,0.672,0.02,1.3.43,0.552,1.2A1.7,1.7,0,0,1,870.2,5207.01Zm32.751-5.67a10.71,10.71,0,0,0-2.9-2.52,7.943,7.943,0,0,0-1.368-.74,0.459,0.459,0,0,0-.528.07c-0.1.19,0.1,0.34,0.336,0.46a9.137,9.137,0,0,1,1.32.93,7.24,7.24,0,0,1,1.825,2.26,6.121,6.121,0,0,1,.7,3.31,3.447,3.447,0,0,1-2.353,3.07,5.283,5.283,0,0,1-4.536-.33,4.117,4.117,0,0,1-1.584-3.34c0-.43-0.024-0.81,0-1.2,0.216,0.07.456,0.12,0.672,0.19a8,8,0,0,0,2.592.22,0.929,0.929,0,0,0,.888-0.43,0.982,0.982,0,0,0-.48-0.91,1.964,1.964,0,0,0-1.272-.22,7.884,7.884,0,0,1-2.3-.34c0.048-.33.1-0.67,0.144-1.03,0.072-.58.144-1.13,0.24-1.68,0.216-.12.456-0.22,0.7-0.34a20.748,20.748,0,0,0,2.28-1.15,0.99,0.99,0,0,0,.552-1.2,1.436,1.436,0,0,0-1.44-.69c-0.432-.05-0.888-0.1-1.3-0.17,0.216-.79.456-1.66,0.672-2.31,0.336-1.08.432-1.89-.024-2.35a4.083,4.083,0,0,0-1.512-.93,0.594,0.594,0,0,0-.744.12,0.587,0.587,0,0,0,.264.64,2.228,2.228,0,0,1,.552.99,3.434,3.434,0,0,1,.072,1.25,9.845,9.845,0,0,1-.288,1.46c-0.048.26-.12,0.55-0.192,0.86a3.8,3.8,0,0,1-1.392-.64c-0.408-.34-0.624-0.84-1.032-0.7a1.119,1.119,0,0,0,.12,1.27,2.989,2.989,0,0,0,1.536,1.23c0.168,0.04.312,0.12,0.48,0.16-0.144.6-.288,1.35-0.456,2.33-0.456.31-.84,0.58-1.1,0.8a1.838,1.838,0,0,0-.864,1.44c0,0.59.384,0.95,1.176,1.44a2.855,2.855,0,0,0,.336.19c-0.024.33-.048,0.67-0.072,0.98a7.265,7.265,0,0,0,.744,3.99,4.256,4.256,0,0,0,2.976,1.92,7.781,7.781,0,0,0,3.792-.22,6.277,6.277,0,0,0,2.881-1.85,4.436,4.436,0,0,0,.96-2.85A6.143,6.143,0,0,0,902.953,5201.34Zm-7.825-4.44c0.744,0.03.6,0.39,0.336,0.58-0.144.09-.552,0.36-0.984,0.62,0.072-.36.144-0.72,0.24-1.05a0.369,0.369,0,0,0,.048-0.17A2.481,2.481,0,0,0,895.128,5196.9Zm-2.616,4.11c-0.312-.34-0.264-0.7.264-1.04,0.1-.04.192-0.12,0.288-0.16-0.072.43-.144,0.96-0.192,1.49C892.752,5201.2,892.632,5201.1,892.512,5201.01Zm39.279-5.21a7.539,7.539,0,0,0-2.784-2.81,8.611,8.611,0,0,0-4.248-1.1,10.783,10.783,0,0,0-5.041,1.17,11.353,11.353,0,0,0-3.408,2.79,7.912,7.912,0,0,0-1.8,3.72,5.843,5.843,0,0,0,.36,3.96,2.943,2.943,0,0,0,2.712,2.04,4.782,4.782,0,0,0,3.5-2.26,12.071,12.071,0,0,0,1.873-4.68,18.06,18.06,0,0,0,.384-3.67c0-.65-0.024-1.51-0.072-2.04,0.24-.03.48-0.07,0.7-0.1a7.476,7.476,0,0,1,4.632.99,5.519,5.519,0,0,1,2.352,3.28,9.77,9.77,0,0,1,.336,4.42,6.064,6.064,0,0,1-2.28,3.77,11.178,11.178,0,0,1-6.456,2.04c-0.649,0-1.177-.05-1.417-0.07a0.3,0.3,0,0,0-.384.19c-0.024.14,0.12,0.26,0.384,0.29a11.581,11.581,0,0,0,4.3-.03,12.426,12.426,0,0,0,4.392-1.6,5.9,5.9,0,0,0,2.592-3.36,9.638,9.638,0,0,0,.336-3.68A6.689,6.689,0,0,0,931.791,5195.8Zm-9.481,1.1a10.347,10.347,0,0,1-1.536,4.28,4.875,4.875,0,0,1-2.712,2.2c-1.056.34-1.968,0.15-2.328-.76a6.317,6.317,0,0,1,.192-4.06,8.8,8.8,0,0,1,3.192-3.91,10.327,10.327,0,0,1,3.36-1.54A19.417,19.417,0,0,1,922.31,5196.9Zm21.367,6.46c-0.408.94-.816,1.78-1.128,2.52a6.354,6.354,0,0,0-.7,1.75,1.57,1.57,0,0,0,.384,1.32,0.662,0.662,0,0,0,.984-0.24,40.257,40.257,0,0,0,1.608-3.96c0.336-1.05,1.032-3.24,1.224-3.89s0.792-2.37,1.009-3.07c0.047-.19.12-0.46,0.192-0.77a8.854,8.854,0,0,0,1.2-.21,5.327,5.327,0,0,0,2.208-1.18c0.384-.43.48-0.67,0.312-0.96a1.716,1.716,0,0,0-1.1-.53,7.244,7.244,0,0,1-1.728-.6,2.451,2.451,0,0,0,0-1.25,1.911,1.911,0,0,0-.864-1.29,0.991,0.991,0,0,0-1.057-.19,0.8,0.8,0,0,0,.1,1,3.254,3.254,0,0,1,.528,1.61,9.637,9.637,0,0,1-.288,2.55,6.544,6.544,0,0,1-1.92.33,3.818,3.818,0,0,1-1.2-.07c-0.336-.1-0.6-0.24-0.7-0.26a0.324,0.324,0,0,0-.456,0,0.7,0.7,0,0,0,.48.88,6,6,0,0,0,2.424.34c0.312,0,.672-0.02,1.008-0.05-0.312,1.01-.744,2.26-0.96,2.79C944.925,5200.67,944.109,5202.4,943.677,5203.36Zm4.945-8.76a0.256,0.256,0,0,1,0,.43,9.4,9.4,0,0,1-.96.5c0.1-.36.168-0.64,0.192-0.81,0.024-.12.072-0.31,0.12-0.51C948.262,5194.38,948.526,5194.53,948.622,5194.6Zm6.192,2.85a7.2,7.2,0,0,0-2.448,2.36,0.544,0.544,0,0,0-.072.52,0.747,0.747,0,0,0,.456-0.43,4.281,4.281,0,0,1,1.08-.89c0.456-.24,1.08-0.62,1.632-0.86,0.576-.24,1.008-0.43,1.176-0.5a1.042,1.042,0,0,0,.648-0.56,1.027,1.027,0,0,0-.48-1.03,2.849,2.849,0,0,0-1.608-.41,7.291,7.291,0,0,0-1.68.15,15.522,15.522,0,0,0-2.04.57c-0.288.1-.792,0.36-0.624,0.65a1.021,1.021,0,0,0,.816,0,8.4,8.4,0,0,1,1.248-.26,6.061,6.061,0,0,1,1.776.02,0.851,0.851,0,0,1,.6.27A1.055,1.055,0,0,1,954.814,5197.45Zm2.592,9.73a18.021,18.021,0,0,0-2.04.26,7,7,0,0,1-2.232-.07,3.305,3.305,0,0,1-2.04-1.25,2.77,2.77,0,0,1-.12-2.42,7.6,7.6,0,0,1,.864-2c0.168-.24.192-0.45,0.072-0.52-0.1-.08-0.24.04-0.408,0.26a9.434,9.434,0,0,0-1.032,1.92,3.927,3.927,0,0,0-.312,3.31c0.528,1.18,1.392,1.85,3.336,2.16a17.668,17.668,0,0,0,4.464.15c0.649-.08,1.2-0.56.889-1.08A1.623,1.623,0,0,0,957.406,5207.18Zm1.032-11.65a0.612,0.612,0,0,0,.361-0.96,3.418,3.418,0,0,0-1.585-1.08,4.638,4.638,0,0,0-1.464-.31,0.473,0.473,0,0,0-.432.1,0.4,0.4,0,0,0,.216.53,9.1,9.1,0,0,1,1.536,1.22A1.643,1.643,0,0,0,958.438,5195.53Zm2.089-1.1a0.62,0.62,0,0,0,.336-0.98,3.26,3.26,0,0,0-1.632-.99,5.332,5.332,0,0,0-1.489-.26,0.545,0.545,0,0,0-.432.12,0.36,0.36,0,0,0,.24.5,3.976,3.976,0,0,1,1.633,1.11A1.415,1.415,0,0,0,960.527,5194.43Zm6.043,16.15H972.5V5193.3h-1.056v16.23H966.57v1.05Zm-443.449,31.88c-0.48-.72-1.848-0.56-2.76-0.24a17.435,17.435,0,0,1-3.84.69,4.427,4.427,0,0,1-3.5-.81c-1.032-1.04-.936-2.57.84-3.97a23.875,23.875,0,0,1,3.744-2.28,20.5,20.5,0,0,0,3.864-2.16,1.458,1.458,0,0,0,.072-2.16,2.3,2.3,0,0,0-1.224-.55c-0.456-.05-0.84.19-0.528,0.58a0.892,0.892,0,0,1-.1,1.22,9.286,9.286,0,0,1-2.088,1.44c-0.456.29-.864,0.53-1.272,0.79a1.107,1.107,0,0,1-.36-0.88,22.032,22.032,0,0,1,.312-2.55,14.978,14.978,0,0,1,.576-1.97,2.115,2.115,0,0,0,.048-1.53,4.047,4.047,0,0,0-1.128-1.32c-0.36-.27-0.936-0.51-1.152-0.17a1,1,0,0,0,.384.89,2.671,2.671,0,0,1,.384,1.53c-0.048.68-.168,1.61-0.24,2.43a10.9,10.9,0,0,0-.168,2.71,2.072,2.072,0,0,0,.912,1.13c-0.336.21-.7,0.43-1.08,0.69a10.946,10.946,0,0,0-3.048,2.93,3.331,3.331,0,0,0,.288,3.75c0.864,1.01,2.736,1.34,4.9,1.37a32.881,32.881,0,0,0,5.136-.34C522.906,5243.56,523.626,5243.2,523.121,5242.46Zm19.291-9.05v13.32h1.344v-1.51h9.793l0.264-.51a12.269,12.269,0,0,0-1.416-1.65l-1.224,1.56h-2.688v-4.25h3.792l0.264-.51c-0.408-.52-0.84-1.05-1.3-1.53l-1.08,1.44h-1.68v-4.03h3.768l0.24-.49a12.531,12.531,0,0,0-1.248-1.56l-1.08,1.44h-1.68v-3.79h4.536l0.24-.45a10.177,10.177,0,0,0-1.368-1.61l-1.056,1.46h-2.928a21.267,21.267,0,0,0,2.064-3.72c0.648-.07.984-0.21,0.984-0.41,0-.36-0.72-0.72-2.184-1.12a27.436,27.436,0,0,1-1.512,5.06l-0.072.19h-3.337a34.358,34.358,0,0,0,1.392-3.93c0.72-.12,1.08-0.29,1.08-0.48,0-.34-0.72-0.65-2.184-1.01q-1.512,6.765-4.272,10.39a10.3,10.3,0,0,0-.984-1.03l-1.08,1.39h-4.657l0.216,0.6h6.577l0.264-.41A21.808,21.808,0,0,0,542.412,5233.41Zm1.344-2.07h3.36v3.79h-3.36v-3.79Zm0,4.4h3.36v4.03h-3.36v-4.03Zm0,4.63h3.36v4.25h-3.36v-4.25Zm-8.929-1.23a8.834,8.834,0,0,0-1.56-.79v8.38h1.344v-1.54h3.529v1.25h1.32v-6.24l0.552-.36a0.414,0.414,0,0,0,.192-0.29,3.993,3.993,0,0,0-1.416-1.44l-0.816,1.03h-3.145Zm-0.216.6h3.529v4.85h-3.529v-4.85Zm3.169-6.67h-4.609l0.192,0.6h6.6l0.264-.41a13.041,13.041,0,0,0-1.392-1.58Zm-0.192-6.02h-4.033l0.168,0.6h6.1l0.264-.44a16.461,16.461,0,0,0-1.416-1.56Zm1.272,3.02H532l0.216,0.6h9l0.24-.43a15.764,15.764,0,0,0-1.488-1.61Zm25,9.79a15.507,15.507,0,0,1-1.537,2.26,4.809,4.809,0,0,0-1.08,1.7,0.781,0.781,0,0,0,.7.84c0.36,0.08.768-.52,1.032-1.03,0.289-.5,1.081-1.99,1.465-2.73,0.552-1.06,1.2-2.31,1.728-3.49s1.1-2.68,1.536-3.86c0.024-.1.072-0.19,0.1-0.29,0.168-.07.312-0.14,0.432-0.19a4.008,4.008,0,0,1,2.616-.43,2.526,2.526,0,0,1,1.176,2.4,13.229,13.229,0,0,1-.552,3.96,4.8,4.8,0,0,1-1.92,2.64c-0.624.34-1.872-.31-2.28-0.46a0.893,0.893,0,0,0-1.056.1,1.538,1.538,0,0,0,.936.82,6.079,6.079,0,0,1,1.3,1.05,1.4,1.4,0,0,0,1.032.7,3.238,3.238,0,0,0,1.632-1.01,7.054,7.054,0,0,0,1.824-3.31,10.509,10.509,0,0,0,.432-4.56c-0.24-1.49-.816-2.84-2.112-3.22a3.71,3.71,0,0,0-2.376.14c-0.144.05-.408,0.15-0.7,0.27a11.582,11.582,0,0,0,.552-2.28,4.456,4.456,0,0,0-.288-2.23,0.968,0.968,0,0,0-1.224-.44c-0.36.27-.168,0.65,0.048,0.99a3.17,3.17,0,0,1,.312,1.73,10.884,10.884,0,0,1-.456,2.64c-0.336.12-.648,0.24-0.864,0.33a16.989,16.989,0,0,1-2.3.75,4.276,4.276,0,0,1-1.537,0,0.77,0.77,0,0,0-.888.38,0.937,0.937,0,0,0,.768.98,2.569,2.569,0,0,0,1.777.08c0.408-.17,1.08-0.56,1.632-0.82,0.24-.12.576-0.29,0.96-0.48-0.384.96-.864,2.04-1.272,2.88C564.84,5237.85,564.288,5239.07,563.856,5239.86Zm15.769-6.38a6.811,6.811,0,0,0-1.536-1.42,0.849,0.849,0,0,0-.768-0.21,0.524,0.524,0,0,0,.24.72,3.418,3.418,0,0,1,.936,1.12,3.6,3.6,0,0,1,.312,1.85,1.878,1.878,0,0,1-.264,1.18,1.283,1.283,0,0,1-.864.33,4.306,4.306,0,0,1-.768.1,0.441,0.441,0,0,0-.432.36,0.52,0.52,0,0,0,.5.41,15.593,15.593,0,0,0,1.7.24,5.3,5.3,0,0,0,1.776-.03c0.528-.14.72-0.64,0.576-1.63A6.129,6.129,0,0,0,579.625,5233.48Zm11.667,6.38a15.506,15.506,0,0,1-1.536,2.26,4.809,4.809,0,0,0-1.08,1.7,0.781,0.781,0,0,0,.672.84,1.534,1.534,0,0,0,1.056-1.03c0.264-.5,1.08-1.99,1.464-2.73,0.528-1.06,1.177-2.31,1.7-3.49s1.057-2.71,1.537-3.86c0.048-.1.072-0.19,0.12-0.29a6.24,6.24,0,0,1,3.024-.62,2.5,2.5,0,0,1,1.176,2.4,12.5,12.5,0,0,1-.552,3.96,4.785,4.785,0,0,1-1.9,2.64c-0.648.34-1.872-.31-2.28-0.46a0.873,0.873,0,0,0-1.056.1,1.544,1.544,0,0,0,.912.82,5.085,5.085,0,0,1,1.3,1.05,1.435,1.435,0,0,0,1.056.7,3.238,3.238,0,0,0,1.632-1.01,7.159,7.159,0,0,0,1.824-3.31,10.477,10.477,0,0,0,.408-4.56c-0.24-1.49-.792-2.84-2.088-3.22a3.8,3.8,0,0,0-2.4.14c-0.144.05-.384,0.15-0.672,0.27a11.582,11.582,0,0,0,.552-2.28,4.456,4.456,0,0,0-.288-2.23,1,1,0,0,0-1.248-.44,0.721,0.721,0,0,0,.048.99,3.379,3.379,0,0,1,.336,1.73,10.884,10.884,0,0,1-.456,2.64c-0.336.12-.648,0.24-0.864,0.33a18.175,18.175,0,0,1-2.3.75,3.789,3.789,0,0,1-1.56,0,0.824,0.824,0,0,0-.888.38,0.952,0.952,0,0,0,.768.98,2.457,2.457,0,0,0,1.776.08c0.408-.17,1.1-0.56,1.657-0.82,0.216-.12.576-0.29,0.936-0.48-0.36.96-.84,2.04-1.249,2.88C592.252,5237.85,591.724,5239.07,591.292,5239.86Zm15.77-6.38a7.287,7.287,0,0,0-1.56-1.42,0.839,0.839,0,0,0-.768-0.21c-0.217.24,0.048,0.55,0.24,0.72a3.464,3.464,0,0,1,.96,1.12,3.6,3.6,0,0,1,.288,1.85,2.1,2.1,0,0,1-.24,1.18,1.381,1.381,0,0,1-.864.33,4.562,4.562,0,0,1-.793.1,0.4,0.4,0,0,0-.408.36,0.49,0.49,0,0,0,.48.41c0.337,0.07,1.225.19,1.729,0.24a6.067,6.067,0,0,0,1.752-.03c0.528-.14.744-0.64,0.6-1.63A6.129,6.129,0,0,0,607.062,5233.48Zm0.312-2.76a0.643,0.643,0,0,0,.384-0.96,3.319,3.319,0,0,0-1.608-1.08,5.922,5.922,0,0,0-1.441-.34,0.53,0.53,0,0,0-.456.12c-0.12.17,0,.36,0.217,0.51a9.389,9.389,0,0,1,1.56,1.24A1.608,1.608,0,0,0,607.374,5230.72Zm2.112-1.11a0.627,0.627,0,0,0,.312-0.98,3.512,3.512,0,0,0-1.632-1.01,5.068,5.068,0,0,0-1.464-.24,0.6,0.6,0,0,0-.456.12,0.4,0.4,0,0,0,.24.51,3.938,3.938,0,0,1,1.656,1.1A1.425,1.425,0,0,0,609.486,5229.61Zm12.023,10.18-0.337-.17c-0.456-.24-0.888-0.45-1.344-0.64v7.75h1.464v-1.49h11.161v1.49h1.465v-5.86l0.624-.41a0.373,0.373,0,0,0,.216-0.31,3.939,3.939,0,0,0-1.512-1.51l-1.009,1.15H621.509Zm-0.217.6h11.161v4.25H621.292v-4.25Zm9.409-13.15H620.4l0.24,0.6h12.89l0.264-.48a16,16,0,0,0-1.729-1.75Zm0.384,6.26H620.092l0.264,0.6H633.75l0.288-.5a19.878,19.878,0,0,0-1.681-1.59Zm-0.048,3.1H620.092l0.264,0.6H633.75l0.288-.48a13.663,13.663,0,0,0-1.681-1.68Zm2.665-6.19H616.78l0.264,0.6H636.8l0.264-.48a12.289,12.289,0,0,0-1.872-1.85Zm23.572,10.1a7.261,7.261,0,0,1-2.064,1.92,13.659,13.659,0,0,1-2.832,1.2,5.258,5.258,0,0,1-1.44.24,0.353,0.353,0,0,0-.36.29,0.364,0.364,0,0,0,.408.19,6.937,6.937,0,0,0,1.728-.26,18.872,18.872,0,0,0,2.928-1.11,7.293,7.293,0,0,0,2.76-2.08,4.359,4.359,0,0,0,.816-3.08,3.763,3.763,0,0,0-1.2-2.52,4.294,4.294,0,0,0-2.952-1.22,7.159,7.159,0,0,0-2.856.72,17.931,17.931,0,0,0-2.184,1.08c-0.576.31-1.9,1.08-2.281,1.27a3.271,3.271,0,0,1-1.272.51,3.866,3.866,0,0,1-1.248-.15,0.548,0.548,0,0,0-.648.1,0.842,0.842,0,0,0,.456.86,3.173,3.173,0,0,0,1.824.72,3.626,3.626,0,0,0,2.209-.86c0.672-.56,1.512-1.28,2.064-1.68a12.963,12.963,0,0,1,2.016-1.25,3.964,3.964,0,0,1,2.04-.31,2.974,2.974,0,0,1,2.088.96,2.7,2.7,0,0,1,.672,2.06A5.073,5.073,0,0,1,657.274,5240.51Zm12.256-7.85a10.686,10.686,0,0,0,2.736-.86c0.864-.31,2.425-0.99,3.433-1.37,0.456-.17.912-0.31,1.368-0.43a12,12,0,0,0-1.272,1.1,4.626,4.626,0,0,0-1.176,2.16,27.476,27.476,0,0,0-.6,3.22,14.574,14.574,0,0,0,.048,3.84,3.663,3.663,0,0,0,1.2,2.47,4.92,4.92,0,0,0,2.88,1.03,13.551,13.551,0,0,0,2.568,0c0.576-.04.816-0.45,0.6-0.76a1.9,1.9,0,0,0-1.1-.77,5.788,5.788,0,0,0-1.872-.07,3.04,3.04,0,0,1-2.184-.53,2.8,2.8,0,0,1-1.033-1.99,16.077,16.077,0,0,1,.073-4.23,13.546,13.546,0,0,1,.576-2.71,5.219,5.219,0,0,1,1.464-1.99c0.48-.41,1.008-0.82,1.392-1.11,0.048,0,.12-0.02.168-0.02a19.426,19.426,0,0,1,2.976-.31,8.939,8.939,0,0,1,1.608.21,0.736,0.736,0,0,0,.888-0.26,0.875,0.875,0,0,0-.528-1.06,4.009,4.009,0,0,0-2.352-.24c-0.84.12-2.688,0.6-4.3,1.01-1.632.43-3.481,1.01-4.321,1.27a15.912,15.912,0,0,1-3.168.75,3.85,3.85,0,0,1-1.56-.27,0.918,0.918,0,0,0-1.032-.07,1.145,1.145,0,0,0,.384,1.3A2.585,2.585,0,0,0,669.53,5232.66Zm24.127-2.54a1.932,1.932,0,0,1,.552,1.51c0.024,0.84.048,2.62,0.072,3.79a15.353,15.353,0,0,0,.384,3.34,6.338,6.338,0,0,0,1.92,2.78,5.115,5.115,0,0,0,2.976,1.11c0.649,0.05,1.249-.05,1.321-0.43a1.458,1.458,0,0,0-.432-1.06,2.291,2.291,0,0,1,0-2.42,0.255,0.255,0,0,0,.024-0.39,0.463,0.463,0,0,0-.5.17,3.17,3.17,0,0,0-.7,1.06,1.675,1.675,0,0,0-.168.64,0.388,0.388,0,0,1-.288.36,2.539,2.539,0,0,1-1.248-.09,3.4,3.4,0,0,1-1.248-.84,4.563,4.563,0,0,1-.7-2.79c0-1.61,0-2.73.072-3.86a4.554,4.554,0,0,0-.336-2.64,2.674,2.674,0,0,0-1.1-1.01c-0.288-.14-0.84-0.36-0.984-0.05A0.944,0.944,0,0,0,693.657,5230.12Zm13.8,2.13a5.165,5.165,0,0,1,1.584.65,2.008,2.008,0,0,1,.912,1.85,8.858,8.858,0,0,0-.048,2.07,0.982,0.982,0,0,0,.984.64,0.783,0.783,0,0,0,.889-0.79,5.228,5.228,0,0,0-.288-2.35,4.554,4.554,0,0,0-1.849-2.07,5.305,5.305,0,0,0-1.968-.57c-0.432-.05-0.6.02-0.624,0.21C707.026,5232.06,707.122,5232.21,707.458,5232.25Zm14.3,7.11c-0.408.94-.816,1.78-1.128,2.52a6.354,6.354,0,0,0-.7,1.75,1.5,1.5,0,0,0,.384,1.32,0.662,0.662,0,0,0,.984-0.24,40.257,40.257,0,0,0,1.608-3.96c0.336-1.05,1.032-3.24,1.224-3.89s0.793-2.37.985-3.07a6.53,6.53,0,0,0,.215-0.77,9.528,9.528,0,0,0,1.2-.21,5.006,5.006,0,0,0,2.184-1.18,0.785,0.785,0,0,0,.336-0.96,1.633,1.633,0,0,0-1.1-.5,8.514,8.514,0,0,1-1.728-.63,2.748,2.748,0,0,0,0-1.25,1.99,1.99,0,0,0-.865-1.29,0.989,0.989,0,0,0-1.056-.19,0.77,0.77,0,0,0,.1,1,3.526,3.526,0,0,1,.529,1.61,9.809,9.809,0,0,1-.288,2.55,6.555,6.555,0,0,1-1.921.33,3.818,3.818,0,0,1-1.2-.07c-0.336-.1-0.6-0.24-0.7-0.26a0.324,0.324,0,0,0-.456,0,0.679,0.679,0,0,0,.48.88,6,6,0,0,0,2.424.34c0.312,0,.648-0.02,1.008-0.05-0.312,1.01-.744,2.26-0.984,2.79C722.985,5236.67,722.193,5238.4,721.761,5239.36Zm4.945-8.76a0.268,0.268,0,0,1,0,.43,9.35,9.35,0,0,1-.961.5c0.073-.36.145-0.64,0.193-0.81,0.024-.12.072-0.31,0.12-0.51C726.346,5230.38,726.61,5230.53,726.706,5230.6Zm6.168,2.85a8.652,8.652,0,0,0-1.32.99,7.53,7.53,0,0,0-1.1,1.37c-0.12.19-.192,0.48-0.072,0.52a0.81,0.81,0,0,0,.456-0.43,4.281,4.281,0,0,1,1.08-.89c0.456-.24,1.08-0.62,1.632-0.86s1.008-.43,1.176-0.5a1,1,0,0,0,.624-0.56,0.987,0.987,0,0,0-.48-1.03,2.718,2.718,0,0,0-1.584-.41,5.291,5.291,0,0,0-1.68.15,21.167,21.167,0,0,0-2.04.57c-0.288.12-.792,0.36-0.624,0.65a0.955,0.955,0,0,0,.792,0,9.126,9.126,0,0,1,1.248-.26,6.038,6.038,0,0,1,1.776.02,0.978,0.978,0,0,1,.624.27A1.03,1.03,0,0,1,732.874,5233.45Zm2.592,9.73a17.013,17.013,0,0,0-2.016.26,7,7,0,0,1-2.232-.07,3.362,3.362,0,0,1-2.064-1.25,2.784,2.784,0,0,1-.1-2.42,8.9,8.9,0,0,1,.84-2c0.168-.24.216-0.45,0.1-0.52-0.1-.08-0.264.04-0.408,0.26a9.434,9.434,0,0,0-1.032,1.92,3.9,3.9,0,0,0-.312,3.34c0.528,1.15,1.368,1.82,3.312,2.13a17.87,17.87,0,0,0,4.488.15c0.648-.08,1.2-0.56.889-1.08A1.69,1.69,0,0,0,735.466,5243.18Zm12.669-2.28a3.066,3.066,0,0,0-2.977,3,2.774,2.774,0,0,0,1.705,2.68,2.554,2.554,0,0,0,1.3.32,2.909,2.909,0,0,0,2.16-.94,2.992,2.992,0,0,0,.84-2.06A3.063,3.063,0,0,0,748.135,5240.9Zm0.024,0.84a2.231,2.231,0,0,1,1.248.4,2.135,2.135,0,0,1,.144,3.39,1.98,1.98,0,0,1-1.392.53,2.048,2.048,0,0,1-1.824-1.01,2.231,2.231,0,0,1-.337-1.15,2.059,2.059,0,0,1,.576-1.47A2.208,2.208,0,0,1,748.159,5241.74Zm32.031-6.51a1.107,1.107,0,0,0,.936-0.34,0.686,0.686,0,0,0-.24-0.93,2.043,2.043,0,0,0-1.224-.48,7.467,7.467,0,0,0-1.536.36c-0.384.12-.96,0.33-1.536,0.55-0.552.22-1.68,0.72-2.544,1.06-0.84.33-2.688,1.1-3.529,1.41-0.84.29-1.824,0.65-2.208,0.72a0.946,0.946,0,0,1-.792-0.04,2.946,2.946,0,0,1,.744-0.99c0.408-.48,1.8-1.99,2.448-2.62s2.329-2.3,3.073-3c0.768-.72,1.992-1.72,2.3-2.01a1.623,1.623,0,0,0,.6-0.99,0.786,0.786,0,0,0-.456-0.72,2.524,2.524,0,0,0-.84-0.33,1.7,1.7,0,0,0-1.008.14,13.549,13.549,0,0,1-2.424.6,9,9,0,0,1-1.584.15,1.759,1.759,0,0,1-.673-0.24,0.466,0.466,0,0,0-.528-0.12,1.058,1.058,0,0,0,.168,1.41,2.456,2.456,0,0,0,1.921.43,11.42,11.42,0,0,0,2.088-.67,1.328,1.328,0,0,1,.984-0.33c0.168,0.12-.072.4-0.432,0.74-0.384.36-1.992,2.3-2.616,2.9-0.624.63-1.993,2.16-2.617,2.86-0.648.7-1.536,1.71-2.088,2.19a1.354,1.354,0,0,0-.648,1.34,2.653,2.653,0,0,0,.648.84,1.162,1.162,0,0,0,1.08.07c0.432-.19,2.161-0.91,2.664-1.1,0.529-.19,1.417-0.63,1.609-0.7,0.192-.09.384-0.02,0.192,0.17a4.78,4.78,0,0,0-.984,1.7,4.152,4.152,0,0,0,.048,2.86,5,5,0,0,0,2.016,1.9,7.6,7.6,0,0,0,2.736.84c0.912,0.09,1.536.24,1.752-.24a0.785,0.785,0,0,0-.216-0.96,1.647,1.647,0,0,0-1.272-.6,6.871,6.871,0,0,1-2.616-.51,2.329,2.329,0,0,1-1.44-1.53,3.829,3.829,0,0,1,.216-2.57,3.037,3.037,0,0,1,.96-1.37,16.583,16.583,0,0,1,2.424-1.15,23.5,23.5,0,0,1,2.352-.46C778.894,5235.35,779.71,5235.25,780.19,5235.23Zm27.8-3.43a7.539,7.539,0,0,0-2.784-2.81,8.611,8.611,0,0,0-4.248-1.1,10.783,10.783,0,0,0-5.041,1.17,11.353,11.353,0,0,0-3.408,2.79,7.912,7.912,0,0,0-1.8,3.72,5.843,5.843,0,0,0,.36,3.96,2.943,2.943,0,0,0,2.712,2.04,4.782,4.782,0,0,0,3.5-2.26,12.056,12.056,0,0,0,1.873-4.68,18.06,18.06,0,0,0,.384-3.67c0-.65-0.024-1.51-0.072-2.04,0.24-.03.48-0.07,0.7-0.1a7.476,7.476,0,0,1,4.632.99,5.519,5.519,0,0,1,2.352,3.28,9.77,9.77,0,0,1,.336,4.42,6.064,6.064,0,0,1-2.28,3.77,11.178,11.178,0,0,1-6.456,2.04c-0.649,0-1.177-.05-1.417-0.07a0.3,0.3,0,0,0-.384.19c-0.024.14,0.12,0.26,0.384,0.29a11.581,11.581,0,0,0,4.3-.03,12.426,12.426,0,0,0,4.392-1.6,5.9,5.9,0,0,0,2.592-3.36,9.638,9.638,0,0,0,.336-3.68A6.689,6.689,0,0,0,807.987,5231.8Zm-9.481,1.1a10.347,10.347,0,0,1-1.536,4.28,4.875,4.875,0,0,1-2.712,2.2c-1.056.34-1.968,0.15-2.328-.76a6.317,6.317,0,0,1,.192-4.06,8.8,8.8,0,0,1,3.192-3.91,10.322,10.322,0,0,1,3.361-1.54A19.505,19.505,0,0,1,798.506,5232.9Zm33.2-1.8a0.693,0.693,0,0,0,.264-0.53,1.427,1.427,0,0,0-.768-1.05,37.472,37.472,0,0,0,3.768-1.92l0.672-.17a0.3,0.3,0,0,0,.288-0.26c0-.27-0.528-0.84-1.584-1.73l-0.864.96h-9.121l0.336,0.6h8.713a22.4,22.4,0,0,1-2.808,2.13l-0.144-.07a14.615,14.615,0,0,0-3.433-1.13l-0.24.48a8.878,8.878,0,0,1,3.577,2.31,4.314,4.314,0,0,1,.36.38h-4.657c-0.48-.24-1.008-0.45-1.584-0.67v12.79h1.344v-4.99h3.937v4.42H831.1v-4.42h4.224v2.31a0.611,0.611,0,0,1-.744.64,19.614,19.614,0,0,1-2.256-.14v0.6a7.309,7.309,0,0,1,1.68.43,0.977,0.977,0,0,1,.6.99c1.392,0,2.088-.6,2.088-1.78v-9.07l0.528-.36a0.43,0.43,0,0,0,.216-0.32,4.077,4.077,0,0,0-1.416-1.44l-0.888,1.01H831.7Zm-5.881.6h3.937v2.52h-3.937v-2.52Zm9.5,5.93H831.1v-2.81h4.224v2.81Zm0-3.41H831.1v-2.52h4.224v2.52Zm-5.568.6v2.81h-3.937v-2.81h3.937Zm-8.041,7.01v-5.45l0.6-.36a0.273,0.273,0,0,0,.168-0.26,3.988,3.988,0,0,0-1.44-1.54l-0.912,1.16h-3.241l0.24,0.59h3.241v6.53a19.189,19.189,0,0,1-3.409,2.38c0.672,1.2,1.177,1.8,1.489,1.8,0.192,0,.288-0.31.288-0.94a21.481,21.481,0,0,0,2.568-3.28,6.455,6.455,0,0,0,3.288,2.76c1.488,0.6,4.032.91,7.657,0.91h5.688a4.162,4.162,0,0,1,.72-1.56c-2.664.21-4.92,0.33-6.744,0.33a24.742,24.742,0,0,1-6.865-.72A5.651,5.651,0,0,1,821.719,5241.83Zm-3.6-15.7-0.336.44a7.6,7.6,0,0,1,2.352,3.21,1.047,1.047,0,0,0,.888.89,0.8,0.8,0,0,0,.864-0.96C821.887,5228.46,820.639,5227.26,818.119,5226.13Zm36.629,16.57a8.482,8.482,0,0,1-3.888,1.89,11.586,11.586,0,0,1-1.632.24c-0.36.05-.456,0.15-0.48,0.27,0,0.12.192,0.24,0.576,0.26a9.467,9.467,0,0,0,1.992-.19,12.39,12.39,0,0,0,3.072-.96,8.2,8.2,0,0,0,3.048-2.47,7.043,7.043,0,0,0,1.417-3.41,8.926,8.926,0,0,0-.168-4.01,5.473,5.473,0,0,0-2.017-3.07,4.549,4.549,0,0,0-3.6-.87,5.866,5.866,0,0,0-2.952,1.42,3.551,3.551,0,0,0-.888,1.29,7.263,7.263,0,0,1,.744-2.8,3.121,3.121,0,0,0-.168-2.84,2.213,2.213,0,0,0-1.272-.98,0.674,0.674,0,0,0-.816.17,0.818,0.818,0,0,0,.408.77,2.038,2.038,0,0,1,.624,1.72,14.336,14.336,0,0,1-.456,2.64,10.525,10.525,0,0,0-.312,3.39,7.01,7.01,0,0,0,.84,3.31c0.528,0.84,1.248,1.39,1.848,1.06,0.624-.34.384-1.3,0.048-1.85a4.455,4.455,0,0,1-1.008-2.52,3.692,3.692,0,0,1,1.2-2.83,4.143,4.143,0,0,1,2.328-1.13,3.679,3.679,0,0,1,2.9.81,4.018,4.018,0,0,1,1.321,2.84,10.115,10.115,0,0,1-.409,4.44A7.559,7.559,0,0,1,854.748,5242.7Zm16.19-3.34c-0.408.94-.816,1.78-1.128,2.52a6.354,6.354,0,0,0-.7,1.75,1.57,1.57,0,0,0,.384,1.32,0.662,0.662,0,0,0,.984-0.24,40.257,40.257,0,0,0,1.608-3.96c0.336-1.05,1.032-3.24,1.224-3.89s0.792-2.37,1.008-3.07c0.048-.19.12-0.46,0.192-0.77a8.827,8.827,0,0,0,1.2-.21,5.332,5.332,0,0,0,2.209-1.18c0.384-.43.48-0.67,0.312-0.96a1.716,1.716,0,0,0-1.1-.53,7.251,7.251,0,0,1-1.729-.6,2.451,2.451,0,0,0,0-1.25,1.911,1.911,0,0,0-.864-1.29,0.989,0.989,0,0,0-1.056-.19,0.8,0.8,0,0,0,.1,1,3.254,3.254,0,0,1,.528,1.61,9.722,9.722,0,0,1-.288,2.55,6.544,6.544,0,0,1-1.92.33,3.818,3.818,0,0,1-1.2-.07c-0.336-.1-0.6-0.24-0.7-0.26a0.324,0.324,0,0,0-.456,0,0.7,0.7,0,0,0,.48.88,6,6,0,0,0,2.424.34c0.312,0,.672-0.02,1.008-0.05-0.312,1.01-.744,2.26-0.96,2.79C872.186,5236.67,871.37,5238.4,870.938,5239.36Zm4.944-8.76a0.256,0.256,0,0,1,0,.43,9.4,9.4,0,0,1-.96.5c0.1-.36.168-0.64,0.192-0.81,0.024-.12.072-0.31,0.12-0.51C875.522,5230.38,875.786,5230.53,875.882,5230.6Zm6.193,2.85a7.2,7.2,0,0,0-2.448,2.36,0.544,0.544,0,0,0-.072.52,0.747,0.747,0,0,0,.456-0.43,4.281,4.281,0,0,1,1.08-.89c0.456-.24,1.08-0.62,1.632-0.86,0.576-.24,1.008-0.43,1.176-0.5a1.042,1.042,0,0,0,.648-0.56,1.027,1.027,0,0,0-.48-1.03,2.849,2.849,0,0,0-1.608-.41,7.291,7.291,0,0,0-1.68.15,15.522,15.522,0,0,0-2.04.57c-0.288.1-.792,0.36-0.624,0.65a1.021,1.021,0,0,0,.816,0,8.4,8.4,0,0,1,1.248-.26,6.061,6.061,0,0,1,1.776.02,0.851,0.851,0,0,1,.6.27A1.055,1.055,0,0,1,882.075,5233.45Zm2.592,9.73a18.021,18.021,0,0,0-2.04.26,7,7,0,0,1-2.232-.07,3.305,3.305,0,0,1-2.04-1.25,2.77,2.77,0,0,1-.12-2.42,7.6,7.6,0,0,1,.864-2c0.168-.24.192-0.45,0.072-0.52-0.1-.08-0.24.04-0.408,0.26a9.434,9.434,0,0,0-1.032,1.92,3.927,3.927,0,0,0-.312,3.31c0.528,1.18,1.392,1.85,3.336,2.16a17.668,17.668,0,0,0,4.464.15c0.648-.08,1.2-0.56.888-1.08A1.621,1.621,0,0,0,884.667,5243.18Zm1.032-11.65a0.612,0.612,0,0,0,.36-0.96,3.41,3.41,0,0,0-1.584-1.08,4.638,4.638,0,0,0-1.464-.31,0.473,0.473,0,0,0-.432.1,0.4,0.4,0,0,0,.216.53,9.1,9.1,0,0,1,1.536,1.22A1.643,1.643,0,0,0,885.7,5231.53Zm2.089-1.1a0.619,0.619,0,0,0,.335-0.98,3.26,3.26,0,0,0-1.632-.99,5.319,5.319,0,0,0-1.488-.26,0.545,0.545,0,0,0-.432.12,0.36,0.36,0,0,0,.24.5,3.972,3.972,0,0,1,1.632,1.11A1.416,1.416,0,0,0,887.788,5230.43Zm20.149,12.03c-0.48-.72-1.848-0.56-2.76-0.24a17.435,17.435,0,0,1-3.84.69,4.427,4.427,0,0,1-3.5-.81c-1.033-1.04-.937-2.57.84-3.97a23.875,23.875,0,0,1,3.744-2.28,20.5,20.5,0,0,0,3.864-2.16,1.458,1.458,0,0,0,.072-2.16,2.3,2.3,0,0,0-1.224-.55c-0.456-.05-0.84.19-0.528,0.58a0.892,0.892,0,0,1-.1,1.22,9.286,9.286,0,0,1-2.088,1.44c-0.456.29-.864,0.53-1.272,0.79a1.107,1.107,0,0,1-.36-0.88,22.032,22.032,0,0,1,.312-2.55,14.978,14.978,0,0,1,.576-1.97,2.115,2.115,0,0,0,.048-1.53,4.047,4.047,0,0,0-1.128-1.32c-0.36-.27-0.936-0.51-1.152-0.17a1,1,0,0,0,.384.89,2.671,2.671,0,0,1,.384,1.53c-0.048.68-.168,1.61-0.24,2.43a10.9,10.9,0,0,0-.168,2.71,2.072,2.072,0,0,0,.912,1.13c-0.336.21-.7,0.43-1.08,0.69a10.946,10.946,0,0,0-3.048,2.93,3.331,3.331,0,0,0,.288,3.75c0.864,1.01,2.736,1.34,4.9,1.37a32.881,32.881,0,0,0,5.136-.34C907.722,5243.56,908.442,5243.2,907.937,5242.46Zm13.8-15.97c-0.552-.28-1.08-0.52-1.608-0.74v11.59H921.5v-1.41h12.913v1.27h1.368v-9.63l0.6-.43a0.42,0.42,0,0,0,.239-0.33,3.975,3.975,0,0,0-1.416-1.4l-1.008,1.08H921.741Zm-0.24.6h5.713v3.8H921.5v-3.8Zm12.913,8.24h-5.832v-3.84h5.832v3.84Zm0-4.44h-5.832v-3.8h5.832v3.8Zm-7.2.6v3.84H921.5v-3.84h5.713Zm-0.432,5.47-0.36.43a8.341,8.341,0,0,1,2.568,3.27,0.914,0.914,0,0,0,.792.72,0.75,0.75,0,0,0,.816-0.89C930.6,5239.38,929.326,5238.21,926.782,5236.96Zm-6.1,2.02a6.722,6.722,0,0,1-2.808,4.48,0.936,0.936,0,0,0-.5.77,0.733,0.733,0,0,0,.816.84,2.282,2.282,0,0,0,1.68-1.15,8.558,8.558,0,0,0,1.44-4.73Zm13.033-.65-0.336.45a10.336,10.336,0,0,1,3.553,4.76,0.75,0.75,0,0,0,.768.55,0.8,0.8,0,0,0,.84-0.96Q938.543,5240.745,933.718,5238.33Zm-0.408,3.05-0.624-.24c-0.1,2.08-.552,3.21-1.416,3.33a23.453,23.453,0,0,1-3.216.15,15.774,15.774,0,0,1-2.928-.15,0.64,0.64,0,0,1-.409-0.72v-4.17a1.2,1.2,0,0,0,.985-0.65c0-.34-0.793-0.55-2.4-0.65v5.9a1.474,1.474,0,0,0,.624,1.44,13.764,13.764,0,0,0,4.2.34,32.27,32.27,0,0,0,4.728-.22,1.415,1.415,0,0,0,1.368-1.39,0.829,0.829,0,0,1-.768-0.74A11.771,11.771,0,0,1,933.31,5241.38Zm17.632-14.02c0.264,0.12.84,0.41,1.08,0.48a0.855,0.855,0,0,1,.5.36,0.733,0.733,0,0,1-.192.5,1.12,1.12,0,0,0-.216.82,1.239,1.239,0,0,0,.768-0.48,1.116,1.116,0,0,1,.744-0.36,3.407,3.407,0,0,0,1.152-.12,0.774,0.774,0,0,0,.168-1.23,3.938,3.938,0,0,0-2.136-.79,6.048,6.048,0,0,0-1.777.03,0.575,0.575,0,0,0-.48.24C950.462,5227.05,950.678,5227.21,950.942,5227.36Zm-3.84,7.08a2.258,2.258,0,0,0,2.112.07,35.671,35.671,0,0,1,3.337-1.32,5.462,5.462,0,0,1,3.144-.12c1.176,0.36,1.944,1.27,1.872,3.19a8.36,8.36,0,0,1-1.488,4.88,8.769,8.769,0,0,1-3.817,2.73,17.884,17.884,0,0,1-2.76.89,0.356,0.356,0,0,0-.36.36c0,0.1.168,0.19,0.48,0.17a12.319,12.319,0,0,0,2.689-.67,13.789,13.789,0,0,0,4.1-2.04,7.293,7.293,0,0,0,2.832-4.32,5.877,5.877,0,0,0-.744-4.59,4.3,4.3,0,0,0-3.552-1.87,8.367,8.367,0,0,0-3.673.67,10.307,10.307,0,0,1-2.28.79,4.533,4.533,0,0,1-1.392-.09,1.152,1.152,0,0,0-.96.02A0.913,0.913,0,0,0,947.1,5234.44Zm23.253,6.46a3.066,3.066,0,0,0-2.976,3,2.774,2.774,0,0,0,1.7,2.68,2.555,2.555,0,0,0,1.3.32,2.909,2.909,0,0,0,2.16-.94,2.992,2.992,0,0,0,.84-2.06A3.063,3.063,0,0,0,970.355,5240.9Zm0.025,0.84a2.234,2.234,0,0,1,1.248.4,2.135,2.135,0,0,1,.144,3.39,1.982,1.982,0,0,1-1.392.53,2.048,2.048,0,0,1-1.825-1.01,2.23,2.23,0,0,1-.336-1.15,2.059,2.059,0,0,1,.576-1.47A2.2,2.2,0,0,1,970.38,5241.74Z" transform="translate(-511.312 -5189.19)"/>
</svg>
