<svg xmlns="http://www.w3.org/2000/svg" width="14.31" height="138.34" viewBox="0 0 14.31 138.34">
  <defs>
    <style>
      .cls-1 {
        fill-rule: evenodd;
      }
    </style>
  </defs>
  <path id="txt_nav008.svg" class="cls-1" d="M1557.79,881.506a0.237,0.237,0,0,0,.23.24,6.058,6.058,0,0,1,1.2.24,0.686,0.686,0,0,1,.45.435,0.217,0.217,0,0,0,.25.21,1.159,1.159,0,0,0,1.29-1.26v-11.1a0.817,0.817,0,0,0,.57-0.375c0-.209-0.39-0.345-1.18-0.389a0.211,0.211,0,0,0-.26.224v11.235a0.459,0.459,0,0,1-.57.45c-0.39,0-.96-0.03-1.74-0.09A0.182,0.182,0,0,0,1557.79,881.506Zm0.03-2a0.207,0.207,0,0,0,.24-0.24v-7.514a0.816,0.816,0,0,0,.59-0.36c0-.2-0.39-0.331-1.17-0.375a0.21,0.21,0,0,0-.26.224v8.025a0.207,0.207,0,0,0,.23.24h0.37Zm-3.46-8.939v3.3h-3.62v-3.3h3.62Zm0,3.674v0.511a0.221,0.221,0,0,0,.24.239h0.36a0.216,0.216,0,0,0,.24-0.239v-3.931l0.37-.254a0.252,0.252,0,0,0,.14-0.18,1.786,1.786,0,0,0-.72-0.72,0.2,0.2,0,0,0-.33.03l-0.41.494h-3.39c-0.28-.134-0.51-0.239-0.7-0.329a0.181,0.181,0,0,0-.27.2v4.829a0.207,0.207,0,0,0,.24.24h0.37a0.207,0.207,0,0,0,.24-0.24v-0.645h0.96v0.18c0,3.48-.99,6.09-2.95,7.86a0.2,0.2,0,0,0-.08.285,0.228,0.228,0,0,0,.33.045,8.262,8.262,0,0,0,3.41-5.745h2.28a16.158,16.158,0,0,1-.35,3.8,0.839,0.839,0,0,1-.93.69,10.67,10.67,0,0,1-1.51-.12c-0.15-.03-0.26.03-0.26,0.15a0.25,0.25,0,0,0,.23.255,4.188,4.188,0,0,1,1.02.255,0.728,0.728,0,0,1,.42.435,0.245,0.245,0,0,0,.27.225,1.578,1.578,0,0,0,1.39-.96,13.7,13.7,0,0,0,.53-4.485l0.36-.24a0.181,0.181,0,0,0,.12-0.15,2.14,2.14,0,0,0-.68-0.72,0.206,0.206,0,0,0-.34.015l-0.39.48h-2.12a15.911,15.911,0,0,0,.14-2.1v-0.151h1.77Zm-5.28,18.089c-0.09.09-.08,0.18,0.03,0.3a3.449,3.449,0,0,1,.87,1.8,0.527,0.527,0,0,0,.46.6,0.5,0.5,0,0,0,.54-0.6c0-.69-0.52-1.395-1.6-2.1A0.209,0.209,0,0,0,1549.08,892.335Zm4.86,7.32c-0.17,0-.26.075-0.21,0.2a0.272,0.272,0,0,0,.27.18h7.45a0.286,0.286,0,0,0,.27-0.151,0.225,0.225,0,0,0-.01-0.314c-0.23-.27-0.45-0.525-0.69-0.766a0.2,0.2,0,0,0-.33.016l-0.63.84h-2V895.26h3.84a0.249,0.249,0,0,0,.26-0.12,0.237,0.237,0,0,0-.02-0.315,8.833,8.833,0,0,0-.69-0.8,0.191,0.191,0,0,0-.33.03l-0.6.824h-2.46v-2.549a0.784,0.784,0,0,0,.62-0.42c0-.21-0.41-0.345-1.25-0.36a0.2,0.2,0,0,0-.25.225v3.1h-3.59c-0.18,0-.27.09-0.21,0.211a0.285,0.285,0,0,0,.29.165h3.51v4.395h-3.24Zm-0.95-8.76a0.216,0.216,0,0,0,.24.24h0.36a0.221,0.221,0,0,0,.24-0.24V889.74h3.18V890.9a0.216,0.216,0,0,0,.24.24h0.36a0.221,0.221,0,0,0,.24-0.24V889.74h3.9a0.27,0.27,0,0,0,.24-0.09,0.259,0.259,0,0,0-.04-0.33q-0.345-.383-0.72-0.765a0.2,0.2,0,0,0-.33.03l-0.63.78h-2.42V888.15a0.82,0.82,0,0,0,.62-0.4c0-.18-0.41-0.285-1.2-0.345a0.211,0.211,0,0,0-.26.225v1.74h-3.18V888.09a0.721,0.721,0,0,0,.6-0.405c0-.18-0.4-0.285-1.18-0.315a0.227,0.227,0,0,0-.26.24v1.755h-3.76c-0.18,0-.27.075-0.23,0.195a0.27,0.27,0,0,0,.27.18h3.72V890.9Zm-1.11,9.645a0.221,0.221,0,0,0,.24.239h0.38a0.206,0.206,0,0,0,.22-0.239v-8.28a0.75,0.75,0,0,0,.62-0.4c0-.21-0.39-0.33-1.2-0.375a0.211,0.211,0,0,0-.26.225v4.14a15.627,15.627,0,0,1-2.86,2.07,0.227,0.227,0,0,0-.08.329,1.614,1.614,0,0,0,.71.946c0.13,0,.21-0.211.22-0.66a17.918,17.918,0,0,0,2.01-2.1v4.111Zm8.33,6.631a1.027,1.027,0,0,0-.98-0.18,7.071,7.071,0,0,0-2.35,1.231,0.211,0.211,0,0,1-.09.029h-6.38a0.308,0.308,0,0,0,0,.616h5.52a0.051,0.051,0,0,1,.03.09c-1.65,1.319-3.03,3.329-2.8,5.459a3.328,3.328,0,0,0,2.05,2.745,6.683,6.683,0,0,0,3.02.5,0.518,0.518,0,0,0-.03-1.035c-1.8.03-3.96-.27-4.14-2.52-0.17-2,1.21-3.915,2.68-5.205a0.219,0.219,0,0,1,.14-0.044h2.04a1.88,1.88,0,0,0,1.17-.285A0.935,0.935,0,0,0,1560.21,907.171Zm-0.53.9a1.088,1.088,0,0,1-.61.18h-1.31a0.038,0.038,0,0,1-.01-0.075,4.573,4.573,0,0,1,1.57-.674C1559.77,907.426,1560.06,907.741,1559.68,908.071Zm-1.02,2.04a0.171,0.171,0,0,0-.15.3,4.784,4.784,0,0,1,1.47,2.055c0.14,0.345.51,0.36,0.63-.06C1560.88,911.266,1558.95,910.171,1558.66,910.111Zm1.43-.645a0.171,0.171,0,0,0-.12.315,4.941,4.941,0,0,1,1.56,1.95c0.13,0.36.54,0.36,0.61-.075C1562.35,910.5,1560.39,909.526,1560.09,909.466Zm1.06,20.728a5.029,5.029,0,0,0-1.26-2.97,4.794,4.794,0,0,0-3.03-1.47,6.8,6.8,0,0,0-3.4.42,5.837,5.837,0,0,0-3.29,3.149c-0.52,1.231-.64,3.18.65,4,1.44,0.931,2.97-.314,3.75-1.514a8.594,8.594,0,0,0,1.27-4.185c0.03-.51.03-0.885,0.02-1.155v-0.18a0.065,0.065,0,0,1,.06-0.06,4.072,4.072,0,0,1,.85.075,4.121,4.121,0,0,1,2.52,1.425,4.324,4.324,0,0,1,.89,2.5,4.549,4.549,0,0,1-.59,2.295,4.423,4.423,0,0,1-1.45,1.44,7.508,7.508,0,0,1-2.97.989,0.25,0.25,0,0,0,.06.5,8.423,8.423,0,0,0,3.27-.871,5.3,5.3,0,0,0,1.84-1.589,4.275,4.275,0,0,0,.81-2.776v-0.029Zm-5.92-3.72c-0.02.255-.02,0.615-0.06,1.095a8.321,8.321,0,0,1-1.08,3.389c-0.48.781-1.31,1.905-2.37,1.725-1.08-.209-1.1-1.589-0.93-2.444a5.3,5.3,0,0,1,2.91-3.525,5.481,5.481,0,0,1,1.47-.435,0.065,0.065,0,0,1,.06.06v0.135Zm6.36,22.227c0.09-.285-0.41-0.435-0.48-0.135a7.627,7.627,0,0,1-1.62,3.3,2.4,2.4,0,0,1-2.15.855,0.982,0.982,0,0,1-.73-0.645,4.975,4.975,0,0,1-.14-1.425,1.9,1.9,0,0,0-2.31-1.935,1.952,1.952,0,0,0-.55.225,0.081,0.081,0,0,1-.12-0.105,13.251,13.251,0,0,0,2.1-5.46c0.01-.18.01-0.315,0.01-0.57a0.511,0.511,0,0,0-1.02.016,11.058,11.058,0,0,1-1.69,5.324,56.943,56.943,0,0,1-3.06,4.95c-0.35.555,0.54,1.02,0.9,0.45a3.246,3.246,0,0,0,.22-0.45,20.085,20.085,0,0,1,1.62-2.655,2.769,2.769,0,0,1,1.71-1.185c0.86-.195,1.32.54,1.37,1.425a6.731,6.731,0,0,0,.09,1.665,1.868,1.868,0,0,0,.94,1.185,2.913,2.913,0,0,0,3.47-1.11A8.653,8.653,0,0,0,1561.59,948.7Zm-2.22,12.292a0.169,0.169,0,0,0-.12.314,4.868,4.868,0,0,1,1.62,1.936c0.15,0.329.54,0.314,0.61-.106C1561.66,961.983,1559.65,961.037,1559.37,960.993Zm1.38-.75a0.169,0.169,0,0,0-.11.314,5.087,5.087,0,0,1,1.7,1.845,0.311,0.311,0,0,0,.61-0.12C1563.07,961.1,1561.05,960.287,1560.75,960.243Zm1.08,9.134c-0.15-.075-0.35-0.165-0.35-0.165a4.207,4.207,0,0,1-1.18-.93c-1.59-1.785-1.44-4.214-1.44-6.3a0.327,0.327,0,0,0-.65.059c0.03,0.391.03,0.81,0.02,1.2a15.707,15.707,0,0,1-.35,3.149,8.383,8.383,0,0,1-1.09,2.55,3.654,3.654,0,0,1-2.9,1.755,2.7,2.7,0,0,1-1.74-.5c-1.54-1.08-.81-3.66.15-4.859a14.281,14.281,0,0,1,2.67-2.386c0.17-.179.14-0.7-0.16-0.7h-4.08a0.308,0.308,0,1,0,0,.615h3.07a0.057,0.057,0,0,1,.03.089,0.306,0.306,0,0,0-.1.075,15.809,15.809,0,0,0-1.91,1.951c-1.26,1.574-1.9,4.334-.27,5.849a3.453,3.453,0,0,0,2.34.825,4.284,4.284,0,0,0,3.57-2.235,9.228,9.228,0,0,0,.83-1.965c0.09-.315.13-0.63,0.19-0.944,0-.061.02-0.106,0.02-0.151a0.047,0.047,0,0,1,.09,0,6.134,6.134,0,0,0,1.5,3.015,4.967,4.967,0,0,0,1.24,1.02A0.568,0.568,0,0,0,1561.83,969.377Zm-5.69,8.608c-0.07-.09-0.18-0.075-0.3.015-1.33,1.125-1.99,2.205-1.99,3.24a5.431,5.431,0,0,0,1.26,2.985,4.939,4.939,0,0,1,1.18,2.61,4.515,4.515,0,0,1-1.42,2.8,0.22,0.22,0,0,0-.02.33c0.06,0.06.15,0.045,0.27-.06,1.34-1.125,2-2.19,2-3.195a6.126,6.126,0,0,0-1.44-3.27,4.328,4.328,0,0,1-1.01-2.37,4.427,4.427,0,0,1,1.44-2.79C1556.22,978.165,1556.23,978.06,1556.14,977.985Zm2.88,22.715c-0.07-1.128-.55-2.973-1.81-3.6a2.042,2.042,0,0,0-2.06.27,4.377,4.377,0,0,0-1.18,1.395,5.624,5.624,0,0,0-.6,1.488,6.713,6.713,0,0,0-.27,1.57,0.045,0.045,0,0,1-.09,0,5.139,5.139,0,0,1-.14-1.65,19.693,19.693,0,0,1,.63-3.778,0.486,0.486,0,0,0-.96-0.15,22.328,22.328,0,0,0-.43,3.9,10.314,10.314,0,0,0,.57,3.66,0.42,0.42,0,0,0,.81-0.16,8.7,8.7,0,0,1,.96-4.593,3.9,3.9,0,0,1,1.05-1.185,1.338,1.338,0,0,1,1.39-.165c0.95,0.555,1.13,1.965,1.2,2.973a8.835,8.835,0,0,1-.12,1.71,7.1,7.1,0,0,1-2.4,4.53c-0.22.16-.46,0.28-0.69,0.45h-0.01a0.26,0.26,0,0,0,.24.46,5.3,5.3,0,0,0,.81-0.43,7.478,7.478,0,0,0,2.97-4.76A6.85,6.85,0,0,0,1559.02,1000.7Z" transform="translate(-1548.66 -869.5)"/>
</svg>
