<svg xmlns="http://www.w3.org/2000/svg" width="13.813" height="102.843" viewBox="0 0 13.813 102.843">
  <defs>
    <style>
      .cls-1 {
        fill-rule: evenodd;
      }
    </style>
  </defs>
  <path id="txt_nav003.svg" class="cls-1" d="M747.934,879.532v1.98h-6.269v-1.98h6.269Zm-0.614-3.84v1.725h-5.655v-1.725h5.655Zm-5.46-.375c-0.24-.119-0.51-0.225-0.795-0.345a0.182,0.182,0,0,0-.27.2v7.365a0.2,0.2,0,0,0,.24.225h0.39a0.2,0.2,0,0,0,.24-0.225v-0.645h6.269v0.645a0.2,0.2,0,0,0,.241.225h0.374a0.2,0.2,0,0,0,.225-0.225v-2.745l0.345-.24a0.175,0.175,0,0,0,.105-0.165,1.9,1.9,0,0,0-.645-0.7,0.22,0.22,0,0,0-.345.03l-0.39.45h-6.179v-1.365h5.655v0.255a0.208,0.208,0,0,0,.239.24h0.375a0.209,0.209,0,0,0,.241-0.24v-2.13l0.345-.24a0.215,0.215,0,0,0,.119-0.165,1.719,1.719,0,0,0-.705-0.69,0.211,0.211,0,0,0-.329.031l-0.391.464H741.86Zm-1.26-4.59c0.06-.105.165-0.36,0.33-0.75,0.435-.059.645-0.149,0.645-0.27a1.555,1.555,0,0,0-1.14-.525,0.217,0.217,0,0,0-.285.18,9.616,9.616,0,0,1-2.325,4.1c-0.105.106-.135,0.2-0.075,0.255a0.224,0.224,0,0,0,.33.031,9.023,9.023,0,0,0,2.31-2.64h0.39a2.553,2.553,0,0,1,.825,1.5,0.52,0.52,0,0,0,.435.511,0.473,0.473,0,0,0,.525-0.54,1.9,1.9,0,0,0-1.215-1.47h2.94a0.234,0.234,0,0,0,.24-0.106,0.268,0.268,0,0,0,0-.329c-0.15-.211-0.3-0.36-0.4-0.5l-0.12-.134a0.2,0.2,0,0,0-.345.015l-0.51.674H740.6Zm-0.99,2.941-0.045-.391a0.209,0.209,0,0,0-.15-0.225,0.2,0.2,0,0,0-.24.225,3.079,3.079,0,0,1-.84,2.011,0.931,0.931,0,0,0-.36.555,0.473,0.473,0,0,0,.54.524,0.948,0.948,0,0,0,.75-0.645,3.817,3.817,0,0,0,.36-1.679H749.6a8.807,8.807,0,0,1-.54,1.139,0.187,0.187,0,0,0,0,.27,0.235,0.235,0,0,0,.33,0,11.477,11.477,0,0,0,1.1-.915l0.54-.09a0.182,0.182,0,0,0,.18-0.18,2.838,2.838,0,0,0-.9-1.139,0.21,0.21,0,0,0-.345.014l-0.4.526H744.86v-0.856a0.7,0.7,0,0,0,.555-0.36,0.549,0.549,0,0,0-.51-0.285,5.971,5.971,0,0,0,.915-1.064h0.63l0.075,0.074a2.541,2.541,0,0,1,.779,1.455,0.431,0.431,0,0,0,.421.465,0.472,0.472,0,0,0,.525-0.539,1.846,1.846,0,0,0-1.231-1.455h3.705a0.248,0.248,0,0,0,.24-0.106,0.231,0.231,0,0,0-.03-0.314,6.612,6.612,0,0,0-.615-0.675,0.2,0.2,0,0,0-.33.015l-0.54.7H746.06a5.011,5.011,0,0,0,.36-0.75,0.672,0.672,0,0,0,.614-0.255,1.408,1.408,0,0,0-1.064-.509,0.229,0.229,0,0,0-.3.18,6.818,6.818,0,0,1-1.29,2.7,0.466,0.466,0,0,0-.165-0.015c-0.03,0-.06-0.015-0.09-0.015-0.06,0-.09.09-0.09,0.241v1.365H739.61Zm2.58,19.457a0.247,0.247,0,0,0,.21-0.42,7.736,7.736,0,0,0-.555-0.705,0.182,0.182,0,0,0-.33.03l-0.5.72h-0.57v-3.57h1.965a0.248,0.248,0,0,0,.24-0.1,0.271,0.271,0,0,0-.03-0.33c-0.21-.255-0.435-0.5-0.645-0.705a0.205,0.205,0,0,0-.33.03l-0.57.735h-3.105c-0.18,0-.27.075-0.21,0.2a0.275,0.275,0,0,0,.27.18h1.575v3.57h-1.485q-0.27,0-.225.18a0.248,0.248,0,0,0,.27.2h1.44v3.794c-0.54.165-1.14,0.316-1.785,0.466a0.2,0.2,0,0,0-.165.3,1.425,1.425,0,0,0,.66,1.034c0.12,0,.21-0.194.255-0.6a40.455,40.455,0,0,0,4.05-1.77,0.205,0.205,0,0,0,.135-0.27,0.22,0.22,0,0,0-.315-0.12c-0.6.24-1.275,0.48-2,.7v-3.54h1.74Zm1.875-1.665h2.085V894h-2.085V891.46Zm2.085-.375h-2.085v-2.43h2.085v2.43Zm0.869,0v-2.43h2.19v2.43h-2.19Zm2.19,2.91h-2.19V891.46h2.19V894Zm-5.024-5.715c-0.21-.105-0.48-0.225-0.795-0.375l-0.075-.03c-0.015,0-.03-0.015-0.045-0.015a0.446,0.446,0,0,0-.045.27v6.96a0.208,0.208,0,0,0,.24.24h0.375a0.2,0.2,0,0,0,.225-0.24v-0.721h2.085v2.506h-3.195c-0.165,0-.255.075-0.21,0.2a0.264,0.264,0,0,0,.27.18h3.135v2.579h-4.26c-0.18,0-.255.075-0.21,0.2a0.262,0.262,0,0,0,.27.18h9.194a0.23,0.23,0,0,0,.255-0.121,0.251,0.251,0,0,0-.03-0.329c-0.225-.255-0.465-0.51-0.705-0.751a0.2,0.2,0,0,0-.33.031l-0.615.794h-2.7V897.25H750.6a0.234,0.234,0,0,0,.195-0.4,7.51,7.51,0,0,0-.66-0.72,0.2,0.2,0,0,0-.33.03l-0.57.72h-2.22v-2.506h2.19v0.346a0.214,0.214,0,0,0,.24.24h0.375a0.208,0.208,0,0,0,.24-0.24v-5.76l0.375-.24a0.21,0.21,0,0,0,.12-0.165,2.148,2.148,0,0,0-.72-0.81,0.22,0.22,0,0,0-.345.03l-0.42.51h-4.889Zm2.834,29.194c-2.249.36-3.059-2.069-3.059-3.884v-5.745a1.189,1.189,0,0,0-1.32-1.305h-0.435a0.285,0.285,0,0,0,0,.57h0.465a0.345,0.345,0,0,1,.33.344v6.18c0,2.43,1.425,5.026,4.124,4.38C747.44,917.924,747.365,917.4,747.019,917.474Zm2.31,7.7a1.018,1.018,0,0,0-.974-0.18A7.093,7.093,0,0,0,746,926.222a0.211,0.211,0,0,1-.09.029h-6.435a0.308,0.308,0,1,0,0,.616h5.58a0.052,0.052,0,0,1,.03.09c-1.65,1.319-3.03,3.329-2.805,5.459a3.345,3.345,0,0,0,2.085,2.73,6.786,6.786,0,0,0,2.985.51,0.51,0.51,0,1,0-.03-1.02c-1.8.015-3.96-.3-4.14-2.535-0.165-2,1.215-3.915,2.685-5.205a0.214,0.214,0,0,1,.135-0.044h2.039a1.873,1.873,0,0,0,1.17-.285A0.935,0.935,0,0,0,749.329,925.171Zm-0.525.9a1.1,1.1,0,0,1-.615.18h-1.3a0.038,0.038,0,0,1-.015-0.075,4.589,4.589,0,0,1,1.575-.674C748.894,925.426,749.179,925.741,748.8,926.071Zm-1.32,21.449a2.234,2.234,0,0,0,2.13-1.065,0.309,0.309,0,0,0-.555-0.27,1.66,1.66,0,0,1-1.575.72H745.73a0.069,0.069,0,0,1-.075-0.06V942.51a0.451,0.451,0,1,0-.9.015v4.335a0.065,0.065,0,0,1-.06.06H742.28a0.077,0.077,0,0,1-.015-0.15,2.364,2.364,0,0,0,1.785-1.755c0.3-1.875-2.595-1.77-3.645-1.665-0.435.045-.39,0.78,0.045,0.75,0.5-.03,3.12-0.3,2.985.855-0.1,1.11-2.19,1.74-2.97,1.935a0.316,0.316,0,0,0,.03.63h4.2a0.065,0.065,0,0,1,.06.06v3.24a0.045,0.045,0,0,1-.06.045,6.794,6.794,0,0,0-3.525.09,1.4,1.4,0,0,0-.99,1.71,2,2,0,0,0,1.545,1.08,4.364,4.364,0,0,0,1.245.105,2.674,2.674,0,0,0,2.46-1.125,2.181,2.181,0,0,0,.21-0.885,0.05,0.05,0,0,1,.075-0.03,13.365,13.365,0,0,1,2.715,1.365,0.493,0.493,0,0,0,.464-0.87,11.27,11.27,0,0,0-3.179-1.2,0.1,0.1,0,0,1-.06-0.075v-3.45a0.069,0.069,0,0,1,.075-0.06h1.754Zm-2.849,4.829a2.019,2.019,0,0,1-1.695.81,2.93,2.93,0,0,1-2-.434,0.714,0.714,0,0,1,.195-1.155,2.477,2.477,0,0,1,1.275-.316,9.514,9.514,0,0,1,2.265.286,0.06,0.06,0,0,1,.06.074A2.112,2.112,0,0,1,744.635,952.349Zm5.924,9.365a0.317,0.317,0,0,0-.57-0.27,1.621,1.621,0,0,1-1.559.72h-2.745a0.065,0.065,0,0,1-.06-0.06v-1.591a0.48,0.48,0,1,0-.96,0V962.1a0.069,0.069,0,0,1-.075.06H739a0.315,0.315,0,0,0,0,.63h5.6a0.06,0.06,0,0,1,.075.059v2.041a0.044,0.044,0,0,1-.06.044,1.849,1.849,0,0,0-.705-0.044,2.137,2.137,0,0,0-1.47,1.154,2.461,2.461,0,0,0-.15,1.815,1.654,1.654,0,0,0,1.335,1.185,1.521,1.521,0,0,0,1.47-.555,2.49,2.49,0,0,0,.27-0.419,0.047,0.047,0,0,1,.09.015,4.219,4.219,0,0,1-2.4,3.479,0.255,0.255,0,0,0,.24.45,4.74,4.74,0,0,0,2.88-3.119,4.249,4.249,0,0,0-.51-3.226,0.2,0.2,0,0,1-.03-0.09v-2.73a0.055,0.055,0,0,1,.06-0.059h2.745A2.252,2.252,0,0,0,750.559,961.714Zm-5.474,4.725a2.3,2.3,0,0,1-.465,1.679,0.882,0.882,0,0,1-.9.285,0.917,0.917,0,0,1-.69-0.75,2.42,2.42,0,0,1,.06-1.3,1.332,1.332,0,0,1,.915-0.915A0.988,0.988,0,0,1,745.085,966.439Z" transform="translate(-737.656 -869.188)"/>
</svg>
