<svg xmlns="http://www.w3.org/2000/svg" width="13.938" height="120.625" viewBox="0 0 13.938 120.625">
  <defs>
    <style>
      .cls-1 {
        fill-rule: evenodd;
      }
    </style>
  </defs>
  <path id="txt_nav004.svg" class="cls-1" d="M839.685,882.526a0.221,0.221,0,0,0,.24.24H840.3a0.21,0.21,0,0,0,.225-0.24v-7.65a4.9,4.9,0,0,1,.9,1.786,0.546,0.546,0,0,0,.435.509,0.451,0.451,0,0,0,.465-0.555c0-.735-0.6-1.5-1.8-2.324V873h1.725a0.28,0.28,0,0,0,.255-0.121,0.27,0.27,0,0,0-.03-0.314,7.551,7.551,0,0,0-.525-0.645,0.192,0.192,0,0,0-.345.015l-0.48.69h-0.6v-2.49a0.782,0.782,0,0,0,.645-0.4c0-.211-0.4-0.345-1.23-0.4a0.209,0.209,0,0,0-.255.225v3.075H837.99c-0.165,0-.255.074-0.21,0.18a0.258,0.258,0,0,0,.27.195h1.62l-0.045.254a20.094,20.094,0,0,1-2.04,6.075,0.2,0.2,0,0,0,.045.285,0.2,0.2,0,0,0,.315-0.074,18.34,18.34,0,0,0,1.74-3.856v6.84Zm5.04-3.434v-1.8H848.2v1.8h-3.479Zm3.479,2.339h-3.479v-1.964H848.2v1.964Zm-2.849-6.584a11.487,11.487,0,0,0,.615-1.591h0.945a9.946,9.946,0,0,0,.705,1.591h-2.265Zm-1.47,7.679a0.214,0.214,0,0,0,.24.24H844.5a0.21,0.21,0,0,0,.225-0.24v-0.72H848.2v0.72a0.214,0.214,0,0,0,.241.24h0.389a0.209,0.209,0,0,0,.225-0.24v-4.935l0.21-.134a0.12,0.12,0,0,0,.075-0.106,1.532,1.532,0,0,0-.66-0.614,0.291,0.291,0,0,0-.344,0l-0.211.18H844.74l-0.27-.121-0.285-.12,0.03-.06a9.008,9.008,0,0,0,.945-1.395h2.684a10.2,10.2,0,0,0,2.835,2.895,0.209,0.209,0,0,0,.33-0.06,2.308,2.308,0,0,1,.315-0.345c0.135-.105.12-0.225-0.03-0.315a10.34,10.34,0,0,1-2.7-2.175h2.265a0.256,0.256,0,0,0,.24-0.09,0.252,0.252,0,0,0-.03-0.33,6.12,6.12,0,0,0-.435-0.494l-0.15-.151a0.2,0.2,0,0,0-.33.016l-0.54.675h-1.32a9.234,9.234,0,0,1-.944-1.591h2.384a0.229,0.229,0,0,0,.225-0.074,0.251,0.251,0,0,0-.015-0.33,4.567,4.567,0,0,0-.435-0.5l-0.12-.121a0.2,0.2,0,0,0-.33.031l-0.48.614H846.09c0.15-.584.255-1.034,0.3-1.334h3.974a0.279,0.279,0,0,0,.24-0.09,0.252,0.252,0,0,0-.03-0.33,8.454,8.454,0,0,0-.615-0.66,0.2,0.2,0,0,0-.33.015l-0.54.69h-2.624c0.03-.225.105-0.615,0.18-1.14a0.658,0.658,0,0,0,.585-0.36c0-.225-0.391-0.375-1.185-0.45a0.225,0.225,0,0,0-.27.225c-0.06.675-.12,1.245-0.195,1.725h-3.03c-0.165,0-.255.074-0.21,0.195a0.262,0.262,0,0,0,.27.18h2.895a12.334,12.334,0,0,1-.3,1.334h-2.13c-0.165,0-.255.076-0.21,0.2a0.274,0.274,0,0,0,.27.179h1.95a9.435,9.435,0,0,1-.615,1.591h-2.145c-0.18,0-.27.075-0.21,0.194a0.275,0.275,0,0,0,.27.18h1.89a10.075,10.075,0,0,1-2.85,3.331,0.21,0.21,0,0,0-.075.285,0.213,0.213,0,0,0,.33.044,12.678,12.678,0,0,0,2.205-1.859v5.5Zm2.879,7.635a3.3,3.3,0,0,0,.211-0.795H850.2a0.276,0.276,0,0,0,.24-0.09,0.268,0.268,0,0,0-.03-0.329c-0.21-.241-0.42-0.465-0.63-0.691a0.2,0.2,0,0,0-.33.03l-0.525.705h-1.89c0.016-.345.031-0.584,0.031-0.749v-0.27a0.71,0.71,0,0,0,.555-0.375c0-.165-0.375-0.256-1.14-0.3a0.208,0.208,0,0,0-.255.225v0.7a5.809,5.809,0,0,1-.045.764h-2.7c-0.2,0-.27.09-0.21,0.211a0.251,0.251,0,0,0,.27.164h2.58a3.89,3.89,0,0,1-2.67,2.805c-0.15.06-.21,0.15-0.165,0.24a0.271,0.271,0,0,0,.315.135,4.375,4.375,0,0,0,3.015-2.054,5.444,5.444,0,0,1,2.19,1.514,0.775,0.775,0,0,0,.524.345,0.428,0.428,0,0,0,.48-0.48C849.809,891.2,848.805,890.626,846.764,890.161Zm-0.134,4.8v2.325h-1.9v-2.325h1.9Zm-1.7-.375c-0.3-.135-0.54-0.225-0.75-0.315a0.173,0.173,0,0,0-.27.18v4.08a0.2,0.2,0,0,0,.24.225H844.5a0.2,0.2,0,0,0,.225-0.225v-0.87h1.9v0.555a0.2,0.2,0,0,0,.224.225h0.316a0.2,0.2,0,0,0,.224-0.225v-3l0.391-.27a0.172,0.172,0,0,0,.105-0.135,2.018,2.018,0,0,0-.676-0.689,0.222,0.222,0,0,0-.329.029l-0.36.435h-1.59Zm3.9,4.425a0.445,0.445,0,0,1-.54.465c-0.494,0-1.08-.03-1.769-0.09-0.165-.015-0.255.045-0.255,0.15a0.237,0.237,0,0,0,.225.255,6.163,6.163,0,0,1,1.274.27,0.7,0.7,0,0,1,.45.42,0.224,0.224,0,0,0,.255.21,1.124,1.124,0,0,0,1.2-1.245v-6.2h1.53a0.221,0.221,0,0,0,.24-0.105,0.255,0.255,0,0,0-.045-0.315,7.171,7.171,0,0,0-.63-0.675,0.192,0.192,0,0,0-.33.03l-0.51.69H842.6v-2.294a0.84,0.84,0,0,0,.6-0.421c0-.18-0.375-0.314-1.125-0.36a0.209,0.209,0,0,0-.255.226v7.409H840.78v-9a0.881,0.881,0,0,0,.6-0.42c0-.179-0.375-0.285-1.155-0.314a0.215,0.215,0,0,0-.255.225v9.509h-1v-6.9a0.759,0.759,0,0,0,.6-0.39c0-.18-0.375-0.3-1.14-0.345a0.209,0.209,0,0,0-.255.226v9.224a0.214,0.214,0,0,0,.24.24h0.33a0.21,0.21,0,0,0,.225-0.24v-1.44h2.85v0.96a0.214,0.214,0,0,0,.24.24h0.3a0.208,0.208,0,0,0,.24-0.24v-5.52h6.239v5.76Zm-0.33,17.176a30.353,30.353,0,0,1-4.034.12c-1.365-.075-3.375-0.5-3.21-2.355,0.135-1.47,1.635-2.52,2.775-3.2,1.29-.795,2.67-1.319,4-2.01a0.464,0.464,0,0,0-.224-0.885c-1.845.075-4.125,0.435-5.745-.675a0.338,0.338,0,0,0-.405.54c1.32,1,2.985,1.035,4.605,1.05,0.135,0.015.18,0.195,0.06,0.24a21.578,21.578,0,0,0-3.9,2.175c-1.185.84-2.415,2.34-1.86,3.945,0.525,1.59,2.52,2.01,3.975,2.1a27.762,27.762,0,0,0,4.019-.09A0.481,0.481,0,0,0,848.5,916.187Zm0,18a30.353,30.353,0,0,1-4.034.12c-1.365-.075-3.375-0.5-3.21-2.355,0.135-1.47,1.635-2.52,2.775-3.2,1.29-.795,2.67-1.319,4-2.01a0.464,0.464,0,0,0-.224-0.885c-1.845.075-4.125,0.435-5.745-.675a0.338,0.338,0,0,0-.405.54c1.32,1,2.985,1.035,4.605,1.05,0.135,0.015.18,0.195,0.06,0.24a21.578,21.578,0,0,0-3.9,2.175c-1.185.84-2.415,2.34-1.86,3.945,0.525,1.59,2.52,2.01,3.975,2.1a27.762,27.762,0,0,0,4.019-.09A0.481,0.481,0,0,0,848.5,934.187Zm1.125,17.455c-0.24.015-.63,0.074-0.63,0.074a8.537,8.537,0,0,1-3.554-.21,1.593,1.593,0,0,1-1.11-1.649,3.616,3.616,0,0,1,1.335-2.115,18.243,18.243,0,0,1,3.269-2.37,1.149,1.149,0,0,0,.75-0.78,0.451,0.451,0,0,0-.51-0.4,7.986,7.986,0,0,1-4.334-.345,0.324,0.324,0,0,0-.33.555,5.173,5.173,0,0,0,3.419.675c0.136-.015.165,0.2,0.061,0.27a31.828,31.828,0,0,0-2.685,1.98,4.523,4.523,0,0,0-1.65,2.43,2.233,2.233,0,0,0,1.425,2.565,8.29,8.29,0,0,0,3.99.374s0.4-.06.629-0.09A0.481,0.481,0,0,0,849.629,951.642Zm-8.249-.54a5.238,5.238,0,0,0-.5.54,0.171,0.171,0,0,1-.3-0.046c-0.93-2.534-.405-5.324.42-7.829a0.489,0.489,0,0,0-.93-0.3c-0.99,3.135-1.35,6.45.195,9.465a0.434,0.434,0,0,0,.81-0.2,1.549,1.549,0,0,1,.7-1.216l0.18-.195a0.286,0.286,0,1,0-.405-0.4Zm7.724,14.1a5.011,5.011,0,0,0-2-.885,5.277,5.277,0,0,0-.7-0.105,7.974,7.974,0,0,0-2.07.045,0.065,0.065,0,0,1-.06-0.06v-1.365a0.055,0.055,0,0,1,.06-0.06h1.035a2.2,2.2,0,0,0,2.129-1.08,0.305,0.305,0,0,0-.555-0.255,1.657,1.657,0,0,1-1.574.72h-1.02a0.06,0.06,0,0,1-.06-0.075V960.84a0.42,0.42,0,0,0-.84,0v1.245a0.071,0.071,0,0,1-.075.075h-2.52a0.308,0.308,0,1,0,0,.615h2.52a0.069,0.069,0,0,1,.075.06v1.545a0.081,0.081,0,0,1-.06.075,6.478,6.478,0,0,0-3.54,2.19c-0.915,1.275-.72,2.34.09,2.864a2.2,2.2,0,0,0,1.545.2,5.456,5.456,0,0,0,1.98-.885,0.051,0.051,0,0,1,.075.03,2.184,2.184,0,0,0,.48,1.1c0.27,0.4.855-.03,0.615-0.45V969.48a1.916,1.916,0,0,1-.33-1.11,0.673,0.673,0,0,0-.015-0.165,0.136,0.136,0,0,1,.045-0.105,7.383,7.383,0,0,0,1.785-3.24c0.045-.075,0-0.15.21-0.15,0.225,0.06.434,0.09,0.645,0.15a3.93,3.93,0,0,1,1.589.9,2.438,2.438,0,0,1,.66,1.95,2.909,2.909,0,0,1-.285.93,4.588,4.588,0,0,1-1.26,1.395,7.722,7.722,0,0,1-2.069.975c-0.375.12-.765,0.21-1.215,0.314l-0.015.015c-0.285.061-.225,0.556,0.09,0.481a12.7,12.7,0,0,0,1.3-.24,9.544,9.544,0,0,0,2.324-.9,5.409,5.409,0,0,0,1.71-1.545,2.93,2.93,0,0,0,.435-1.3A3.117,3.117,0,0,0,849.1,965.205Zm-7.739,3.69a1.073,1.073,0,0,1-.99-1.89,5.813,5.813,0,0,1,3.015-2.055,0.045,0.045,0,0,1,.06.045v2.85a0.371,0.371,0,0,1-.18.225A4.771,4.771,0,0,1,841.365,968.9Zm4.23-4.2a3.837,3.837,0,0,0-.135.39,8.948,8.948,0,0,1-1.11,2.01,0.042,0.042,0,0,1-.075-0.03V964.8a0.067,0.067,0,0,1,.06-0.075,6.613,6.613,0,0,1,1.215-.075A0.048,0.048,0,0,1,845.6,964.7Zm2.429,18c-0.075-1.124-.555-2.969-1.814-3.6a2.033,2.033,0,0,0-2.055.27,4.461,4.461,0,0,0-1.185,1.395,5.831,5.831,0,0,0-.6,1.484,6.81,6.81,0,0,0-.27,1.576,0.045,0.045,0,0,1-.09,0,5.307,5.307,0,0,1-.135-1.65,19.319,19.319,0,0,1,.63-3.78,0.486,0.486,0,0,0-.96-0.15,22.828,22.828,0,0,0-.435,3.9,10.451,10.451,0,0,0,.57,3.661,0.42,0.42,0,0,0,.81-0.165,8.727,8.727,0,0,1,.96-4.59,3.962,3.962,0,0,1,1.05-1.185,1.348,1.348,0,0,1,1.395-.165c0.944,0.555,1.124,1.965,1.2,2.97a9.273,9.273,0,0,1-.12,1.71,7.118,7.118,0,0,1-2.4,4.53c-0.225.164-.465,0.285-0.69,0.45H843.87a0.263,0.263,0,0,0,.24.465,5.259,5.259,0,0,0,.81-0.436,7.466,7.466,0,0,0,2.97-4.754A6.9,6.9,0,0,0,848.024,982.7Z" transform="translate(-837.562 -869.219)"/>
</svg>
