<svg xmlns="http://www.w3.org/2000/svg" width="11.9" height="118.594" viewBox="0 0 11.9 118.594">
  <defs>
    <style>
      .cls-1 {
        fill-rule: evenodd;
      }
    </style>
  </defs>
  <path id="txt_nav007.svg" class="cls-1" d="M1461.14,873.917a0.542,0.542,0,0,0-.45-0.12l-6.83.45a0.055,0.055,0,0,1-.06-0.06v-2.565a0.458,0.458,0,1,0-.91,0v2.64a0.1,0.1,0,0,1-.06.075l-3.17.21a0.308,0.308,0,0,0,.03.615h0.02l3.12-.211a0.056,0.056,0,0,1,.06.061v3.194a2.89,2.89,0,0,0,.7,2.01,2.552,2.552,0,0,0,1.86.705h3.6c0.54,0,.51-0.749.02-0.674h-3.53c-1.47-.165-1.72-0.96-1.74-2.085v-3.225a0.065,0.065,0,0,1,.06-0.06l5.94-.4a0.078,0.078,0,0,1,.06.135,7.66,7.66,0,0,1-4.09,2.22,0.241,0.241,0,0,0,.04.479,8.461,8.461,0,0,0,5.33-2.744l0.03-.03A0.456,0.456,0,0,0,1461.14,873.917Zm-4.89,17.94a0.05,0.05,0,0,1-.05-0.06,16.689,16.689,0,0,0,.27-2.895,0.466,0.466,0,0,0-.93-0.015,16.988,16.988,0,0,1-.27,2.91,0.058,0.058,0,0,1-.07.06h-3.11a0.315,0.315,0,0,0,0,.63h2.97a0.055,0.055,0,0,1,.05.06c-0.78,2.715-2.93,4.815-5.34,6.81a0.249,0.249,0,0,0,.31.389c2.49-1.875,5.01-4.019,5.96-7.2a0.058,0.058,0,0,1,.07-0.06h3.11a0.058,0.058,0,0,1,.07.06,9.374,9.374,0,0,1-1.81,5.535,0.216,0.216,0,0,1-.35,0,5.526,5.526,0,0,0-.76-0.841,0.292,0.292,0,0,0-.42.406l0.19,0.18a1.633,1.633,0,0,1,.72,1.274,0.48,0.48,0,0,0,.86.271,11.184,11.184,0,0,0,2.55-7v-0.015a0.487,0.487,0,0,0-.48-0.5h-3.54Zm-4.29,23.859a0.511,0.511,0,0,0,.06,1.02,8.615,8.615,0,0,0,5.7-2.475,21.89,21.89,0,0,0,3.46-5.055,0.251,0.251,0,0,0-.43-0.255,25.479,25.479,0,0,1-3.29,4.365,8.7,8.7,0,0,1-2.77,1.875A7.165,7.165,0,0,1,1451.96,915.716Zm-1.04-7.26a0.244,0.244,0,0,0-.22.435,17.069,17.069,0,0,1,1.45.975c0.39,0.315.71,0.69,1.07,1.02a0.494,0.494,0,0,0,.69-0.045,0.481,0.481,0,0,0-.05-0.69A10.368,10.368,0,0,0,1450.92,908.456Zm6.03,17.1a0.163,0.163,0,0,0-.07.315,5.011,5.011,0,0,1,1.89,1.68c0.21,0.315.57,0.24,0.6-.195C1459.37,926.19,1457.25,925.56,1456.95,925.56Zm1.25-.945a0.171,0.171,0,0,0-.06.33,4.842,4.842,0,0,1,1.96,1.56,0.314,0.314,0,0,0,.59-0.21C1460.63,925.11,1458.5,924.615,1458.2,924.615Zm1.27,5.76a7.555,7.555,0,0,1-4.98-1.365,0.392,0.392,0,0,1-.15-0.3v-2.85a1.22,1.22,0,0,0-1.29-1.335h-0.43a0.285,0.285,0,0,0,0,.57h0.39a0.465,0.465,0,0,1,.4.5l0.02,10.035a0.455,0.455,0,1,0,.91.03V929.79a0.1,0.1,0,0,1,.15-0.09,7.991,7.991,0,0,0,5.01,1.62A0.473,0.473,0,0,0,1459.47,930.375Zm-0.34,15.675a0.506,0.506,0,0,1,.49.54c-0.19,3.765-4.08,5.88-6.94,7.469a0.256,0.256,0,0,1-.27-0.434c2.37-1.5,6-3.57,6.12-6.765a0.2,0.2,0,0,0-.18-0.2h-6.44a0.308,0.308,0,1,1,0-.615h7.22Zm-0.8-2.43a0.308,0.308,0,1,0,0-.615h-5.29a0.308,0.308,0,1,0,0,.615h5.29Zm0.77,16.821a0.512,0.512,0,0,0-1.02.045v0.03c0,1.68-1.34,2.985-2.64,3.99a28.555,28.555,0,0,1-5.33,3.24,0.255,0.255,0,0,0,.24.45,36.077,36.077,0,0,0,5.27-2.865,0.038,0.038,0,0,1,.06.03v6.164a0.5,0.5,0,0,0,.99,0V964.6a0.115,0.115,0,0,1,.04-0.105A5.4,5.4,0,0,0,1459.1,960.441Zm-7.16,19.9a0.308,0.308,0,0,0,0,.615h6.68a0.163,0.163,0,0,1,.16.18,5.841,5.841,0,0,1-.55,2.25,9.2,9.2,0,0,1-1.98,2.61,18.636,18.636,0,0,1-4.82,3.239,0.26,0.26,0,0,0,.23.465,20.511,20.511,0,0,0,5.52-3.45,7.882,7.882,0,0,0,2.74-5.354V980.88a0.492,0.492,0,0,0-.48-0.54h-7.5Z" transform="translate(-1449.38 -871.125)"/>
</svg>
