<svg xmlns="http://www.w3.org/2000/svg" width="14.22" height="103.031" viewBox="0 0 14.22 103.031">
  <defs>
    <style>
      .cls-1 {
        fill-rule: evenodd;
      }
    </style>
  </defs>
  <path id="txt_nav005.svg" class="cls-1" d="M1255.41,873.67a13.46,13.46,0,0,0,.46,2.775h-4.11V873.67h3.65Zm3.88-2.955v2.58h-7.53v-2.58h7.53Zm-7.32-.375a7.534,7.534,0,0,0-.85-0.435,0.172,0.172,0,0,0-.27.18v10.98q-0.9.135-1.68,0.225a0.192,0.192,0,0,0-.18.285,1.5,1.5,0,0,0,.61,1.124c0.14,0,.24-0.194.32-0.584a48.482,48.482,0,0,0,6.45-1.845,0.2,0.2,0,0,0,.15-0.255,0.21,0.21,0,0,0-.29-0.165,29.485,29.485,0,0,1-4.27,1.02l-0.2.03v-4.08h4.22a8.943,8.943,0,0,0,3.15,4.635,3.992,3.992,0,0,0,2.22.99,0.7,0.7,0,0,0,.69-0.57,0.271,0.271,0,0,0-.15-0.3,1.23,1.23,0,0,1-.32-1.02c0-.315.03-0.855,0.11-1.62a0.249,0.249,0,0,0-.12-0.27,0.182,0.182,0,0,0-.3.15c-0.27,1.59-.53,2.385-0.75,2.385a1.454,1.454,0,0,1-.6-0.315,8.292,8.292,0,0,1-3.09-4.17h4.62a0.267,0.267,0,0,0,.25-0.12,0.277,0.277,0,0,0-.01-0.315,8.786,8.786,0,0,0-.74-0.855,0.2,0.2,0,0,0-.33.03l-0.66.885h-3.25a12.894,12.894,0,0,1-.44-2.67h3.03v0.555a0.216,0.216,0,0,0,.24.24h0.42a0.212,0.212,0,0,0,.24-0.24V871.06l0.39-.255a0.22,0.22,0,0,0,.12-0.18,1.782,1.782,0,0,0-.76-0.81,0.225,0.225,0,0,0-.35.03l-0.42.5h-7.2Zm-0.22,23.27a20.159,20.159,0,0,0,1.26-2.535c0.46-.045.69-0.135,0.69-0.285a1.405,1.405,0,0,0-1.13-.6,0.221,0.221,0,0,0-.3.15,16.151,16.151,0,0,1-3.45,6.165,0.188,0.188,0,0,0-.04.284,0.222,0.222,0,0,0,.33.016,13.447,13.447,0,0,0,1.95-2.13v5.865a0.206,0.206,0,0,0,.22.239h0.39a0.221,0.221,0,0,0,.24-0.239v-6.195a0.667,0.667,0,0,0,.59-0.36C1252.5,893.805,1252.24,893.685,1251.75,893.61Zm3.31,5.835v-2.43h4.74v2.43h-4.74Zm4.74-5.07v2.265h-4.74v-2.265h4.74Zm-4.62-.375c-0.28-.15-0.52-0.27-0.73-0.36a0.174,0.174,0,0,0-.27.18v6.72a0.206,0.206,0,0,0,.22.239h0.42a0.221,0.221,0,0,0,.24-0.239v-0.72h4.74v0.72a0.216,0.216,0,0,0,.24.239h0.42a0.213,0.213,0,0,0,.23-0.239v-5.91l0.34-.225a0.247,0.247,0,0,0,.14-0.195,1.731,1.731,0,0,0-.71-0.72,0.213,0.213,0,0,0-.34.03l-0.41.48h-2.82a12.278,12.278,0,0,0,1.07-2.025h3.63a0.27,0.27,0,0,0,.24-0.09,0.238,0.238,0,0,0-.03-0.315,5.54,5.54,0,0,0-.65-0.63,0.213,0.213,0,0,0-.33.015l-0.55.645h-6.83c-0.16,0-.25.075-0.21,0.195a0.279,0.279,0,0,0,.27.18h3.24a15.292,15.292,0,0,1-.3,2.025h-1.26Zm-4.5-4.77-0.06-.345a0.211,0.211,0,0,0-.16-0.225,0.229,0.229,0,0,0-.27.21,3.4,3.4,0,0,1-.95,2.22,0.64,0.64,0,0,0-.22.45,0.505,0.505,0,0,0,.18.39,0.6,0.6,0,0,0,.4.165,0.788,0.788,0,0,0,.66-0.5,3.715,3.715,0,0,0,.44-1.875v-0.12h9.87a6.277,6.277,0,0,1-.48.975,0.2,0.2,0,0,0-.02.27,0.255,0.255,0,0,0,.33.045c0.38-.255.74-0.51,1.07-0.78l0.58-.075c0.14-.015.2-0.06,0.2-0.165a3,3,0,0,0-.98-1.2,0.19,0.19,0,0,0-.33.015l-0.43.54h-4.64v-1.17a0.86,0.86,0,0,0,.66-0.435q0-.315-1.26-0.36a0.217,0.217,0,0,0-.25.24v1.725h-4.34Zm10.41,21.582a4.283,4.283,0,0,0-3.79-1.965,20.159,20.159,0,0,0-6.03,1c-0.48.135-.78,0.225-0.89,0.24a0.525,0.525,0,0,1-.75-0.4,0.285,0.285,0,0,0-.54.18,1.73,1.73,0,0,0,.72,1.125,2.2,2.2,0,0,0,1.73-.21,18.112,18.112,0,0,1,5.71-1.125,3.337,3.337,0,0,1,3.03,1.56,2.5,2.5,0,0,1,.12,1.665,3.726,3.726,0,0,1-2.38,2.31,14.84,14.84,0,0,1-4.86.945,0.271,0.271,0,0,0,.01.54h0.02a15.488,15.488,0,0,0,5.11-.765,4.594,4.594,0,0,0,2.97-2.79A3.01,3.01,0,0,0,1261.09,910.812Zm-1.83,13.323a0.167,0.167,0,0,0-.1.315,4.99,4.99,0,0,1,1.8,1.77c0.19,0.329.57,0.27,0.61-.165C1261.63,924.885,1259.55,924.15,1259.26,924.135Zm1.29-.885a0.172,0.172,0,0,0-.07.33,4.917,4.917,0,0,1,1.87,1.665c0.2,0.33.6,0.255,0.6-.18C1262.95,923.88,1260.85,923.265,1260.55,923.25Zm0.92,11.129a9.209,9.209,0,0,0-2.82-1.14c-0.05,0-.06-0.029-0.06-0.075V928.62a0.065,0.065,0,0,1,.06-0.06h0.61a2.671,2.671,0,0,0,1.59-.525,2.213,2.213,0,0,0,.45-0.54V927.48a0.307,0.307,0,0,0-.55-0.27c-0.11.105-.17,0.225-0.29,0.329a1.845,1.845,0,0,1-1.21.406h-0.6a0.065,0.065,0,0,1-.06-0.06v-2.85a0.451,0.451,0,1,0-.9.03l-0.02,2.82a0.053,0.053,0,0,1-.06.06h-0.48a7.081,7.081,0,0,0-1.24.044,4.7,4.7,0,0,0-3.17,2.1,8.131,8.131,0,0,0-1.02,2.64c-0.01.136-.24,0.121-0.27,0a8.883,8.883,0,0,1-.25-2.5,16.8,16.8,0,0,1,.19-2.131,9.844,9.844,0,0,0,.15-1.2,0.437,0.437,0,0,0-.87-0.045,24.358,24.358,0,0,0-.31,3.7,10.574,10.574,0,0,0,.82,3.765,0.393,0.393,0,0,0,.75-0.135,6.734,6.734,0,0,1,.41-1.889,6.535,6.535,0,0,1,.87-1.9,4.093,4.093,0,0,1,2.79-1.815,9.657,9.657,0,0,1,1.15-.015h0.48a0.053,0.053,0,0,1,.06.06v4.454c0,0.015,0,.03-0.01.03-0.41-.059-0.8-0.105-1.22-0.135a3.194,3.194,0,0,0-1.95.375,1.172,1.172,0,0,0,.14,2.085,3.451,3.451,0,0,0,2.22.3,2.449,2.449,0,0,0,1.15-.419,1.711,1.711,0,0,0,.57-1.261c0-.045.02-0.1,0.06-0.075a10.614,10.614,0,0,1,2.36,1.246A0.484,0.484,0,0,0,1261.47,934.379Zm-3.8-.614a1.757,1.757,0,0,1-.25.915,1.236,1.236,0,0,1-.71.374,3.036,3.036,0,0,1-1.8-.135,0.608,0.608,0,0,1-.13-1.125,2.41,2.41,0,0,1,1.62-.3,6.5,6.5,0,0,1,1.21.194C1257.66,933.689,1257.67,933.719,1257.67,933.765Zm2.34,12.205a1.637,1.637,0,0,1-1.57.72h-0.6a0.071,0.071,0,0,1-.08-0.059,11.787,11.787,0,0,1-.91-4.14v-0.015a0.466,0.466,0,0,0-.93.06c0.01,0.12.03,0.33,0.03,0.33a13.509,13.509,0,0,0,.87,3.765,0.055,0.055,0,0,1-.05.059h-2.95a0.046,0.046,0,0,1-.02-0.09c0.84-.329,1.8-0.764,1.85-1.62,0.09-1.709-2.63-1.574-3.78-1.5a0.4,0.4,0,0,0,.06.795c1.17-.075,2.55-0.255,3.04.39,0.78,1-2.32,1.89-2.79,2.01a0.355,0.355,0,0,0-.34.33,0.314,0.314,0,0,0,.31.3h4.86a0.113,0.113,0,0,1,.08.06c0.15,0.36.3,0.72,0.46,1.1,0.23,0.465.39,0.869,0.42,0.944,0.08,0.27-.15.39-0.67,0.256a8.151,8.151,0,0,0-4.26-.36,1.99,1.99,0,0,0-1.59,2.2c0.24,1.365,1.89,1.83,2.98,2.01a13.464,13.464,0,0,0,3.39-.015h0.02a0.484,0.484,0,0,0-.11-0.96,12.711,12.711,0,0,1-3.18.075c-0.84-.075-2.11-0.329-2.37-1.244a1.388,1.388,0,0,1,1.04-1.486,5.184,5.184,0,0,1,2.98.105,9.653,9.653,0,0,0,1.73.435,0.977,0.977,0,0,0,.78-0.329c0.45-.63-0.12-1.561-0.33-2a6.558,6.558,0,0,1-.32-0.735c-0.01-.031,0-0.06.33-0.06a2.292,2.292,0,0,0,2.18-1.066A0.311,0.311,0,0,0,1260.01,945.97Zm-10.93,18.365c-0.09.09-.08,0.18,0.03,0.3a3.449,3.449,0,0,1,.87,1.8,0.527,0.527,0,0,0,.46.6,0.5,0.5,0,0,0,.54-0.6c0-.689-0.52-1.394-1.6-2.1A0.209,0.209,0,0,0,1249.08,964.335Zm4.86,7.32c-0.17,0-.26.075-0.21,0.2a0.272,0.272,0,0,0,.27.18h7.45a0.286,0.286,0,0,0,.27-0.151,0.225,0.225,0,0,0-.01-0.314c-0.23-.27-0.45-0.525-0.69-0.766a0.2,0.2,0,0,0-.33.016l-0.63.84h-2V967.26h3.84a0.249,0.249,0,0,0,.26-0.12,0.237,0.237,0,0,0-.02-0.315,8.833,8.833,0,0,0-.69-0.8,0.191,0.191,0,0,0-.33.03l-0.6.824h-2.46v-2.549a0.784,0.784,0,0,0,.62-0.42c0-.21-0.41-0.345-1.25-0.36a0.2,0.2,0,0,0-.25.225v3.1h-3.59c-0.18,0-.27.09-0.21,0.211a0.285,0.285,0,0,0,.29.165h3.51v4.395h-3.24Zm-0.95-8.76a0.216,0.216,0,0,0,.24.24h0.36a0.221,0.221,0,0,0,.24-0.24V961.74h3.18V962.9a0.216,0.216,0,0,0,.24.24h0.36a0.221,0.221,0,0,0,.24-0.24V961.74h3.9a0.27,0.27,0,0,0,.24-0.09,0.259,0.259,0,0,0-.04-0.33q-0.345-.383-0.72-0.765a0.2,0.2,0,0,0-.33.03l-0.63.78h-2.42V960.15a0.82,0.82,0,0,0,.62-0.4c0-.18-0.41-0.285-1.2-0.345a0.211,0.211,0,0,0-.26.225v1.74h-3.18V960.09a0.721,0.721,0,0,0,.6-0.405c0-.18-0.4-0.285-1.18-0.315a0.227,0.227,0,0,0-.26.24v1.755h-3.76c-0.18,0-.27.075-0.23,0.195a0.27,0.27,0,0,0,.27.18h3.72V962.9Zm-1.11,9.645a0.221,0.221,0,0,0,.24.239h0.38a0.206,0.206,0,0,0,.22-0.239v-8.28a0.75,0.75,0,0,0,.62-0.4c0-.21-0.39-0.33-1.2-0.375a0.211,0.211,0,0,0-.26.225v4.14a15.627,15.627,0,0,1-2.86,2.07,0.227,0.227,0,0,0-.08.329,1.614,1.614,0,0,0,.71.946c0.13,0,.21-0.211.22-0.661a17.823,17.823,0,0,0,2.01-2.1v4.111Z" transform="translate(-1248.75 -869.75)"/>
</svg>
