<svg xmlns="http://www.w3.org/2000/svg" width="13.282" height="100.313" viewBox="0 0 13.282 100.313">
  <defs>
    <style>
      .cls-1 {
        fill-rule: evenodd;
      }
    </style>
  </defs>
  <path id="txt_nav001.svg" class="cls-1" d="M548.564,876.054c-1.8-1.1-4.124-.195-5.759.525a0.045,0.045,0,0,1-.06-0.045v-2.265a0.065,0.065,0,0,1,.06-0.06,3.746,3.746,0,0,0,1.92-.555,0.306,0.306,0,0,0-.36-0.5,3.492,3.492,0,0,1-1.56.42,0.045,0.045,0,0,1-.06-0.045V871.3a0.413,0.413,0,0,0-.825,0v2.25a0.069,0.069,0,0,1-.075.06h-1.83a0.308,0.308,0,0,0,0,.615h1.83a0.069,0.069,0,0,1,.075.06v2.655a0.1,0.1,0,0,1-.06.09c-0.39.21-.78,0.435-1.155,0.675-0.675.405-1.71,0.96-1.515,1.92a2.678,2.678,0,0,0,1.83,1.59,1.3,1.3,0,0,0,1.59-.915,4.707,4.707,0,0,0,.135-1.47v-1.575a0.123,0.123,0,0,1,.06-0.09c1.41-.69,3.69-1.53,5.16-0.585a2.151,2.151,0,0,1,.974,2.025c-0.195,1.92-2.489,2.31-3.959,1.6a2.606,2.606,0,0,1-.96-0.795h-0.015a0.259,0.259,0,0,0-.42.3c0.015,0,.09.12,0.255,0.315a3.006,3.006,0,0,0,.87.69c1.965,1.095,5.144.375,5.219-2.265A2.679,2.679,0,0,0,548.564,876.054Zm-6.659,2.775a4.226,4.226,0,0,1-.12,1.2,0.484,0.484,0,0,1-.675.33,2.069,2.069,0,0,1-1.245-.945c-0.075-.51.645-0.915,1-1.14,0.315-.21.645-0.42,0.975-0.615a0.038,0.038,0,0,1,.06.03C541.905,878.064,541.92,878.439,541.905,878.829Zm8.549-6.06a3.479,3.479,0,0,0-4.574-.315,0.263,0.263,0,0,0,.27.45c1.484-.855,2.55-0.555,3.794.5A0.406,0.406,0,0,0,550.454,872.769Zm-4.289,21.79v2.82H542.49v-2.82h3.675Zm-3.45-.375a4.208,4.208,0,0,0-.8-0.33,0.182,0.182,0,0,0-.27.195v4.38a0.208,0.208,0,0,0,.24.24h0.375a0.2,0.2,0,0,0,.225-0.24v-0.675h3.675v0.509a0.2,0.2,0,0,0,.225.241h0.375a0.209,0.209,0,0,0,.24-0.241v-3.434l0.33-.21a0.238,0.238,0,0,0,.134-0.2,1.57,1.57,0,0,0-.7-0.75,0.231,0.231,0,0,0-.345.045l-0.39.465h-3.315Zm-3.345-3.975h3.345v1.53H539.37v-1.53Zm3.345-1.815v1.44H539.37v-1.44h3.345Zm-3.39-.48c-0.2-.105-0.39-0.195-0.57-0.285s-0.285,0-.285.18v12.719a0.21,0.21,0,0,0,.24.226h0.435a0.2,0.2,0,0,0,.225-0.226v-8.414h3.345v0.5a0.214,0.214,0,0,0,.24.24h0.375a0.214,0.214,0,0,0,.24-0.24v-3.99l0.285-.225a0.232,0.232,0,0,0,.105-0.18,1.73,1.73,0,0,0-.63-0.69,0.241,0.241,0,0,0-.345.03l-0.36.465H539.52Zm6.7,3.825v-1.53h3.524v1.53H546.03Zm3.524-3.345v1.44H546.03v-1.44h3.524Zm-3.344-.375a8.194,8.194,0,0,0-.75-0.33,0.182,0.182,0,0,0-.27.2v4.68a0.208,0.208,0,0,0,.24.24h0.36a0.208,0.208,0,0,0,.24-0.24v-0.45h3.524v6.869a0.41,0.41,0,0,1-.48.436c-0.569,0-1.23-.03-1.965-0.09-0.164-.015-0.254.03-0.254,0.15a0.237,0.237,0,0,0,.225.255,6.733,6.733,0,0,1,1.514.36,0.56,0.56,0,0,1,.3.344,0.244,0.244,0,0,0,.27.211,3.31,3.31,0,0,0,.705-0.15,0.952,0.952,0,0,0,.585-1V888.649l0.315-.225a0.217,0.217,0,0,0,.12-0.18,1.835,1.835,0,0,0-.675-0.75,0.229,0.229,0,0,0-.345.03l-0.42.5H546.21Zm4.3,26.32c0-1.574-.93-4.245-2.865-4.574a3.664,3.664,0,0,0-3.644,2.085,17.941,17.941,0,0,0-1.335,3.074,1.123,1.123,0,0,1-.51.765,1.293,1.293,0,0,1-.915-0.69,6.745,6.745,0,0,1-.855-3.974,3.194,3.194,0,0,0-.21-1.8,1.441,1.441,0,0,0-1.275-.48,0.285,0.285,0,0,0,0,.57c0.5-.046.51,0.465,0.51,0.81a13.493,13.493,0,0,0,.345,3.884c0.27,0.856,1.35,2.985,2.55,2.55a1.5,1.5,0,0,0,.78-1.02c0.21-.555.375-1.124,0.57-1.694,0.45-1.306,1.035-2.671,2.265-3.24a2.169,2.169,0,0,1,2.8.81,6.083,6.083,0,0,1,.66,3.014A0.564,0.564,0,0,0,550.514,914.339Zm-9.284,14.6c-0.18,0-.27.09-0.2,0.21a0.251,0.251,0,0,0,.27.165h6.419a0.256,0.256,0,0,0,.256-0.12,0.241,0.241,0,0,0-.046-0.33c-0.254-.255-0.48-0.5-0.689-0.69a0.2,0.2,0,0,0-.33.03l-0.585.735h-5.1Zm3.6-4.755a0.811,0.811,0,0,0,.66-0.315c0-.165-0.39-0.315-1.185-0.465a0.247,0.247,0,0,0-.3.135,15.254,15.254,0,0,1-5.985,6.4c-0.12.075-.165,0.165-0.09,0.27a0.236,0.236,0,0,0,.315.075,13.993,13.993,0,0,0,6.345-5.685,16.877,16.877,0,0,0,5.789,5.085,0.228,0.228,0,0,0,.315-0.09,1.948,1.948,0,0,1,.39-0.465c0.12-.12.12-0.24-0.045-0.315a17.545,17.545,0,0,1-6.209-4.62v-0.015Zm2.88,7.619v3.525h-6.555v-3.525h6.555Zm-6.345-.375c-0.315-.164-0.6-0.284-0.825-0.389a0.184,0.184,0,0,0-.27.2V936.5a0.221,0.221,0,0,0,.24.241h0.42a0.21,0.21,0,0,0,.225-0.241v-0.8h6.555v0.8a0.221,0.221,0,0,0,.239.241h0.42a0.21,0.21,0,0,0,.225-0.241v-4.394l0.4-.285a0.252,0.252,0,0,0,.135-0.165,2.6,2.6,0,0,0-.794-0.795,0.221,0.221,0,0,0-.346.029l-0.45.54h-6.179Zm8.594,16.105a3.441,3.441,0,0,0-2.865-1.68,6.658,6.658,0,0,0-4.3,1.575,0.051,0.051,0,0,1-.075-0.045v-4.86a0.428,0.428,0,1,0-.855,0v5.566a0.152,0.152,0,0,1-.06.1,24.134,24.134,0,0,0-1.785,1.7,0.071,0.071,0,0,1-.12-0.075c0.4-.75.81-1.5,1.155-2.28a3.582,3.582,0,0,0,.375-1.724c-0.06-1.275-1.6-1.515-2.625-1.425h-0.015l-0.015.014a0.378,0.378,0,0,0,.09.75c0.645-.03,1.845-0.134,1.935.72a3.045,3.045,0,0,1-.285,1.44c-0.39.93-.855,1.845-1.335,2.73l-0.615,1.02a0.627,0.627,0,0,0-.135.78,0.372,0.372,0,0,0,.51,0l0.015-.03c0.945-.975,1.77-1.815,2.835-2.8a0.045,0.045,0,0,1,.075.03v4.545a0.428,0.428,0,1,0,.855,0v-5.355a0.159,0.159,0,0,1,.06-0.09,5.989,5.989,0,0,1,4.26-1.679,2.593,2.593,0,0,1,2.129,1.484,2.682,2.682,0,0,1,.2,1.275,3.051,3.051,0,0,1-1.23,2.115,5.272,5.272,0,0,1-3.269.87h-0.015a0.263,0.263,0,0,0-.015.525,5.89,5.89,0,0,0,3.749-.72,3.5,3.5,0,0,0,1.785-2.715A3.259,3.259,0,0,0,549.959,947.538Zm1.11,15.764a0.309,0.309,0,0,0-.555-0.27,1.662,1.662,0,0,1-1.575.72h-1.455a0.055,0.055,0,0,1-.059-0.061v-2.535a0.428,0.428,0,1,0-.855,0v2.535a0.055,0.055,0,0,1-.06.061h-4.1a0.061,0.061,0,0,1-.075-0.061v-2.549a0.445,0.445,0,1,0-.885.014l0.015,2.535a0.05,0.05,0,0,1-.06.061h-3.195a0.3,0.3,0,1,0,0,.6h3.195a0.06,0.06,0,0,1,.075.059l0.015,3.84a2.854,2.854,0,0,0,2.685,2.836,13.136,13.136,0,0,0,3.42.015,0.413,0.413,0,1,0-.105-0.811,11.773,11.773,0,0,1-3.165.045,2.078,2.078,0,0,1-1.98-2.159c-0.03-.406-0.03-0.856-0.015-3.766a0.055,0.055,0,0,1,.06-0.059h4.11a0.055,0.055,0,0,1,.06.059v1.846a0.123,0.123,0,0,1-.21.09l-0.345-.36-0.195-.18c-0.255-.3-0.66.149-0.405,0.4l0.2,0.194a2.275,2.275,0,0,1,.96,1.485,0.428,0.428,0,1,0,.855,0v-3.48a0.054,0.054,0,0,1,.059-0.059h1.455A2.257,2.257,0,0,0,551.069,963.3Z" transform="translate(-537.906 -870.906)"/>
</svg>
