<svg xmlns="http://www.w3.org/2000/svg" width="15.906" height="149.871" viewBox="0 0 15.906 149.871">
  <defs>
    <style>
      .cls-1 {
        fill-rule: evenodd;
      }
    </style>
  </defs>
  <path id="txt_nav002.svg" class="cls-1" d="M639.685,882.526a0.221,0.221,0,0,0,.24.24H640.3a0.21,0.21,0,0,0,.225-0.24v-7.65a4.9,4.9,0,0,1,.9,1.786,0.546,0.546,0,0,0,.435.509,0.451,0.451,0,0,0,.465-0.555c0-.735-0.6-1.5-1.8-2.324V873h1.725a0.28,0.28,0,0,0,.255-0.121,0.27,0.27,0,0,0-.03-0.314,7.551,7.551,0,0,0-.525-0.645,0.192,0.192,0,0,0-.345.015l-0.48.69h-0.6v-2.49a0.782,0.782,0,0,0,.645-0.4c0-.211-0.4-0.345-1.23-0.4a0.209,0.209,0,0,0-.255.225v3.075H637.99c-0.165,0-.255.074-0.21,0.18a0.258,0.258,0,0,0,.27.195h1.62l-0.045.254a20.094,20.094,0,0,1-2.04,6.075,0.2,0.2,0,0,0,.045.285,0.2,0.2,0,0,0,.315-0.074,18.34,18.34,0,0,0,1.74-3.856v6.84Zm5.04-3.434v-1.8H648.2v1.8h-3.479Zm3.479,2.339h-3.479v-1.964H648.2v1.964Zm-2.849-6.584a11.487,11.487,0,0,0,.615-1.591h0.945a9.946,9.946,0,0,0,.705,1.591h-2.265Zm-1.47,7.679a0.214,0.214,0,0,0,.24.24H644.5a0.21,0.21,0,0,0,.225-0.24v-0.72H648.2v0.72a0.214,0.214,0,0,0,.24.24h0.39a0.21,0.21,0,0,0,.225-0.24v-4.935l0.21-.134a0.12,0.12,0,0,0,.075-0.106,1.532,1.532,0,0,0-.66-0.614,0.291,0.291,0,0,0-.344,0l-0.211.18H644.74l-0.27-.121-0.285-.12,0.03-.06a9.008,9.008,0,0,0,.945-1.395h2.684a10.2,10.2,0,0,0,2.835,2.895,0.209,0.209,0,0,0,.33-0.06,2.308,2.308,0,0,1,.315-0.345c0.135-.105.12-0.225-0.03-0.315a10.34,10.34,0,0,1-2.7-2.175h2.265a0.256,0.256,0,0,0,.24-0.09,0.252,0.252,0,0,0-.03-0.33,6.12,6.12,0,0,0-.435-0.494l-0.15-.151a0.2,0.2,0,0,0-.33.016l-0.54.675h-1.32a9.234,9.234,0,0,1-.944-1.591h2.384a0.229,0.229,0,0,0,.225-0.074,0.251,0.251,0,0,0-.015-0.33,4.567,4.567,0,0,0-.435-0.5l-0.12-.121a0.2,0.2,0,0,0-.33.031l-0.48.614H646.09c0.15-.584.255-1.034,0.3-1.334h3.974a0.279,0.279,0,0,0,.24-0.09,0.252,0.252,0,0,0-.03-0.33,8.454,8.454,0,0,0-.615-0.66,0.2,0.2,0,0,0-.33.015l-0.54.69h-2.624c0.03-.225.1-0.615,0.18-1.14a0.656,0.656,0,0,0,.585-0.36c0-.225-0.391-0.375-1.185-0.45a0.225,0.225,0,0,0-.27.225c-0.06.675-.12,1.245-0.195,1.725h-3.03c-0.165,0-.255.074-0.21,0.195a0.262,0.262,0,0,0,.27.18h2.895a12.334,12.334,0,0,1-.3,1.334h-2.13c-0.165,0-.255.076-0.21,0.2a0.274,0.274,0,0,0,.27.179h1.95a9.435,9.435,0,0,1-.615,1.591h-2.145c-0.18,0-.27.075-0.21,0.194a0.275,0.275,0,0,0,.27.18h1.89a10.075,10.075,0,0,1-2.85,3.331,0.21,0.21,0,0,0-.075.285,0.213,0.213,0,0,0,.33.044,12.678,12.678,0,0,0,2.205-1.859v5.5Zm2.88,7.635a3.291,3.291,0,0,0,.21-0.795H650.2a0.276,0.276,0,0,0,.24-0.09,0.268,0.268,0,0,0-.03-0.329c-0.21-.241-0.42-0.465-0.63-0.691a0.2,0.2,0,0,0-.33.03l-0.525.705h-1.889c0.015-.345.03-0.584,0.03-0.749v-0.27a0.71,0.71,0,0,0,.555-0.375c0-.165-0.375-0.256-1.141-0.3a0.208,0.208,0,0,0-.254.225v0.7a5.809,5.809,0,0,1-.045.764h-2.7c-0.2,0-.27.09-0.21,0.211a0.251,0.251,0,0,0,.27.164h2.58a3.89,3.89,0,0,1-2.67,2.805c-0.15.06-.21,0.15-0.165,0.24a0.271,0.271,0,0,0,.315.135,4.375,4.375,0,0,0,3.015-2.054,5.433,5.433,0,0,1,2.189,1.514,0.777,0.777,0,0,0,.525.345,0.428,0.428,0,0,0,.48-0.48C649.809,891.2,648.8,890.626,646.765,890.161Zm-0.135,4.8v2.325h-1.9v-2.325h1.9Zm-1.7-.375c-0.3-.135-0.54-0.225-0.75-0.315a0.173,0.173,0,0,0-.27.18v4.08a0.2,0.2,0,0,0,.24.225H644.5a0.2,0.2,0,0,0,.225-0.225v-0.87h1.9v0.555a0.2,0.2,0,0,0,.225.225h0.315a0.2,0.2,0,0,0,.224-0.225v-3l0.391-.27a0.172,0.172,0,0,0,.105-0.135,2.018,2.018,0,0,0-.676-0.689,0.222,0.222,0,0,0-.329.029l-0.36.435h-1.59Zm3.9,4.425a0.445,0.445,0,0,1-.54.465c-0.494,0-1.08-.03-1.769-0.09-0.165-.015-0.255.045-0.255,0.15a0.237,0.237,0,0,0,.225.255,6.163,6.163,0,0,1,1.274.27,0.7,0.7,0,0,1,.45.42,0.224,0.224,0,0,0,.255.21,1.124,1.124,0,0,0,1.2-1.245v-6.2h1.53a0.221,0.221,0,0,0,.24-0.105,0.255,0.255,0,0,0-.045-0.315,7.171,7.171,0,0,0-.63-0.675,0.192,0.192,0,0,0-.33.03l-0.51.69H642.6v-2.294a0.84,0.84,0,0,0,.6-0.421c0-.18-0.375-0.314-1.125-0.36a0.209,0.209,0,0,0-.255.226v7.409H640.78v-9a0.881,0.881,0,0,0,.6-0.42c0-.179-0.375-0.285-1.155-0.314a0.215,0.215,0,0,0-.255.225v9.509h-1v-6.9a0.759,0.759,0,0,0,.6-0.39c0-.18-0.375-0.3-1.14-0.345a0.209,0.209,0,0,0-.255.226v9.224a0.214,0.214,0,0,0,.24.24h0.33a0.21,0.21,0,0,0,.225-0.24v-1.44h2.85v0.96a0.214,0.214,0,0,0,.24.24h0.3a0.208,0.208,0,0,0,.24-0.24v-5.52h6.239v5.76Zm-1.739,7.544a0.163,0.163,0,0,0-.06.315,5.121,5.121,0,0,1,1.919,1.62c0.24,0.315.585,0.225,0.615-.21C649.539,907.11,647.394,906.54,647.1,906.555Zm1.23-.99a0.177,0.177,0,0,0-.046.345,4.748,4.748,0,0,1,2,1.515,0.318,0.318,0,0,0,.585-0.24C650.754,906,648.624,905.565,648.325,905.565Zm-5.445,3.585a0.06,0.06,0,0,1-.06-0.075c0.015-.45.045-0.9,0.045-1.35v-0.48a0.5,0.5,0,0,0-1,.015c0,0.165.015,0.465,0.015,0.465,0,0.45,0,.9-0.015,1.35a0.071,0.071,0,0,1-.075.075h-2.2a0.27,0.27,0,1,0,0,.54h2.19a0.069,0.069,0,0,1,.06.075,13.687,13.687,0,0,1-.435,2.775,12.971,12.971,0,0,1-2.25,4.41l-0.015.014a0.473,0.473,0,0,0,.765.555,15.384,15.384,0,0,0,2.355-4.769,14.66,14.66,0,0,0,.525-2.985,0.069,0.069,0,0,1,.06-0.075h2.025a0.27,0.27,0,0,0,0-.54h-1.98Zm6.809,7.349a0.014,0.014,0,0,1-.015-0.014h-0.105c-0.779.014-2.5,0.134-3.209-.45a1.783,1.783,0,0,1-.03-2.431,11.72,11.72,0,0,1,2.729-2.444c0.27-.195.8-0.525,0.375-0.915a4.828,4.828,0,0,0-3.3-1.065,0.264,0.264,0,0,0-.045.525,4.648,4.648,0,0,1,2.459.93,0.24,0.24,0,0,1,0,.375c-0.209.15-.584,0.42-0.854,0.63-1.065.825-2.25,1.8-2.445,3.255a1.993,1.993,0,0,0,1.1,2.145,5.676,5.676,0,0,0,2.445.405,2.534,2.534,0,0,0,1-.075A0.473,0.473,0,0,0,649.689,916.5Zm-0.435,10.751a0.4,0.4,0,1,0-.615-0.509c-0.705.915-2.219,1.409-3.014,0.254a10.955,10.955,0,0,1-.705-1.8,3.768,3.768,0,0,0-.675-1.065c-0.375-.435-1.08.105-0.645,0.54,0.855,0.825.855,2.445,0.855,3.54v4.394a0.055,0.055,0,0,1-.06.06,7.306,7.306,0,0,0-3.6.03,1.806,1.806,0,0,0-1.035.87,1.28,1.28,0,0,0,.255,1.44c0.945,0.93,2.655.87,3.84,0.555a1.973,1.973,0,0,0,1.17-.855,2.5,2.5,0,0,0,.3-1.065c0-.045.03-0.06,0.06-0.045a17.924,17.924,0,0,1,3.135,1.545,0.493,0.493,0,0,0,.464-0.87,14.227,14.227,0,0,0-3.6-1.395,0.077,0.077,0,0,1-.06-0.075v-5.219a0.045,0.045,0,0,1,.075-0.031A2.556,2.556,0,0,0,649.254,927.25Zm-4.949,7.02a1.148,1.148,0,0,1-.69.585,3.229,3.229,0,0,1-3.15-.3c-0.555-.54.045-1.155,0.54-1.35a5.766,5.766,0,0,1,3.375.09,0.067,0.067,0,0,1,.06.075A2.645,2.645,0,0,1,644.3,934.27Zm3.719,12.426c-0.075-1.124-.555-2.969-1.814-3.6a2.033,2.033,0,0,0-2.055.27,4.461,4.461,0,0,0-1.185,1.395,5.823,5.823,0,0,0-.6,1.485,6.794,6.794,0,0,0-.27,1.575,0.045,0.045,0,0,1-.09,0,5.307,5.307,0,0,1-.135-1.65,19.319,19.319,0,0,1,.63-3.78,0.486,0.486,0,0,0-.96-0.15,22.828,22.828,0,0,0-.435,3.9,10.451,10.451,0,0,0,.57,3.661,0.42,0.42,0,0,0,.81-0.165,8.729,8.729,0,0,1,.96-4.59,3.962,3.962,0,0,1,1.05-1.185,1.348,1.348,0,0,1,1.395-.165c0.944,0.555,1.124,1.965,1.2,2.97a9.273,9.273,0,0,1-.12,1.71,7.122,7.122,0,0,1-2.4,4.53c-0.225.165-.465,0.285-0.69,0.45H643.87a0.263,0.263,0,0,0,.24.465,5.259,5.259,0,0,0,.81-0.436,7.462,7.462,0,0,0,2.97-4.754A6.94,6.94,0,0,0,648.024,946.7Zm-12.1,16.094a0.217,0.217,0,0,0,.33.075,13.189,13.189,0,0,1,13.949,0,0.2,0.2,0,0,0,.315-0.075l0.03-.031a0.236,0.236,0,0,0-.06-0.329,11.5,11.5,0,0,0-14.519,0,0.224,0.224,0,0,0-.06.329Zm12.1,4.275a0.168,0.168,0,0,0-.105.315,4.914,4.914,0,0,1,1.8,1.77c0.195,0.33.57,0.269,0.615-.165C650.394,967.815,648.309,967.08,648.024,967.065Zm1.29-.885a0.172,0.172,0,0,0-.075.33,4.927,4.927,0,0,1,1.875,1.665c0.195,0.33.6,0.255,0.6-.18C651.714,966.81,649.614,966.2,649.314,966.18Zm-8.369,3.135a0.308,0.308,0,0,0,0,.615h6.675a0.17,0.17,0,0,1,.165.18,5.883,5.883,0,0,1-.555,2.25,9.122,9.122,0,0,1-1.98,2.609,18.7,18.7,0,0,1-4.815,3.24,0.259,0.259,0,0,0,.225.465,20.433,20.433,0,0,0,5.52-3.45,7.891,7.891,0,0,0,2.744-5.355v-0.014a0.5,0.5,0,0,0-.48-0.54h-7.5Zm-0.51,17.1a0.51,0.51,0,0,0-.495.5v6.479a0.513,0.513,0,0,0,.495.511h8.144a0.513,0.513,0,0,0,.5-0.511V986.91a0.5,0.5,0,0,0-.5-0.5h-8.144Zm0.48,0.78a0.2,0.2,0,0,1,.2-0.2H647.9a0.2,0.2,0,0,1,.2.2v5.924a0.2,0.2,0,0,1-.2.195H641.11a0.2,0.2,0,0,1-.2-0.195V987.2Zm7.169,13.095a0.165,0.165,0,0,0-.1.31,5.041,5.041,0,0,1,1.8,1.77c0.2,0.33.57,0.27,0.615-.16C650.454,1001.04,648.369,1000.3,648.084,1000.29Zm1.29-.885a0.172,0.172,0,0,0-.075.33,5.013,5.013,0,0,1,1.875,1.665c0.2,0.33.6,0.25,0.6-.18C651.774,1000.03,649.674,999.42,649.374,999.405Zm-4.769,2.9a0.065,0.065,0,0,1-.06-0.06,8.378,8.378,0,0,0,.075-1.23c-0.045-.58-1-0.61-0.975.03a4.18,4.18,0,0,1-.165,1.67c-0.72,1.8-2.61,2.91-4.275,4.05a0.25,0.25,0,0,0,.27.42c1.695-1.01,4.02-2.13,4.875-4.2a0.1,0.1,0,0,1,.09-0.06h3.494a0.185,0.185,0,0,1,.18.19,7.151,7.151,0,0,1-2.954,4.97,23.925,23.925,0,0,1-5.295,3.12,0.253,0.253,0,0,0,.21.46,26.085,26.085,0,0,0,5.685-3.06,7.767,7.767,0,0,0,3.434-5.77v-0.03a0.469,0.469,0,0,0-.465-0.5h-4.124Zm5.917,13.85a0.193,0.193,0,0,0-.315-0.08,13.161,13.161,0,0,1-13.949,0,0.206,0.206,0,0,0-.33.08l-0.015.03a0.227,0.227,0,0,0,.06.33,11.5,11.5,0,0,0,14.519,0,0.24,0.24,0,0,0,.06-0.33Z" transform="translate(-635.875 -869.219)"/>
</svg>
