<svg xmlns="http://www.w3.org/2000/svg" width="13.47" height="150.968" viewBox="0 0 13.47 150.968">
  <defs>
    <style>
      .cls-1 {
        fill-rule: evenodd;
      }
    </style>
  </defs>
  <path id="txt_nav006.svg" class="cls-1" d="M1356.97,871.875a0.221,0.221,0,0,0,.24.24h0.34a0.213,0.213,0,0,0,.23-0.24v-0.81h3.97a0.256,0.256,0,0,0,.27-0.12,0.263,0.263,0,0,0-.03-0.315,5.821,5.821,0,0,0-.57-0.645l-0.09-.075a0.2,0.2,0,0,0-.33.03l-0.55.75h-2.67v-0.675a0.674,0.674,0,0,0,.54-0.39c0-.165-0.36-0.27-1.1-0.3a0.207,0.207,0,0,0-.25.225v1.14h-3.09v-0.645a0.891,0.891,0,0,0,.63-0.42c0-.18-0.41-0.285-1.2-0.315a0.221,0.221,0,0,0-.24.24v1.14h-3.83c-0.18,0-.27.075-0.22,0.195a0.272,0.272,0,0,0,.27.18h3.78v0.81a0.212,0.212,0,0,0,.24.24h0.33a0.216,0.216,0,0,0,.24-0.24v-0.81h3.09v0.81Zm-3.36,1.02v1.8h-2.09v-1.8h2.09Zm6,0v1.8h-2.25v-1.8h2.25Zm-3.06,1.8h-2.13v-1.8h2.13v1.8Zm3.06,0.584a0.207,0.207,0,0,0,.24.241h0.34a0.207,0.207,0,0,0,.24-0.241v-2.1l0.35-.224a0.261,0.261,0,0,0,.15-0.21,2.127,2.127,0,0,0-.74-0.705,0.212,0.212,0,0,0-.33.03l-0.39.45h-7.83l-0.21-.105c-0.18-.09-0.33-0.15-0.46-0.21a0.177,0.177,0,0,0-.27.18v2.94a0.209,0.209,0,0,0,.24.224h0.36a0.2,0.2,0,0,0,.22-0.224v-0.256h8.09v0.21Zm-1.82,3.15a11.721,11.721,0,0,1-4.05,2.881,18.25,18.25,0,0,1-4.17,1.124c-0.16.03-.24,0.136-0.16,0.24a0.246,0.246,0,0,0,.28.166q5.8-.632,8.96-4.021l0.46-.164a0.237,0.237,0,0,0,.21-0.18,2.263,2.263,0,0,0-.81-0.885,0.214,0.214,0,0,0-.34.029l-0.38.435h-3.55a8.313,8.313,0,0,0,.58-0.644c0.47-.03.72-0.105,0.72-0.241a1.492,1.492,0,0,0-1.03-.525,0.266,0.266,0,0,0-.33.09,10.63,10.63,0,0,1-4.35,3.45c-0.15.075-.2,0.15-0.15,0.24a0.243,0.243,0,0,0,.31.12,12.225,12.225,0,0,0,2.73-1.29,3.461,3.461,0,0,1,1.22,1.26,0.592,0.592,0,0,0,.46.39,0.4,0.4,0,0,0,.45-0.45c0-.48-0.6-0.945-1.78-1.424a8.4,8.4,0,0,0,.76-0.6h3.96Zm-7.44-2.279c-0.01-.135-0.04-0.285-0.06-0.421a0.241,0.241,0,0,0-.15-0.209,0.215,0.215,0,0,0-.25.225,3.034,3.034,0,0,1-.86,1.994,0.579,0.579,0,0,0-.18.376,0.508,0.508,0,0,0,.21.39,0.55,0.55,0,0,0,.35.134,0.825,0.825,0,0,0,.66-0.494,2.558,2.558,0,0,0,.31-1.441,0.767,0.767,0,0,0-.01-0.18h10.33a6.337,6.337,0,0,1-.58,1.141c-0.09.134-.09,0.224-0.02,0.285a0.223,0.223,0,0,0,.33.014,9.317,9.317,0,0,0,1.2-1l0.45-.09a0.21,0.21,0,0,0,.21-0.166,2.937,2.937,0,0,0-.85-1.08,0.191,0.191,0,0,0-.33.015l-0.44.511h-10.32Zm8.69,11.386c-0.08.09-.05,0.18,0.06,0.285a5.946,5.946,0,0,1,1.89,2.5,0.74,0.74,0,0,0,.6.57,0.652,0.652,0,0,0,.72-0.75,1.6,1.6,0,0,0-.44-1.035,5.839,5.839,0,0,0-2.55-1.635A0.2,0.2,0,0,0,1359.04,887.536Zm2.86,17.685a0.259,0.259,0,0,0,.21-0.45c-0.21-.27-0.45-0.555-0.72-0.84a0.191,0.191,0,0,0-.33.03l-0.64.885h-2.33v-4.319a0.966,0.966,0,0,0,.68-0.435c0-.21-0.45-0.331-1.37-0.39a0.207,0.207,0,0,0-.25.224v4.92h-3.53c-0.18,0-.25.075-0.22,0.18a0.252,0.252,0,0,0,.27.2h3.48v7.3a0.206,0.206,0,0,0,.22.24h0.48a0.221,0.221,0,0,0,.24-0.24v-7.3h3.81Zm-9.66-3.3v6.735h-2.02v-6.735h2.02Zm-1.92-.375a6.458,6.458,0,0,0-.7-0.389,0.172,0.172,0,0,0-.27.18v9.149a0.2,0.2,0,0,0,.22.24h0.41a0.21,0.21,0,0,0,.24-0.24v-1.455h2.02v0.87a0.2,0.2,0,0,0,.23.225h0.37a0.21,0.21,0,0,0,.24-0.225v-7.739l0.41-.256a0.174,0.174,0,0,0,.1-0.15,1.815,1.815,0,0,0-.7-0.75,0.224,0.224,0,0,0-.35.03l-0.4.51h-1.82Zm10.16,27.248a6.756,6.756,0,0,1-2.58-.166c-0.8-.329-0.83-1.244-1.43-1.784a2.156,2.156,0,0,0-2.34-.18,0.078,0.078,0,0,1-.09-0.121l3.32-3.029a1.273,1.273,0,0,0,.57-1,0.862,0.862,0,0,0-.99-0.63h-2.84c-0.13-.015-0.15-0.135-0.01-0.18,1.57-.555,3.4-1.155,2.86-2.415-0.39-.93-1.86-1.02-2.7-0.975a0.421,0.421,0,1,0,.05.84c0.54-.045,1.65-0.12,2.01.39,0.45,0.615-1.19,1.275-1.62,1.455-0.74.33-1.49,0.585-2.27,0.87a0.3,0.3,0,0,0,.11.585h4.3c0.26-.015.21,0.135,0.06,0.285-0.19.195-.39,0.39-6.6,6.225a0.4,0.4,0,0,0,.54.584l1.34-1.244c1.18-1.065,2.44-1.56,3.46-1.185a1.334,1.334,0,0,1,.66.915,2.369,2.369,0,0,0,1.88,1.65,11.286,11.286,0,0,0,2.32.09A0.488,0.488,0,0,0,1360.48,928.794Zm-2,12.726a2.225,2.225,0,0,0,2.13-1.065,0.306,0.306,0,0,0-.55-0.27,1.681,1.681,0,0,1-1.58.72h-1.75a0.071,0.071,0,0,1-.08-0.06V936.51a0.451,0.451,0,1,0-.9.015v4.335a0.065,0.065,0,0,1-.06.06h-2.41a0.077,0.077,0,0,1-.02-0.15,2.37,2.37,0,0,0,1.79-1.755c0.3-1.875-2.6-1.77-3.65-1.665-0.43.045-.39,0.78,0.05,0.75,0.49-.03,3.12-0.3,2.98.855-0.1,1.11-2.19,1.74-2.97,1.935a0.316,0.316,0,0,0,.03.63h4.2a0.065,0.065,0,0,1,.06.06v3.239a0.045,0.045,0,0,1-.06.046,6.788,6.788,0,0,0-3.52.09,1.4,1.4,0,0,0-.99,1.71,1.989,1.989,0,0,0,1.54,1.079,4.343,4.343,0,0,0,1.25.106,2.677,2.677,0,0,0,2.46-1.126,2.253,2.253,0,0,0,.21-0.884,0.046,0.046,0,0,1,.07-0.031,13.474,13.474,0,0,1,2.72,1.365,0.492,0.492,0,0,0,.46-0.869,11.235,11.235,0,0,0-3.18-1.2,0.1,0.1,0,0,1-.06-0.074v-3.45a0.071,0.071,0,0,1,.08-0.06h1.75Zm-2.85,4.83a2.017,2.017,0,0,1-1.69.81,2.938,2.938,0,0,1-2-.436,0.714,0.714,0,0,1,.2-1.154,2.46,2.46,0,0,1,1.27-.315,9.466,9.466,0,0,1,2.27.284,0.064,0.064,0,0,1,.06.076A2,2,0,0,1,1355.63,946.35Zm6.44,10.952a0.312,0.312,0,0,0-.56-0.27,1.639,1.639,0,0,1-1.57.72h-1.46a0.055,0.055,0,0,1-.06-0.06v-2.535a0.426,0.426,0,1,0-.85,0v2.535a0.055,0.055,0,0,1-.06.06h-4.1a0.058,0.058,0,0,1-.07-0.06v-2.55a0.447,0.447,0,1,0-.89.015l0.02,2.535a0.051,0.051,0,0,1-.06.06h-3.2a0.3,0.3,0,1,0,0,.6h3.2a0.059,0.059,0,0,1,.07.061l0.02,3.839a2.851,2.851,0,0,0,2.68,2.835,13.051,13.051,0,0,0,3.42.015,0.412,0.412,0,1,0-.1-0.809,11.81,11.81,0,0,1-3.17.044,2.085,2.085,0,0,1-1.98-2.16c-0.03-.4-0.03-0.854-0.01-3.764a0.055,0.055,0,0,1,.06-0.061h4.11a0.055,0.055,0,0,1,.06.061v1.844a0.122,0.122,0,0,1-.21.09l-0.35-.36-0.19-.18c-0.26-.3-0.66.151-0.41,0.406l0.2,0.2a2.289,2.289,0,0,1,.96,1.484,0.426,0.426,0,1,0,.85,0v-3.479a0.055,0.055,0,0,1,.06-0.061h1.46A2.266,2.266,0,0,0,1362.07,957.3Zm-0.48,21.4c0.09-.285-0.41-0.435-0.48-0.135a7.627,7.627,0,0,1-1.62,3.3,2.4,2.4,0,0,1-2.15.855,0.982,0.982,0,0,1-.73-0.645,4.975,4.975,0,0,1-.14-1.425,1.9,1.9,0,0,0-2.31-1.935,1.952,1.952,0,0,0-.55.225,0.081,0.081,0,0,1-.12-0.105,13.251,13.251,0,0,0,2.1-5.46c0.01-.18.01-0.315,0.01-0.57a0.511,0.511,0,0,0-1.02.015,11.058,11.058,0,0,1-1.69,5.325,56.943,56.943,0,0,1-3.06,4.95c-0.35.555,0.54,1.02,0.9,0.45a3.246,3.246,0,0,0,.22-0.45,20.085,20.085,0,0,1,1.62-2.655,2.769,2.769,0,0,1,1.71-1.185c0.86-.195,1.32.54,1.37,1.425a6.731,6.731,0,0,0,.09,1.665,1.868,1.868,0,0,0,.94,1.185,2.913,2.913,0,0,0,3.47-1.11A8.653,8.653,0,0,0,1361.59,978.7Zm0.33,17.728a6.626,6.626,0,0,0-3.5-3.014,0.291,0.291,0,0,0-.25.524,6.44,6.44,0,0,1,2.86,2.625,1,1,0,0,1-.21,1.5,3.359,3.359,0,0,1-1.59.375,0.263,0.263,0,0,0,.02.525,4.231,4.231,0,0,0,2.2-.345A1.664,1.664,0,0,0,1361.92,996.429Zm-7.61-2.73a0.049,0.049,0,0,1-.04-0.06,16.476,16.476,0,0,0,.31-2.895,0.455,0.455,0,1,0-.91-0.015,19.477,19.477,0,0,1-.14,2.115,6.542,6.542,0,0,1-.19.855,0.087,0.087,0,0,1-.08.061c-0.12.015-3.48,0.015-3.48,0.015a0.307,0.307,0,1,0,0,.614l3.29-.015a0.041,0.041,0,0,1,.04.06c-0.13.405-.28,0.81-0.45,1.2a20.577,20.577,0,0,1-2.77,4.466,2.179,2.179,0,0,0-.17.21,0.487,0.487,0,0,0,.12.65,0.477,0.477,0,0,0,.68-0.11,24.908,24.908,0,0,0,3-5.006c0.19-.465.37-0.96,0.52-1.439a0.087,0.087,0,0,1,.08-0.061c1.09-.06,2.26.015,2.4,1.17a6.252,6.252,0,0,1-1.22,3.585,9.143,9.143,0,0,1-.69.991,0.205,0.205,0,0,1-.34,0,5.3,5.3,0,0,0-.6-0.706l-0.2-.18a0.292,0.292,0,0,0-.42.405l0.2,0.195a1.635,1.635,0,0,1,.72,1.216,0.6,0.6,0,0,0,.16.37,0.453,0.453,0,0,0,.66-0.03l0.02-.01c0.16-.17.39-0.47,0.39-0.47a10.472,10.472,0,0,0,.88-1.3c0.81-1.35,1.91-3.75.96-5.084C1356.47,993.729,1355.42,993.67,1354.31,993.7Zm1.17,24.681a0.869,0.869,0,0,0-.64.27,0.9,0.9,0,0,0-.29.67,0.862,0.862,0,0,0,.51.84,0.779,0.779,0,0,0,.44.11,0.927,0.927,0,0,0,.69-0.3,0.888,0.888,0,0,0,.25-0.65,0.921,0.921,0,0,0-.43-0.79A1.085,1.085,0,0,0,1355.48,1018.38Zm0.02-1.23a0.2,0.2,0,0,0,.22-0.24v-0.3a4.887,4.887,0,0,1,.42-2.12,4.429,4.429,0,0,1,1.35-1.5,3.659,3.659,0,0,0,1.71-2.64,2.32,2.32,0,0,0-1.15-1.99,4.337,4.337,0,0,0-2.52-.7,4.386,4.386,0,0,0-2.85.91,2.3,2.3,0,0,0-.96,1.8,1.3,1.3,0,0,0,.4.99,1.108,1.108,0,0,0,.77.32,0.848,0.848,0,0,0,1-.91,0.694,0.694,0,0,0-.75-0.82,0.711,0.711,0,0,0-.64.39,1.957,1.957,0,0,1-.03-0.29,1.6,1.6,0,0,1,.7-1.21,3.358,3.358,0,0,1,2.16-.73,2.858,2.858,0,0,1,1.8.55,1.931,1.931,0,0,1,.77,1.6,3.84,3.84,0,0,1-1.17,2.41,6.357,6.357,0,0,0-.95,1.28,5.707,5.707,0,0,0-.54,2.58v0.38a0.216,0.216,0,0,0,.24.24h0.02Z" transform="translate(-1348.84 -869.312)"/>
</svg>
